<?xml version="1.0" encoding="utf-8"?>
<svg version="1.1" xmlns:xlink="http://www.w3.org/1999/xlink" width="106px" height="106px" xmlns="http://www.w3.org/2000/svg">
  <g transform="matrix(1 0 0 1 -2038 -1320 )">
    <path d="M 2091 1320  C 2120.68 1320  2144 1343.32  2144 1373  C 2144 1402.68  2120.68 1426  2091 1426  C 2061.32 1426  2038 1402.68  2038 1373  C 2038 1343.32  2061.32 1320  2091 1320  Z " fill-rule="nonzero" fill="#bbbbbb" stroke="none" />
    <path d="M 2091 1320.5  C 2120.4 1320.5  2143.5 1343.6  2143.5 1373  C 2143.5 1402.4  2120.4 1425.5  2091 1425.5  C 2061.6 1425.5  2038.5 1402.4  2038.5 1373  C 2038.5 1343.6  2061.6 1320.5  2091 1320.5  Z " stroke-width="1" stroke="#bbbbbb" fill="none" />
  </g>
</svg>