<?xml version="1.0" encoding="utf-8"?>
<svg version="1.1" xmlns:xlink="http://www.w3.org/1999/xlink" width="639px" height="241px" xmlns="http://www.w3.org/2000/svg">
  <defs>
    <mask fill="white" id="clip2">
      <path d="M 638.405405405406 15.8918918918919  C 638.405405405406 15.8918918918919  -242.675675675676 -19.2432432432433  65.4324324324325 15.8918918918919  C 373.540540540541 51.027027027027  284.351351351352 240.216216216216  284.351351351352 240.216216216216  L 581.648648648648 175.351351351351  L 638.405405405406 15.8918918918919  Z " fill-rule="evenodd" />
    </mask>
  </defs>
  <g transform="matrix(1 0 0 1 -4067 -276 )">
    <path d="M 638.405405405406 15.8918918918919  C 638.405405405406 15.8918918918919  -242.675675675676 -19.2432432432433  65.4324324324325 15.8918918918919  C 373.540540540541 51.027027027027  284.351351351352 240.216216216216  284.351351351352 240.216216216216  L 581.648648648648 175.351351351351  L 638.405405405406 15.8918918918919  Z " fill-rule="nonzero" fill="#ffc220" stroke="none" transform="matrix(1 0 0 1 4067 276 )" />
    <path d="M 638.405405405406 15.8918918918919  C 638.405405405406 15.8918918918919  -242.675675675676 -19.2432432432433  65.4324324324325 15.8918918918919  C 373.540540540541 51.027027027027  284.351351351352 240.216216216216  284.351351351352 240.216216216216  L 581.648648648648 175.351351351351  L 638.405405405406 15.8918918918919  Z " stroke-width="2" stroke="#797979" fill="none" transform="matrix(1 0 0 1 4067 276 )" mask="url(#clip2)" />
  </g>
</svg>