<?xml version="1.0" encoding="utf-8"?>
<svg version="1.1" xmlns:xlink="http://www.w3.org/1999/xlink" width="70px" height="70px" xmlns="http://www.w3.org/2000/svg">
  <g transform="matrix(1 0 0 1 -598 -140 )">
    <path d="M 633 140  C 652.6 140  668 155.4  668 175  C 668 194.6  652.6 210  633 210  C 613.4 210  598 194.6  598 175  C 598 155.4  613.4 140  633 140  Z " fill-rule="nonzero" fill="#ffffff" stroke="none" />
    <path d="M 633 140.5  C 652.32 140.5  667.5 155.68  667.5 175  C 667.5 194.32  652.32 209.5  633 209.5  C 613.68 209.5  598.5 194.32  598.5 175  C 598.5 155.68  613.68 140.5  633 140.5  Z " stroke-width="1" stroke="#1f8aee" fill="none" />
  </g>
</svg>