<?xml version="1.0" encoding="utf-8"?>
<svg version="1.1" xmlns:xlink="http://www.w3.org/1999/xlink" width="220px" height="18px" viewBox="140 610  220 18" xmlns="http://www.w3.org/2000/svg">
  <g transform="matrix(0.51503807491005 0.857167300702114 -0.857167300702115 0.515038074910055 651.827040407097 85.8996064551473 )">
    <path d="M 201.046536908991 705.284149941268  C 200.68181498373 706.216177219659  200.31946351409 707.149130370129  199.959486014122 708.08300034499  L 200.8925646398 708.44267280474  C 201.251932446906 707.510384522786  201.613670202896 706.579011512401  201.977774399675 705.648562805947  L 201.046536908991 705.284149941268  Z M 202.518051868988 701.561017398053  C 202.147018736765 702.49055026198  201.778349727759 703.42102504967  201.412048417401 704.352432737183  L 202.342666842289 704.718423648628  C 202.708347749183 703.788593483605  203.076392344504 702.8596946385  203.446797058991 701.93173612168  L 202.518051868988 701.561017398053  Z M 204.01477762311 697.847948016963  C 203.63745034231 698.77494373081  203.262480743688 699.702897376655  202.889872463778 700.631799955008  L 203.817987902301 701.004092491562  C 204.189965096652 700.076763192803  204.564299610298 699.150381219492  204.940987812981 698.224955555588  L 204.01477762311 697.847948016963  Z M 205.536645358761 694.145112507921  C 205.153041277144 695.069528452719  204.77178832833 695.994918293565  204.39289020967 696.92127305612  L 205.318459991333 697.299850101477  C 205.696716371333 696.375064303336  206.077323593117 695.451241792619  206.460277965598 694.528391528464  L 205.536645358761 694.145112507921  Z M 207.083585107434 690.452681110343  C 206.693721861378 691.374474785634  206.306203090596 692.29725827639  205.921032553206 693.221022633549  L 206.84401412455 693.605866782471  C 207.228532299702 692.683667002363  207.615394731049 691.762446427368  208.004597666839 690.84221399139  L 207.083585107434 690.452681110343  Z M 208.655525747923 686.770823585313  C 208.259421261556 687.689952611245  207.865654485145 688.610087326553  207.474229237402 689.531218807863  L 208.394580163961 689.922312366979  C 208.785342455881 689.002741003426  209.178442310628 688.084164717655  209.573875915959 687.166592417927  L 208.655525747923 686.770823585313  Z M 210.252395009599 683.099709207776  C 209.850067493989 684.016131327006  209.450070815542 684.933574963287  209.052408853386 685.852031219341  L 209.97008682164 686.24935620796  C 210.367075264868 685.332455538641  210.766394470084 684.416565774026  211.16804056473 683.501695796319  L 210.252395009599 683.099709207776  Z M 211.874119475726 679.439506758757  C 211.465587428051 680.353179838394  211.059379237583 681.267890215791  210.65549884369 682.183629020177  L 211.570461663009 682.587167171116  C 211.973658005813 681.672979350972  212.379178202672 680.759818215833  212.787018320764 679.847692621726  L 211.874119475726 679.439506758757  Z M 213.520624586842 675.790384517599  C 213.105906789534 676.70126655114  212.693505762637 677.613201615459  212.283425505577 678.526180866702  L 213.195631110162 678.935913627125  C 213.605016815463 678.024480686229  214.016719359919 677.114090163723  214.430734750879 676.204750888479  L 213.520624586842 675.790384517599  Z M 215.191834644183 672.15251025423  C 214.770950164066 673.06055936349  214.352375261051 673.969677188135  213.936113994436 674.87985491163  L 214.845520445251 675.295763443901  C 215.261076691349 674.387127285814  215.678942655247 673.479549231432  216.099114284523 672.573038082352  L 215.191834644183 672.15251025423  Z M 216.887672813165 668.526051221445  C 216.460641000581 669.431225658486  216.035911465604 670.337484446382  215.61348832722 671.244818796327  L 216.520053813922 671.666883978877  C 216.941761495422 670.761086378574  217.365771667243 669.856362518503  217.792080217245 668.952721172866  L 216.887672813165 668.526051221445  Z M 218.608061126917 664.911174147222  C 218.174901614831 665.813432296268  217.744036975011 666.716790381788  217.31547138594 667.621239643104  L 218.2191542288 668.049442071309  C 218.646993957558 667.146524673121  219.077128843169 666.24469660261  219.509554714227 665.343966605611  L 218.608061126917 664.911174147222  Z M 220.352920489863 661.30804522705  C 219.913653192967 662.207345606405  219.476673257487 663.107761457281  219.041984921211 664.009284047534  L 219.942743573031 664.443604034608  C 220.376695678914 663.543608350588  220.812935502726 662.644717531466  221.251458813857 661.746940294593  L 220.352920489863 661.30804522705  Z M 222.122170681363 657.716830116294  C 221.676815795154 658.613131380245  221.23374065435 659.510563599481  220.792949555848 660.409118070792  L 221.690742603871 660.84953564869  C 222.130787135749 659.952503056519  222.573111841453 659.056590815669  223.017712431364 658.161807614606  L 222.122170681363 657.716830116294  Z M 223.915730359395 654.137693922576  C 223.464308359251 655.030954863297  223.015158383688 655.925362191069  222.568284788517 656.820907232019  L 223.463070956331 657.26740215236  C 223.909187682971 656.373373893486  224.357576934504 655.480481420849  224.808234362496 654.58873339363  L 223.915730359395 654.137693922576  Z M 225.733517064301 650.570801198185  C 225.276048704539 651.460980747629  224.820844544076 652.352322063186  224.367908997436 653.244816500716  L 225.25964714687 653.697368235706  C 225.711815557869 652.806385413455  226.166248740347 651.916553760137  226.622942287255 651.027881905252  L 225.733517064301 650.570801198185  Z M 227.575447222573 647.016315932512  C 227.111953535493 647.903373164301  226.650716118332 648.791607487851  226.191739444125 649.681010289153  L 227.080388577145 650.139598032539  C 227.538587883871 649.251701610218  227.999044104536 648.364971686604  228.461752773683 647.479416861114  L 227.575447222573 647.016315932512  Z M 229.441436150701 643.474401544509  C 228.971938445619 644.358295675813  228.504688977344 645.24338217041  228.039692277215 646.129652444819  L 228.925211537803 646.594255112835  C 229.38942067435 645.709485911856  229.855878763536 644.825898485727  230.324581281697 643.943501403386  L 229.441436150701 643.474401544509  Z M 231.331398059059 639.945220875176  C 230.855917921329 640.825911268592  230.382677883931 641.707809242013  229.911682536299 642.59090624288  L 230.794031212336 643.061502475224  C 231.264228836494 642.179901173223  231.736667348593 641.29949686788  232.211342166973 640.420298097265  L 231.331398059059 639.945220875176  Z M 233.245246055856 636.428936180075  C 232.763805345877 637.306382345493  232.284596496765 638.185051252109  231.807624155839 639.064934378678  L 232.686761680973 639.541502539491  C 233.162926175209 638.663109668458  233.641323389663 637.785928960859  234.121948684887 636.909968923503  L 233.245246055856 636.428936180075  Z M 235.182892151126 632.925709121872  C 234.695513003338 633.799870718336  234.210357374339 634.675270160974  233.727429969122 635.551898960251  L 234.603315924638 636.034417139111  C 235.085425397064 635.159273083571  235.56975931941 634.285356302377  236.056312994504 633.412675270955  L 235.182892151126 632.925709121872  Z M 237.144247260778 629.435700762901  C 236.65095208264 630.306537600464  236.159871978989 631.178627332269  235.671011712271 632.051961500876  L 236.543605828943 632.540407513808  C 237.0316381144 631.668552508831  237.521886477133 630.797939832823  238.014346162612 629.928577929167  L 237.144247260778 629.435700762901  Z M 239.129221210686 625.959071557762  C 238.630032681652 626.826543599335  238.133050680962 627.695283525615  237.6382800283 628.565282911646  L 238.507542188248 629.059634302139  C 239.00147484927 628.191108431581  239.497615112965 627.323839887632  239.995958167815 626.457837080976  L 239.129221210686 625.959071557762  Z M 241.13772274084 622.495981345941  C 240.632663811311 623.360048709133  240.129802762539 624.225398889204  239.629144471221 625.092023494074  L 240.495034709752 625.592257534115  C 240.994845037554 624.727100728862  241.496854392004 623.863216189918  242.001057904668 623.000612295148  L 241.13772274084 622.495981345941  Z M 243.169659509539 619.046589344464  C 242.658753399812 619.907212303416  242.150036422206 620.769132952441  241.643513510206 621.632342932718  L 242.505992017653 622.138436623838  C 243.011657033245 621.276688659837  243.51951239836 620.416227843353  244.029553187869 619.557062519046  L 243.169659509539 619.046589344464  Z M 245.224938097637 615.611054140577  C 244.708208296836 616.468193127787  244.193658778871 617.326644618602  243.681294533793 618.186400287846  L 244.540321657346 618.698330362175  C 245.051818112566 617.84003085865  245.565496139482 616.983033324672  246.081350756497 616.127346071314  L 245.224938097637 615.611054140577  Z M 247.306045656693 612.190360011421  C 246.851362407099 612.931012316153  246.398513075845 613.672788893521  245.947501824363 614.415682927016  C 245.879094650712 614.52855035335  245.810725323516 614.641440713309  245.742393854145 614.754353988117  L 246.597930099669 615.272096909454  C 246.666081737798 615.159480793988  246.734271098432 615.046887511934  246.802498170672 614.934317081289  C 247.252589383917 614.192939691588  247.704514662747 613.452677319159  248.158269855414 612.713536764645  L 247.306045656693 612.190360011421  Z M 249.413690332488 608.786218604981  C 248.883546604999 609.635247673797  248.355824289602 610.485786303382  247.83052981916 611.33782412579  L 248.681758196904 611.862619561101  C 249.206055307866 611.01219947512  249.732775654103 610.163275735508  250.261912814987 609.315858690496  L 249.413690332488 608.786218604981  Z M 251.547151756262 605.39819747935  C 251.010569186566 606.243171962628  250.476396483601 607.089674370179  249.944640158855 607.937694383259  L 250.791854544231 608.468945534046  C 251.322601240585 607.622535628909  251.85575972725 606.777640447887  252.39132350512 605.934270290105  L 251.547151756262 605.39819747935  Z M 253.706306638697 602.02649242284  C 253.163316235043 602.867363490858  252.622724013493 603.709780758358  252.08453656379 604.553733956393  L 252.927687997636 605.091410122503  C 253.46485360838 604.249059310882  254.0044194251 603.408241513589  254.546378870583 602.568966980045  L 253.706306638697 602.02649242284  Z M 255.891030205697 598.671298280879  C 255.341663346629 599.508017341047  254.794682846451 600.346300786553  254.25009537278 601.186138398839  L 255.089135130727 601.730208508829  C 255.632688613922 600.891965468828  256.178630580053 600.055273644776  256.726954374182 599.2201432358  L 255.891030205697 598.671298280879  Z M 258.101196205585 595.332808944759  C 257.545484638134 596.165327644424  256.992147468456 596.999428824879  256.441191441654 597.835102318548  L 257.276071036939 598.385534931478  C 257.825980981501 597.551448103817  258.378267547931 596.718930604086  258.932924003952 595.887992580527  L 258.101196205585 595.332808944759  Z M 260.336676916414 592.011217340428  C 259.774652754259 592.839487569668  259.214990891549 593.669358283702  258.657698150482 594.500819366522  L 259.488369336752 595.057582673773  C 260.044603964266 594.227700258995  260.60320321524 593.399405193436  261.164160280447 592.572707573869  L 260.336676916414 592.011217340428  Z M 262.597343153336 588.70671541734  C 262.029038874953 589.530689311746  261.463084661172 590.356281602461  260.899487410894 591.183482225629  L 261.725902184992 591.746544052743  C 262.288429351551 590.920914008421  262.853309006514 590.096889242878  263.420534264097 589.274479800834  L 262.597343153336 588.70671541734  Z M 264.883064276072 585.419494137365  C 264.308512722855 586.239124080807  263.73629886359 587.060390238546  263.166429673483 587.883282599465  L 263.988540278224 588.452610408  C 264.557327476285 587.631280445971  265.128454891747 586.811573599516  265.701915562667 585.993499860718  L 264.883064276072 585.419494137365  Z M 267.193708196464 582.149743463749  C 266.612942570826 582.964982091126  266.034502133398 583.781874656237  265.458393935289 584.600411201275  L 266.27615286222 585.175972090691  C 266.851167222481 584.358989674297  267.428509393904 583.543648116473  268.008172338789 582.729957356091  L 267.193708196464 582.149743463749  Z M 269.529141386102 578.897652350145  C 268.942195249557 579.708452550124  268.357561661113 580.520924315693  267.775247747371 581.335057742935  L 268.588607739513 581.916818452491  C 269.169816032818 581.104230793836  269.753339596524 580.293301641926  270.339171317581 579.484040881845  L 269.529141386102 578.897652350145  Z M 271.889228884047 575.663408729684  C 271.296136155272 576.469723647421  270.705343200849 577.277727662007  270.116857222462 578.087410923988  L 270.925771277045 578.675337834664  C 271.513139916328 577.867191891845  272.102811151363 577.060722008228  272.694777794347 576.255938014288  L 271.889228884047 575.663408729684  Z M 274.273834304624 572.44719950412  C 273.674629257497 573.248982543968  273.077711078073 574.052472114316  272.483087042702 574.857658420738  L 273.287508413881 575.451717557181  C 273.881003455988 574.64806003174  274.476788286321 573.84609602085  275.074855642367 573.045835300311  L 274.273834304624 572.44719950412  Z M 276.68281984531 569.24921053303  C 276.07753710693 570.046415361233  275.47452819745 570.845344054967  274.873800467465 571.645986875404  L 275.673682669017 572.246143907889  C 276.273269816853 571.447021241864  276.875133812971 570.649609447999  277.479267320755 569.853918246605  L 276.68281984531 569.24921053303  Z M 279.116046294691 566.069626623069  C 278.504720843377 566.862207170438  277.89565605076 567.65652881875  277.288859341253 568.452581885337  L 278.084156149268 569.05880213175  C 278.689800753683 568.264260505118  279.297709134768 567.471447009511  279.907873882416 566.680371308939  L 279.116046294691 566.069626623069  Z M 281.573373040512 562.908631517296  C 280.956040203782 563.69654198187  280.340954724905 564.486210682186  279.728124101686 565.277627992292  L 280.518789557236 565.889876420138  C 281.130456618968 565.099961748227  281.744374255032 564.311792366215  282.360534982069 563.525377881503  L 281.573373040512 562.908631517296  Z M 284.054658077797 559.766407884549  C 283.431353530327 560.549602734247  282.810282909994 561.334572852877  282.191453787562 562.121308671766  L 282.977442199359 562.739549900188  C 283.595096371117 561.954307830942  284.214987784907 561.17082810949  284.837108884361 560.389120286311  L 284.054658077797 559.766407884549  Z M 286.559758017064 556.643137308897  C 285.930517778623 557.421571284143  285.30349790751 558.201797458924  284.678706047008 558.983806322391  L 285.459971994041 559.608004624222  C 286.083577582613 558.82748053548  286.709406951534 558.048735750706  287.337452472055 557.271779762662  L 286.559758017064 556.643137308897  Z M 289.088528092601 553.539000279139  C 288.453388525975 554.312628395482  287.820455638555 555.088065538393  287.189737145704 555.865302255401  L 287.966235479865 556.49542155922  C 288.595756448083 555.719660556218  289.22748760646 554.945695710535  289.861421254305 554.173536456667  L 289.088528092601 553.539000279139  Z M 291.64082217084 550.454176178378  C 290.999819979726 551.222953729089  290.361010652176 551.99355702886  289.724401975185 552.765976684146  L 290.496087823882 553.401980576368  C 291.131487792738 552.631027489092  291.76908423384 551.861887308688  292.408869374999 551.094569410841  L 291.64082217084 550.454176178378  Z M 294.216492758797 547.388843273654  C 293.569664985651 548.15272583235  292.925016133804 548.918450756974  292.282554061237 549.686008713682  L 293.049382829979 550.327860440663  C 293.690625080729 549.561759821255  294.33404995888 548.797488753508  294.979649621194 548.035056553753  L 294.216492758797 547.388843273654  Z M 296.815391012598 544.343178705642  C 296.162775036592 545.102122128736  295.512323913607 545.862924428275  294.864045572349 546.625576330423  L 295.625972947333 547.273238800579  C 296.273020423614 546.512034920766  296.92223655632 545.752677131676  297.573613431622 544.995174689748  L 296.815391012598 544.343178705642  Z M 299.437366746078 541.317358478416  C 298.779000280879 542.071318907744  298.122784475215 542.827154616732  297.468727328265 543.584856391848  L 298.225709278929 544.238292177805  C 298.878524588904 543.482029026338  299.533494459007 542.727628397975  300.19061090527 541.975099488726  L 299.437366746078 541.317358478416  Z M 302.082268439463 538.311557449276  C 301.418189530978 539.060491314713  300.756246964363 539.811316754536  300.096448808602 540.56402461629  L 300.848441590173 541.22319595704  C 301.506987008692 540.471917237155  302.167672766533 539.722517365121  302.830490810051 538.975005475991  L 302.082268439463 538.311557449276  Z M 304.749943248123 535.325949318645  C 304.080190272409 536.069813340503  303.412559197442 536.815585122163  302.747058161549 537.563255572774  L 303.494018317568 538.228124375862  C 304.158255788348 537.481873502753  304.824619253955 536.737517693666  305.493100591535 535.995066022167  L 304.749943248123 535.325949318645  Z M 307.440237011408 532.360706620032  C 306.764848672416 533.099457811601  306.091567670426 533.840132838143  305.420402212638 534.582722670933  L 306.162286577476 535.253250514657  C 306.832177715297 534.512070612965  307.504180380594 533.772801881954  308.178286381773 533.03545333318  L 307.440237011408 532.360706620032  Z M 310.154962886743 529.417146077012  C 309.646234948714 529.964087201071  309.138671116907 530.512109944686  308.632274837066 531.061210587448  C 308.460156620709 531.248215263147  308.288173787733 531.435344500125  308.116326473603 531.622598150987  L 308.853092174952 532.298746286617  C 309.024501463957 532.111969930406  309.196045838367 531.925317590056  309.367725163167 531.738789412472  C 309.873048440711 531.190853295173  310.379536535838 530.643992554612  310.88718601186 530.098210901419  L 310.154962886743 529.417146077012  Z M 312.892927688412 526.495863218529  C 312.205663411388 527.22357919679  311.520475037307 527.953252887291  310.83737091852 528.68487539541  L 311.568298377758 529.367330558283  C 312.250105509033 528.63709715796  312.933992938281 527.908808875112  313.619952329036 527.182474587446  L 312.892927688412 526.495863218529  Z M 315.653020425038 523.595478264824  C 314.96024404512 524.317948761743  314.269528626 525.04239269496  313.580882587405 525.768801233605  L 314.306601030493 526.456793051406  C 314.993939559314 525.731763720963  315.683343539581 525.008695265829  316.37480456758 524.287596500081  L 315.653020425038 523.595478264824  Z M 318.435081595285 520.716158824496  C 317.736833146908 521.433342089659  317.040630598088 522.152514401139  316.346482435434 522.873666992326  L 317.066949924268 523.567155707111  C 317.759780130443 522.84737234483  318.454660822177 522.129565502377  319.151583528996 521.413743929689  L 318.435081595285 520.716158824496  Z M 321.238950428297 517.858071288798  C 320.535270262121 518.569925877336  319.833620816029 519.283785007264  319.134010643027 519.99963997674  L 319.849185542945 520.698585512906  C 320.547467388927 519.984089713915  321.247784636087 519.271585965049  321.95012874768 518.561082951603  L 321.238950428297 517.858071288798  Z M 324.06446489299 515.021380822028  C 323.355393673564 515.727865597004  322.648337877396 516.436370292605  321.943306123397 517.146886272259  L 322.653147105587 517.851248238866  C 323.356840238788 517.142081292731  324.062553571162 516.434921811902  324.770278500189 515.729778416528  L 324.06446489299 515.021380822028  Z M 326.911461707411 512.206251351982  C 326.197040410824 512.907325486774  325.484619124202 513.610434804698  324.77420653186 514.31557073495  L 325.478672575751 515.025308428048  C 326.187736330909 514.321511316354  326.898804966382 513.619736969247  327.611869814589 512.919993941015  L 326.911461707411 512.206251351982  Z M 329.779776348179 509.412845560479  C 329.060046259692 510.108468541135  328.3423006523 510.806141849821  327.62654827522 511.505856981996  L 328.325598670848 512.220929386982  C 329.039992072232 511.522542781109  329.756374919435 510.826194121994  330.474738479874 510.131891898005  L 329.779776348179 509.412845560479  Z M 332.669243059988 506.641324873961  C 331.94424577165 507.331456501546  331.221217320855 508.023653483571  330.50016652122 508.717907382254  L 331.193760871583 509.438273176239  C 331.913442635581 508.745337434793  332.635098295822 508.054454704615  333.358719055453 507.365633407444  L 332.669243059988 506.641324873961  Z M 335.579694865189 503.891849454166  C 334.84947227343 504.576449847079  334.121202761889 505.26313050149  333.394895208068 505.95188304686  L 334.082993431461 506.677500601061  C 334.807921968853 505.990055767651  335.534808738735 505.304678891487  336.263644880711 504.621378326979  L 335.579694865189 503.891849454166  Z M 338.510963573436 501.164578188872  C 337.775557876612 501.843607785188  337.042089389927 502.524732429741  336.310567054033 503.207943819928  L 336.993129386362 503.938771202069  C 337.723262804616 503.256857003102  338.455338678668 502.57702558764  339.189348084641 501.899285242709  L 338.510963573436 501.164578188872  Z M 341.462879791411 498.459668682714  C 340.722333487514 499.133088242331  339.983708411503 499.808617516065  339.247013567113 500.486248269307  L 339.924000564195 501.222243246044  C 340.659296670109 500.545899088214  341.396519342764 499.871652419894  342.135659595545 499.199511460032  L 341.462879791411 498.459668682714  Z M 344.435272932606 495.777277248075  C 343.689628816582 496.445047855192  342.945889835279 497.114942720282  342.20406505477 497.78695367742  L 342.875437594612 498.528073716784  C 343.615853896602 497.857338684934  344.358180764944 497.18871572739  345.102409150802 496.522212994547  L 344.435272932606 495.777277248075  Z M 347.427971227188 493.117558896058  C 346.677272388615 493.779641961281  345.928462481503 494.443863705577  345.18155063374 495.110216032175  L 345.847269918799 495.856418306027  C 346.592763629394 495.19133116086  347.340151795543 494.52837055274  348.089425306713 493.86754456304  L 347.427971227188 493.117558896058  Z M 350.440801731918 490.480667327521  C 349.685091552478 491.137024590132  348.931253992082 491.795534829324  348.179298239904 492.456190017949  L 348.839325799329 493.207431404456  C 349.589853837643 492.548030580291  350.342260111235 491.890770633027  351.096535448402 491.235659574545  L 350.440801731918 490.480667327521  Z M 353.473590340151 487.866754924203  C 352.712912491124 488.517348454368  351.954090840509 489.170109134204  351.197134638233 489.825029006652  L 351.851432330089 490.581266092777  C 352.60695132431 489.927589695333  353.364332224991 489.276068390922  354.123565799793 488.626710121476  L 353.473590340151 487.866754924203  Z M 356.526161791895 485.275972739911  C 355.760560231636 485.920764940871  354.996798341887 486.567738339359  354.234885432799 487.21688504886  L 354.883415446272 487.978074132876  C 355.643881736168 487.330159937062  356.406193496111 486.684414925877  357.170341433656 486.040846970841  L 356.526161791895 485.275972739911  Z M 359.598339683938 482.708470491794  C 358.827858655333 483.347424102043  358.059200663027 483.988572831627  357.292375076852 484.631908865033  L 357.935099934432 485.398005959041  C 358.700469573914 484.755891406748  359.467668140266 484.115960005425  360.236686281709 483.478219555525  L 359.598339683938 482.708470491794  Z M 362.689946480046 480.164396551691  C 361.914630507959 480.797474647124  361.141120832608 481.432761656846  360.369426882968 482.070249836799  L 361.006309442616 482.841210669278  C 361.776538202121 482.204932867342  362.548579239863 481.570852056358  363.3224231448 480.938975965659  L 362.689946480046 480.164396551691  Z M 365.800803521217 477.643897937558  C 365.020697409914 478.271063933606  364.242380751403 478.90045251125  363.465863033254 479.53205599833  L 364.096866490548 480.307836016687  C 364.87190985983 479.67743173455  365.648748753871 479.049238156484  366.427373703141 478.42326294006  L 365.800803521217 477.643897937558  Z M 368.930731036009 475.14712030497  C 368.145879866533 475.768337958747  367.362801202614 476.39179173289  366.58150458963 477.017474027776  L 367.206592479891 477.79802840093  C 367.986405670436 477.173534068644  368.7679975285 476.551264025797  369.551358526617 475.931225857751  L 368.930731036009 475.14712030497  Z M 372.079548150929 472.674207938702  C 371.28999727865 473.289441350973  370.502201862024 473.906924293349  369.716171504164 474.526649238801  L 370.335307704565 475.311932859764  C 371.119845652219 474.693384565856  371.906145307366 474.077074018215  372.694197085153 473.46300872956  L 372.079548150929 472.674207938702  Z M 375.247072900883 470.225303744398  C 374.452867952641 470.834517361841  373.660401308821 471.445993789038  372.86968262948 472.059725572175  L 373.482831361133 472.849693060665  C 374.272048728745 472.237126550018  375.063010741897 471.626811113247  375.855707759146 471.018754189799  L 375.247072900883 470.225303744398  Z M 378.433122239692 467.800549240304  C 377.634309111317 468.403707857442  376.837217035681 469.009142433216  376.041855729224 469.616845587463  L 376.648981559246 470.411451292527  C 377.442832739171 469.804901964408  378.238411401981 469.200616907593  379.035707849961 468.59860348802  L 378.433122239692 467.800549240304  Z M 381.637512050673 465.400084549098  C 380.834136904296 465.99715331036  380.032465459517 466.596511047617  379.232507488599 467.198150454783  L 379.833575332162 467.99734845743  C 380.632014448969 467.396851363386  381.432163786306 466.798631607128  382.234013590492 466.202696480851  L 381.637512050673 465.400084549098  Z M 384.860057157275 463.024048389785  C 384.052166418658 463.614992791525  383.245961932045 464.208239054343  382.441453524953 464.80377994665  L 383.036428647309 465.607524062509  C 383.839409560525 465.013113904272  384.644083332958 464.420994018796  385.450440155777 463.831171623919  L 384.860057157275 463.024048389785  Z M 388.101321427277 460.673309849122  C 387.594165366034 461.038115312356  387.087588629072 461.40372548399  386.58159313053 461.770138982536  C 386.276994546027 461.991057235352  385.972632793935 462.212301844818  385.66850839844 462.433872429899  L 386.257356416931 463.242116211885  C 386.560803327958 463.0210392098  386.86448698899 462.800287349801  387.168406876974 462.579861012103  C 387.673445329224 462.214141037802  388.179063804635 461.849222711802  388.685260393505 461.485107412385  L 388.101321427277 460.673309849122  Z M 391.359164499997 458.346610314293  C 390.542734380193 458.925522043236  389.727777579099 459.506508773611  388.914302000085 460.089564871066  L 389.496864023441 460.90235112153  C 390.308961821192 460.320282544521  391.12253833228 459.740279829711  391.937585666724 459.162348601908  L 391.359164499997 458.346610314293  Z M 394.632708818987 456.0420540005  C 393.812372168399 456.615416634556  392.993494733149 457.19086421215  392.176084454629 457.76839115265  L 392.753122006365 458.585108768407  C 393.569147839432 458.008559983635  394.38663834431 457.434087039959  395.205585593058 456.861695508557  L 394.632708818987 456.0420540005  Z M 397.921803881675 453.759746860686  C 397.097598415623 454.327534039268  396.274837994451 454.897416007638  395.453530597207 455.469387239138  L 396.025017147779 456.289998671252  C 396.844933499032 455.718996185791  397.666300413229 455.150079424883  398.489109924839 454.583253905823  L 397.921803881675 453.759746860686  Z M 401.226298470534 451.499793824881  C 400.398262082211 452.061979443734  399.571656501873 452.626269602317  398.746489745856 453.1926588282  L 399.312399020929 454.017126348717  C 400.13616819437 453.451696414646  400.961373755199 452.888361992692  401.788007700658 452.327128546015  L 401.226298470534 451.499793824881  Z M 404.546040660038 449.262298795374  C 403.714211418765 449.818857007778  402.883798682798 450.377529413097  402.054810505398 450.938310593381  L 402.615116487056 451.76659629706  C 403.44270060955 451.206764910257  404.271706877839 450.649038726795  405.102127252304 450.093423155444  L 404.546040660038 449.262298795374  Z M 407.880877823647 447.047364641938  C 407.045293973122 447.598269859896  406.211112260101 448.151298826753  405.378340774395 448.706446179288  L 405.933017702336 449.538511985345  C 406.764378725357 448.984304884294  407.597147587194 448.432212581019  408.43131621174 447.882240429653  L 407.880877823647 447.047364641938  Z M 411.230656640821 444.8550931971  C 410.391356597363 445.400320092514  409.553444259142 445.947680195169  408.71692775215 446.497168196822  L 409.265950124869 447.332975850684  C 410.101049826244 446.784418515289  410.937542994732 446.237985474875  411.775421518106 445.693682028696  L 411.230656640821 444.8550931971  Z M 414.595223104074 442.685585251461  C 413.752245454855 443.225108757294  412.910641014806 443.766774830638  412.070417945725 444.310578218468  L 412.613760521688 445.150089293527  C 413.452560507359 444.60720694394  414.292739524371 444.066458288877  415.134289424757 443.527848572463  L 414.595223104074 442.685585251461  Z M 417.974422526051 440.538940549058  C 417.127806027321 441.072735860492  416.282548178562 441.608683001199  415.438657177 442.146776773616  L 415.976294975804 442.989952672998  C 416.818756681589 442.452770268464  417.662582919544 441.917730859899  418.507765506331 441.384839636058  L 417.974422526051 440.538940549058  Z M 421.36809954664 438.415257782784  C 420.517883121948 438.943300358355  419.669010725563 439.47350392603  418.821490589763 440.005863343948  L 419.353398893284 440.852665302286  C 420.199483586652 440.321207539992  421.046918250285 439.791901976585  421.895694665849 439.264753745215  L 421.36809954664 438.415257782784  Z M 424.776098140114 436.314634589844  C 423.922320878518 436.836900152572  423.069872961771 437.361335770885  422.218762656828 437.887936358856  L 422.744917010359 438.738325444075  C 423.594585792212 438.212616758015  424.445589920358 437.689069374811  425.297921141847 437.167688371773  L 424.776098140114 436.314634589844  Z M 428.198261622309 434.237167547271  C 427.340962776577 434.75363208578  426.484978531118 435.272275643581  425.630317187186 435.793093190922  L 426.150693400559 436.647030306027  C 427.003907207017 436.127094865878  427.858441674404 435.609329733188  428.714288515533 435.093739929193  L 428.198261622309 434.237167547271  Z M 431.634432657822 432.182952167486  C 430.773651642627 432.6935919371  429.914170422693 433.206419589535  429.055997333184 433.72143015144  L 429.570571481886 434.578876036315  C 430.427291086086 434.064737746326  431.285316605133 433.55277866862  432.144639717984 433.043003768125  L 431.634432657822 432.182952167486  Z M 435.084453267246 430.152082893902  C 434.220229657358 430.656874417744  433.357290977958 431.163862587346  432.495645597741 431.673042485989  L 433.004394024008 432.533957719198  C 433.864580037908 432.025640217094  434.726057160532 431.519510731905  435.588817037363 431.015574172025  L 435.084453267246 430.152082893902  Z M 438.548164834437 428.144653096587  C 437.680538362898 428.643573166654  436.814181898001 429.14469854443  435.949103841584 429.648024370051  L 436.452003155494 430.512369370655  C 437.315616031679 430.009896026546  438.180505151107 429.50961940339  439.046662126172 429.01154435282  L 438.548164834437 428.144653096587  Z M 442.025408113801 426.160755067968  C 441.154418670103 426.653780746201  440.28468425081 427.1490202927  439.416213290519 427.646468904684  L 439.913240371065 428.514203934058  C 440.780240404572 428.017597849367  441.648501757165 427.523197088672  442.518016008533 427.031006446622  L 442.025408113801 426.160755067968  Z M 445.51602323762 424.20048001859  C 444.641710865867 424.687588637926  443.768638478582 425.176919584303  442.896814542736 425.66846811224  L 443.387946538889 426.539553275903  C 444.258293869028 426.048837282303  445.129887536104 425.560335114352  446.002719087492 425.074051509492  L 445.51602323762 424.20048001859  Z M 449.019849723396 422.263918072921  C 448.142254620513 422.745087238312  447.265884405017 423.228487087421  446.390747576131 423.714112932136  L 446.875961907891 424.588508181582  C 447.749616520077 424.103704839947  448.624502429753 423.621123723831  449.500611152364 423.140769513255  L 449.019849723396 422.263918072921  Z M 452.536726481237 420.351158265209  C 451.655888994936 420.82636585475  450.776261242898 421.303812381981  449.897851755665 421.783493216672  L 450.3771261151 422.661158351213  C 451.254047842696 422.18228995058  452.132185771724 421.705652073168  453.011531386092 421.231249341362  L 452.536726481237 420.351158265209  Z M 456.066491821258 418.462288535389  C 455.182452448457 418.931512701188  454.299607601042 419.402983955786  453.417965840751 419.876697726901  L 453.891278193022 420.757592395512  C 454.771426719183 420.284680952057  455.652776294803 419.814008226976  456.535318372645 419.345578784806  L 456.066491821258 418.462288535389  Z M 459.608983461015 416.597395725041  C 458.721782845797 417.060614894319  457.835761492166 417.526089200194  456.950927992669 417.993814128543  L 457.41825657704 418.877897831724  C 458.301591436569 418.410965087749  459.186112138365 417.946279154375  460.071810104438 417.48384453808  L 459.608983461015 416.597395725041  Z M 463.16403853297 414.756565573393  C 462.273717464754 415.213758449455  461.384560340111 415.673214406232  460.496575781998 416.134928987965  L 460.957899112843 417.022161079595  C 461.844379694048 416.561228502529  462.73203085581 416.102550724993  463.620843989777 415.646132195198  L 463.16403853297 414.756565573393  Z M 466.731493591971 412.939882713385  C 465.838093003642 413.391028276596  464.94584098736 413.844444760594  464.054746196095 414.300127768189  L 464.510043063879 415.190467457401  C 465.399628610444 414.735556238812  466.290369422036 414.282907705018  467.182256860342 413.832526245758  L 466.731493591971 412.939882713385  Z M 469.892011517409 411.355755183645  C 469.135622648367 411.732046262876  468.380042284438 412.109960347098  467.62527564658 412.489494824973  L 468.07452511884 413.382901178026  C 468.967174731695 412.934032232649  469.860964240934 412.487433753303  470.755884978679 412.043110071053  L 469.892011517409 411.355755183645  Z M 199.600300396635 709.017174474026  C 199.241906446617 709.951653316439  198.885889175531 710.887041936968  198.532252036106 711.823331264018  L 199.467747963894 712.176668735982  C 199.820786149124 711.24196519944  200.176200434739 710.308160844041  200.533987373967 709.375264725724  L 199.600300396635 709.017174474026  Z M 473.309205093821 418.510137424178  L 480 407  L 466.841175485673 404.976306001106  L 473.309205093821 418.510137424178  Z " fill-rule="nonzero" fill="#1f8aee" stroke="none" />
  </g>
</svg>