<?xml version="1.0" encoding="utf-8"?>
<svg version="1.1" xmlns:xlink="http://www.w3.org/1999/xlink" width="176px" height="16px" viewBox="820 466  176 16" xmlns="http://www.w3.org/2000/svg">
  <g transform="matrix(0.573576436351047 0.819152044288992 -0.819152044288991 0.573576436351046 775.470664786231 -541.665287044801 )">
    <path d="M 825.783874501583 702.981853967145  C 825.735932471665 703.98176708689  825.691173090861 704.981830264315  825.649597039297 705.982028303309  L 826.648734215471 706.023560257119  C 826.690222141649 705.025482256818  826.734886649624 704.027538832188  826.782727060708 703.029745147216  L 825.783874501583 702.981853967145  Z M 825.992613507457 698.983066692672  C 825.936186572871 699.982536895466  825.882940899167 700.982184162929  825.832877295429 701.981993305116  L 826.831625987306 702.032003808755  C 826.881583475283 701.034313880923  826.934716288449 700.036785484737  826.991023619438 699.039433777875  L 825.992613507457 698.983066692672  Z M 826.235284177432 694.986195092909  C 826.170376402992 695.98515038019  826.10864827203 696.984309726373  826.050100722536 697.983657948774  L 827.048388983529 698.042143399651  C 827.106812434532 697.044913414604  827.168409725375 696.047871905541  827.233179920072 695.051034022743  L 826.235284177432 694.986195092909  Z M 826.511869030308 690.991527089406  C 826.438485091751 691.98989549978  826.368278950235 692.98849494836  826.301251672555 693.987310261277  L 827.299007589244 694.05426644629  C 827.365892794637 693.057568241239  827.435950125893 692.061085442856  827.509178518463 691.064833193085  L 826.511869030308 690.991527089406  Z M 826.822348141818 686.99935044497  C 826.740493325486 687.997060059194  826.66181423083 688.995027674438  826.586312053391 689.993238126433  L 827.583463750706 690.068660222278  C 827.658805892301 689.072565596049  827.737318217262 688.076713291807  827.818999532576 687.081118441764  L 826.822348141818 686.99935044497  Z M 827.166699146061 683.009952742944  C 827.07637934851 684.006931689256  826.989232968494 685.004195580894  826.905261330229 686.001729264128  L 827.901736976625 686.085611837644  C 827.985530627016 685.090192545684  828.072492289919 684.095042473423  828.162620643918 683.100176742554  L 827.166699146061 683.009952742944  Z M 827.544897237119 679.02362136648  C 827.446118964689 680.019797825807  827.350511577057 681.01628615416  827.258076527007 682.013071209596  L 828.253804339639 682.105408218157  C 828.346043462611 681.110735967163  828.441448199014 680.11635981434  828.54001709915 679.122294869465  L 827.544897237119 679.02362136648  Z M 827.956915170839 675.040643477846  C 827.849685539194 676.035945688894  827.745624031189 677.031586670205  827.644732228072 678.027551292711  L 828.639640477968 678.128336084661  C 828.740318428913 677.134482527592  828.844159366175 676.140951925758  828.951161711866 675.147759376088  L 827.956915170839 675.040643477846  Z M 828.402723266798 671.061305997732  C 828.287050000406 672.055662262214  828.174541868285 673.050384173714  828.065200580012 674.045456617283  L 829.059217597238 674.154681932415  C 829.168327123647 673.16171866323  829.280596781407 672.169105183078  829.396024864554 671.176856574954  L 828.402723266798 671.061305997732  Z M 828.882289410439 667.085895584589  C 828.75818084203 668.079234272282  828.637234190499 669.072965457561  828.519451293665 670.06707404038  L 829.512505472487 670.18473201046  C 829.630038714467 669.192730558983  829.750729005186 668.20110570514  829.874574510727 667.209872516904  L 828.882289410439 667.085895584589  Z M 829.395579055387 663.114698613971  C 829.263044125333 664.106948168032  829.133667666998 665.099617041898  829.007451646295 666.092690151663  L 829.999471450341 666.218772300997  C 830.125419941181 665.227804127765  830.254522170725 664.23723933364  830.386776177236 663.247092970487  L 829.395579055387 663.114698613971  Z M 829.942555225935 659.148001157911  C 829.801603481619 660.139090099931  829.663806536337 661.130625153767  829.529166483954 662.122591252741  L 830.520080451363 662.257088498783  C 830.654435118146 661.2672249899  830.791939986415 660.277791612539  830.932592966749 659.288803401373  L 829.942555225935 659.148001157911  Z M 830.523178519711 655.186088964313  C 830.373820114831 656.175945899513  830.22761260905 657.166275706326  830.084558224012 658.157063336544  L 831.074294972586 658.299965990553  C 831.217046136842 657.311278452547  831.362943738433 656.323047767493  831.511985560411 655.335288951787  L 830.523178519711 655.186088964313  Z M 831.137407110512 651.229247436364  C 830.979652804367 652.217801058639  830.825045270382 653.206854278415  830.673586857867 654.196392066727  L 831.662075090209 654.347689834462  C 831.81321246861 653.360249489148  831.967492293539 652.373292685304  832.124912220675 651.386834419971  L 831.137407110512 651.229247436364  Z M 831.785196751321 647.277761611979  C 831.619057908011 648.264940709186  831.456061483251 649.252646093716  831.296209953822 650.240862757085  L 832.283378462475 650.40054473955  C 832.442891167581 649.414422718899  832.605542102032 648.428810893404  832.771328794311 647.443724239669  L 831.785196751321 647.277761611979  Z M 832.466500777493 643.331916143264  C 832.291989365116 644.317649602252  832.12061579131 645.303936000473  831.952382660149 646.290760351003  L 832.938160332724 646.458815045232  C 833.10603687376 645.474082386246  833.277047200894 644.489886539351  833.451188715583 643.506242459632  L 832.466500777493 643.331916143264  Z M 833.181270110114 639.391995276012  C 832.998398699902 640.37621208777  832.818660322241 641.361008450837  832.642057708312 642.346369400933  L 833.626373532612 642.522784700815  C 833.802601816303 641.539512340413  833.981959217095 640.556803370364  834.16444300961 639.574672723162  L 833.181270110114 639.391995276012  Z M 833.929453259543 635.45828282923  C 833.738235024952 636.440912093999  833.550144791201 637.424147480405  833.365185416378 638.407974047888  L 834.347968485513 638.592737245042  C 834.532535816944 637.610996014972  834.720227371084 636.629844712858  834.911040295885 635.649298247676  L 833.929453259543 635.45828282923  Z M 834.710996329112 631.531062174688  C 834.511445044874 632.512033107096  834.315016504448 633.493636687732  834.121713692594 634.475858000981  L 835.102893210087 634.668955785672  C 835.295786293637 633.688816407333  835.49179848043 632.709293452132  835.690926791984 631.730401804303  L 834.710996329112 631.531062174688  Z M 835.525843019017 627.610616216508  C 835.317973060164 628.58985815057  835.113220363112 629.569759214027  834.911588039139 630.550304516983  L 835.891093324029 630.751722979078  C 836.092298264322 629.773256058453  836.29661696367 628.795432011896  836.504046317435 627.818265697519  L 835.525843019017 627.610616216508  Z M 836.374340298327 623.696883159215  C 836.34507835822 623.828663105248  836.315879821537 623.960457121949  836.286744698352 624.092265163858  C 836.100416174389 624.938200556335  835.916417762486 625.78464750512  835.73475155605 626.63159637992  L 836.712512047982 626.841321009892  C 836.893767232086 625.996288368763  837.077349011844 625.151756446099  837.263255299191 624.307734847641  C 837.292294599658 624.176360861411  837.321397046782 624.045000841094  837.350562630402 623.913654832544  L 836.374340298327 623.696883159215  Z M 837.261045878536 619.791538460305  C 837.034725705904 620.766813611433  836.811886378889 621.742893248018  836.59253215362 622.719758727398  L 837.568236045988 622.938852119396  C 837.787069069673 621.964307743407  838.009378914256 620.990547342957  838.235161333706 620.017589516484  L 837.261045878536 619.791538460305  Z M 838.184872435 615.894807972209  C 837.94928232466 616.867885431026  837.717165247308 617.841800460699  837.488525636271 618.816534459907  L 838.462100583002 619.044902196456  C 838.690196929703 618.072484236087  838.921762480015 617.100883299287  839.156792811126 616.130117943248  L 838.184872435 615.894807972209  Z M 839.145736319033 612.007044527805  C 838.9008976027 612.977836186161  838.659523792254 613.94949842493  838.421619497822 614.922012685823  L 839.39297734572 615.159634089166  C 839.63031636226 614.189430592828  839.871116650983 613.220077094186  840.115373612734 612.251592107356  L 839.145736319033 612.007044527805  Z M 840.143550528373 608.128600148042  C 839.889485375182 609.097018104753  839.638876687045 610.066339572612  839.391729250473 611.036546038032  L 840.360782047089 611.283399592532  C 840.607342243387 610.315498408202  840.857355467072 609.348480118578  841.110816942991 608.38236319333  L 840.143550528373 608.128600148042  Z M 841.178224715058 604.259826010063  C 840.914956129561 605.225782578879  840.655135255317 606.192675507764  840.398767054784 607.160486329517  L 841.365427056385 607.416549683602  C 841.621186107437 606.451038450715  841.880389628406 605.48644292968  842.143032668606 604.522781543891  L 841.178224715058 604.259826010063  Z M 842.249665193607 600.401072415415  C 841.977217013689 601.36448013295  841.708207479046 602.328856974695  841.442641727637 603.294184521502  L 842.406821407145 603.559434489691  C 842.671756155024 602.596400631308  842.940126503466 601.634315219008  843.211927326704 600.673196628243  L 842.249665193607 600.401072415415  Z M 843.357774949503 596.552688758323  C 843.07617184423 597.513460391958  842.797998006879 598.475233826264  842.523258750483 599.437990691673  L 843.484870805404 599.712403256675  C 843.758957261368 598.751933971515  844.036470137442 597.792445780867  844.317404133281 596.833957010427  L 843.357774949503 596.552688758323  Z M 844.502453647976 592.715023494059  C 844.211721115333 593.673072049932  843.924408162796 594.632154992083  843.640520277908 595.592254002478  L 844.599477638235 595.875804317367  C 844.882690984873 594.917986572014  845.169321260959 593.961182480617  845.45936299197 593.005410317757  L 844.502453647976 592.715023494059  Z M 845.683597643091 588.888424107386  C 845.383762007718 589.843662838127  845.087335954984 590.799968447167  844.794325146486 591.757322669517  L 845.750540982586 592.049985059981  C 846.042855576103 591.094905580857  846.338577298999 590.140872223426  846.637700503105 589.187903209349  L 845.683597643091 588.888424107386  Z M 846.901099987129 585.073237081099  C 846.592188397907 586.025579493781  846.286676085132 586.97902118018  845.984568883946 587.933543930008  L 846.937956614417 588.235291896675  C 847.23934598694 587.283037162264  847.544132380246 586.331860922634  847.852309973085 585.38178134473  L 846.901099987129 585.073237081099  Z M 848.154850440275 581.269807864653  C 847.836890867882 582.219167728571  847.52231995793 583.169659162166  847.211143718625 584.121264011348  L 848.161617018139 584.432070232184  C 848.472053880096 583.482726465249  848.785877346677 582.534493468459  849.103081424029 581.58738935254  L 848.154850440275 581.269807864653  Z M 849.444735480594 577.478480842877  C 849.117756714942 578.424772197461  848.794155690944 579.372227315073  848.473938589229 580.320828099764  L 849.421411396349 580.640664432546  C 849.740867638961 579.694317592252  850.063699763397 578.749113696888  850.389901603742 577.805070799328  L 849.444735480594 577.478480842877  Z M 850.770638314315 573.699599304801  C 850.434669961999 574.642736467221  850.102068124661 575.587069480794  849.772839154891 576.532580309056  L 850.717225679861 576.861417793924  C 851.045672377675 575.918153568099  851.377483928865 574.976064358427  851.712653995961 574.03516815844  L 850.770638314315 573.699599304801  Z M 852.132438886404 569.933505412565  C 851.787511367956 570.873402985689  851.445938833037 571.814528389665  851.107727805519 572.756863649439  L 852.048942538034 573.094672511515  C 852.386349951573 572.154576308796  852.727110885315 571.215687087207  853.071218830913 570.278022779017  L 852.132438886404 569.933505412565  Z M 853.530013891434 566.18054017044  C 853.176158438628 567.117113050395  852.825646134094 568.054945629799  852.478483672453 568.994019996489  L 853.416441389399 569.340769648573  C 853.762778967795 568.403926590843  854.112458429626 567.468322369787  854.465473096153 566.533974855078  L 853.530013891434 566.18054017044  Z M 854.963236784752 562.441043393953  C 854.60048543774 563.374206777926  854.241065101035 564.308661615885  853.884982639399 565.24439006018  L 854.819598412574 565.600049105521  C 855.174834796406 564.666544020007  855.533401124257 563.734309514686  855.895290547709 562.803363394724  L 854.963236784752 562.441043393953  Z M 856.431977793936 558.715353679119  C 856.060363398355 559.645023073014  855.69206757351 560.576015558495  855.327097353677 561.508313354043  L 856.258286557476 561.87284958918  C 856.622389581545 560.942767000943  856.989810308732 560.013986621298  857.360541721504 559.086526189441  L 856.431977793936 558.715353679119  Z M 857.936103930542 555.003808371776  C 857.555660134555 555.929899597839  857.178522169217 556.85734543336  856.804697237746 557.786128164415  L 857.732375556826 558.159508582097  C 858.105312253095 557.232932706304  858.481554111206 556.30769054952  858.861093945088 555.383799783508  L 857.936103930542 555.003808371776  Z M 859.475479002153 551.306743537047  C 859.086240253355 552.229172741584  858.700294295852 553.152987950653  858.31764850103 554.078171519818  L 859.241731937945 554.460362311987  C 859.623468538553 553.537377046214  860.0084974604 552.61575688925  860.396811349645 551.695519443535  L 859.475479002153 551.306743537047  Z M 861.049963624702 547.624493928909  C 860.651965167079 548.543177589711  860.257246163185 549.463278524766  859.865814152029 550.384779160435  L 860.786219034835 550.775745721291  C 861.176720975088 549.856434638096  861.570502097929 548.938519929762  861.967554882295 548.022019128096  L 861.049963624702 547.624493928909  Z M 862.660549335092 543.957353240797  C 862.520890215326 544.270655517205  862.38161417923 544.584128418459  862.242721539041 544.897771241807  C 861.976751574906 545.499987752945  861.712195003885 546.102827501031  861.44905401073 546.706285507715  L 862.36569700056 547.105992436848  C 862.62814670937 546.504119744059  862.89200792215 545.902863530349  863.157278461 545.302228758464  C 863.295774549436 544.989482412598  863.434652753385 544.676905421777  863.573912761768 544.364498486147  L 862.660549335092 543.957353240797  Z M 864.308445763227 540.307366752407  C 863.892132848607 541.217897365851  863.479070353073 542.129910631932  863.069266165987 543.043389131483  L 863.981658451767 543.452706021985  C 864.390488914324 542.541398013729  864.802569943336 541.63155175748  865.217893668217 540.72318463094  L 864.308445763227 540.307366752407  Z M 865.990998857474 536.673225988992  C 865.566040680207 537.579753974507  865.144318666792 538.487795474672  864.725840871921 539.39733314632  L 865.634297015796 539.815313330843  C 866.051780477006 538.907936786821  866.472500448277 538.002052859235  866.896448894023 537.097678850113  L 865.990998857474 536.673225988992  Z M 867.708056269591 533.05526000701  C 867.274491307909 533.957703282179  866.844147961758 534.861690797108  866.417034450561 535.767205285921  L 867.321472195576 536.193810918083  C 867.747570854033 535.290447997498  868.176891673103 534.388608422631  868.609426452931 533.488309418263  L 867.708056269591 533.05526000701  Z M 869.459462527109 529.453796398363  C 869.017330038508 530.352073250715  868.578404325482 531.251924927974  868.142693771305 532.153334243394  L 869.04303122435 532.588526695815  C 869.477706498577 531.689259194455  869.915589292219 530.791545630161  870.356671241886 529.895403148909  L 869.459462527109 529.453796398363  Z M 871.245059047413 525.869161260729  C 870.794399065179 526.763190354976  870.346930728168 527.658824716752  869.902662582816 528.556047239861  L 870.798818222048 528.999787107657  C 871.242030754003 528.104696450463  871.688435873711 527.211190181051  872.138025055078 526.319285364899  L 871.245059047413 525.869161260729  Z M 873.064684152102 522.301679168038  C 872.60553748165 523.19137955351  872.149567037044 524.082715503851  871.696781527177 524.975669994825  L 872.588674209398 525.427917099183  C 873.04038386799 524.537084332969  873.495270893667 523.647866261653  873.953326598265 522.76027986895  L 873.064684152102 522.301679168038  Z M 874.918173081626 518.751673141083  C 874.450581296769 519.636964259124  873.986150030858 520.523921091144  873.524888154314 521.412526696682  L 874.412437122319 521.87324008849  C 874.872603007126 520.986745874444  875.335930750581 520.101896516347  875.802411503378 519.218708914335  L 874.918173081626 518.751673141083  Z M 876.805358010205 515.219464618271  C 876.329363449463 516.100266309398  875.85651341456 516.982763712858  875.386816936711 517.866939973365  L 876.269941826602 518.336077936926  C 876.738522271476 517.454002543488  877.21024878034 516.573602017979  877.685112343404 515.694893175699  L 876.805358010205 515.219464618271  Z M 878.726068061026 511.705373426518  C 878.241713823744 512.58160593777  877.76048783447 513.45956400617  877.282399284395 514.33923086313  L 878.161020132855 514.816750919936  C 878.637972709781 513.939174215375  879.11805527114 513.063302239134  879.601258647545 512.189151720026  L 878.726068061026 511.705373426518  Z M 880.680129321715 508.209717752291  C 880.187459264171 509.081301744427  879.697900893555 509.954640982284  879.211463560201 510.829718785492  L 880.085500811734 511.31557769807  C 880.570782334624 510.442579143336  881.059177478982 509.571315022962  881.550676916654 508.70180197775  L 880.680129321715 508.209717752291  Z M 882.667364860081 504.732814112795  C 882.166423591532 505.599670667457  881.668577167039 506.468311997549  881.173835095313 507.338721512295  L 882.043209609451 507.832875288126  C 882.536776138063 506.964533929638  883.033439643253 506.097956554503  883.533190638946 505.233159714008  L 882.667364860081 504.732814112795  Z M 884.687594740142 501.27497732732  C 884.17842761874 502.137027954243  883.672338218337 503.000892724635  883.169336205082 503.866555138949  L 884.033969263547 504.368959034445  C 884.535776107467 503.505353496932  885.040663002658 502.643541332045  885.548620305979 501.783539000055  L 884.687594740142 501.27497732732  Z M 886.740636038413 497.836520488725  C 886.223289167128 498.693687132803  885.70900261515 499.552697124057  885.197786205109 500.4135340558  L 886.057599518944 500.92414258036  C 886.567601241632 500.065351059744  887.080665811396 499.208382138641  887.596783428907 498.35325218482  L 886.740636038413 497.836520488725  Z M 888.826302860469 494.4177549351  C 888.300823082954 495.269959983382  887.778385945874 496.124037415776  887.259001427613 496.979970919669  L 888.113917144267 497.498737839796  C 888.632067567183 496.644838096085  889.153263355614 495.792790013813  889.677494555005 494.942609866631  L 888.826302860469 494.4177549351  Z M 890.944406357782 491.018990221567  C 890.410841254036 491.866156510446  889.880300836436 492.7152240507  889.352795238054 493.566176625538  L 890.202735948435 494.093054969027  C 890.728988155169 493.244124319366  891.258267970189 492.397074225277  891.790565284461 491.551920865085  L 890.944406357782 491.018990221567  Z M 893.094754744812 487.640534092256  C 892.55315262697 488.482584914295  892.01455696707 489.32656568289  891.478978052038 490.172460278404  L 892.323866797518 490.707402338594  C 892.858173138116 489.86351765013  893.395489055595 489.021542241162  893.935804287434 488.181492193088  L 893.094754744812 487.640534092256  Z M 895.277153316382 484.282692452438  C 894.727563224295 485.119551563386  894.180961089684 485.958369141387  893.637357352477 486.799129165288  L 894.477117631865 487.342086505381  C 895.01942972709 486.503324188393  895.564733095288 485.666499701946  896.113017321378 484.831629029059  L 895.277153316382 484.282692452438  Z M 897.491404465299 480.945769340828  C 896.933876162056 481.777360966586  896.379317045359 482.610939402433  895.827737707026 483.446488727411  L 896.662293483493 483.997412184859  C 897.212562229221 483.163848185816  897.765803673165 482.332250392898  898.32200724863 481.502634689294  L 897.491404465299 480.945769340828  Z M 899.737307700254 477.630066902052  C 899.171891667758 478.456315745406  898.609425781988 479.284579562052  898.049920785777 480.11484253254  L 898.879196493737 480.673682223496  C 899.437372065404 479.845392018181  899.998501491363 479.019096216542  900.562574054263 478.194810600503  L 899.737307700254 477.630066902052  Z M 902.014659663968 474.335885359294  C 901.44140709831 475.156716606819  900.871085372433 475.979590808392  900.303705379216 476.804492247501  L 901.127625931173 477.371197571335  C 901.693657788282 476.54825615801  902.2626243883 475.727337165327  902.834514864191 474.908456272516  L 902.014659663968 474.335885359294  Z M 904.324062039547 471.063900685817  C 904.004183525095 471.51246664513  903.685090995922 471.961592582194  903.366785920638 472.411276429926  C 903.10689572437 472.779013761646  902.847595889006 473.147167962788  902.58888741644 473.51573761086  L 903.407378209787 474.090257254741  C 903.665400868818 473.722664652573  903.924013160546 473.35548628182  904.183214086304 472.988723560394  C 904.500773317548 472.540094150359  904.819117979425 472.092021218288  905.138246607387 471.644506825545  L 904.324062039547 471.063900685817  Z M 906.662757939554 467.813612525307  C 906.07463863722 468.623699169711  905.489099171521 469.435655631119  904.906148439907 470.249469571606  L 905.719099206405 470.831801994927  C 906.30081430463 470.01971302985  906.885112649791 469.209477606731  907.471985363336 468.40110803729  L 906.662757939554 467.813612525307  Z M 909.028955998039 464.583290809583  C 908.433982374651 465.388356690547  907.841572625149 466.195314217192  907.251735751381 467.004151127553  L 908.059714766654 467.593362389223  C 908.648301411037 466.786239904864  909.239455477616 465.980992820672  909.833167983667 465.177633372565  L 909.028955998039 464.583290809583  Z M 911.422485761838 461.373168240448  C 910.820700677348 462.17315536366  910.221463319304 462.975055824964  909.624782793299 463.778857439236  L 910.427731853184 464.374905094403  C 911.023147643853 463.572807233245  911.621114847077 462.772606495302  912.221624376513 461.974315039937  L 911.422485761838 461.373168240448  Z M 913.8431748089 458.183476064627  C 913.23462161392 458.978326801654  912.628599814463 459.775112431289  912.025118619119 460.573820846255  L 912.822979881793 461.176661957598  C 913.425181926958 460.379646500125  914.029919191197 459.584549752316  914.637182485291 458.791383795975  L 913.8431748089 458.183476064627  Z M 916.290848760707 455.014444057105  C 915.675571293451 455.80410114946  915.062808708344 456.59571454968  914.452570316502 457.389272228958  L 915.245286306651 457.998863369776  C 915.854231225648 457.206987730373  916.465694987608 456.417052248865  917.0796683011 455.629068928628  L 916.290848760707 455.014444057105  Z M 918.765331294841 451.866300504577  C 918.143373877866 452.650707067967  917.523914648553 453.437091213493  916.906963019774 454.225440991806  L 917.694476632732 454.841738249147  C 918.310120559178 454.055059471924  918.928266770979 453.270342161124  919.548905875257 452.48759824071  L 918.765331294841 451.866300504577  Z M 921.266444157676 448.739272189  C 920.63785159476 449.518371717345  920.011740345057 450.299469959635  919.388119922516 451.082555046845  L 920.17037442838 451.705514024673  C 920.792673013286 450.924088779414  921.417457145729 450.144646167748  922.044717331968 449.367198033489  L 921.266444157676 448.739272189  Z M 923.794007177227 445.633584371261  C 923.158824750121 446.40732074078  922.526106583033 447.183076812074  921.895862290306 447.960840797294  L 922.672801338021 448.590416619682  C 923.301709753017 447.814301197725  923.933086798731 447.040189433648  924.566922881142 446.268093090382  L 923.794007177227 445.633584371261  Z M 926.347838276128 442.549460774946  C 925.706111741295 443.317778248203  925.066832235767 444.088136265573  924.43000947359 444.86052312123  L 925.20157709501 445.496670435597  C 925.837050035608 444.725920745737  926.474974512224 443.957195593768  927.115340831348 443.190506660768  L 926.347838276128 442.549460774946  Z M 928.927753484742 439.487123570225  C 928.279529070063 440.249966800144  927.633734277698 441.014871269519  926.990378920699 441.781825355393  L 927.756519534618 442.424498335768  C 928.398511223427 441.65916990029  929.042937176954 440.895886736872  929.689787602896 440.134660443901  L 928.927753484742 439.487123570225  Z M 931.533566954423 436.44679335785  C 930.878891355862 437.2041073917  930.226627797605 437.963503211865  929.576786190997 438.724969279094  L 930.337444607152 439.374121629419  C 930.985908797209 438.614269580058  931.636789805277 437.856483389653  932.290077741066 437.100774572941  L 931.533566954423 436.44679335785  Z M 934.165090970897 433.428689153256  C 933.50401134914 434.180419436615  932.845326011923 434.934251903181  932.189044968169 435.69017509824  L 932.944166391218 436.345760055704  C 933.599056369267 435.591439129736  934.256345544572 434.83920450074  934.916023929467 434.089067599098  L 934.165090970897 433.428689153256  Z M 936.822135967784 430.433028370795  C 936.154699944845 431.179120751472  935.489640278203 431.927335560815  934.826967073642 432.677661429472  L 935.576497107108 433.339631767881  C 936.237765697003 432.590896304135  936.901415690617 431.844267425031  937.567437003529 431.099756475885  L 936.822135967784 430.433028370795  Z M 939.504510540259 427.460026808065  C 938.830766196045 428.200427540007  938.159380108701 428.942970793181  937.490362480141 429.687645284416  L 938.234247130334 430.355953317592  C 938.901846696484 429.612857252483  939.571809701165 428.871887908048  940.244125964133 428.133056543492  L 939.504510540259 427.460026808065  Z M 942.212021458838 424.509898630369  C 941.532017327686 425.24455437753  940.854353184095 425.981372584149  940.179039325378 426.720342054049  L 940.917225005282 427.394939639269  C 941.591107455981 426.657536503024  942.267335209821 425.922280070227  942.945897991364 425.189181513273  L 942.212021458838 424.509898630369  Z M 944.944473683293 421.582856355286  C 944.258258750476 422.31171419547  943.574365367345 423.042754277562  942.892803925871 423.775965493185  L 943.625237459006 424.456804034646  C 944.305354249967 423.725146947374  944.987798039733 422.995656391682  945.672558458409 422.268343452352  L 944.944473683293 421.582856355286  Z M 947.70167037671 418.679110837361  C 947.009294074905 419.402118266036  946.319220717677 420.127327561865  945.6314607909 420.854727705074  L 946.358089415151 421.541758157397  C 947.04439155297 420.815899825299  947.73300221768 420.092227696787  948.423910945571 419.370752768342  L 947.70167037671 418.679110837361  Z M 950.483412919662 415.798871252919  C 949.784925125393 416.515976186995  949.088721504692 417.235302454858  948.394812636588 417.956839126127  L 949.115584008007 418.650011997886  C 949.808022053759 417.930004709383  950.502749988082 417.212203139097  951.199757254422 416.496618194193  L 950.483412919662 415.798871252919  Z M 951.852895080895 414.398713998412  C 951.6292522827 414.626418735075  951.405840607433 414.85435035652  951.182660400111 415.082508510753  L 951.897522596688 415.781773868043  C 952.596046669385 415.067669490122  953.29684182743 414.355790186102  953.999897422077 413.646146773155  L 951.852895080895 414.398713998412  Z M 825.609082196686 706.982268856779  C 825.569628525025 707.98255286293  825.533358661435 708.982959909192  825.500273157051 709.983474793923  L 826.499726842949 710.016525206077  C 826.532742218674 709.01813103158  826.568935203973 708.019844467087  826.608305248886 707.021680681795  L 825.609082196686 706.982268856779  Z M 957.374937882096 420.052166443819  L 960 407  L 946.890943665081 409.324358407803  L 957.374937882096 420.052166443819  Z " fill-rule="nonzero" fill="#1f8aee" stroke="none" />
  </g>
</svg>