<?xml version="1.0" encoding="utf-8"?>
<svg version="1.1" xmlns:xlink="http://www.w3.org/1999/xlink" width="50px" height="50px" xmlns="http://www.w3.org/2000/svg">
  <g transform="matrix(1 0 0 1 -240 -170 )">
    <path d="M 265 170  C 279 170  290 181  290 195  C 290 209  279 220  265 220  C 251 220  240 209  240 195  C 240 181  251 170  265 170  Z " fill-rule="nonzero" fill="#ffffff" stroke="none" />
    <path d="M 265 170.5  C 278.72 170.5  289.5 181.28  289.5 195  C 289.5 208.72  278.72 219.5  265 219.5  C 251.28 219.5  240.5 208.72  240.5 195  C 240.5 181.28  251.28 170.5  265 170.5  Z " stroke-width="1" stroke="#bbbbbb" fill="none" />
  </g>
</svg>