<?xml version="1.0" encoding="utf-8"?>
<svg version="1.1" xmlns:xlink="http://www.w3.org/1999/xlink" width="508px" height="38px" viewBox="142 1546  508 38" xmlns="http://www.w3.org/2000/svg">
  <g transform="matrix(0.469471562785891 -0.882947592858929 0.882947592858927 0.469471562785892 -1171.72372168743 1179.92425101221 )">
    <path d="M 291.62054827003 1347.50883402025  C 291.311826078334 1346.55806149125  291.00413442333 1345.6069546485  290.697473847291 1344.65551516822  L 289.74569061293 1344.9622865404  C 290.052572841262 1345.91441371502  290.360486893814 1346.86620801168  290.669432227925 1347.81766775295  L 291.62054827003 1347.50883402025  Z M 292.860930904553 1351.31013397683  C 292.549462150025 1350.36025766463  292.239022961676 1349.41004406168  291.929613886622 1348.45949484264  L 290.978721235157 1348.76901570687  C 291.288353949166 1349.72025197697  291.599017520834 1350.6711523878  291.91071140304 1351.62171526469  L 292.860930904553 1351.31013397683  Z M 294.112294593676 1355.10783319577  C 293.798081877965 1354.15886103452  293.484897749321 1353.20954860836  293.172742759697 1352.25989759036  L 292.222748633787 1352.57216536125  C 292.535129247096 1353.5225027811  292.848539743084 1354.47250136378  293.16297956979 1355.4221594362  L 294.112294593676 1355.10783319577  Z M 295.374628884951 1358.90189995547  C 295.057674832694 1357.95383987199  294.741748379603 1357.00543655169  294.426850082856 1356.05669166721  L 293.477762417654 1356.37170373644  C 293.792888320931 1357.32113436782  294.109043123499 1358.27022318754  294.426226268173 1359.21896852295  L 295.374628884951 1358.90189995547  Z M 296.647923234297 1362.69230256467  C 296.32823049283 1361.74516247757  296.009564354437 1360.79767618578  295.691925380734 1359.84984535914  L 294.743752103822 1360.16759909547  C 295.061620664934 1361.11611500814  295.380517133161 1362.06428613692  295.700440946486 1363.01211081079  L 296.647923234297 1362.69230256467  Z M 297.932167006085 1366.47900936275  C 297.609738245749 1365.53279718334  297.288335083827 1364.58623583426  296.967958086355 1363.63932698255  L 296.020707117677 1363.95981973183  C 296.341315681516 1364.90741300297  296.662951151709 1365.85465852089  296.985612961413 1366.80155461618  L 297.932167006085 1366.47900936275  Z M 299.227349473225 1370.26198871992  C 298.902187387353 1369.31671235215  298.578049886264 1368.37108385148  298.254937541216 1367.42510488448  L 297.308616793011 1367.74833396968  C 297.631962681652 1368.69499668439  297.956334467107 1369.64130867887  298.281731578111 1370.58726828651  L 299.227349473225 1370.26198871992  Z M 300.53345981726 1374.04120903754  C 300.205567121813 1373.09687637698  299.878697989162 1372.1521886238  299.552852995377 1371.20714744291  L 298.607470372116 1371.53311016415  C 298.933550884567 1372.47883441472  299.260656276125 1373.42420498213  299.588785970304 1374.36922020027  L 300.53345981726 1374.04120903754  Z M 301.850487128454 1377.81663874839  C 301.5198665622 1376.87325768269  301.19026852841 1375.92951856822  300.861693607554 1374.98542306704  L 299.91725700587 1375.3141167016  C 300.246069418498 1376.25889458874  300.575905683763 1377.20331583216  300.906765220368 1378.14737876743  L 301.850487128454 1377.81663874839  Z M 303.178420405883 1381.58824631687  C 302.845074730581 1380.64582472634  302.512750548459 1379.7030421327  302.181448445203 1378.75990019751  L 301.237965753828 1379.09132199987  C 301.569507320183 1380.03514563218  301.902071703948 1380.97860966262  302.23565831943 1381.92171242961  L 303.178420405883 1381.58824631687  Z M 304.517248557526 1385.35600023935  C 304.181180557423 1384.4145459955  303.846133003097 1383.47272779839  303.512106484618 1382.53054730671  L 302.569585584317 1382.86469450855  C 302.903853534947 1383.80755600204  303.239143259628 1384.75005493967  303.575454167451 1385.69218966039  L 304.517248557526 1385.35600023935  Z M 305.86696040036 1389.11986904435  C 305.528172882718 1388.17939001139  305.190404754512 1387.2385440769  304.853656611021 1386.297332899  L 303.912105374523 1386.63420270924  C 304.249096917408 1387.57609418853  304.587109182244 1388.51762016041  304.926141573326 1389.45877896556  L 305.86696040036 1389.11986904435  Z M 307.227544660453 1392.87982129287  C 306.886040454972 1391.94032532609  306.545554574489 1391.00045951373  306.20608761865 1390.06022551102  L 305.265513910588 1390.39981511584  C 305.605226230889 1391.34072871344  305.945958212517 1392.28127385516  306.287709254972 1393.22144888339  L 307.227544660453 1392.87982129287  Z M 308.598989973056 1396.63582557861  C 308.254771932336 1395.69732052567  307.911571143462 1394.7584426856  307.569388210861 1393.8191937119  L 306.629799887699 1394.16150027476  C 306.972230147853 1395.10142813138  307.315679000192 1396.0409845867  307.660145839426 1396.98016798487  L 308.598989973056 1396.63582557861  Z M 309.981284882698 1400.38785052825  C 309.634355882013 1399.45034422853  309.288443051307 1398.51246220266  308.943547000215 1397.57420610357  L 308.004951910189 1397.91922676524  C 308.350097249929 1398.85816102981  308.696260104204 1399.79672095077  309.04343986294 1400.73490487402  L 309.981284882698 1400.38785052825  Z M 311.374417843287 1404.13586480171  C 311.024780780335 1403.19936508566  310.676158797441 1402.26248670876  310.328552508578 1401.325231321  L 309.390958491627 1401.67296319957  C 309.73881602808 1402.6108960295  310.087689992701 1403.54845157607  310.437579771074 1404.48562818809  L 311.374417843287 1404.13586480171  Z M 312.778377218199 1407.87983709242  C 312.42603501359 1406.94435178286  312.074706790203 1406.00848487975  311.724393167215 1405.07223803245  L 310.787808054915 1405.42267822337  C 311.138374882337 1406.35960178388  311.489957043504 1407.29614512557  311.842553918793 1408.23230659789  L 312.778377218199 1407.87983709242  Z M 314.193151280379 1411.61973612754  C 313.838106877027 1410.68527303806  313.484075348029 1409.75042542666  313.131057316886 1408.81519493976  L 312.195488932387 1409.16834051587  C 312.548762122693 1410.10424698136  312.903049543403 1411.03977029459  313.258350570567 1411.97490880799  L 314.193151280379 1411.61973612754  Z M 315.618728212441 1415.3555306683  C 315.260984576124 1414.4220976047  314.904252698391 1413.48827709288  314.548533207944 1412.55407077859  L 313.613989365903 1412.90991879012  C 313.969965968111 1413.84480034272  314.32695568935 1414.779295814  314.684957900468 1415.71340355701  L 315.618728212441 1415.3555306683  Z M 317.055096106763 1419.08718951017  C 316.694656225582 1418.15479426908  316.335226978988 1417.22200865729  315.976809000433 1416.2888343187  L 315.04329750695 1416.6473817933  C 315.401974547789 1417.58123062448  315.761663587383 1418.51469044733  316.122363992266 1419.4477596179  L 317.055096106763 1419.08718951017  Z M 318.502242965585 1422.81468148319  C 318.139109850241 1421.88333185277  317.776986237041 1420.95158893241  317.415872764188 1420.01945436419  L 316.483401416739 1420.38069830696  C 316.844775900088 1421.31350661605  317.207161253906 1422.2459229942  317.570556839531 1423.17794579815  L 318.502242965585 1422.81468148319  Z M 319.960156701117 1426.53797545221  C 319.594333384803 1425.60767921187  319.22951842976 1424.67698676565  318.865712478933 1423.74589975377  L 317.934289066306 1424.1098371473  C 318.298357973735 1425.04159714288  318.663436614681 1425.97296228762  319.029524345736 1426.9039309401  L 319.960156701117 1426.53797545221  Z M 321.428825135631 1430.25704031712  C 321.060314674013 1429.32780523749  320.692811424369 1428.39817103933  320.326316034383 1427.46813936102  L 319.395948336613 1427.8347671654  C 319.76270862711 1428.76547106463  320.130477505739 1429.69577719641  320.499254324349 1430.62568392118  L 321.428825135631 1430.25704031712  Z M 322.908236001569 1433.97184501316  C 322.537041472833 1433.04367885618  322.166852998133 1432.11511067079  321.797671230343 1431.18614209465  L 320.868367018647 1431.5554572475  C 321.237815628721 1432.48509727634  321.608271673116 1433.41433662446  321.979734498947 1434.34317365416  L 322.908236001569 1433.97184501316  Z M 324.398376941641 1437.68235851114  C 324.024501446165 1436.75526902925  323.651630838841 1435.82777461359  323.279765776813 1434.89987689876  L 322.351532813523 1435.27187631524  C 322.723666657227 1436.20044470857  323.096806773027 1437.12860951123  323.470952503307 1438.05636908743  L 324.398376941641 1437.68235851114  Z M 325.899235508932 1441.38854981771  C 325.522682169717 1440.46254475495  325.147132544146 1439.53613185585  324.772587294087 1438.60931275311  L 323.84543333259 1438.98399332597  C 324.220249301548 1439.9114823276  324.596070371971 1440.83856483198  324.972895881519 1441.76523920525  L 325.899235508932 1441.38854981771  Z M 327.410799167005 1445.09038797565  C 327.031571129262 1444.16547506659  326.65334562251 1443.24015142261  326.27612331286 1442.31441867335  L 325.350056097528 1442.69177727294  C 325.72755106096 1443.61817913569  326.106049946831 1444.54417159803  326.485552088083 1445.469753028  L 327.410799167005 1445.09038797565  Z M 328.933055290003 1448.78784206406  C 328.551155721523 1447.86402903475  328.170257492534 1446.93980237422  327.790361274329 1446.01516371131  L 326.865388540457 1446.39519718562  C 327.245559345207 1447.3205041714  327.626732884985 1448.24539885702  328.008908488017 1449.16987961245  L 328.933055290003 1448.78784206406  Z M 330.465991162758 1452.4808811987  C 330.08142325341 1451.55817576541  329.697855483925 1450.63505380862  329.315288530299 1449.71151695525  L 328.391418004042 1450.09422212991  C 328.774261474681 1451.01842650997  329.158106484323 1451.94221569299  329.542952356963 1452.86558805203  L 330.465991162758 1452.4808811987  Z M 332.009593980894 1456.16947453219  C 331.622360942914 1455.24788440212  331.236126836815 1454.32587485977  330.850892343292 1453.4034475301  L 329.928131741595 1453.78882120843  C 330.313644680212 1454.71191526285  330.700157953679 1455.63459122737  331.087670881289 1456.55684747705  L 332.009593980894 1456.16947453219  Z M 333.563850850938 1459.85359125426  C 333.173955918904 1458.93312412552  332.785058702183 1458.01223469863  332.397159886646 1457.09092459773  L 331.475516917185 1457.47896356078  C 331.863696103572 1458.40093957889  332.252874412539 1459.32249461834  332.643051158203 1460.243627055  L 333.563850850938 1459.85359125426  Z M 335.128748790424 1463.53320059208  C 334.736195220825 1462.6138641526  334.344638142364 1461.69410253437  333.954078244631 1460.77391735723  L 333.033560605747 1461.16461836376  C 333.424402797581 1462.08546864464  333.816242891142 1463.00589506103  334.209080195856 1463.92589599078  L 335.128748790424 1463.53320059208  Z M 336.704274728003 1467.20827181043  C 336.309065799939 1466.29007373968  335.914852130031 1465.37144761197  335.521634412548 1464.45239504513  L 334.602249793181 1464.84575483167  C 334.99575172582 1465.76547168361  335.390250330996 1466.68476178876  335.78574491345 1467.60362352698  L 336.704274728003 1467.20827181043  Z M 338.290415503551 1470.87877421202  C 337.892554518224 1469.96172217975  337.495687549511 1469.04423921532  337.099815296847 1468.12632693568  L 336.181571376474 1468.52234221657  C 336.577729763057 1469.4409179573  336.974883584661 1470.35906407252  337.373032141351 1471.2767789441  L 338.290415503551 1470.87877421202  Z M 339.887157868283 1474.54467713772  C 339.48664814888 1473.62877880373  339.087131196493 1472.71244666655  338.688607715226 1471.79568234109  L 337.771512163795 1472.19434980847  C 338.170323695273 1473.11177676528  338.570129415943 1474.02877122144  338.970928621195 1474.94533156086  L 339.887157868283 1474.54467713772  Z M 341.494488484856 1478.2059499668  C 341.091333376775 1477.29121298145  340.689169777816 1476.3760393255  340.28799839675 1475.46043061182  L 339.372058874618 1475.86174693569  C 339.77352021978 1476.77801744545  340.175974500001 1477.69385258304  340.579421006002 1478.6092507344  L 341.494488484856 1478.2059499668  Z M 343.112393927489 1481.86256211723  C 342.706596798221 1480.94899412118  342.301789911901 1480.03498659075  341.897973981958 1479.12054113679  L 340.983198139826 1479.524502965  C 341.387305945326 1480.43960937426  341.792405423459 1481.35427754345  342.198495860284 1482.26850586057  L 343.112393927489 1481.86256211723  Z M 344.74086068207 1485.51448304589  C 344.332424921174 1484.60209167002  343.924978128782 1483.68925789969  343.518521022974 1482.77598334367  L 342.604916501821 1483.182587302  C 343.011667392296 1484.09652196719  343.41940868444 1485.01001552752  343.828139660162 1485.9230663742  L 344.74086068207 1485.51448304589  Z M 346.379875146268 1489.16168224886  C 345.968804165346 1488.25047511424  345.55872087022 1487.33882272876  345.14962598362 1486.42672669911  L 344.237200414644 1486.83596939126  C 344.646590992482 1487.74872467824  345.056970693005 1488.66103599982  345.468338793475 1489.57290174929  L 346.379875146268 1489.16168224886  Z M 348.029423629651 1492.80412926164  C 347.615720862314 1491.89411397944  347.203004489819 1490.98365059371  346.791275239532 1490.07274070903  L 345.88003624408 1490.48461871666  C 346.292063089622 1491.39618700114  346.705077770856 1492.30730846395  347.119079559894 1493.21798149935  L 348.029423629651 1492.80412926164  Z M 349.689492353798 1496.44179365945  C 349.273161255641 1495.53297783088  348.85781525313 1494.62371104985  348.443455078268 1493.71399491884  L 347.533410267779 1494.12850480159  C 347.948069939511 1495.03887846958  348.36371615144 1495.94880246279  348.780348171038 1496.85827517759  L 349.689492353798 1496.44179365945  Z M 351.360067452412 1500.07464505743  C 350.941111500984 1499.1670362737  350.523139337779 1498.25897369234  350.106151699427 1497.3504589137  L 349.197308675362 1497.76759720925  C 349.614597709698 1498.67676865652  350.032871980494 1499.58548757968  350.45213075059 1500.4937523772  L 351.360067452412 1500.07464505743  Z M 353.04113497144 1503.70265311095  C 352.619557666127 1502.79625895299  352.198962833658 1501.88940815657  351.779351214762 1500.98210231881  L 350.871717568547 1501.40186554285  C 351.291632479936 1502.30982717525  351.712531315819 1503.21733343796  352.13441333441 1504.12438273161  L 353.04113497144 1503.70265311095  Z M 354.732680869186 1507.32578751583  C 354.308485731533 1506.42061555496  353.885271742614 1505.51498411753  353.463039648299 1504.6088947996  L 352.556622961256 1505.03127944592  C 352.979160242214 1505.93802367939  353.402680127481 1506.8443097014  353.827181870652 1507.75013591473  L 354.732680869186 1507.32578751583  Z M 356.43469101643 1510.94401800857  C 356.007881589585 1510.04007580539  355.582051979432 1509.13567129191  355.15720293645 1508.23080606204  L 354.252010779737 1508.65580860254  C 354.677166900964 1509.56132786336  355.103304297843 1510.46638607423  355.530422219885 1511.37098164121  L 356.43469101643 1510.94401800857  Z M 358.147151196547 1514.55731436667  C 357.717731045583 1513.65460947166  357.289289371085 1512.75143943648  356.861826928133 1511.84780585288  L 355.957866862678 1512.27542273756  C 356.385638272736 1513.17970946171  356.81438962212 1514.08353230237  357.244120155208 1514.98688966668  L 358.147151196547 1514.55731436667  Z M 359.870047105622 1518.16564640883  C 359.43801981742 1517.26418636213  359.006969657283 1516.3622583493  358.576897384889 1515.45986395988  L 357.674176961331 1515.89009161693  C 358.104560087287 1516.7931382514  358.535921807529 1517.69571817163  358.968261362367 1518.59782978803  L 359.870047105622 1518.16564640883  Z M 361.603364352576 1521.7689839952  C 361.168733535791 1520.86877632658  360.73507849051 1519.96809786976  360.302399981 1519.06695021208  L 359.400926739622 1519.49978504787  C 359.833917986376 1520.40158404929  360.267886474735 1521.30291351071  360.702831439879 1522.20377184364  L 361.603364352576 1521.7689839952  Z M 363.347088459279 1525.36729702768  C 362.909857744224 1524.46834925624  362.473601436232 1523.56892787902  362.038320303613 1522.66903448004  L 361.138101774281 1523.10447287918  C 361.573697525213 1524.00501671514  362.010269156639 1524.90508818872  362.447815899152 1525.80468571363  L 363.347088459279 1525.36729702768  Z M 365.101204860673 1528.9605554501  C 364.661377899651 1528.06287508499  364.222523972568 1527.16471829936  363.784643852856 1526.26608667612  L 362.885687554954 1526.70412500145  C 363.323884171601 1527.60340614986  363.763055299479 1528.50221211743  364.203200164601 1529.40054132014  L 365.101204860673 1528.9605554501  Z M 366.865698904898 1532.54872924855  C 366.423279371623 1531.65232378776  365.981831491309 1530.75543909626  365.541356041958 1529.8580767547  L 364.643669484329 1530.29871134736  C 365.084463306503 1531.19672229666  365.526230262505 1532.09425525065  365.968969573774 1532.99130862753  L 366.865698904898 1532.54872924855  Z M 368.64055585341 1536.13178845156  C 368.195547443345 1535.23666538264  367.751509297144 1534.3410602768  367.308442197376 1533.44497471244  L 366.412032878257 1533.88820189188  C 366.855420224075 1534.78493514112  367.299779318191 1535.68118758457  367.745109377474 1536.57695764269  L 368.64055585341 1536.13178845156  Z M 370.425760881105 1539.70970313039  C 369.978167311334 1538.81586993016  369.531542608229 1537.92155189084  369.085887558917 1537.02675058856  L 368.190762965873 1537.47256665257  C 368.636740131791 1538.36801471147  369.083687652357 1539.26297915812  369.531604739882 1540.15745841525  L 370.425760881105 1539.70970313039  Z M 372.221299076443 1543.2824433993  C 371.771124085646 1542.3899075338  371.321916556223 1541.49688403109  370.873677279852 1540.60337446502  L 369.979844889722 1541.05177568976  C 370.42840815056 1541.9459310788  370.877940364296 1542.83960005316  371.328440738681 1543.73278103784  L 372.221299076443 1543.2824433993  Z M 374.027155441572 1546.84997941572  C 373.574402789898 1545.95874833999  373.122616186505 1545.06702683354  372.671796427056 1544.17481646684  L 371.779263705882 1544.6257991069  C 372.230409314955 1545.51865435752  372.682522466799 1546.41102039453  373.135602365178 1547.30289564635  L 374.027155441572 1546.84997941572  Z M 375.843314892456 1550.41228138059  C 375.387988361865 1549.5223625393  374.93362645783 1548.6319504768  374.480229981116 1547.74104676234  L 373.589004384085 1548.19460705072  C 374.042728572857 1549.08615470466  374.497418886753 1549.97721035127  374.953074524433 1550.86777242018  L 375.843314892456 1550.41228138059  Z M 377.669762258997 1553.96931953856  C 377.211865652666 1553.08072036488  376.754932243392 1552.19162518417  376.29896283647 1551.30203556333  L 375.40905180785 1551.75816971152  C 375.865350786528 1552.64840232201  376.322614464331 1553.538140135  376.780842035385 1554.42738158245  L 377.669762258997 1553.96931953856  Z M 379.506482285165 1557.52106417823  C 379.046019427834 1556.6337920945  378.586518330013 1555.74602122204  378.127979801525 1554.85775312544  L 377.239390774605 1555.31645732342  C 377.698260731794 1556.20536745448  378.158093954052 1557.09378000202  378.618889630976 1557.9816934003  L 379.506482285165 1557.52106417823  Z M 381.353459629123 1561.06748563243  C 380.890434366965 1560.1815480499  380.42836941874 1559.29510890111  379.967265598786 1558.40816974831  L 379.080005995813 1558.86944016459  C 379.541443098643 1559.7570203913  380.00384202444 1560.64410025261  380.46720195828 1561.53067818513  L 381.353459629123 1561.06748563243  Z M 383.210678863357 1564.60855427847  C 382.745095063854 1563.72395859705  382.280470124973 1562.83885857658  381.816804864987 1561.95325577587  L 380.9308820971 1562.41708855752  C 381.39488249126 1563.30333146607  381.85984325825 1564.1890712315  382.325763578633 1565.07430629281  L 383.210678863357 1564.60855427847  Z M 385.078124474803 1568.14424053834  C 384.609986027097 1567.26099414728  384.142804978116 1566.37724064751  383.676582151212 1565.49298159655  L 382.792003618388 1565.95937286926  C 383.25856342825 1566.84427105717  383.726082152495 1567.72866332792  384.194558967757 1568.61254812397  L 385.078124474803 1568.14424053834  Z M 386.955780864978 1571.67451487901  C 386.485091679262 1570.79262515576  386.015358422662 1569.9102255589  385.546581923031 1569.02731764358  L 384.663355014017 1569.49626351166  C 385.132470342384 1570.37980958733  385.602543118965 1571.26284697657  386.073572515896 1572.14537412423  L 386.955780864978 1571.67451487901  Z M 388.843914596125 1575.19873956401  C 388.734370113904 1574.99530829919  388.624882768376 1574.79184626984  388.515452574581 1574.58835350393  C 388.152000278987 1573.91128292566  387.789112148409 1573.23390965436  387.426788560629 1572.5562343952  L 386.54492065288 1573.02773094162  C 386.907564569376 1573.70600533054  387.27077361899 1574.38397741615  387.634547423197 1575.06164649188  C 387.744124945804 1575.26541337267  387.853759727191 1575.46914945787  387.963451753515 1575.67285472174  L 388.843914596125 1575.19873956401  Z M 390.745307267857 1578.71608709437  C 390.268534832933 1577.83752099032  389.792830105709 1576.95837589188  389.31819413975 1576.07865374614  L 388.438115645801 1576.55348197244  C 388.913136249231 1577.43391703107  389.38922648012 1578.31377457494  389.866385283875 1579.19305265505  L 390.745307267857 1578.71608709437  Z M 392.658086932094 1582.22725523296  C 392.178470254011 1581.35023858774  391.699919401955 1580.47263949157  391.222435435794 1579.5944598881  L 390.343900108953 1580.07213726824  C 390.821771020658 1580.95102853473  391.300709682636 1581.82933882311  391.780715034579 1582.70706618892  L 392.658086932094 1582.22725523296  Z M 394.582233506481 1585.7322071159  C 394.099777620755 1584.85674913734  393.618385668193 1583.98070525738  393.138058714955 1583.10407741623  L 392.261075779002 1583.58459893505  C 392.741791981696 1584.4619371817  393.223574046563 1585.33869099355  393.706420906998 1586.21485842957  L 394.582233506481 1585.7322071159  Z M 396.517726789321 1589.23090594453  C 396.032436761277 1588.35701582411  395.548208762364 1587.48253635799  395.065043865021 1586.60746948291  L 394.189622527437 1587.09083009539  C 394.673178973962 1587.96660611081  395.157799383667 1588.84179424141  395.643482683064 1589.71639254855  L 396.517726789321 1589.23090594453  Z M 398.46454645979 1592.72331498588  C 397.97642738461 1591.85100189879  397.489368423073 1590.97809602733  397.003370654495 1590.10459930586  L 396.129520106366 1590.59079393719  C 396.61591171994 1591.46499852675  397.103365386234 1592.3386117871  397.591880025484 1593.21163178309  L 398.46454645979 1592.72331498588  Z M 400.422672078145 1596.20939757299  C 399.931729080408 1595.33867067731  399.441844270304 1594.46734756592  398.953018732802 1593.59543016859  L 398.080748148721 1594.08445371419  C 398.569969822799 1594.95707769975  399.060251627683 1595.82910691739  399.551592477952 1596.70053943654  L 400.422672078145 1596.20939757299  Z M 402.392083085941 1599.68911710534  C 401.898321320079 1598.81998554287  401.405615804732 1597.95025433961  400.913967630503 1597.07992542071  L 400.043286168476 1597.57177274629  C 400.5353327666 1598.44280696597  401.028437562786 1599.31324298578  401.522599465364 1600.1830788787  L 402.392083085941 1599.68911710534  Z M 404.372758806251 1603.16243704919  C 403.876183456493 1602.29490994535  403.38066240843 1601.42677978084  402.886196759513 1600.55804847835  L 402.017113560862 1601.05271441999  C 402.511979917013 1601.92214972875  403.007902527373 1602.790983412  403.504880294033 1603.65921354625  L 404.372758806251 1603.16243704919  Z M 406.364678443874 1606.62932093803  C 405.865294723685 1605.76340740083  405.366963345606 1604.89688738997  404.869685413316 1604.02976282455  L 404.002209602582 1604.52724218874  C 404.499890521137 1605.39506945835  404.998625738958 1606.26229168311  405.49841415191 1607.1289069431  L 406.364678443874 1606.62932093803  Z M 408.367821085564 1610.08973237288  C 407.865634237993 1609.22544149359  407.364497761902 1608.360540734  406.86441276718 1607.49503200964  L 405.998553452028 1607.99531957332  C 406.499043707711 1608.86152969224  407.000586296958 1609.72713135387  407.503180108798 1610.5921226408  L 408.367821085564 1610.08973237288  Z M 410.38216570024 1613.54363502274  C 409.877180997768 1612.68097587559  409.373244685117 1611.81770344791  408.870357878378 1610.95381965162  L 408.006124149502 1611.45691016224  C 408.509418487747 1612.32149403628  409.013763182498 1613.18546604642  409.519157116576 1614.04882427888  L 410.38216570024 1613.54363502274  Z M 412.407691139213 1616.99099262495  C 411.899913883697 1616.12997426703  411.393183025335 1615.26833923479  410.887499686407 1614.40608943652  L 410.024900617434 1614.91197761211  C 410.530993754132 1615.77492616396  411.03813525925 1616.63725945175  411.546324009413 1617.49897556531  L 412.407691139213 1616.99099262495  Z M 414.444376136406 1620.43176898554  C 413.933811659126 1619.5724004569  413.424291575031 1618.71241186608  412.915817013211 1617.85180511881  L 412.054861660604 1618.36048564804  C 412.563748282368 1619.22178981775  413.073681273142 1620.08247532915  413.584659504001 1620.94254027679  L 414.444376136406 1620.43176898554  Z M 416.492199308577 1623.86592797967  C 415.978852969653 1623.00821830232  415.466549009932 1622.14988518305  414.955288563399 1621.29093052178  L 414.095985966365 1621.80239806399  C 414.607660730162 1622.66204880834  415.120379853206 1623.52107750769  415.634142199768 1624.3794822592  L 416.492199308577 1623.86592797967  Z M 418.551139155544 1627.29343355194  C 418.035016344939 1626.43739173155  417.519933887657 1625.58072309444  417.005892924474 1624.72342953792  L 416.148252104868 1625.23767872318  C 416.662709638814 1626.095667017  417.178209510644 1626.95302988461  417.694750579108 1627.80976542792  L 418.551139155544 1627.29343355194  Z M 420.621174060409 1630.71424971684  C 420.102280196813 1629.85988474085  419.584424650055 1629.00488958045  419.067608567053 1628.14926612925  L 418.211638529282 1628.66629155845  C 418.728873431854 1629.52260839335  419.247148640641 1630.37829642844  419.766463007608 1631.23335376828  L 420.621174060409 1630.71424971684  Z M 422.70228228979 1634.12834055908  C 422.180622821091 1633.27566139749  421.659999621844 1632.42234869044  421.140413845098 1631.56840432779  L 420.286123576027 1632.08820057265  C 420.806130416859 1632.94283695829  421.327175520998 1633.7968411766  421.84925773427 1634.65021133588  L 422.70228228979 1634.12834055908  Z M 424.794441994042 1637.53567023395  C 424.270022397165 1636.68468583909  423.746637011475 1635.83306454435  423.224286996137 1634.98080823586  L 422.371685464996 1635.50336983902  C 422.894458784515 1636.35631680253  423.41826831353 1637.20862823784  423.943112891744 1638.06030225698  L 424.794441994042 1637.53567023395  Z M 426.897631207493 1640.93620296778  C 426.370456988232 1640.08692227399  425.844314911362 1639.23700133312  425.319206141498 1638.38644202648  L 424.468302299787 1638.91176350154  C 424.993836609482 1639.76301208798  425.520405063658 1640.61362179147  426.048006496557 1641.46359072889  L 426.897631207493 1640.93620296778  Z M 429.01182784867 1644.32990305822  C 428.481904542068 1643.48233498248  427.953011297569 1642.63412331814  427.425149286537 1641.78526994376  L 426.575952067931 1642.31334577535  C 427.104241849978 1643.16288704707  427.633563701284 1644.01178608887  428.163916449342 1644.86004102035  L 429.01182784867 1644.32990305822  Z M 431.137009720532 1647.71673487467  C 430.604342890167 1646.87088831547  430.072704031131 1646.02439483341  429.542094320867 1645.17725630326  L 428.694612641124 1645.70808094709  C 429.225652349205 1646.55590598507  429.757722039831 1647.40308545184  430.290820535071 1648.24961747188  L 431.137009720532 1647.71673487467  Z M 433.273154510706 1651.09666285864  C 432.73774974907 1650.25254669655  432.203370857195 1649.40778028415  431.670019018592 1648.56236549237  L 430.824261775458 1649.0959333753  C 431.358045833945 1649.94203327783  431.89285777811 1650.78748427571  432.428696423286 1651.63228449617  L 433.273154510706 1651.09666285864  Z M 435.420239791717 1654.46965152412  C 434.882102720047 1653.62727462156  434.344989405799 1652.78424414805  433.808901038542 1651.94056197069  L 432.964877111657 1652.47686749075  C 433.501399916549 1653.32123337496  434.038948498798 1654.16494702682  434.577521668341 1655.00800657846  L 435.420239791717 1654.46965152412  Z M 437.578243021226 1657.83566545797  C 437.037379289445 1656.99503665907  436.497537192 1656.15375097547  435.958717924503 1655.3118102704  L 435.116436175311 1655.8508477969  C 435.65569209341 1656.69347079739  436.195971670442 1657.53543824574  436.737273709625 1658.37674827691  L 437.578243021226 1657.83566545797  Z M 439.747141542264 1661.19466932026  C 439.203556828925 1660.35579745083  438.660991616108 1659.51626538983  438.119447105457 1658.6760749966  L 437.27891637711 1659.21783887017  C 437.820899746857 1660.05871014039  438.36390464603 1660.89892254503  438.907929871813 1661.73847422293  L 439.747141542264 1661.19466932026  Z M 441.926912583476 1664.54662784466  C 441.380612595697 1663.70952171205  440.835329963923 1662.87175208794  440.291065895817 1662.03332082775  L 439.452295013082 1662.57780536038  C 439.997000144058 1663.41691607181  440.542724664567 1664.25536461167  441.089467365092 1665.09314912165  L 441.926912583476 1664.54662784466  Z M 444.117533259353 1667.89150583882  C 443.56852373276 1667.05617423185  443.020529406975 1666.2201758404  442.473551495666 1665.38351251598  L 441.636549264833 1665.93071199111  C 442.183970438494 1666.76805333441  442.732408850077 1667.60472920553  443.281863285409 1668.44073775218  L 444.117533259353 1667.89150583882  Z M 446.318980570475 1671.22926818473  C 445.767267269143 1670.39571987358  445.216567002762 1669.56150149197  444.666880990993 1668.72661488748  L 443.831656199786 1669.27652356003  C 444.381787668395 1670.11208674341  444.932934213652 1670.94698116254  445.485094614706 1671.78120496804  L 446.318980570475 1671.22926818473  Z M 448.531231403754 1674.55987983907  C 447.976820120259 1673.72812357537  447.423419694879 1672.89569396175  446.871031353941 1672.06259284288  L 446.03759277142 1672.61520493935  C 446.59042875935 1673.44898119052  447.144277651315 1674.28208539138  447.699138221164 1675.11451569753  L 448.531231403754 1674.55987983907  Z M 450.754262532675 1677.88330583362  C 450.19715908769 1677.05335034984  449.641064313713 1676.22271824428  449.085979443042 1675.39141135761  L 448.254335819513 1675.94672107609  C 448.809870522403 1676.77870164105  449.36641594642 1677.61000687718  449.923970859445 1678.44063494408  L 450.754262532675 1677.88330583362  Z M 452.98805061754 1681.19951127559  C 452.428260860002 1680.37136528529  451.869477576122 1679.54253940897  451.311702003462 1678.71303548226  L 450.481862070386 1679.27103699254  C 451.040089655654 1680.10121313627  451.59932576853 1680.93071067976  452.159569170938 1681.75952778663  L 452.98805061754 1681.19951127559  Z M 455.232572205713 1684.50846134799  C 454.670102012994 1683.68213354609  454.10863608567 1682.85512260054  453.548175667244 1682.02743034295  L 452.720148137147 1682.58811778655  C 453.281062743937 1683.416480793  453.842983674229 1684.24416193494  454.405909684001 1685.07115937997  L 455.232572205713 1684.50846134799  Z M 457.487803731867 1687.81012131002  C 456.922659009366 1686.98562037217  456.358516333452 1686.16043304021  455.795376953559 1685.33456114173  L 454.969170519937 1685.89792863195  C 455.532766259066 1686.72446980394  456.097366107374 1687.5503258548  456.662968814209 1688.37549495515  L 457.487803731867 1687.81012131002  Z M 459.753721518232 1691.1044564974  C 459.185908199426 1690.28179108007  458.61909469788 1689.45843602539  458.053282268944 1688.63439315687  L 457.228905606172 1689.20043477891  C 457.795176560541 1690.02514543871  458.362449398877 1690.84916772745  458.930722864605 1691.67249981981  L 459.753721518232 1691.1044564974  Z M 462.030301774839 1694.39143232278  C 461.459825821225 1693.57061106317  460.890347445047 1692.7490969302  460.321867907555 1691.92689174331  L 459.4993296708 1692.49560155426  C 460.068269895107 1693.31847304321  460.638209767647 1694.14065291838  461.209148025941 1694.96213935855  L 462.030301774839 1694.39143232278  Z M 464.317520599777 1697.67101427606  C 463.744388000806 1696.852045792  463.172250728973 1696.03238120585  462.601110051417 1695.21202233296  L 461.780418876542 1695.78339436192  C 462.352022397459 1696.60441804065  462.924623320382 1697.42474687015  463.498220376936 1698.24437903331  L 464.317520599777 1697.67101427606  Z M 466.615353979439 1700.94316792476  C 466.039570752453 1700.12606081464  465.464780591859 1699.30825438101  464.89098477067 1698.4897504351  L 464.072149274146 1699.06377868321  C 464.646410090383 1699.88294593176  465.221666051927 1700.70141510293  465.797915884522 1701.51918438371  L 466.615353979439 1700.94316792476  Z M 468.923777788775 1704.20785891441  C 468.345349978947 1703.39262175707  467.767912964338 1702.57668206214  467.191468023821 1701.76004163671  L 466.374496802638 1702.33672007723  C 466.951408885125 1703.1540222953  467.529313845415 1703.97062321465  468.108210404099 1704.78652102744  L 468.923777788775 1704.20785891441  Z M 471.242767791545 1707.46505296888  C 470.661701471814 1706.65169432353  470.081623665725 1705.83762993389  469.502535658 1705.02286160289  L 468.687437289572 1705.60218418124  C 469.266994581168 1706.41761278776  469.847542472992 1707.23233688211  470.429079679787 1708.04635466059  L 471.242767791545 1707.46505296888  Z M 473.572299640575 1710.71471589075  C 472.988600911581 1709.90324429688  472.405888404273 1709.09106375942  471.824163409211 1708.27817607713  L 471.010946451291 1708.86013671098  C 471.593142867198 1709.67368314474  472.176327595359 1710.48652186026  472.760499344681 1711.29865105803  L 473.572299640575 1710.71471589075  Z M 475.912348878012 1713.95681356167  C 475.326023868153 1713.14723753912  474.740682777308 1712.33694938062  474.156326902584 1711.52595088176  L 473.344999893171 1712.11054346108  C 473.929829320763 1712.92219918045  474.515644762624 1713.73314398345  475.102444921108 1714.54337607376  L 475.912348878012 1713.95681356167  Z M 478.262890935579 1717.19131194272  C 477.673945800465 1716.38363999093  477.085982272088 1715.57525271931  476.499001652637 1714.76615191825  L 475.689573109888 1715.35337030538  C 476.277029409137 1716.16312678892  476.865469413955 1716.97216916492  477.454891820881 1717.78049564128  L 478.262890935579 1717.19131194272  Z M 480.623901134837 1720.41817707476  C 480.032342057948 1719.61241767368  479.44176226485 1718.80593977591  478.852163063529 1717.99874516759  L 478.044641485667 1718.5885831973  C 478.634718488845 1719.39643194334  479.225776878563 1720.20356339818  479.817815345561 1721.00997577392  L 480.623901134837 1720.41817707476  Z M 482.995354687439 1723.63737507881  C 482.401187879579 1722.83353668814  481.807998022283 1722.02897663145  481.215786429318 1721.22369669066  L 480.410180294547 1721.81614817021  C 481.00287180641 1722.62208069711  481.596542375481 1723.42729275667  482.191190686714 1724.23178256525  L 482.995354687439 1723.63737507881  Z M 485.377226695394 1726.84887215636  C 484.780458394745 1726.04696321563  484.184664701177 1725.24432944715  483.589846934222 1724.44097262854  L 482.786164700636 1725.03603133776  C 483.38146449849 1725.84003918401  483.977741013942 1726.64332339434  484.574992926172 1727.44588218938  L 485.377226695394 1726.84887215636  Z M 487.769492151327 1730.05263458978  C 487.170128623385 1729.25266351826  486.571737348808 1728.45196446486  485.97431965288 1727.65053920292  L 485.172569758372 1728.24819889426  C 485.77047159214 1729.05027361855  486.369347793641 1729.85162154593  486.969197036295 1730.65224090133  L 487.769492151327 1730.05263458978  Z M 490.172125938742 1733.24862874262  C 489.57017347625 1732.45060393925  488.969190903199 1731.65184800751  488.369179550612 1730.85236271643  L 487.569370412788 1731.45261711504  C 488.169868005198 1732.2527502965  488.771337604871 1733.05215352722  489.373777880231 1733.85082503742  L 490.172125938742 1733.24862874262  Z M 492.585102832285 1736.43682106  C 491.980567755167 1735.64075090328  491.377000193384 1734.84394647937  490.774401483682 1734.04640955298  L 489.976541499772 1734.64925235676  C 490.579628545926 1735.44743559445  491.183685229414 1736.2448857362  491.788710212186 1737.04160101557  L 492.585102832285 1736.43682106  Z M 495.008397498009 1739.61717806897  C 494.401286153305 1738.82307091687  493.795139939671 1738.02822636647  493.189960199564 1737.23264617814  L 492.394057746334 1737.83807105783  C 492.999727914519 1738.63429597174  493.606365339558 1739.42978465172  494.213968677681 1740.22453533569  L 495.008397498009 1739.61717806897  Z M 497.441984493642 1742.78966637882  C 496.832303255439 1741.9975305687  496.223584753908 1741.20465423691  495.615830337204 1740.41103913949  L 494.821893770867 1741.01903973869  C 495.430140702252 1741.81329796939  496.039352499478 1742.60681683541  496.649527813827 1743.39959458001  L 497.441984493642 1742.78966637882  Z M 499.885838268849 1745.95425268145  C 499.273593538218 1745.16409652998  498.662309139751 1744.37319674126  498.051986427289 1743.58155506693  L 497.260024083419 1744.19212500223  C 497.870841391743 1744.98440821044  498.482621165518 1745.77594893197  499.095362049585 1746.56674541347  L 499.885838268849 1745.95425268145  Z M 502.339933165508 1749.11090375174  C 501.72513137043 1748.32273555481  501.11128749293 1747.53382061284  500.498402892513 1746.74416067308  L 499.708423085957 1747.35729353408  C 500.321804358348 1748.14759340175  500.936145685319 1748.93714766804  501.551445706036 1749.725954584  L 502.339933165508 1749.11090375174  Z M 504.804243417972 1752.25958644789  C 504.186891013278 1751.4734144805  503.570494101516 1750.68649266814  502.955054047847 1749.89882275362  L 502.167065072635 1750.51451210301  C 502.783003869177 1751.30282033275  503.39990029935 1752.09037985423  504.017752996656 1752.87718892293  L 504.804243417972 1752.25958644789  Z M 507.278743153343 1755.40026771173  C 506.658846620642 1754.61610022794  506.039903146196 1753.83117980711  505.421914100805 1753.04550818762  L 504.635924230067 1753.66374756124  C 505.254414083994 1754.45005587657  505.873859140545 1755.23561238463  506.494258027579 1756.02041534533  L 507.278743153343 1755.40026771173  Z M 509.763406391744 1758.53291456913  C 509.140972239356 1757.75075980195  508.519488700539 1756.96784901355  507.89895715172 1756.18418393789  L 507.114974637597 1756.80496684483  C 507.736009055485 1757.58926699042  508.357996234578 1758.37281223714  508.980934797875 1759.15560085033  L 509.763406391744 1758.53291456913  Z M 512.25820704659 1761.65749413029  C 511.633241809348 1760.87736029142  511.009224731401 1760.0964673556  510.386157194011 1759.31481705134  L 509.604190267569 1759.93813697397  C 510.227762728896 1760.7204207151  510.852285500775 1761.50194647466  511.477757199818 1762.28271252147  L 512.25820704659 1761.65749413029  Z M 514.763118924864 1764.77397359011  C 514.135629164564 1763.99586887054  513.509085098551 1763.21700198529  512.883488114461 1762.43737465932  L 512.103544985604 1763.06322505339  C 512.729648943713 1763.84348417715  513.35670075097 1764.62298224362  513.984699019165 1765.40171752708  L 514.763118924864 1764.77397359011  Z M 517.27811572739 1767.88232022855  C 516.648108031943 1767.10625279748  516.019043556237 1766.32942014046  515.390923693487 1765.55182397798  L 514.61301255087 1766.18019827264  C 515.24164143214 1766.9584245869  515.871215691591 1767.73588677662  516.501733935428 1768.51258312061  L 517.27811572739 1767.88232022855  Z M 519.80317104911 1770.98250141094  C 519.170652032994 1770.20847941633  518.539073752168 1769.43368914355  517.908437605416 1768.65813230856  L 517.132566616361 1769.28902390649  C 517.76371382066 1770.06520924046  518.39580392264 1770.84062739115  519.02883552215 1771.61527664093  L 519.80317104911 1770.98250141094  Z M 522.338258379361 1774.07448458835  C 521.70323468342 1773.30251615669  521.069149228442 1772.5297764027  520.436003418762 1771.75626703781  L 519.662180729172 1772.38966931526  C 520.29583963019 1773.16380551989  520.930438938096 1773.93717149008  521.565977247184 1774.70976551273  L 522.338258379361 1774.07448458835  Z M 524.883351102155 1777.15823729793  C 524.24582939353 1776.38833053414  523.609243421688 1775.61764941198  522.973594596506 1774.84619563829  L 522.201828330778 1775.48210194513  C 522.837992275834 1776.2541808929  523.47509412672 1777.02548656267  524.113132472974 1777.79601724686  L 524.883351102155 1777.15823729793  Z M 527.44103517055 1780.23090862598  C 526.800260351052 1779.46370722832  526.16041798229 1778.69572751846  525.521509481353 1777.92697119731  L 524.752441760808 1778.5661385003  C 525.391868023209 1779.33551780956  526.032228909946 1780.10411987784  526.673523003344 1780.87194300353  L 527.44103517055 1780.23090862598  Z M 530.009101452005 1783.29555596548  C 529.365844096244 1782.53043484556  528.723516664423 1781.7645323962  528.082120579134 1780.99785031367  L 527.315127937431 1781.63950620866  C 527.957043800083 1782.40680959836  528.599891763735 1783.17333272276  529.243670405205 1783.93907388488  L 530.009101452005 1783.29555596548  Z M 532.587084378796 1786.35186612163  C 531.941351240358 1785.5888333125  531.296545489301 1784.82501616487  530.652668553705 1784.0604163704  L 529.887759043532 1784.70455412061  C 530.5321577668 1785.46977353464  531.177486058346 1786.23420966773  531.823742488694 1786.99786082657  L 532.587084378796 1786.35186612163  Z M 535.174956884571 1789.3998070061  C 534.526754743035 1788.63887051887  533.879477442585 1787.87714669233  533.233126416773 1787.11463721349  L 532.470308068947 1787.76125005609  C 533.117182887395 1788.52437746054  533.764984731239 1789.28671857615  534.413712165525 1790.04827171426  L 535.174956884571 1789.3998070061  Z M 537.772691799146 1792.43934661845  C 537.122027460015 1791.68051444222  536.472285405963 1790.92089193413  535.823467076002 1790.16048077654  L 535.062747899386 1790.80956192272  C 535.712092021447 1791.57058930547  536.362360616291 1792.33082739976  537.013552243499 1793.09027452156  L 537.772691799146 1792.43934661845  Z M 540.380261848794 1795.4704530464  C 539.72714214342 1794.7137331482  539.074942157435 1793.95621993386  538.423663335296 1793.1979150811  L 537.665051316713 1793.84945771613  C 538.316857924896 1794.60837708714  538.969586443541 1795.36650417832  539.623235426782 1796.12383731035  L 540.380261848794 1795.4704530464  Z M 542.997639656525 1798.49309446626  C 542.342071441904 1797.73849479074  541.687420371734 1796.98309882365  541.033687895085 1796.22690823704  L 540.277190999233 1796.88090552034  C 540.931453250193 1797.63770891167  541.586634839616 1798.39371704015  542.242734316202 1799.14892823113  L 542.997639656525 1798.49309446626  Z M 545.62479774238 1801.50723914316  C 544.966787901621 1800.75476761324  544.309692619932 1800.00149682369  543.65351335261 1799.24742844282  L 542.899139521983 1799.90387350805  C 543.555850546593 1800.65855297399  544.213478328014 1801.4124342024  544.872021409528 1802.16551552334  L 545.62479774238 1801.50723914316  Z M 548.261708523715 1804.5128554315  C 547.601263965156 1803.76251994722  546.94173137109 1803.01138224416  546.283112202212 1802.25944398587  L 545.530869357014 1802.91832994098  C 546.190022260436 1803.67087755813  546.850089329394 1804.42262397144  547.511069101765 1805.1735675157  L 548.261708523715 1804.5128554315  Z M 550.908344315491 1807.50991177516  C 550.245471973167 1806.76172021435  549.583508991185 1806.01272348399  548.922456835622 1805.26292324291  L 548.172352873681 1805.92424317024  C 548.833940735443 1806.67465103756  549.496440161865 1807.42425474315  550.159849685438 1808.17305262655  L 550.908344315491 1807.50991177516  Z M 553.564677330567 1810.49837670794  C 552.899384164004 1809.75233692588  552.234997744083 1809.00548903197  551.57151954225 1808.2578346803  L 550.823562338939 1808.92158163661  C 551.487578213 1809.66984187553  552.152503041277 1810.41729500328  552.818335350888 1811.16393936417  L 553.564677330567 1810.49837670794  Z M 556.230679679991 1813.4782188538  C 555.562972674129 1812.7343386832  554.89616979169 1811.98964746694  554.230272509473 1811.24414685432  L 553.484469917627 1811.91031387091  C 554.150906832457 1812.65641862542  554.818250081515 1813.40171332779  555.486498186561 1814.1461963271  L 556.230679679991 1813.4782188538  Z M 558.906323373291 1816.44940692727  C 558.236209538414 1815.70769417816  557.56699719425 1814.96516745808  556.898687822932 1814.22182841155  L 556.155047672764 1814.89040849431  C 556.823898631552 1815.63434993118  557.493653294649 1816.37747838298  558.164310179304 1817.11979220452  L 558.906323373291 1816.44940692727  Z M 561.591580318771 1819.41190973371  C 560.919066690433 1818.67237219336  560.247451910631 1817.93201776529  559.576737466821 1817.1908480892  L 558.835267565841 1817.86183421867  C 559.506525546015 1818.60360452693  560.178684591922 1819.34455892664  560.851743214655 1820.0846957765  L 561.591580318771 1819.41190973371  Z M 564.286422323804 1822.36569616968  C 563.611515962755 1821.62834160252  562.937505798628 1820.89016723948  562.264393324184 1820.1511747154  L 561.525101457115 1820.82455984687  C 562.198759411248 1821.56415123879  562.873315782663 1822.30292380678  563.54876907714 1823.0408759144  L 564.286422323804 1822.36569616968  Z M 566.990821095131 1825.31073522325  C 566.313529087099 1824.57557137066  565.637130615389 1823.83958482306  564.961627177209 1823.10277720956  L 564.224521105907 1823.77855427313  C 564.900571961237 1824.5159589837  565.577518575962 1825.25254196358  566.255359450572 1825.98830158117  L 566.990821095131 1825.31073522325  Z M 569.704748239154 1828.24699597433  C 569.025077695197 1827.51403055497  568.346298017161 1826.78023954967  567.668410707522 1826.04562458267  L 566.933498170896 1826.72378648333  C 567.611934829675 1827.45899677067  568.29126458014 1828.19338242871  568.971485918342 1828.92694183164  L 569.704748239154 1828.24699597433  Z M 572.428175262237 1831.174447595  C 571.746133318387 1830.44368830445  571.064979560277 1829.71210054525  570.38471549649 1828.97968593766  L 569.652004210417 1829.66022555536  C 570.33281954943 1830.39323370015  571.014525303884 1831.12541432663  571.697119963725 1831.85676581293  L 572.428175262237 1831.174447595  Z M 575.161073571005 1834.09305934981  C 574.476667387907 1833.36451386021  573.793146701469 1832.63513702837  573.110513025512 1831.90493046969  L 572.38001068276 1832.58784065942  C 573.063197554238 1833.31863896593  573.747272155142 1834.04860687334  574.432232970173 1834.77774276467  L 575.161073571005 1834.09305934981  Z M 577.903414472642 1837.00280059615  C 577.216651235907 1836.27647655651  576.530770797452 1835.5493183098  575.845774676326 1834.8213274665  L 575.117488946469 1835.50660105835  C 575.803040177604 1836.23518185391  576.489476442831 1836.96292937827  577.176796221618 1837.68984201941  L 577.903414472642 1837.00280059615  Z M 580.655169175196 1839.9036407845  C 579.966056095179 1839.17954582054  579.277823105796 1838.45461379343  578.590471731304 1837.72884630871  L 577.864410260645 1838.41647610797  C 578.552318653806 1839.14283174316  579.241109376432 1839.86835124384  579.930780902776 1840.5930330029  L 580.655169175196 1839.9036407845  Z M 583.416308787877 1842.79554945884  C 582.724853099606 1842.07369117285  582.034274785081 1841.35099297643  581.344575373755 1840.62745647016  L 580.620745785244 1841.31743525737  C 581.311004118194 1842.04155810631  582.002142066291 1842.76484196575  582.694158099444 1843.4872852344  L 583.416308787877 1842.79554945884  Z M 586.186804321363 1845.67849625688  C 585.493013284462 1844.95888222769  584.800096895206 1844.2384254496  584.108056688229 1843.51712751821  L 583.386466581383 1844.20944804926  C 584.079067606785 1844.93133050906  584.772545524637 1845.65237113405  585.466898798809 1846.37256832706  L 586.186804321363 1845.67849625688  Z M 588.966626688106 1848.55245091045  C 588.270507586714 1847.83508869332  587.575260397686 1847.11688089765  586.880886660817 1846.3978291141  L 586.161543611642 1847.09248412027  C 586.856480057992 1847.81211861201  587.55229066446 1848.53090843203  588.248973889748 1849.24885198814  L 588.966626688106 1848.55245091045  Z M 591.755746702632 1851.41738324577  C 591.057306845333 1850.70228037232  590.359736155964 1849.98632909958  589.663036179463 1849.2695310132  L 588.945947740371 1849.9665132013  C 589.643212311501 1850.68389216949  590.341348301239 1851.40042363794  591.040354163137 1852.11610601944  L 591.755746702632 1851.41738324577  Z M 594.554135081851 1854.27326318381  C 593.853381801597 1853.56042716192  593.153494935709 1852.84673992891  592.454476034258 1852.13220306541  L 591.739649733992 1852.83150511777  C 592.439235109292 1853.54662103064  593.139689152541 1854.26088662461  593.841010312157 1854.97430031752  L 594.554135081851 1854.27326318381  Z M 597.361762445368 1857.12006074054  C 596.658703099395 1856.40949905432  595.956507405131 1855.69808335407  595.255176917758 1854.98581521539  L 594.54262026131 1855.68742979004  C 595.244519095803 1856.40027513953  595.947283838468 1857.11226735993  596.650912932601 1857.82340487409  L 597.361762445368 1857.12006074054  Z M 600.178599315781 1859.95774602734  C 599.47324128554 1859.249466137  598.768744135282 1858.54032943869  598.065109425287 1857.83033750298  L 597.354829893818 1858.53425723361  C 598.059034818239 1859.24482453555  598.764102881962 1859.95453590713  599.470032523181 1860.66338977628  L 600.178599315781 1859.95774602734  Z M 603.004616119003 1862.78628925121  C 602.296966810077 1862.08029859301  601.59017560037 1861.37344834191  600.884244055244 1860.66574006339  L 600.176249106009 1861.37195755953  C 600.882752726881 1862.08023935363  601.590116709122 1862.78766242512  602.298339485842 1863.49422520697  L 603.004616119003 1862.78628925121  Z M 605.839783184563 1865.60566071517  C 605.129850026593 1864.90196670134  604.420772178068 1864.19741031868  603.712551209415 1863.49199312762  L 603.006848275684 1864.20050097466  C 603.715643175395 1864.90648982465  604.42529564951 1865.61161716877  605.135804126069 1866.31588144508  L 605.839783184563 1865.60566071517  Z M 608.684070745921 1868.41583081851  C 607.971861192525 1867.71444083716  607.260504149821 1867.01218572012  606.550001193283 1866.30906702272  L 605.84659768426 1867.01985778201  C 606.557676421143 1867.72354627567  607.269609936461 1868.42637048926  607.982396653201 1869.12832886595  L 608.684070745921 1868.41583081851  Z M 611.537448940784 1871.21677005714  C 610.82297046948 1870.51769147219  610.109341701164 1869.81774499378  609.396564216341 1869.11693217211  L 608.69546751709 1869.82999838103  C 609.408822625499 1870.53137913031  610.123029707399 1871.23189283439  610.838087180742 1871.93153794155  L 611.537448940784 1871.21677005714  Z M 614.399887811411 1874.00844902388  C 613.683147923539 1873.31168917499  612.96725492203 1872.61405868397  612.252210392405 1871.9155590959  L 611.553427863769 1872.63089326793  C 612.269051854158 1873.32995890901  612.985525004151 1874.02815474886  613.702845726678 1874.72547924089  L 614.399887811411 1874.00844902388  Z M 617.271357304937 1876.79083840877  C 616.552363525579 1876.09640461125  615.834213807069 1875.40109743208  615.116909739922 1874.70491841118  L 614.420448718449 1875.422513036  C 615.138334077453 1876.11925622935  615.857065773255 1876.81512687458  616.576642213786 1877.51012343025  L 617.271357304937 1876.79083840877  Z M 620.151827273682 1879.56390899939  C 619.430587151584 1878.87180854413  618.710188255955 1878.17883197687  617.990632182294 1877.48498083235  L 617.296499980158 1878.2048283759  C 618.016639170667 1878.8992418064  618.737621866285 1879.59277995103  619.459446469956 1880.28544127354  L 620.151827273682 1879.56390899939  Z M 623.041267475469 1882.32763168116  C 622.317788582962 1881.63787183455  621.595148073714 1880.94723315478  620.873347548188 1880.25571717142  L 620.181551453112 1880.977810076  C 620.903936914503 1881.6698864531  621.62716304001 1882.36108481536  622.351228228505 1883.05140363257  L 623.041267475469 1882.32763168116  Z M 625.939647573944 1885.08197743763  C 625.213937506863 1884.39456544149  624.489062971029 1883.70627190026  623.765025571852 1883.01709833831  L 623.075572847032 1883.74142902263  C 623.800196994652 1884.43116107991  624.525658957464 1885.12001240346  625.251957128492 1885.80798146739  L 625.939647573944 1885.08197743763  Z M 628.846937138891 1887.8269173508  C 628.119003516497 1887.14186042231  627.391902564565 1886.45591924604  626.665635893437 1885.76909534117  L 625.978533777467 1886.49565620044  C 626.705389003755 1887.18303669667  627.433079186617 1887.86953374865  628.161602715042 1888.55514583657  L 628.846937138891 1887.8269173508  Z M 631.763105646554 1890.56242260145  C 631.032956111453 1889.87972793304  630.303636377287 1889.19614632345  629.575148059312 1888.51167928666  L 628.890403766106 1889.2404626927  C 629.619482439477 1889.92548441074  630.349393202941 1890.60961998416  631.080134439663 1891.29286789753  L 631.763105646554 1890.56242260145  Z M 634.688122479956 1893.28846446938  C 633.955764698019 1892.60813922869  633.224233838778 1891.92692436275  632.493531522385 1891.24482138027  L 631.811152241102 1891.97581968155  C 632.542446707081 1892.65847542948  633.274570387481 1893.34024234129  634.007521660567 1894.02111890679  L 634.688122479956 1893.28846446938  Z M 637.621956929222 1896.00501433377  C 636.887398589505 1895.32706566356  636.153664285561 1894.64822469336  635.420755642426 1893.96849292663  L 634.740748537396 1894.70169844837  C 635.474251118089 1895.38198105896  636.208580028828 1896.06137215126  636.943733642992 1896.73987022034  L 637.621956929222 1896.00501433377  Z M 640.564578191901 1898.71204367344  C 639.827827006561 1898.03647869153  639.091896961424 1897.36001874425  638.356789686385 1896.6826653298  L 637.67916189703 1897.41807037404  C 638.414864891364 1898.09597270497  639.151391322691 1898.7729808448  639.888739559524 1899.44909329388  L 640.564578191901 1898.71204367344  Z M 643.515955373286 1901.40952406718  C 642.777019077507 1900.73634986635  642.038901017736 1900.06227804418  641.301602828715 1899.38731009356  L 640.626361469479 1900.12490693926  C 641.364257153276 1900.80042187321  642.10297337237 1901.47503995264  642.842508490422 1902.14875968318  L 643.515955373286 1901.40952406718  Z M 646.476057486744 1904.09742719403  C 645.734943838648 1903.42665084196  644.994645513776 1902.754974222  644.255164151699 1902.08239882175  L 643.582316311969 1902.82217972483  C 644.322396938031 1903.49530016954  645.063295189079 1904.16752110572  645.805009423939 1904.83884104432  L 646.476057486744 1904.09742719403  Z M 649.444853454037 1906.77572483358  C 648.701570234609 1906.10735337278  647.959099417059 1905.438079007  647.217442645772 1904.7679032185  L 646.546995389805 1905.50986041198  C 647.289253188149 1906.18057930047  648.032325692121 1906.85039603545  648.776211256654 1907.51930913403  L 649.444853454037 1906.77572483358  Z M 652.422312105652 1909.44438886626  C 651.676867118652 1908.778429314  650.932231603658 1908.11156422913  650.188407209846 1907.44379508859  L 649.520367576697 1908.18792078264  C 650.264794754019 1908.85623107272  651.01003370998 1909.52363657461  651.756082793793 1910.19013580995  L 652.422312105652 1909.44438886626  Z M 655.408402181123 1912.10339127366  C 654.660803253011 1911.43985062188  653.914010858531 1910.77540181937  653.168026651639 1910.11004633772  L 652.502401655085 1910.85633271973  C 653.248990395766 1911.52222739492  653.996387979113 1912.18721465633  654.744592749558 1912.85129303096  L 655.408402181123 1912.10339127366  Z M 658.403092329364 1914.75270413881  C 657.653347309213 1914.09158935404  656.904405875853 1913.42956380996  656.156269687999 1912.76662897281  L 655.493066316465 1913.51506820748  C 656.241808782038 1914.17854027652  656.991357145813 1914.84110231574  657.741709747457 1915.50275285746  L 658.403092329364 1914.75270413881  Z M 661.406351108998 1917.39229964645  C 660.654467868411 1916.73361766977  659.903385259339 1916.07402233476  659.153104945238 1915.41351510228  L 658.492330161723 1916.16409933171  C 659.24321849111 1916.8251418288  659.994909765773 1917.48527168953  660.747402320631 1918.14448745167  L 661.406351108998 1917.39229964645  Z M 664.418146988682 1920.02215008337  C 663.664133421714 1919.36590783029  662.910917522579 1918.70874962948  662.158500959454 1918.05067693636  L 661.500161701462 1918.80339828015  C 662.253188011054 1919.46200426495  663.007014304565 1920.11969501648  663.761638912187 1920.77646907789  L 664.418146988682 1920.02215008337  Z M 667.438448347445 1922.64222783864  C 666.682312370517 1921.98843219909  665.926971089362 1921.333718032  665.172426176868 1920.67808678739  L 664.51652935633 1921.43293734267  C 665.271685740228 1922.0890999006  666.027639137822 1922.74434463753  666.784387875529 1923.39867010284  L 667.438448347445 1922.64222783864  Z M 670.467223475015 1925.25250540396  C 669.70897302683 1924.60116324218  668.951514294016 1923.94889998268  668.194848954152 1923.29571707006  L 667.541401457356 1924.05268891163  C 668.298679986829 1924.70640115334  669.056752552345 1925.35919299677  669.815617474685 1926.01106299593  L 670.467223475015 1925.25250540396  Z M 673.504440572153 1927.85295537392  C 672.744083613614 1927.20407352836  671.984515381734 1926.5542680246  671.22573755876 1925.90354030177  L 670.574746246279 1926.66262548215  C 671.334138970785 1927.31388054442  672.094322744872 1927.9642126404  672.855295884649 1928.61362032952  L 673.504440572153 1927.85295537392  Z M 676.550067750989 1930.44355044628  C 675.787612265117 1929.79713572959  675.025942508908 1929.14979480389  674.265060169265 1928.50152910288  L 673.616531875885 1929.2627196524  C 674.378030822526 1929.91151069768  675.140317823984 1930.55937621833  675.903391191708 1931.20631477927  L 676.550067750989 1930.44355044628  Z M 679.604073035354 1933.02426342228  C 678.8395270272 1932.38032262119  678.075763743466 1931.73545307002  677.312784875691 1931.08965619699  L 676.666726410337 1931.85294412388  C 677.430323584104 1932.49926434047  678.19470580965 1933.14465648384  678.959871393781 1933.78911912435  L 679.604073035354 1933.02426342228  Z M 682.666424361117 1935.5950672069  C 681.899795857683 1934.95360708217  681.133947065206 1934.31121567604  680.368879679846 1933.66789441124  L 679.725297825514 1934.43327170171  C 680.490985209368 1935.07711430388  681.257454633719 1935.72002629395  682.024704400752 1936.3620062478  L 682.666424361117 1935.5950672069  Z M 685.737089576522 1938.15593480916  C 684.968386626673 1937.51696209551  684.200460366133 1936.87705557892  683.433312495662 1936.2362166766  L 682.792214009345 1937.00367529493  C 683.559983564461 1937.64503352307  684.328532140105 1938.28545860963  685.097858034811 1938.92494913677  L 685.737089576522 1938.15593480916  Z M 688.816036442525 1940.7068393424  C 688.045267116906 1940.07036074844  687.275271450793 1939.43294583979  686.50605114953 1938.79459602815  L 685.867442762148 1939.56412791675  C 686.637286427362 1940.20299503696  687.407906085911 1940.84092649668  688.179300030786 1941.47792088282  L 688.816036442525 1940.7068393424  Z M 691.903232633133 1943.24775402458  C 691.130405024083 1942.61377623272  690.358348036614 1941.97885962425  689.587063380635 1941.34300560536  L 688.950951796964 1942.11460268487  C 689.722861489815 1942.75097198979  690.495544140183 1943.38640312474  691.268998036489 1944.02089468217  L 691.903232633133 1943.24775402458  Z M 694.998645735742 1945.77865217852  C 694.223767957211 1945.14718184491  693.449657754245 1944.51477020265  692.6763168413 1943.88141865236  L 692.042708739904 1944.65507282177  C 692.816676356078 1945.28893763012  693.591413885837 1945.92186176888  694.366919613048 1946.55384383605  L 694.998645735742 1945.77865217852  Z M 698.102243251479 1948.29950723221  C 697.325323438942 1947.67055098669  696.549168147895 1947.04065095035  695.773779097323 1946.40980851824  L 695.142681130479 1947.18551165492  C 695.918698544059 1947.81686531174  696.695482819205 1948.44727580921  697.473032235255 1949.07674175091  L 698.102243251479 1948.29950723221  Z M 701.214953246904 1950.80871650069  C 700.4390094322 1950.18531713212  699.663738582007 1949.56108058866  698.889142050726 1948.93600796085  C 698.88590055031 1948.93338819892  698.882659102188 1948.93076845212  698.879417628316 1948.92814865735  L 698.250836421948 1949.70589261715  C 698.254176932483 1949.70859245443  698.25751741336 1949.71129223894  698.260857952063 1949.71399204137  C 699.036110651477 1950.339594518  699.812038325251 1950.96436009778  700.588639617705 1951.58828768915  L 701.214953246904 1950.80871650069  Z M 704.33572607523 1953.30855797445  C 703.55463022637 1952.6847254097  702.774210716158 1952.06004647766  701.994468919029 1951.43452227847  L 701.368718718744 1952.21454579533  C 702.149024108069 1952.84052211925  702.930007700805 1953.46565256547  703.711668120562 1954.08993603226  L 704.33572607523 1953.30855797445  Z M 707.463710726153 1955.79936958185  C 706.680815184907 1955.17779708773  705.898593533378 1954.55537627514  705.117047149173 1953.93210824028  L 704.493553928352 1954.7139369962  C 705.275665209096 1955.33765552507  706.058452245727 1955.96052621967  706.841913658674 1956.58254798227  L 707.463710726153 1955.79936958185  Z M 710.598881072103 1958.28113051752  C 709.81419237804 1957.66182328606  709.030175118644 1957.04166579166  708.24683067566 1956.42065912729  L 707.625599642244 1957.2042865918  C 708.409510281555 1957.82574211579  709.194094223582 1958.44634785603  709.979350085588 1959.06610271878  L 710.598881072103 1958.28113051752  Z M 713.741210925492 1960.75382005171  C 712.954735632668 1960.13678325562  712.16892931483 1959.51889426  711.383793355897 1958.90015415305  L 710.764829698933 1959.68557378061  C 711.550533148926 1960.3047611088  712.336907442841 1960.92309671087  713.123951194786 1961.54057949706  L 713.741210925492 1960.75382005171  Z M 716.890674038926 1963.21741753041  C 716.102418716973 1962.60265632396  715.314829903759 1961.98704098775  714.527908987321 1961.37057260672  L 713.911217876915 1962.15777783685  C 714.698707574895 1962.77469179739  715.48686565191 1963.39075209616  716.275690719904 1964.00595764818  L 716.890674038926 1963.21741753041  Z M 720.04724410543 1965.67190237559  C 719.257215338196 1965.05942189354  718.467850608865 1964.44608535937  717.679151307624 1963.83189385326  L 717.064737894902 1964.62087811056  C 717.854007262763 1965.23551355021  718.64394254017 1965.84929340034  719.434542334953 1966.46221657922  L 720.04724410543 1965.67190237559  Z M 723.210894758666 1968.11725408531  C 722.419099145465 1967.50705944386  721.627965092804 1966.89600683434  720.837493994969 1966.28409733365  L 720.22536341203 1967.07485402786  C 721.016405857456 1967.68720581292  721.808111736393 1968.29870008709  722.600479654536 1968.90933577343  L 723.210894758666 1968.11725408531  Z M 726.381599573151 1970.55345223394  C 725.588043727402 1969.94554852969  724.795146960285 1969.33678494935  724.002910668211 1968.72716256502  L 723.393068028087 1969.51968509106  C 724.185876943295 1970.1297481064  724.979346811423 1970.7389516974  725.77347623407 1971.34729479041  L 726.381599573151 1970.55345223394  Z M 729.559332064482 1972.98047647228  C 728.764022614797 1972.3748687831  727.969369755841 1971.76839931658  727.175374887118 1971.16106914082  L 726.567825283729 1971.95535087888  C 727.362394046674 1972.56312002887  728.157621275933 1973.17002784786  728.95350557001 1973.77607326626  L 729.559332064482 1972.98047647228  Z M 732.744065689554 1975.39830652778  C 731.947009279193 1974.79499991233  731.150606965681 1974.19082962515  730.354860152589 1973.585796731  L 729.749608660703 1974.38183104658  C 730.545930634476 1974.9873012546  731.342908582456 1975.59190823219  732.140541100066 1976.19565091378  L 732.744065689554 1975.39830652778  Z M 735.935773846784 1977.80692220468  C 735.136977133105 1977.20592170205  734.338832017919 1976.60405564123  733.541339906878 1976.00132508221  L 732.938391582067 1976.79910532614  C 733.736460115113 1977.40227153481  734.535182124783 1978.00457262079  735.334556203425 1978.6060075226  L 735.935773846784 1977.80692220468  Z M 739.134429876327 1980.2063033842  C 738.333899531887 1979.60761401469  737.534018281149 1979.00805720703  736.734787533817 1978.40763401789  L 736.134147412413 1979.20715352645  C 736.933955838756 1979.80801069773  737.734415238185 1980.40800086094  738.535524200977 1981.00712295941  L 739.134429876327 1980.2063033842  Z M 742.340007060309 1982.59643002467  C 741.537749771481 1982.00005678879  740.736139067137 1981.4028142428  739.935176359033 1980.80470343854  L 739.33684945809 1981.60595553345  C 740.13839109689 1982.20449864836  740.940581200294 1982.80217287742  741.743418355532 1983.39897716804  L 742.340007060309 1982.59643002467  Z M 745.552478623043 1984.97728216174  C 744.748501091289 1984.38323004115  743.945167628404 1983.78830674501  743.142479650177 1983.19251332179  L 742.546470967427 1983.99549131034  C 743.349739123365 1984.59171536921  744.153653230508 1985.18706867209  744.958211872052 1985.78155016973  L 745.552478623043 1984.97728216174  Z M 748.771817731252 1987.34883990852  C 747.966126671906 1986.75711386513  747.161077160933 1986.16451478838  746.356670617144 1985.57104372265  L 745.762985130955 1986.37574089768  C 746.567973094622 1986.96964092047  747.373604490202 1987.56266832402  748.179877897865 1988.15482206319  L 748.771817731252 1987.34883990852  Z M 751.997997494299 1989.71108345576  C 751.190599637173 1989.12168843215  750.383840802564 1988.53141852468  749.577722412296 1987.94027477363  L 748.98636508163 1988.74668441362  C 749.793066129255 1989.3382554397  750.600408083625 1989.92895199022  751.408389522898 1990.51877302488  L 751.997997494299 1989.71108345576  Z M 755.230990964407 1992.063993072  C 754.421893053569 1991.47693399131  753.613431634055 1990.88899818355  752.805608130689 1990.3001866849  L 752.216583895062 1991.10830205404  C 753.024991288229 1991.69753914198  753.834037058122 1992.28589990572  754.643719779894 1992.87338330906  L 755.230990964407 1992.063993072  Z M 758.470771136882 1994.40754910376  C 757.659979930602 1993.8228308696  756.849822679135 1993.23723407249  756.040300810296 1992.65075974448  L 755.453614589736 1993.46057409272  C 756.263721575777 1994.0474723206  757.074464403693 1994.6334923833  757.885841644643 1995.21863324804  L 758.470771136882 1994.40754910376  Z M 761.717310950346 1996.74173197568  C 760.904833221036 1996.1593594721  760.092986904735 1995.57610657705  759.281773432233 1994.99197431842  L 758.697430127238 1995.80348088149  C 759.509229939622 1996.38803534716  760.321663053218 1996.97170981366  761.134728036206 1997.55450325233  L 761.717310950346 1996.74173197568  Z M 764.970583286957 1999.06652219068  C 764.156425821118 1998.48650028217  763.342897221207 1997.90559616098  762.529998920982 1997.32381085089  L 761.948003412481 1998.13700285041  C 762.761489270371 1998.71920867118  763.57560588352 1999.30053266613  764.390351817141 1999.88097381075  L 764.970583286957 1999.06652219068  Z M 768.230560972638 2001.38190033017  C 767.414730570799 2000.80423386155  766.599526482558 2000.22568336643  765.784950144622 1999.64624986445  L 765.205307293933 2000.46112050795  C 766.020472402409 2001.04097282074  766.83626571492 2001.61994148844  767.652685793728 2002.19802549067  L 768.230560972638 2001.38190033017  Z M 771.497216777301 2003.68784705415  C 770.679720253968 2003.11254085057  769.862847486669 2002.53634881406  769.046599915052 2001.95927196011  L 768.469314563841 2002.77581444111  C 769.286152114123 2003.35330840262  770.103615311466 2003.92991690679  770.921702716199 2004.50563893811  L 771.497216777301 2003.68784705415  Z M 774.77052341508 2005.9843431014  C 773.951367598673 2005.41140196831  773.132832975527 2004.83757320326  772.314920988218 2004.26285781756  L 771.739997958461 2005.08106531561  C 772.558501127464 2005.65619610201  773.377627381832 2006.23043962656  774.197375278965 2006.80379487793  L 774.77052341508 2005.9843431014  Z M 778.050453544553 2008.27136928965  C 777.229645277354 2007.70079801273  776.409455635452 2007.12933731224  775.589886064343 2006.55698819531  L 775.017330158282 2007.37685387604  C 775.837492109177 2007.94961668335  776.658274578535 2008.52149043172  777.479676120842 2009.092474114  L 778.050453544553 2008.27136928965  Z M 781.336979768974 2010.54890651572  C 780.514525906896 2009.98070986076  779.692688097496 2009.41162199839  778.871467788154 2008.84164393085  L 778.301283788259 2009.66316094605  C 779.12309767019 2010.23355098995  779.945529499012 2010.80305018561  780.768577825283 2011.37165752934  L 781.336979768974 2010.54890651572  Z M 784.630074636501 2012.8169357557  C 783.805982049543 2012.25111846887  782.98250293699 2011.68440819788  782.15963874911 2011.11680594079  L 781.591831418039 2011.93996742846  C 782.415290366863 2012.50797994481  783.239364684821 2013.07509983034  784.064052920602 2013.64132608627  L 784.630074636501 2012.8169357557  Z M 787.929710640425 2015.0754380651  C 787.103986212104 2014.51200487259  786.27887267479 2013.94767692662  785.454371481628 2013.38245522107  L 784.888945562188 2014.20725430547  C 785.71404269934 2014.77288454952  786.539752623753 2015.33762038833  787.36607388021 2015.90146082661  L 787.929710640425 2015.0754380651  Z M 791.2358602194 2017.324394579  C 790.408510846864 2016.76335018707  789.581769776833 2016.20140927987  788.75563846532 2015.63857284707  L 788.192598680426 2016.46500263878  C 789.019327114339 2017.02824588614  789.846665747497 2017.59059296061  790.674613122839 2018.15204287182  L 791.2358602194 2017.324394579  Z M 794.548495757673 2019.56378651221  C 793.719528351814 2019.0051356073  792.891166654363 2018.44558643244  792.063412125216 2017.88513997379  L 791.502763177851 2018.71319356977  C 792.331116002649 2019.27404511552  793.160076434606 2019.83399872892  793.989643012776 2020.39305342312  L 794.548495757673 2019.56378651221  Z M 797.867589585314 2021.79359515944  C 797.037011070025 2021.23734240764  796.207035665017 2020.68018963941  795.377664831998 2020.122137836  L 794.819411405176 2020.95180831965  C 795.649381702099 2021.51026347932  796.479957007992 2022.06781895398  797.31113586009 2022.6244737617  L 797.867589585314 2021.79359515944  Z M 801.19311397845 2024.01380189545  C 800.360931291768 2023.45995194328  799.52934911117 2022.90520023503  798.698368902229 2022.34954774841  L 798.142515658953 2023.18082818962  C 798.974096495046 2023.73688229829  799.806279737894 2024.2920349775  800.639063920871 2024.84628524886  L 801.19311397845 2024.01380189545  Z M 804.525041159492 2026.2243881752  C 803.691261252337 2025.67294564876  802.85807924257 2025.12059963448  802.025496598583 2024.56735110581  L 801.472048181809 2025.40023456103  C 802.305232611179 2025.95388297417  803.139016839542 2026.5066282206  803.973399397452 2027.05846932615  L 804.525041159492 2026.2243881752  Z M 807.863343297371 2028.42533553399  C 807.027973134178 2027.8763050394  806.193198254681 2027.32636933275  805.359020130081 2026.77552938324  L 804.807981162678 2027.61000889552  C 805.642762225863 2028.1612469886  806.478140475272 2028.71158018524  807.314114438649 2029.26100751554  L 807.863343297371 2028.42533553399  Z M 811.20799250777 2030.61662558767  C 810.371039066254 2030.0700117109  809.534678289773 2029.5224909054  808.69891165232 2028.97406413613  L 808.150286737031 2029.81013273518  C 808.986657461235 2030.3589559038  809.823622753905 2030.90687245381  810.661181139987 2031.45388141958  L 811.20799250777 2030.61662558767  Z M 814.558960853352 2032.79824003272  C 813.720431124457 2032.25404733955  812.882491436982 2031.70894600857  812.045143267705 2031.16293700044  L 811.498936987108 2032.00058770273  C 812.336890386257 2032.54699136265  813.175435731148 2033.09248668937  814.01457154394 2033.63707272152  L 814.558960853352 2032.79824003272  Z M 817.916220344002 2034.97016064646  C 817.076121331661 2034.42839368234  816.23660973272 2033.88571637923  815.397687025685 2033.34212969289  L 814.853903942156 2034.18135550163  C 815.693433016956 2034.72533508883  816.533551409827 2035.26840463582  817.374257640159 2035.81056318551  L 817.916220344002 2034.97016064646  Z M 821.279742937053 2037.13236928718  C 820.43808165883 2036.59303257762  819.597005160039 2036.05278383485  818.756514922983 2035.51162401099  L 818.215159578657 2036.35241791628  C 819.056257316653 2036.89396888698  819.897941740126 2037.43460811806  820.740211365709 2037.97433465673  L 821.279742937053 2037.13236928718  Z M 824.649500537524 2039.28484789428  C 823.806284023511 2038.74794594416  822.963649650598 2038.21013027456  822.121598903832 2037.67140183331  L 821.582675820567 2038.51375681212  C 822.425335196199 2039.05287464282  823.268578619816 2039.59107904213  824.112404605303 2040.12836906152  L 824.649500537524 2039.28484789428  Z M 828.025464998355 2041.42757848844  C 827.180700291809 2040.89311578243  826.336515083166 2040.35773767829  825.492910860209 2039.82144511956  L 824.956424539545 2040.66535413583  C 825.800638514385 2041.20203432349  826.645433894317 2041.73779939526  827.490809191536 2042.27264840758  L 828.025464998355 2041.42757848844  Z M 831.407608120639 2043.56054317178  C 830.561302277748 2043.02852417416  829.715573284723 2042.4955881074  828.87042263207 2041.96173591076  L 828.336377555195 2042.80719191545  C 829.182139077305 2043.34142997703  830.028479357806 2043.87475124654  830.875396905118 2044.40715478407  L 831.407608120639 2043.56054317178  Z M 834.795901653861 2045.68372412796  C 833.94806174351 2045.15415328249  833.100796030698 2044.62366370488  832.254106007585 2044.0922563294  L 831.722506635293 2044.93925226054  C 832.569808640335 2045.47104373375  833.417686751705 2046.00191674603  834.266139475116 2046.53187036179  L 834.795901653861 2045.68372412796  Z M 838.190317296132 2047.79710362238  C 837.340950400372 2047.2699853526  836.492155044501 2046.74194669501  835.643932723373 2046.21298857956  L 835.114783496032 2047.06151736234  C 835.963618906448 2047.59085780509  836.813027766845 2048.11927812606  837.663008579184 2048.64677739333  L 838.190317296132 2047.79710362238  Z M 841.590826694428 2049.90066400232  C 840.739939908064 2049.37600271127  839.889621998637 2048.8504193841  839.03987446474 2048.32391494711  L 838.51317980225 2049.17396949389  C 839.363541528377 2049.70085448502  840.214474041766 2050.22681770021  841.065975843804 2050.75185821318  L 841.590826694428 2049.90066400232  Z M 844.997401444822 2051.99438769707  C 844.145001875003 2051.47218776705  843.293168514945 2050.94906416064  842.441902865911 2050.4250177998  L 841.917667167671 2051.27659101021  C 842.769548106042 2051.80101614839  843.621997165773 2052.32451786518  844.47501284452 2052.84709523795  L 844.997401444822 2051.99438769707  Z M 848.410013092724 2054.07825721807  C 847.556107859235 2053.55852301083  846.70276616413 2053.03786349497  845.849989510273 2052.51627958745  L 845.328217155142 2053.36936434843  C 846.181610190305 2053.89132525334  847.03556867565 2054.41236109877  847.890091106175 2054.93247096644  L 848.410013092724 2054.07825721807  Z M 851.828633133121 2056.15225515909  C 850.973229368852 2055.63499101611  850.118386465826 2055.11679993935  849.264105930608 2054.59768284207  L 848.74480127687 2055.45227202794  C 849.599699280742 2055.97176433983  850.455160058366 2056.49032996155  851.311182103153 2057.00796797983  L 851.828633133121 2056.15225515909  Z M 855.253233010813 2058.21636419634  C 854.396337860287 2057.70157443792  853.54000089077 2057.18585612928  852.684223609335 2056.66921017803  L 852.167390994661 2057.52529665053  C 853.023786826235 2058.04231603005  853.880742750959 2058.55840709678  854.738257259612 2059.07356894182  L 855.253233010813 2058.21636419634  Z M 858.683784120647 2060.27056708865  C 857.825404742086 2059.75825601518  856.967580857511 2059.24501478151  856.110313978741 2058.73084429218  L 855.595957720152 2059.58842090056  C 856.453844225911 2060.10296302902  857.312288140071 2060.61657523015  858.171287949728 2061.12925659877  L 858.683784120647 2060.27056708865  Z M 862.120257807767 2062.31484667758  C 861.260401370726 2061.80501856809  860.401097737069 2061.29425869685  859.542348421226 2060.78256796401  L 859.030472815062 2061.64162754507  C 859.889842829388 2062.15368812468  860.749767562183 2062.66481716988  861.610245497928 2063.17501377984  L 862.120257807767 2062.31484667758  Z M 865.56262536784 2064.34918588757  C 864.701299054387 2063.84184500048  863.840522849636 2063.33357075818  862.980298269542 2062.82436405579  L 862.470907591418 2063.68489943393  C 863.331753936129 2064.19447418755  864.19315230474 2064.70311580742  865.055101179136 2065.21082339713  L 865.56262536784 2064.34918588757  Z M 869.010858047307 2066.37356772611  C 868.148069052324 2065.86871829937  867.285827465695 2065.36293393111  866.424134807028 2064.85621551272  L 865.917233311806 2065.71821950003  C 866.779548796386 2066.22530417124  867.642413605687 2066.73145411719  868.505826219008 2067.23666844584  L 869.010858047307 2066.37356772611  Z M 872.464927043616 2068.38797528385  C 871.600682573666 2067.88562153429  870.736982807686 2067.38233126503  869.873829267853 2066.87810536306  L 869.369421189602 2067.74157075935  C 870.233198611443 2068.24616111267  871.0975226537 2068.74981515669  871.962391794175 2069.25253200441  L 872.464927043616 2068.38797528385  Z M 875.924803505467 2070.39239173476  C 875.05911077945 2069.89253785846  874.193960048469 2069.3917458921  873.329352837256 2068.89001671828  L 872.82744238922 2069.75493631116  C 873.692674532965 2070.2570281316  874.558450589329 2070.75818206717  875.424769032482 2071.25839723465  L 875.924803505467 2070.39239173476  Z M 879.39045853305 2072.38680033627  C 878.523324781783 2071.88945050831  877.656730312628 2071.3911610281  876.790676651787 2070.89193277319  L 876.291268026344 2071.75829933813  C 877.157947665202 2072.257888432  878.025168503265 2072.75653807265  878.892929013232 2073.25424738186  L 879.39045853305 2072.38680033627  Z M 882.861863178287 2074.37118442938  C 881.993295644983 2073.87634280416  881.125264675825 2073.38055997202  880.257771799545 2072.88383680611  L 879.760869168178 2073.75164310647  C 880.628989062731 2074.24872530069  881.49764743909 2074.74486648147  882.366842767422 2075.24006577503  L 882.861863178287 2074.37118442938  Z M 886.338988445077 2076.34552743884  C 885.468994384744 2075.8531981497  884.599534166111 2075.35992610684  883.730609320426 2074.86571217896  L 883.236216833685 2075.73495096609  C 884.105769732482 2076.22952210851  884.975858391728 2076.72315068545  885.846481277993 2077.21583582692  L 886.338988445077 2076.34552743884  Z M 889.821805289531 2078.30981287327  C 888.950391969096 2077.82000003257  888.079509763454 2077.32924289919  887.209160206357 2076.83754233745  L 886.717281993826 2077.70820635074  C 887.588260633626 2078.20026231029  888.459772308046 2078.69137416016  889.331815480065 2079.18154103424  L 889.821805289531 2078.30981287327  Z M 893.310284620224 2080.26402432531  C 892.437459318647 2079.77673202447  891.565162399978 2079.28849389961  890.693395401545 2078.7993108112  L 890.204035571806 2079.67139277813  C 891.076432677821 2080.16092944492  891.94936008709 2080.64952046516  892.822816261184 2081.13716497775  L 893.310284620224 2080.26402432531  Z M 896.80439729843 2082.20814547173  C 895.930167306104 2081.72337778092  895.056462960929 2081.23766274295  894.183285802714 2080.75100121385  L 893.696448443314 2081.62449385004  C 894.570256728365 2082.11150713497  895.444592581419 2082.59757324465  896.319454461563 2083.08269132243  L 896.80439729843 2082.20814547173  Z M 900.304114138371 2084.14216007359  C 899.428486757603 2083.659921042  898.553382283838 2083.17673314803  897.678802259353 2082.69259724323  L 897.194491436768 2083.56749325255  C 898.069703602253 2084.05197908777  898.945440595539 2084.53551622664  899.821700874329 2085.01810381761  L 900.304114138371 2084.14216007359  Z M 290.391157050828 1343.70396507768  C 290.08518400061 1342.75230427336  289.780242449178 1341.80031213564  289.47633293358 1340.84799034114  L 288.52366706642 1341.15200965886  C 288.827796245799 1342.10501978523  289.132958207148 1343.05770001714  289.439152412657 1344.01004867558  L 290.391157050828 1343.70396507768  Z M 896.753473770696 2091.33399507358  L 910 2090  L 903.919200222911 2078.1562727965  L 896.753473770696 2091.33399507358  Z " fill-rule="nonzero" fill="#1f8aee" stroke="none" />
  </g>
</svg>