<?xml version="1.0" encoding="utf-8"?>
<svg version="1.1" xmlns:xlink="http://www.w3.org/1999/xlink" width="440px" height="32px" viewBox="3440 1424  440 32" xmlns="http://www.w3.org/2000/svg">
  <g transform="matrix(0.965925826289067 -0.258819045102521 0.258819045102527 0.965925826289069 -247.987949165626 996.344515218967 )">
    <path d="M 3120.0730875512 1121.84697188653  C 3119.39923284374 1121.10867432689  3118.72630531764 1120.36953104938  3118.05430656343 1119.62954380107  L 3117.31400960385 1120.30182381092  C 3117.98657104593 1121.04243067623  3118.66006203811 1121.7821928646  3119.33448098748 1122.5211086264  L 3120.0730875512 1121.84697188653  Z M 3122.77344453508 1124.79564417706  C 3122.09712183423 1124.05960677472  3121.42172347812 1123.32272055512  3120.74725106314 1122.58498725998  L 3120.00920900009 1123.25974196591  C 3120.68424617437 1123.99809299089  3121.36021006518 1124.73559623113  3122.03709907464 1125.47224994327  L 3122.77344453508 1124.79564417706  Z M 3125.48365833913 1127.73525933107  C 3124.80487522556 1127.00149033605  3124.12701360976 1126.26686943388  3123.45007509396 1125.53139836092  L 3122.71429619992 1126.20862019983  C 3123.39180153997 1126.94470710838  3124.07023075304 1127.67994313437  3124.74958223541 1128.41432653978  L 3125.48365833913 1127.73525933107  Z M 3128.20369858543 1130.66578439936  C 3127.52246266739 1129.93429203624  3126.84214538985 1129.20194468562  3126.16274836081 1128.46874407852  L 3125.42924088289 1129.14842545964  C 3126.10920679478 1129.8822400012  3126.79009372581 1130.6152005719  3127.47190006645 1131.34730543912  L 3128.20369858543 1130.66578439936  Z M 3130.9335347859 1133.58718653462  C 3130.24985369931 1132.85797900261  3129.56708838519 1132.1279134119  3128.8852404582 1131.396991489  L 3128.15401261805 1132.07912479401  C 3128.83643148025 1132.81065874349  3129.5197684974 1133.54133564339  3130.20402205417 1134.27115376647  L 3130.9335347859 1133.58718653462  Z M 3133.67313634271 1136.49943299179  C 3132.98701775057 1135.77251846419  3132.30181205305 1135.04474281676  3131.61752087058 1134.31610777059  L 3130.8885808643 1135.00068535366  C 3131.57344502767 1135.72993051139  3132.25922447191 1136.45831555086  3132.94591757509 1137.18583874937  L 3133.67313634271 1136.49943299179  Z M 3136.42247254852 1139.40249112844  C 3135.73392414133 1138.677877753  3135.04628574067 1137.95240020625  3134.35955897272 1137.22606020384  L 3133.63291497076 1137.91307439177  C 3134.32021675915 1138.64002258416  3135.00843094324 1139.36610759837  3135.69755589619 1140.09132771803  L 3136.42247254852 1139.40249112844  Z M 3139.18151258692 1142.29632840511  C 3138.49054208239 1141.57402430379  3137.8004786861 1140.85085298936  3137.11132402998 1140.12681617203  L 3136.38698417706 1140.8162592643  C 3137.07671588658 1141.54090234308  3137.76735709683 1142.26467919388  3138.45890617523 1142.98758810578  L 3139.18151258692 1142.29632840511  Z M 3141.95022553272 1145.18091238571  C 3141.25684067571 1144.46092565459  3140.5643600185 1143.74006867828  3139.87278519871 1143.01834316152  L 3139.15075761372 1143.71020743038  C 3139.84291151325 1144.43253727311  3140.53597200877 1145.15399784821  3141.22993746112 1145.87458744935  L 3141.95022553272 1145.18091238571  Z M 3144.72858035229 1148.05621073787  C 3144.03278891473 1147.33854944705  3143.33789875839 1146.62001488871  3142.64391152657 1145.90060876211  L 3141.9242043025 1146.59488645268  C 3142.61877263405 1147.31489496314  3143.31424464626 1148.03403117562  3144.01061869427 1148.75229338929  L 3144.72858035229 1148.05621073787  Z M 3147.51654590394 1150.92219123329  C 3146.81835568475 1150.2068634268  3146.12106381807 1149.49065934026  3145.42467195291 1148.77358066742  L 3144.70729315671 1149.47026399775  C 3145.40426813523 1150.18794310575  3146.10214386852 1150.90474689475  3146.8009187069 1151.62067367033  L 3147.51654590394 1150.92219123329  Z M 3150.31409093828 1153.77882174811  C 3149.61350976309 1153.06583544369  3148.91382400208 1152.35196985695  3148.21503530907 1151.63722667521  L 3147.49999298162 1152.33630783642  C 3148.1993667948 1153.05164949757  3148.89963842719 1153.76611282896  3149.60080622345 1154.47969614171  L 3150.31409093828 1153.77882174811  Z M 3153.1211840985 1156.62607026328  C 3152.4182198202 1155.91543345285  3151.71614800684 1155.20391436681  3151.01497031876 1154.49151468781  L 3150.30227247473 1155.19298584411  C 3151.00403728352 1155.90598204037  3151.7066969659 1156.61809690597  3152.41024986087 1157.32932875756  L 3153.1211840985 1156.62607026328  Z M 3155.93779392082 1159.46390486491  C 3155.2324544184 1158.75562551348  3154.52800442258 1158.04646090391  3153.82444559841 1157.33641271241  L 3153.11410022621 1158.04026600123  C 3153.8182481646 1158.75090874073  3154.52328802136 1159.46066715896  3155.22921812902 1160.16953957726  L 3155.93779392082 1159.46390486491  Z M 3158.76388883474 1162.29229374462  C 3158.05618201429 1161.58637979121  3157.34936173166 1160.87957760662  3156.64342965752 1160.17188886146  L 3155.93544471918 1160.87811639355  C 3156.64196789489 1161.5863977112  3157.34938002289 1162.29379172601  3158.05767943097 1163.00029676581  L 3158.76388883474 1162.29229374462  Z M 3161.59943716348 1165.1112051999  C 3160.8893709576 1164.40766455702  3160.18018831039 1163.70323271943  3159.47189089899 1162.99791135302  L 3158.76627433009 1163.7065052125  C 3159.47516482378 1164.41241716926  3160.18494129416 1165.117438852  3160.89560206341 1165.82156859416  L 3161.59943716348 1165.1112051999  Z M 3164.4444071243 1167.92060763448  C 3163.73198949174 1167.21944818775  3163.02045242925 1166.51739459321  3162.30979761952 1165.81444851112  L 3161.60655732908 1166.52540075558  C 3162.31780719489 1167.22893543896  3163.02994005228 1167.93157688756  3163.74295421699 1168.63332343957  L 3164.4444071243 1167.92060763448  Z M 3167.29876682882 1170.72046955867  C 3166.5840057547 1170.02169916701  3165.87012225261 1169.3220316849  3165.15711800991 1168.62146876609  L 3164.45626188033 1169.3347714267  C 3165.16986314637 1170.0359209513  3165.88434440812 1170.7361742895  3166.59970397664 1171.43552978599  L 3167.29876682882 1170.72046955867  Z M 3170.16248428346 1173.51075958971  C 3169.4453877796 1172.81438608571  3168.72916583901 1172.1171125578  3168.01382015546 1171.41894065494  L 3167.31535604242 1172.13458573652  C 3168.03130070988 1172.83334224309  3168.74812236818 1173.53119962254  3169.46581932197 1174.22815622438  L 3170.16248428346 1173.51075958971  Z M 3173.03552738972 1176.29144645215  C 3172.31610349368 1175.59747764109  3171.59755114279 1174.90260588318  3170.87987203633 1174.20683282171  L 3170.18380776868 1174.92481230283  C 3170.90208781305 1175.62116795951  3171.62124183269 1176.31662155759  3172.34126812762 1177.0111714531  L 3173.03552738972 1176.29144645215  Z M 3175.91786394458 1179.06249897815  C 3175.19612072 1178.37094263836  3174.47524601313 1177.67848043934  3173.75524152785 1176.98511401781  L 3173.06158490755 1177.70541985086  C 3173.78219227757 1178.39936685214  3174.50367059838 1179.0924088743  3175.2260181636 1179.78454427821  L 3175.91786394458 1179.06249897815  Z M 3178.80946164086 1181.82388610788  C 3178.08540717768 1181.13474999093  3177.36221819458 1180.4447051121  3176.63989640092 1179.75375310238  L 3175.94865520295 1180.47637721368  C 3176.67158182171 1181.16790778148  3177.39537635657 1181.85853045935  3178.12003709567 1182.54824361388  L 3178.80946164086 1181.82388610788  Z M 3181.71028806756 1184.57557688983  C 3180.98393048163 1183.88886872018  3180.258435328 1183.20124889573  3179.53380432238 1182.51271904263  L 3178.84498629464 1183.23765333251  C 3179.57022405924 1183.92675971584  3180.29632669507 1184.61495530816  3181.02329248571 1185.30223848268  L 3181.71028806756 1184.57557688983  Z M 3184.62031071026 1187.31754048118  C 3183.89165814293 1186.63326795577  3183.16386495091 1185.94808089331  3182.43693285535 1185.26198091419  L 3181.75054571858 1185.98921725711  C 3182.4780864999 1186.67589173184  3183.20648909835 1187.36165252514  3183.93575179206 1188.04649801596  L 3184.62031071026 1187.31754048118  Z M 3187.53949695145 1190.04974614815  C 3186.8085575698 1189.36791693663  3186.07847449729 1188.68517031649  3185.34924945958 1188.00150790147  L 3184.66530090727 1188.73103814607  C 3185.39513655056 1189.41527301549  3186.12583094719 1190.0985913233  3186.8573823699 1190.78099145421  L 3187.53949695145 1190.04974614815  Z M 3190.4678140709 1192.77216326632  C 3189.73459606794 1192.09278501124  3189.00223129792 1191.41248648581  3188.27072149186 1190.731269298  L 3187.58921919017 1191.46308526721  C 3188.32134151492 1192.14487286195  3189.05431951962 1192.82574102516  3189.7881514716 1193.50568814736  L 3190.4678140709 1192.77216326632  Z M 3193.40522924604 1195.48476132098  C 3192.66974084035 1194.80784163742  3191.93510258133 1194.12999883167  3191.20131620634 1193.45123450675  L 3190.52226779401 1194.18532799788  C 3191.2566685941 1194.864660676  3191.99192199115 1195.54307106299  3192.72802624712 1196.22055755517  L 3193.40522924604 1195.48476132098  Z M 3196.35170955234 1198.18750990751  C 3195.6139589876 1197.51305638269  3194.87705547423 1196.83767689463  3194.14100075492 1196.16137304051  L 3193.46441384319 1196.89773582533  C 3194.20108488696 1197.57460597241  3194.93860543514 1198.25055097909  3195.67697374434 1198.92556924753  L 3196.35170955234 1198.18750990751  Z M 3199.30722196364 1200.88037873164  C 3198.56721750906 1200.20839892531  3197.82805700105 1199.53549032504  3197.08974218763 1198.8616545222  L 3196.41562436014 1199.60027834707  C 3197.15455739033 1200.27467837615  3197.89433682332 1200.94815042635  3198.63496090945 1201.62069290484  L 3199.30722196364 1200.88037873164  Z M 3202.27173335254 1203.5633376099  C 3201.52948330261 1202.89383905404  3200.78807408497 1202.223408884  3200.04750745297 1201.55204868524  L 3199.3758662657 1202.29292527115  C 3200.11705300014 1202.96484762338  3200.85908302538 1203.63583916781  3201.60195458734 1204.30589831831  L 3202.27173335254 1203.5633376099  Z M 3205.2452104908 1206.23635646984  C 3204.50072316515 1205.56934666866  3203.7570735481 1204.90140244347  3203.0142633983 1204.23252537386  L 3202.34510637945 1204.97564641657  C 3203.08853851012 1205.6450835603  3203.83281081104 1206.31358707859  3204.57792152191 1206.98115539035  L 3205.2452104908 1206.23635646984  Z M 3208.22762004966 1208.89940535045  C 3207.48090379302 1208.23489178026  3206.73502211189 1207.56944098669  3205.98997677019 1206.90305454345  L 3205.32331142013 1207.64841171356  C 3206.06898061445 1208.31535614556  3206.81548684813 1208.98136414411  3207.56282835652 1209.64643413485  L 3208.22762004966 1208.89940535045  Z M 3211.21892860026 1211.55245440249  C 3210.46999178231 1210.89044451159  3209.72188639745 1210.22749460847  3208.97461421485 1209.56360626092  L 3208.31044800602 1210.31119120395  C 3209.05834590586 1210.97563544853  3209.80707770525 1211.63914046255  3210.55664163429 1212.30170467757  L 3211.21892860026 1211.55245440249  Z M 3214.21910261396 1214.19547388876  C 3213.46795362932 1213.53597509742  3212.71763292599 1212.87553351554  3211.96814227841 1212.21415070499  L 3211.30648265524 1212.9639550415  C 3212.0566008775 1213.62589165097  3212.80754985062 1214.28688624372  3213.55932779853 1214.94693725642  L 3214.21910261396 1214.19547388876  Z M 3217.22810846279 1216.82843418452  C 3216.47475573068 1216.17145388471  3215.72222811931 1215.51352802703  3214.9705274074 1214.85465816656  L 3214.3113817862 1215.60667349224  C 3215.06371192336 1216.26609504744  3215.81686965245 1216.92457180949  3216.57085319311 1217.58210222184  L 3217.22810846279 1216.82843418452  Z M 3220.24591241976 1219.45130577776  C 3219.49036438458 1218.79685133363  3218.73563829939 1218.14144857407  3217.98173594903 1217.48509904903  L 3217.32511171797 1218.23931693478  C 3218.07964533709 1218.8962160442  3218.83500338086 1219.55216759544  3219.59118406279 1220.20717003712  L 3220.24591241976 1219.45130577776  Z M 3223.27248065929 1222.06405926955  C 3222.51474578941 1221.41213801641  3221.7578296905 1220.75926570171  3221.00173415163 1220.10544386863  L 3220.3476386706 1220.86185586067  C 3221.10436731466 1221.5162251616  3221.86191720593 1222.16964414914  3222.62028655366 1222.82211127871  L 3223.27248065929 1222.06405926955  Z M 3226.30777925752 1224.66666537438  C 3225.54786604649 1224.01728461966  3224.78876841726 1223.36695006713  3224.03048816502 1222.71566325476  L 3223.37892876556 1223.4742608747  C 3224.13784395233 1224.12609303226  3224.89757720058 1224.77697213268  3225.65812671348 1225.42689663657  L 3226.30777925752 1224.66666537438  Z M 3229.35177419279 1227.25909492047  C 3228.58969115805 1226.61226194274  3227.82842050731 1225.96447244204  3227.06796404086 1225.3157279503  L 3226.4189480261 1226.07650269527  C 3227.18004124944 1226.72579040355  3227.94194933845 1227.37412232082  3228.70467049208 1228.02149691451  L 3229.35177419279 1227.25909492047  Z M 3232.40443134592 1229.8413188501  C 3231.64018702927 1229.19704089938  3230.87675189016 1228.55180371163  3230.11412773307 1227.90560881197  L 3229.46766237761 1228.66855215469  C 3230.23092510653 1229.31528813589  3230.99499949662 1229.96106560333  3231.75988374172 1230.60588303048  L 3232.40443134592 1229.8413188501  Z M 3235.46571650067 1232.41330821997  C 3234.69931946843 1231.77159251788  3233.93372839773 1231.12891487508  3233.16894509816 1230.48527681063  L 3232.52503764803 1231.2503801995  C 3233.2904613272 1231.89455720445  3234.05669345443 1232.53777298401  3234.82373221749 1233.18002601692  L 3235.46571650067 1232.41330821997  Z M 3238.53559534406 1234.97503420146  C 3237.76705418653 1234.3358879408  3236.99931576552 1233.69577704652  3236.23238189567 1233.05470303159  L 3235.59103956823 1233.82195789083  C 3236.35861561857 1234.4635686994  3237.12699689385 1235.10421558096  3237.89618157772 1235.74389702109  L 3238.53559534406 1234.97503420146  Z M 3241.61403346681 1237.52646808101  C 3240.84335679832 1236.88989842576  3240.07347963233 1236.25236145479  3239.30440378853 1235.61385867499  L 3238.66563377236 1236.38325640468  C 3239.43535359005 1237.02229382501  3240.20587540148 1237.66036462828  3240.97719738428 1238.29746730539  L 3241.61403346681 1237.52646808101  Z M 3244.7009963637 1240.06758126042  C 3243.92819282268 1239.43359534582  3243.15618554069 1238.79863944385  3242.38497634342 1238.16271505608  L 3241.7487857983 1238.93424703228  C 3242.52064075611 1239.57070390187  3243.29329446652 1240.2061914744  3244.06674510308 1240.84070824766  L 3244.7009963637 1240.06758126042  Z M 3247.79644943395 1242.59834525716  C 3247.02152768235 1241.96695018923  3246.24739893786 1241.33458247353  3245.4740650312 1240.70124360553  L 3244.84046108798 1241.4749011804  C 3245.61444253412 1242.10877036513  3246.38921948372 1242.74166758447  3247.16479010435 1243.37359134153  L 3247.79644943395 1242.59834525716  Z M 3250.90035798162 1245.11873170472  C 3250.12332670529 1244.48993456056  3249.34708517526 1243.86016211914  3248.57163522726 1243.2294158698  L 3247.94062498781 1244.00519037165  C 3248.71672424729 1244.63646476697  3249.49361575121 1245.26676453865  3250.27129766311 1245.89608819674  L 3250.90035798162 1245.11873170472  Z M 3254.012687216 1247.6287123529  C 3253.23355512442 1247.00252018048  3252.4552095095 1246.37535007226  3251.67765221193 1245.74720351142  L 3251.04924274904 1246.52508624485  C 3251.82745112265 1247.15375877486  3252.60644847329 1247.78145403431  3253.38623295951 1248.40817053942  L 3254.012687216 1247.6287123529  Z M 3257.13340225198 1250.12825906811  C 3256.35217807805 1249.50467888611  3255.57173710278 1248.8801181411  3254.79208117086 1248.25457830932  L 3254.16627952817 1249.03456055527  C 3254.94658829322 1249.66062417339  3255.72768275905 1250.28570788499  3256.50956107925 1250.90981021244  L 3257.13340225198 1250.12825906811  Z M 3260.26246811047 1252.61734383376  C 3259.479160611 1251.99638263193  3258.69663302245 1251.37443825011  3257.91488719542 1250.75151215912  L 3257.29170038734 1251.53358517504  C 3258.0741007976 1252.15703286392  3258.85728362358 1252.77949802129  3259.64124701393 1253.40097917574  L 3260.26246811047 1252.61734383376  Z M 3263.39984971878 1255.09593875047  C 3262.61446767328 1254.47760348872  3261.82986224321 1253.85828244178  3261.04603528308 1253.23797707351  L 3260.42547029471 1254.02213209339  C 3261.20995358035 1254.64295686488  3261.99521598835 1255.26279649127  3262.78125566149 1255.8816495066  L 3263.39984971878 1255.09593875047  Z M 3266.54551191101 1257.56401603649  C 3265.75806412274 1256.94831364566  3264.9713896452 1256.33162287512  3264.18549033781 1255.71394518249  L 3263.56755412486 1256.500173417  C 3264.35411149317 1257.11836831272  3265.1414446808 1257.73557546004  3265.92955182659 1258.35179339997  L 3266.54551191101 1257.56401603649  Z M 3269.69941942843 1260.02154802792  C 3268.9099147238 1259.40848540936  3268.12118001605 1258.79443182724  3267.33321717045 1258.17938873374  L 3266.71791665918 1258.96768137028  C 3267.50653929358 1259.58323946084  3268.29593443651 1260.19780721152  3269.08610022099 1260.81138316881  L 3269.69941942843 1260.02154802792  Z M 3272.86153691991 1262.46850717908  C 3272.06998414806 1261.85809120427  3271.27919805111 1261.24668169357  3270.48918049916 1260.63428009289  L 3269.87652258626 1261.42462829575  C 3270.66720164749 1262.03754268167  3271.45864989733 1262.64946414696  3272.25086546394 1263.26039124437  L 3272.86153691991 1262.46850717908  Z M 3276.03182894228 1264.90486606278  C 3275.23823697549 1264.29710357369  3274.44540835299 1263.6883449875  3273.65334494974 1263.07859174384  L 3273.04333650231 1263.87098665427  C 3273.8360631279 1264.48125046559  3274.62955561356 1265.09051878667  3275.42381208261 1265.69879017651  L 3276.03182894228 1264.90486606278  Z M 3279.21175630366 1267.32773009467  C 3278.41551222515 1266.72353017311  3277.62011898763 1266.11820979064  3276.8255789551 1265.51177074631  L 3276.2188553446 1266.30668360975  C 3277.01414130144 1266.91369198678  3277.810281264 1267.51958065155  3278.60727286661 1268.1243478037  L 3279.21175630366 1267.32773009467  Z M 3282.40126032235 1269.73854632887  C 3281.60275400062 1269.13733934959  3280.80509430827 1268.53500872366  3280.00828361601 1267.93155624128  L 3279.40454796888 1268.72874082993  C 3280.20210671717 1269.3327598412  3281.00051526234 1269.93565594259  3281.79977123198 1270.53742734265  L 3282.40126032235 1269.73854632887  Z M 3285.59979082323 1272.13737384148  C 3284.79903350817 1271.53916827467  3283.99911859894 1270.93983589133  3283.20004847297 1270.33937847273  L 3282.59930929502 1271.13882355532  C 3283.39912959805 1271.73984469088  3284.19979547766 1272.33973973515  3285.00130455373 1272.93850690485  L 3285.59979082323 1272.13737384148  Z M 3288.8073027433 1274.52417883622  C 3288.00430571651 1273.9289831098  3287.20214686013 1273.33265741284  3286.40082855826 1272.73520351766  L 3285.80309431311 1273.53689783109  C 3286.60516490282 1274.1349126236  3287.40807683589 1274.73179815853  3288.21182772653 1275.32755266229  L 3288.8073027433 1274.52417883622  Z M 3292.02375089301 1276.89892768621  C 3291.21852546764 1276.3067501857  3290.41413396545 1275.71343957653  3289.61057877719 1275.11899762211  L 3289.01585788611 1275.92292987157  C 3289.82016746224 1276.51792989568  3290.62531413715 1277.11179751221  3291.43129551842 1277.70453095651  L 3292.02375089301 1276.89892768621  Z M 3295.24908995691 1279.26158693443  C 3294.44164747751 1278.6724360028  3293.63503466232 1278.08214884039  3292.82925390867 1277.49072720161  L 3292.23755475049 1278.29688606078  C 3293.04409198139 1278.88886293374  3293.8514620547 1279.47970426506  3294.6596625714 1280.06940829909  L 3295.24908995691 1279.26158693443  Z M 3298.4832744943 1281.61212329416  C 3297.67362633665 1281.02600723177  3296.86480357255 1280.43875183247  3296.05680860589 1279.85035884167  L 3295.46813951686 1280.65873295284  C 3296.27689303949 1281.24767833449  3297.08647513645 1281.83548505644  3297.89688340211 1282.42215137207  L 3298.4832744943 1281.61212329416  Z M 3301.72625893985 1283.9505036495  C 3300.91441651081 1283.36743071393  3300.10339519302 1282.7832153514  3299.29319739692 1282.19785929824  L 3298.70756667059 1283.00843727251  C 3299.51852509072 1283.5943428654  3300.33030780538 1284.17910669657  3301.14291240245 1284.76272702844  L 3301.72625893985 1283.9505036495  Z M 3304.97799760425 1286.2766950558  C 3304.16397234159 1285.69667346178  3303.35076389633 1285.11550636681  3302.53837468539 1284.53319549818  L 3301.95579057251 1285.34596591559  C 3302.76894246464 1285.92882346497  3303.58291436042 1286.51053616707  3304.39770384021 1287.09110229264  L 3304.97799760425 1286.2766950558  Z M 3308.23844467486 1288.59066474014  C 3307.42224804694 1288.01370265927  3306.60686393155 1287.43559201997  3305.79229475108 1286.85633453973  L 3305.21276545949 1287.67128594944  C 3306.02809936773 1288.25108724387  3306.84424897619 1288.82974062086  3307.66121185974 1289.40724436097  L 3308.23844467486 1288.59066474014  Z M 3311.50755421635 1290.89238010179  C 3310.68919772263 1290.31848566294  3309.8716494241 1289.74343962363  3309.05491175063 1289.16724369298  L 3308.47844544511 1289.98436461342  C 3309.29594988217 1290.56110148404  3310.11426570552 1291.13668738393  3310.93339048259 1291.71112060209  L 3311.50755421635 1290.89238010179  Z M 3314.78528017134 1293.18180871266  C 3313.96477534102 1292.61099000099  3313.14507437821 1292.03901666379  3312.32617971812 1291.46589040032  L 3311.75278452033 1292.28516931933  C 3312.57244796899 1292.85883364093  3313.39291847758 1293.43134395403  3314.21419360813 1294.00269855748  L 3314.78528017134 1293.18180871266  Z M 3318.07157636107 1295.45891831778  C 3317.2489347543 1294.89118337558  3316.42709267501 1294.32229079835  3315.60605256579 1293.75224227688  L 3315.03573655407 1294.57366765194  C 3315.85754746605 1295.14425134211  3316.68016110123 1295.71367800299  3317.50357501426 1296.28194594187  L 3318.07157636107 1295.45891831778  Z M 3321.36639648603 1297.7236768357  C 3320.54162969256 1297.1590336615  3319.71765807578 1296.59322985941  3318.8944840846 1296.02626711104  L 3318.32725529397 1296.84982736935  C 3319.15120209138 1297.41732238958  3319.97594726294 1297.9836573753  3320.801488358 1298.54883064372  L 3321.36639648603 1297.7236768357  Z M 3324.6696941266 1299.97605235903  C 3323.8428137663 1299.41450890789  3323.01672422068 1298.85180185235  3322.19142794498 1298.28793286483  L 3321.62729436691 1299.11361640354  C 3322.45336544111 1299.67801475833  3323.28023053019 1300.24125009048  3324.10788717615 1300.80332072565  L 3324.6696941266 1299.97605235903  Z M 3327.98142274376 1302.2160131548  C 3327.15244046608 1301.657577338  3326.32424463047 1301.09797495703  3325.49683769738 1300.53720767441  L 3324.93580727977 1301.36500286074  C 3325.76399099287 1301.92629659872  3326.59296434935 1302.48642434158  3327.42272488599 1303.04538442493  L 3327.98142274376 1302.2160131548  Z M 3331.30153567968 1304.44352766497  C 3330.47046316423 1303.88820735035  3329.64017270611 1303.33171752755  3328.81066677303 1302.7740598505  L 3328.25274742004 1303.60395502193  C 3329.08303210386 1304.16213623511  3329.91410204897 1304.71914849747  3330.7459547859 1305.27499015388  L 3331.30153567968 1304.44352766497  Z M 3334.62998615843 1306.65856450685  C 3333.79683511372 1306.10636751802  3332.96446173111 1305.5529980938  3332.1328684845 1304.99845787887  L 3331.57806805646 1305.83044134328  C 3332.41044201325 1306.38550216752  3333.24359683866 1306.93939110205  3334.07753005602 1307.49210650034  L 3334.62998615843 1306.65856450685  Z M 3337.96672728658 1308.86109247353  C 3337.1315094506 1308.3120265902  3336.29706487053 1307.7617853608  3335.46339602643 1307.21037042072  L 3334.91172233974 1308.04443045658  C 3335.74617384262 1308.59636307193  3336.58140180996 1309.14712087485  3337.41740375892 1309.69670222812  L 3337.96672728658 1308.86109247353  Z M 3341.31171205393 1311.05108053434  C 3340.47443919378 1310.50515349212  3339.63793517246 1309.95804820971  3338.80220247614 1309.40976631316  L 3338.25366330315 1310.24589116969  C 3339.09018059598 1310.79468780027  3339.92746993766 1311.34230671191  3340.76552884025 1311.8887462774  L 3341.31171205393 1311.05108053434  Z M 3344.66489333412 1313.22849783529  C 3343.82557724586 1312.68571732555  3342.9870255685 1312.1417556981  3342.14924079432 1311.59661456966  L 3341.6038438632 1312.43479246697  C 3342.44241516042 1312.98044538086  3343.2817540805 1313.52491768623  3344.12185812941 1314.06820776523  L 3344.66489333412 1313.22849783529  Z M 3348.02622388533 1315.39331369948  C 3347.18487639379 1314.85368736928  3346.34428887446 1314.31287706049  3345.50446382568 1313.77088438045  L 3344.96221682036 1314.61110350974  C 3345.80283030761 1315.15360501941  3346.64420698093 1315.69492304763  3347.48634434023 1316.23505598592  L 3348.02622388533 1315.39331369948  Z M 3351.3956563509 1317.54549762756  C 3350.55228930954 1317.0090330795  3349.70967779101 1316.47138170866  3348.86782429963 1315.93254511298  L 3348.32873485964 1316.77479363669  C 3349.1713786938 1317.31413609903  3350.01478126649 1317.85229222365  3350.85894007158 1318.38926041147  L 3351.3956563509 1317.54549762756  Z M 3354.77314326005 1319.68501929813  C 3353.92776855078 1319.15172409029  3353.0831449043 1318.61723923218  3352.23927483093 1318.08156631235  L 3351.7033505513 1318.92583236432  C 3352.54801286066 1319.46200818072  3353.3934294503 1319.99699481985  3354.23959780813 1320.53079069203  L 3354.77314326005 1319.68501929813  Z M 3358.1586370285 1321.81184856821  C 3357.31126656152 1321.281730214  3356.46464268672 1320.7504193988  3355.61876792034 1320.21791770173  L 3355.08601635155 1321.06418938739  C 3355.93268523594 1321.59719100384  3356.78010393175 1322.12900062023  3357.62826992093 1322.65961665631  L 3358.1586370285 1321.81184856821  Z M 3361.55208995919 1323.92595547362  C 3360.70273567265 1323.39902144158  3359.85412349766 1322.87089215497  3359.00625595535 1322.34156918279  L 3358.47668460314 1323.1898345793  C 3359.32534813396 1323.71965448642  3360.17475699729 1324.2482795878  3361.02490866812 1324.775708312  L 3361.55208995919 1323.92595547362  Z M 3364.95345424292 1326.02731022941  C 3364.10212810342 1325.50356794357  3363.25153958336 1324.97862762575  3362.40169121078 1324.45249083612  L 3361.8753075361 1325.30273799256  C 3362.72595375699 1325.82936872601  3363.57734082046 1326.35480186453  3364.42946619563 1326.8790358462  L 3364.95345424292 1326.02731022941  Z M 3368.36268195901 1328.11588323033  C 3367.50939596042 1327.5953400694  3366.65684307929 1327.07359611629  3365.8050258495 1326.55065292167  L 3365.28183726839 1327.40286985919  C 3366.13445419507 1327.92630399955  3366.98780746342 1328.44853777236  3367.84189453778 1328.96956962585  L 3368.36268195901 1328.11588323033  Z M 3371.77972507601 1330.19164505118  C 3370.92449123999 1329.67430834891  3370.06998600912 1329.15576811118  3369.21621192307 1328.63602587914  L 3368.69622580657 1329.49020059115  C 3369.55080142662 1330.01043076383  3370.40610887761 1330.52945781357  3371.26214561805 1331.04728019813  L 3371.77972507601 1330.19164505118  Z M 3375.20453545236 1332.25456644724  C 3374.34736582784 1331.74044349211  3373.49092028642 1331.22511427551  3372.63520137247 1330.70858032842  L 3372.11842504648 1331.56470078074  C 3372.97494732007 1332.08171965639  3373.83219690356 1332.59753267067  3374.69017124968 1333.11213829088  L 3375.20453545236 1332.25456644724  Z M 3378.63706483708 1334.30461835472  C 3377.77797150077 1333.79371639026  3376.91959771426 1333.28160545466  3376.0619460287 1332.76828706999  L 3375.5483867739 1333.62634120104  C 3376.40684363362 1334.14014149545  3377.26602327246 1334.65273320736  3378.12592313636 1335.164114813  L 3378.63706483708 1334.30461835472  Z M 3382.07726487041 1336.34177189115  C 3381.21625992563 1335.83409811515  3380.35596998771 1335.32521267573  3379.49639761353 1334.81511708535  L 3378.98606266529 1335.67509280629  C 3379.8464420168 1336.18566728081  3380.70753960594 1336.69503046841  3381.56935287297 1337.20318085491  L 3382.07726487041 1336.34177189115  Z M 3385.52508708456 1338.36599835574  C 3384.6621826617 1337.86155992066  3383.79998869271 1337.35590714693  3382.93850774014 1336.8490415374  L 3382.43140428839 1337.71092673232  C 3383.29369401027 1338.21826819375  3384.15669741765 1338.72439568058  3385.02041194619 1339.22930768889  L 3385.52508708456 1338.36599835574  Z M 3388.98048290432 1340.37726922986  C 3388.11569116055 1339.87607324256  3387.25160530765 1339.37366025849  3386.38822791379 1338.87003177088  L 3385.88436310294 1339.73381429697  C 3386.74855104651 1340.23791559744  3387.61344811393 1340.74080025305  3388.47905173522 1341.24246676954  L 3388.98048290432 1340.37726922986  Z M 3392.44340364779 1342.37555617741  C 3391.57673676687 1341.87760969907  3390.71077120388 1341.37844358298  3389.84550953256 1340.87805931273  L 3389.34489046139 1341.74372700046  C 3390.21096445123 1342.24458103775  3391.07774299379 1342.74421577738  3391.94522351246 1343.24262973412  L 3392.44340364779 1342.37555617741  Z M 3395.91380052707 1344.36083104518  C 3395.04527071917 1343.8661410912  3394.17743764637 1343.37022887569  3393.31030388798 1342.87309587254  L 3392.81293760955 1343.74063652581  C 3393.68088544418 1344.23823624376  3394.54953324943 1344.73461402782  3395.41887844419 1345.22976840304  L 3395.91380052707 1344.36083104518  Z M 3399.3916246489 1346.33306586333  C 3398.52124415045 1345.84163940323  3397.65155579446 1345.34898807502  3396.78256216573 1344.85511334291  L 3396.28845568726 1345.72451473924  C 3397.15826513846 1346.21885312734  3398.02876996832 1346.71196696253  3398.89996759126 1347.20385478016  L 3399.3916246489 1346.33306586333  Z M 3402.87682701541 1348.2922328457  C 3402.00460808871 1347.80407680291  3401.13307670263 1347.31469330301  3400.26223544636 1346.82408379988  L 3399.77139572914 1347.69533369056  C 3400.64305454211 1348.18640378404  3401.51540413304 1348.67624672345  3402.3884419098 1349.16486105326  L 3402.87682701541 1348.2922328457  Z M 3406.36935852476 1350.23830439025  C 3405.49531345858 1349.75342564245  3404.62195132039 1349.26731686521  3403.74927470592 1348.77997950329  L 3403.26170866523 1349.65306561357  C 3404.13520455946 1350.14086049392  3405.00938662123 1350.62742563632  3405.88425225188 1351.11275959437  L 3406.36935852476 1350.23830439025  Z M 3409.86916997185 1352.17125307945  C 3408.99331108014 1351.68965845782  3408.11813049471 1351.20683125206  3407.2436308167 1350.72277289718  L 3406.7593453217 1351.59768292646  C 3407.63466599098 1352.0821957214  3408.51066820716 1352.56547621153  3409.3873493662 1353.04752296023  L 3409.86916997185 1352.17125307945  Z M 3413.37621204905 1354.09105168063  C 3412.49855167147 1353.6127479702  3411.62156496892 1353.13320913832  3410.74525454791 1352.6524366102  L 3410.26425642152 1353.52915823217  C 3411.14138953376 1354.01038211556  3412.01919956267 1354.49037114465  3412.89768389882 1354.9691238926  L 3413.37621204905 1354.09105168063  Z M 3416.89043534681 1355.99767314641  C 3416.01098584844 1355.52266708584  3415.13220538434 1355.04642338388  3414.25409656635 1354.56894345598  L 3413.7763925852 1355.44746431879  C 3414.65532578277 1355.92539251084  3415.53493125723 1356.40208331649  3416.41520639383 1356.87753531871  L 3416.89043534681 1355.99767314641  Z M 3420.41179035445 1357.89109061504  C 3419.53056412553 1357.41938889652  3418.65000228073 1356.94644703413  3417.77010743715 1356.4722664335  L 3417.29570433145 1357.35257415998  C 3418.17642523153 1357.82719992741  3419.05781375872 1358.30058579349  3419.93986729406 1358.77273035159  L 3420.41179035445 1357.89109061504  Z M 3423.94022746078 1359.7712774108  C 3423.05723691663 1359.30288667999  3422.17490609704 1358.83325332029  3421.29323762441 1358.36237872749  L 3420.82214207786 1359.24446091528  C 3421.70463827192 1359.71577757105  3422.58779743499 1360.18585182858  3423.47161694175 1360.65468229049  L 3423.94022746078 1359.7712774108  Z M 3427.47569695486 1361.63820704439  C 3426.59095453562 1361.17313390028  3425.70686717212 1360.70681565976  3424.82343749197 1360.23925370879  L 3424.35565614167 1361.12309793054  C 3425.23991519688 1361.59109883463  3426.12483255256 1362.0578548605  3427.01040557927 1362.52336462121  L 3427.47569695486 1361.63820704439  Z M 3431.01814902665 1363.49185321327  C 3430.13166719716 1363.03010420811  3429.24583574535 1362.56710765658  3428.36065730401 1362.10286493476  L 3427.89619674039 1362.98845873828  C 3428.78220619854 1363.45313729709  3429.6688692799 1363.91656851553  3430.55618334984 1364.37875101654  L 3431.01814902665 1363.49185321327  Z M 3434.56753376775 1365.33218980203  C 3433.67932501735 1364.87377144126  3432.79176195742 1364.41410310172  3431.90484722587 1363.95318614961  L 3431.44371399254 1364.84051705807  C 3432.33146137095 1365.3018667249  3433.2198576861 1365.76196660678  3434.1089002982 1366.22081533656  L 3434.56753376775 1365.33218980203  Z M 3438.12380117208 1367.15919088282  C 3437.23387801445 1366.70410962493  3436.34459585096 1366.24777597349  3435.45595732465 1365.79019128479  L 3434.99815791836 1366.67924679689  C 3435.88763070985 1367.13726107194  3436.77774774248 1367.59402313507  3437.66850637132 1368.04953162905  L 3438.12380117208 1367.15919088282  Z M 3441.6869011366 1368.97283071562  C 3440.79527610956 1368.5210929721  3439.90428737131 1368.06810043789  3439.01393756996 1367.61385445935  L 3438.5594784405 1368.5046220495  C 3439.4506641136 1368.95929447995  3440.34248932313 1369.41271228917  3441.23495141912 1369.86487412985  L 3441.6869011366 1368.97283071562  Z M 3445.25678346201 1370.77308374869  C 3444.36346912736 1370.32469588391  3443.47078636718 1369.87505084899  3442.57873783464 1369.42414998034  L 3442.12762538472 1370.3166170988  C 3443.02051138381 1370.76794127894  3443.91403220564 1371.21800844619  3444.80818519518 1371.66681726322  L 3445.25678346201 1370.77308374869  Z M 3448.83339785344 1372.55992461886  C 3447.93840679678 1372.11489295001  3447.04404259139 1371.66860174929  3446.15030789541 1371.2210523431  L 3445.70254848061 1372.11520641621  C 3446.59712222612 1372.56317598749  3447.49232607173 1373.00988617193  3448.38815735741 1373.45533564218  L 3448.83339785344 1372.55992461886  Z M 3452.41669392119 1374.33332815195  C 3451.52003875175 1373.89165894893  3450.62400570153 1373.44872787004  3449.72859743365 1373.00453623169  L 3449.28419736229 1373.90036466202  C 3450.18044625088 1374.34497331314  3451.07732050805 1374.78832022123  3451.97481746879 1375.23040406892  L 3452.41669392119 1374.33332815195  Z M 3456.00621733509 1376.09296523048  C 3455.97716794471 1376.07882717222  3455.94811919218 1376.06468778973  3455.91907108835 1376.05054708829  C 3455.04998725523 1375.6264065186  3454.18148143252 1375.20108260122  3453.31355603603 1374.77457651922  L 3452.87252156913 1375.67206668574  C 3453.74141031989 1376.0990461684  3454.61088024115 1376.52484197228  3455.48092891208 1376.94945291186  C 3455.51015309195 1376.96367934447  3455.53937790808 1376.97790443374  3455.56860338893 1376.99212819353  L 3456.00621733509 1376.09296523048  Z M 3459.60445685968 1377.8358487963  C 3458.70408014916 1377.40181658858  3457.80431481075 1376.96651726317  3456.90516351752 1376.5299521133  L 3456.46839351339 1377.42952532516  C 3457.36838894114 1377.86650032787  3458.26899899079 1378.30220831786  3459.17022098626 1378.73664800047  L 3459.60445685968 1377.8358487963  Z M 3463.2092129154 1379.56521416518  C 3462.30721341648 1379.13456456084  3461.4058205287 1378.7026455527  3460.50503693109 1378.26945842447  L 3460.07164653362 1379.17066470684  C 3460.97327579836 1379.60425851667  3461.87551492497 1380.03658301573  3462.77836123253 1380.46763691942  L 3463.2092129154 1379.56521416518  Z M 3466.82043471606 1381.28103697268  C 3465.91682513652 1380.8537760389  3465.01381739916 1380.42524343337  3464.11141418782 1379.99544042973  L 3463.6814095029 1380.89826708582  C 3464.5846599017 1381.32847359392  3465.4885153943 1381.75740851135  3466.39297329386 1382.18507056306  L 3466.82043471606 1381.28103697268  Z M 3470.43807138439 1382.98329304516  C 3469.53286445487 1382.55942680148  3468.6282545901 1382.13428663601  3467.72424447868 1381.70787381229  L 3467.29763156451 1382.61230812249  C 3468.20249037215 1383.039121268  3469.10794949589 1383.46466056034  3470.01400624521 1383.88892473505  L 3470.43807138439 1382.98329304516  Z M 3474.06207195273 1384.6719584001  C 3473.15528042639 1384.25149281824  3472.24908117895 1383.82975108247  3471.34347690375 1383.40673444627  L 3470.92026177072 1384.31276366831  C 3471.82671623877 1384.73617743792  3472.7337662373 1385.15831511006  3473.64140907109 1385.57917543038  L 3474.06207195273 1384.6719584001  Z M 3477.69238536376 1386.34700924649  C 3476.78402201608 1385.92995025023  3475.87624615311 1385.51161288595  3474.96906047287 1385.091998397  L 3474.54924908352 1385.99960976613  C 3475.45728644125 1386.41961819451  3476.36591453546 1386.8383482991  3477.27513066624 1387.25579883566  L 3477.69238536376 1386.34700924649  Z M 3481.32896047124 1388.00842198508  C 3480.41903809984 1387.59477545023  3479.50969841069 1387.17984835125  3478.60094410643 1386.76364192137  L 3478.18454237535 1387.67282265056  C 3479.09414982973 1388.08941982036  3480.00434321827 1388.50473645804  3480.9151198364 1388.91877132954  L 3481.32896047124 1388.00842198508  Z M 3484.9717460407 1389.65617320881  C 3484.06027746497 1389.24594496301  3483.14938676139 1388.83443397527  3482.23907663607 1388.42164146815  L 3481.82609042978 1389.33237874828  C 3482.73725516567 1389.74555879018  3483.64900102513 1390.15745610971  3484.56132529899 1390.56806948294  L 3484.9717460407 1389.65617320881  Z M 3488.62069075015 1391.29023970307  C 3487.70768881185 1390.88343552605  3486.79525992631 1390.47534644685  3485.88340680536 1390.06597367835  L 3485.4738419423 1390.97825467834  C 3486.38655112259 1391.38801177121  3487.2998366077 1391.79648396951  3488.21369568386 1392.20367005948  L 3488.62069075015 1391.29023970307  Z M 3492.27574319087 1392.91059844604  C 3491.36122075278 1392.50722406904  3490.44726654056 1392.10256264798  3489.53388327057 1391.69661538554  L 3489.12774552096 1392.61042725258  C 3490.04198628681 1393.01675562348  3490.95679853059 1393.42179694571  3491.872179534 1393.82555001572  L 3492.27574319087 1392.91059844604  Z M 3495.93685186805 1394.51722660904  C 3495.02082181458 1394.11728771508  3494.10535515207 1393.71605965329  3493.19045460139 1393.31354361616  L 3492.78774968716 1394.22887347585  C 3493.70350915814 1394.63176740017  3494.61983527211 1395.03337213985  3495.53672530629 1395.43368650155  L 3495.93685186805 1394.51722660904  Z M 3499.60396520159 1396.11010155684  C 3498.68644043836 1395.71360378051  3497.76947422326 1395.31581473076  3496.85306928161 1394.91673558985  L 3496.45380287634 1395.83357054644  C 3497.37106815063 1396.23302434793  3498.28889522499 1396.63118684698  3499.20728137217 1397.02805686048  L 3499.60396520159 1396.11010155684  Z M 3503.27703152675 1397.68920084796  C 3502.35802498046 1397.29614977539  3501.4395721316 1396.90180534199  3500.52167570991 1396.50616871979  L 3500.12585343872 1397.42449585629  C 3501.04461159328 1397.82050390719  3501.96392669707 1398.21521855604  3502.88379601843 1398.60863862998  L 3503.27703152675 1397.68920084796  Z M 3506.95599909498 1399.25450223501  C 3506.03552371301 1398.86490340368  3505.11559717053 1398.47400914257  3504.19622220053 1398.081820613  L 3503.80384964003 1399.00162699141  C 3504.72408773079 1399.3941837125  3505.6448779121 1399.78544495014  3506.5662174479 1400.17540954175  L 3506.95599909498 1399.25450223501  Z M 3510.64081607452 1400.80598366498  C 3509.71888482552 1400.41984256398  3508.79749754921 1400.03240398203  3507.87665698404 1399.64366907065  L 3507.48773966223 1400.56494173213  C 3508.40944472426 1400.9540415928  3509.33169701039 1401.3418439069  3510.2544937802 1401.7283475221  L 3510.64081607452 1400.80598366498  Z M 3514.33143055126 1402.34362327959  C 3513.40805642381 1401.96094534904  3512.48522139515 1401.57696790489  3511.56292820804 1401.19169208838  L 3511.17747160425 1402.11441805344  C 3512.10063065197 1402.5000555718  3513.0243320496 1402.88439349874  3513.94857305246 1403.26743069221  L 3514.33143055126 1402.34362327959  Z M 3518.02779052937 1403.86739941555  C 3517.10298653239 1403.48819004679  3516.17871675328 1403.10767915034  3515.25498393791 1402.72586785664  L 3514.8729934827 1403.6500341253  C 3515.79759351002 1404.03220386823  3516.72273100546 1404.41307199319  3517.64840322004 1404.79263736846  L 3518.02779052937 1403.86739941555  Z M 3521.7298439321 1405.37729060489  C 3520.80362309503 1405.00155514056  3519.8779315868 1404.62451615253  3518.95277215752 1404.24617476092  L 3518.57425323263 1405.17176831292  C 3519.50028121319 1405.55046489617  3520.42684177248 1405.92785785324  3521.3539321573 1406.30394606273  L 3521.7298439321 1405.37729060489  Z M 3525.43753860248 1406.87327557527  C 3524.50991397452 1406.50101930897  3523.58281377893 1406.12745754134  3522.65624076999 1405.75259138216  L 3522.28119870825 1406.67959917712  C 3523.20864159555 1407.05481726535  3524.13661216469 1407.42872973757  3525.06510765829 1407.80133548271  L 3525.43753860248 1406.87327557527  Z M 3529.15082230404 1408.35533325026  C 3528.22180695438 1407.98656142668  3527.29331113264 1407.61648214227  3526.36533759842 1407.24509649695  L 3525.99377768365 1408.17350547457  C 3526.92262241127 1408.54523978148  3527.85198991641 1408.91566650091  3528.78187743753 1409.28478453219  L 3529.15082230404 1408.35533325026  Z M 3532.8696427216 1409.82344274967  C 3531.93924973844 1409.45816056414  3531.00937137259 1409.09156897718  3530.08001038659 1408.72366907789  L 3529.71193785359 1409.65346615815  C 3530.64217133515 1410.0217114464  3531.57292268312 1410.38864719439  3532.5041891307 1410.75427231135  L 3532.8696427216 1409.82344274967  Z M 3536.59394746196 1411.27758338978  C 3535.66218995367 1410.91579598879  3534.73094214367 1410.55269726377  3533.80020679974 1410.18828829389  L 3533.43562683416 1411.11946037718  C 3534.3672359643 1411.48421145885  3535.2993580413 1411.84765106546  3536.23199029543 1412.20977811708  L 3536.59394746196 1411.27758338978  Z M 3540.32368405466 1412.71773468372  C 3539.39057514826 1412.3594471643  3538.45797101454 1411.99984641694  3537.5258744253 1411.63893351041  L 3537.16479216357 1412.57146747777  C 3538.09776381679 1412.93271921386  3539.03124349123 1413.29265755901  3539.96522841197 1413.65128144325  L 3540.32368405466 1412.71773468372  Z M 3544.05879995269 1414.14387634167  C 3543.12435279425 1413.78909375153  3542.19040547634 1413.43299604828  3541.25696077358 1413.07558428982  L 3540.89938130288 1414.00946700308  C 3541.83370233523 1414.36721430418  3542.76852645487 1414.72364631653  3543.70385088403 1415.07876198101  L 3544.05879995269 1414.14387634167  Z M 3547.79924253329 1415.55598827121  C 3546.86347028811 1415.20471560884  3545.92819294368 1414.85212596648  3544.99341327859 1414.49822039161  L 3544.63934163672 1415.43343869363  C 3545.57499888469 1415.78767651949  3546.51115427949 1416.14059717753  3547.4478050394 1416.49219961908  L 3547.79924253329 1415.55598827121  Z M 3551.54495909863 1416.95405057758  C 3550.60787495048 1416.60629279194  3549.67128075634 1416.25721617799  3548.73517929871 1415.90682177277  L 3548.38462047407 1416.84336248757  C 3549.3216007555 1417.19408584745  3550.25907423628 1417.54349017901  3551.19703813079 1417.89157444401  L 3551.54495909863 1416.95405057758  Z M 3555.29589687657 1418.33804356395  C 3554.35751402791 1417.99380555455  3553.41961617903 1417.64824688688  3552.48220611747 1417.30136858797  L 3552.13516504897 1418.23921852095  C 3553.07345516306 1418.58642247363  3554.01223352208 1418.93230555606  3554.95149733653 1419.27686674049  L 3555.29589687657 1418.33804356395  Z M 3559.05200302143 1419.7079477317  C 3558.11233469243 1419.36723434826  3557.17314640331 1419.02519849563  3556.23444094428 1418.68184118993  L 3555.89092252127 1419.62098712804  C 3556.83050924857 1419.9646667818  3557.77057926009 1420.30702374223  3558.71112976131 1420.6480569916  L 3559.05200302143 1419.7079477317  Z M 3562.81322461471 1421.06374378074  C 3561.87228404442 1420.72655982359  3560.93181854619 1420.38805160453  3559.99183091518 1420.04822012964  L 3559.65183997737 1420.98864884156  C 3560.59271008075 1421.32879935457  3561.53405849966 1421.66762536935  3562.47588243696 1422.0051258791  L 3562.81322461471 1421.06374378074  Z M 3566.57950866583 1422.4054126097  C 3565.63730911046 1422.07176282917  3564.69557965379 1421.7367870131  3563.75432309359 1421.40048615664  L 3563.41786443098 1422.342184393  C 3564.36000465466 1422.67880097292  3565.30261821901 1423.01409126859  3566.24570232315 1423.34805428372  L 3566.57950866583 1422.4054126097  Z M 3570.35080211289 1423.73293531628  C 3569.40735684715 1423.40282441319  3568.46437669898 1423.07138571918  3567.52186447101 1422.73862021932  L 3567.18894282387 1423.68157471284  C 3568.13233989435 1424.0146526172  3569.07620532398 1424.34640246997  3570.02053630817 1424.67682328539  L 3570.35080211289 1423.73293531628  Z M 3574.12705182342 1425.04629319745  C 3573.18237413881 1424.71972582248  3572.23815658524 1424.39182892033  3571.29440196785 1424.06260346516  L 3570.9650220266 1425.00680093089  C 3571.90966265266 1425.33633546706  3572.85476664979 1425.66454020302  3573.80033120965 1425.99141416353  L 3574.12705182342 1425.04629319745  Z M 3577.90820459512 1426.34546774976  C 3576.96230780128 1426.02244850394  3576.01686614428 1425.69809801302  3575.0718824341 1425.37241724101  L 3574.74604883925 1426.31784437647  C 3575.6919197122 1426.64383090175  3576.63824896155 1426.96848589693  3577.58503377537 1427.29180839733  L 3577.90820459512 1426.34546774976  Z M 3581.69420715662 1427.63044066958  C 3580.74710457975 1427.31097410375  3579.80045213974 1426.99017459386  3578.85425265012 1426.66804309335  L 3578.53196999224 1427.61468657874  C 3579.47905778601 1427.93712050041  3580.42659895508 1428.25822118086  3581.37459068392 1428.57798766597  L 3581.69420715662 1427.63044066958  Z M 3585.4850061682 1428.90119385336  C 3584.53671115173 1428.58528446839  3583.58886126575 1428.26804045916  3582.64145932739 1427.94946276855  L 3582.322732147 1428.89730926692  C 3583.27102351839 1429.21618604233  3584.2197632576 1429.53372788418  3585.16894854553 1429.84993384891  L 3585.4850061682 1428.90119385336  Z M 3589.28054822259 1430.1577093979  C 3588.33107412672 1429.84536164452  3587.38204014872 1429.53167760549  3586.43344910923 1429.21665821311  L 3586.11828189678 1430.16569437059  C 3587.06776348564 1430.48100950719  3588.01768842851 1430.79498803669  3588.96805390277 1431.10762902613  L 3589.28054822259 1430.1577093979  Z M 3593.08077984568 1431.39996960057  C 3592.13014004723 1431.09118787934  3591.17993534782 1430.7810682299  3590.23016857158 1430.46961157397  L 3589.91856576736 1431.4198240199  C 3590.86922419676 1431.73157307531  3591.82032096013 1432.04198386893  3592.77185323135 1432.35105547838  L 3593.08077984568 1431.39996960057  Z M 3596.88564749731 1432.6279569596  C 3595.93385538951 1432.32274562084  3594.98249335581 1432.01619473016  3594.03156422377 1431.70830519867  L 3593.72353021783 1432.65968054583  C 3594.67535209427 1432.96785912794  3595.62760727845 1433.2746978124  3596.58029294082 1433.58019568746  L 3596.88564749731 1432.6279569596  Z M 3600.69509757198 1433.84165417428  C 3599.74216656431 1433.54001751801  3598.78966059974 1433.23703970499  3597.8375825092 1432.93272163569  L 3597.53312164133 1433.88524648047  C 3598.48609355492 1434.18985024746  3599.43949374392 1434.49311249981  3600.39331937537 1434.79503233642  L 3600.69509757198 1433.84165417428  Z M 3604.50907639964 1435.04104414524  C 3603.55501991743 1434.74298642106  3602.60138344191 1434.44358595436  3601.64816980619 1434.14284363463  L 3601.34728636584 1435.09650455725  C 3602.30139489028 1435.39752921758  3603.25592665235 1435.6972107654  3604.21087881456 1435.99554830985  L 3604.50907639964 1435.04104414524  Z M 3608.32753024644 1436.2261099747  C 3607.37236173146 1435.93163538196  3606.41760817966 1435.63581647949  3605.46327242867 1435.33865414651  L 3605.16597065488 1436.29343771115  C 3606.12120234845 1436.59087902392  3607.07685223473 1436.88697564484  3608.0329174741 1437.18172669408  L 3608.32753024644 1436.2261099747  Z M 3612.15040531549 1437.39683496665  C 3611.19413822439 1437.10594765398  3610.2382810483 1436.81371448369  3609.28283662694 1436.52013632395  L 3608.98912070829 1437.47602907899  C 3609.94546211287 1437.76988285359  3610.90221665993 1438.06239037613  3611.85938150658 1438.35355077745  L 3612.15040531549 1437.39683496665  Z M 3615.97764774759 1438.55320262715  C 3615.02029555329 1438.26590669289  3614.06334821886 1437.9772633717  3613.10680858846 1437.68727352145  L 3612.81668266303 1438.64426199964  C 3613.77412030503 1438.93452409606  3614.73196603349 1439.22343839919  3615.69021700224 1439.51100405053  L 3615.97764774759 1438.55320262715  Z M 3619.80920362202 1439.69519666453  C 3618.85077981213 1439.41149615624  3617.89275580187 1439.12644675086  3616.9351344386 1438.84004929561  L 3616.64860259386 1439.79812001427  C 3617.60712298428 1440.0847863431  3618.56604639937 1440.3701033564  3619.52536998976 1440.65407020635  L 3619.80920362202 1439.69519666453  Z M 3623.6450189573 1440.82280098963  C 3622.68553703472 1440.54269990425  3621.72644984591 1440.26124843066  3620.76776024136 1439.97844740536  L 3620.48482651417 1440.93758686656  C 3621.44441614875 1441.22065338907  3622.40440374052 1441.50236909279  3623.36478643696 1441.78273314064  L 3623.6450189573 1440.82280098963  Z M 3627.48503971192 1441.935999716  C 3626.52451319447 1441.6595019998  3625.56437633936 1441.38165242327  3624.60463200019 1441.10245181221  L 3624.3253003767 1442.06264650294  C 3625.2859457361 1442.3421092311  3626.24698397961 1442.62021965626  3627.2084122516 1442.89697695205  L 3627.48503971192 1441.935999716  Z M 3631.32921178513 1443.03477716018  C 3630.36765420535 1442.76188670863  3629.40648121097 1442.48764294368  3628.4456956587 1442.21204668042  L 3628.16997007433 1443.17328307285  C 3629.13165762433 1443.44913806939  3630.09373297984 1443.72363929779  3631.05619328214 1443.99678594237  L 3631.32921178513 1443.03477716018  Z M 3635.17748101771 1444.11911784185  C 3634.21490592285 1443.84983849967  3633.25271033045 1443.57920440993  3632.29089710145 1443.30721637731  L 3632.01878144079 1444.26948092889  C 3632.98149763252 1444.5417243074  3633.94459654568 1444.81261247167  3634.90807531851 1445.08214461678  L 3635.17748101771 1444.11911784185  Z M 3639.02979319268 1445.18900648411  C 3638.06621414374 1444.92334204498  3637.10300951017 1444.65632144353  3636.14018215471 1444.38794547339  L 3635.87168025151 1445.3512246271  C 3636.83541152157 1445.61985255203  3637.79952042361 1445.88712383573  3638.76400409285 1446.15303768403  L 3639.02979319268 1445.18900648411  Z M 3642.88609403614 1446.24442801367  C 3641.92152460906 1445.98238222054  3640.95732450377 1445.71897886913  3639.99349658719 1445.45421874264  L 3639.72861222429 1446.41849892718  C 3640.69334499521 1446.68350761396  3641.65845030272 1446.94715825149  3642.62392528028 1447.20945005665  L 3642.88609403614 1446.24442801367  Z M 3646.74632921797 1447.28536756104  C 3645.78078300183 1447.02694410569  3644.81560100992 1446.76716171554  3643.85078611087 1446.5060211627  L 3643.58952302012 1447.47128879264  C 3644.55524369971 1447.73267450756  3645.52133181645 1447.99270078464  3646.48778449969 1448.25136685123  L 3646.74632921797 1447.28536756104  Z M 3650.61044435263 1448.31181046078  C 3649.64393495089 1448.0570129841  3648.67778467008 1447.80085521509  3647.7119963817 1447.54333791507  L 3647.45435824396 1448.50957939109  C 3648.4210532267 1448.76733845163  3649.38811054138 1449.02373670474  3650.35552731448 1449.27877338854  L 3650.61044435263 1448.31181046078  Z M 3654.47818973134 1449.32316156787  C 3654.24403896665 1449.26253964782  3654.00990662346 1449.2018465963  3653.77579273473 1449.14108242184  C 3653.04268192173 1448.95022165765  3652.30977492697 1448.75857886988  3651.5770730004 1448.56615438536  L 3651.32306344544 1449.53335609441  C 3652.05657314269 1449.7259927182  3652.79028816805 1449.9178466556  3653.52420726916 1450.10891757914  C 3653.75863715556 1450.16976384852  3653.99308553093 1450.23053886254  3654.227552362 1450.29124261256  L 3654.47818973134 1449.32316156787  Z M 3658.35056367438 1450.3188101819  C 3657.38205429451 1450.07151878696  3656.41385576466 1449.8230115482  3655.44597037452 1449.5732890533  L 3655.19614336173 1450.54157953848  C 3656.16483919609 1450.79151113474  3657.13384843247 1451.04022645731  3658.10316877906 1451.28772491796  L 3658.35056367438 1450.3188101819  Z M 3662.22624927903 1451.30148877191  C 3661.25691741227 1451.05744126628  3660.28789232324 1450.81217688294  3659.31917630356 1450.56569620189  L 3659.07259246144 1451.53481766425  C 3660.04211962086 1451.78150473217  3661.01195610853 1452.02697448398  3661.98209963069 1452.2712263391  L 3662.22624927903 1451.30148877191  Z M 3666.10520310397 1452.27118632338  C 3665.13505961506 1452.03038544246  3664.16521882873 1451.78836666372  3663.19568303735 1451.5451305592  L 3662.95234512977 1452.51507213617  C 3663.92269274712 1452.75851191072  3664.8933456155 1453.00073334036  3665.86430143922 1453.24173585222  L 3666.10520310397 1452.27118632338  Z M 3669.98738167125 1453.22789196729  C 3669.01643743442 1452.99034041018  3668.04579182103 1452.75156994865  3667.07544712535 1452.51158114707  L 3666.83535787982 1453.48233196689  C 3667.80651507879 1453.72252171942  3668.77797344814 1453.96149211192  3669.74973069028 1454.19924257919  L 3669.98738167125 1453.22789196729  Z M 3673.87274146678 1454.17159498021  C 3672.90100736503 1453.93729540956  3671.92956780424 1453.70177594155  3670.95842508054 1453.46503713285  L 3670.72158718815 1454.43658631469  C 3671.69354308354 1454.67352335305  3672.6657960647 1454.90924002976  3673.63834383334 1455.14373578762  L 3673.87274146678 1454.17159498021  Z M 3677.76123894081 1455.1022847845  C 3676.78872586599 1454.87123982649  3675.81650324635 1454.63897399185  3674.84457337987 1454.40548782958  L 3674.61098949525 1455.37782448365  C 3675.58373319253 1455.61150615203  3676.55676988822 1455.84396647099  3677.53009728218 1456.075204891  L 3677.76123894081 1455.1022847845  Z M 3681.65283050842 1456.01995094834  C 3680.67954936132 1455.79216319273  3679.70655457976 1455.56315359477  3678.73384846475 1455.33292269603  L 3678.50352120606 1456.30603592372  C 3679.47704180205 1456.53645960287  3680.45085130582 1456.7656609585  3681.4249474154 1456.99363944879  L 3681.65283050842 1456.01995094834  Z M 3685.54747255001 1456.92458318591  C 3684.57343423942 1456.7000551858  3683.59967820273 1456.4743043916  3682.62620674153 1456.2473313369  L 3682.39913869044 1457.2212102309  C 3683.37342527307 1457.44837333802  3684.3479966702 1457.67431316135  3685.32285057687 1457.89902916654  L 3685.54747255001 1456.92458318591  Z M 3689.44512141178 1457.81617135747  C 3688.47033685579 1457.59490562963  3687.49583047768 1457.37241616937  3686.52160458203 1457.14870350286  L 3686.29779828368 1458.12333714727  C 3687.27283993288 1458.34723713625  3688.24816229891 1458.56991289464  3689.22376307623 1458.79136389604  L 3689.44512141178 1457.81617135747  Z M 3693.34573340624 1458.69470546951  C 3692.3702135305 1458.47670449393  3691.3949677347 1458.25747886161  3690.41999832398 1458.03702909072  L 3690.19945628694 1459.01240656119  C 3691.17524207358 1459.23304092237  3692.15130447683 1459.45245011999  3693.12764118942 1459.67063363539  L 3693.34573340624 1458.69470546951  Z M 3697.24926481268 1459.56017567482  C 3696.27302055188 1459.3454418951  3695.29704626881 1459.12948254776  3694.32134427154 1458.91229814354  L 3694.10406896779 1459.88840850737  C 3695.0805879544 1460.10577476768  3696.05737945491 1460.32191494534  3697.03444115911 1460.53682852914  L 3697.24926481268 1459.56017567482  Z M 3701.15567187768 1460.41257227261  C 3700.17871417381 1460.20110809554  3699.20202234366 1459.98841745399  3698.22559869577 1459.77450085069  L 3698.01159256068 1460.75133316697  C 3698.98883380217 1460.96542889012  3699.9663434506 1461.17829762499  3700.94411919525 1461.38993886839  L 3701.15567187768 1460.41257227261  Z M 3705.06491081556 1461.25188570865  C 3704.08725061924 1461.04369350451  3703.10985218903 1460.83427395264  3702.13271783514 1460.62362754802  L 3701.92198326744 1461.60117086777  C 3702.89993580982 1461.81199365392  3703.87815265037 1462.02158856021  3704.8566314755 1462.2299550909  L 3705.06491081556 1461.25188570865  Z M 3708.97693780892 1462.07810657534  C 3707.99858607843 1461.87318867769  3707.02049200351 1461.66704256281  3706.042657896 1461.45966871795  L 3705.83519725774 1462.43791208418  C 3706.81385013987 1462.6454595704  3707.79276320722 1462.85177829864  3708.77193414576 1463.05686778119  L 3708.97693780892 1462.07810657534  Z M 3712.89170900911 1462.89122561183  C 3711.91267671048 1462.68958431753  3710.93389795398 1462.48671395027  3709.95537505309 1462.28261498957  L 3709.75119066963 1463.26154743747  C 3710.7305329217 1463.46581729732  3711.71013124433 1463.66885753512  3712.68998332068 1463.87066767067  L 3712.89170900911 1462.89122561183  Z M 3716.80918053671 1463.69123370415  C 3715.8294786438 1463.49287127337  3714.85002617614 1463.29327892756  3713.87082545002 1463.09245713872  L 3713.66991961 1464.07206769575  C 3714.64994025527 1464.27305763972  3715.63021285238 1464.47281711112  3716.61073508408 1464.67134563772  L 3716.80918053671 1463.69123370415  Z M 3720.72930848204 1464.47812188525  C 3719.74894797562 1464.28304054129  3718.76883277598 1464.08672845425  3717.78896519976 1463.88918608814  L 3717.59134015507 1464.86946377417  C 3718.57202820841 1465.06717154935  3719.55296409324 1465.26364801546  3720.53414548953 1465.45889270779  L 3720.72930848204 1464.47812188525  Z M 3724.65204890566 1465.25188133515  C 3723.67104077466 1465.0600832647  3722.69027382802 1464.86705363668  3721.70975038514 1464.67279290757  L 3721.5154083509 1465.65372673496  C 3722.49675282028 1465.84815012536  3723.47834099743 1466.04134138385  3724.46017056078 1466.23330005352  L 3724.65204890566 1465.25188133515  Z M 3728.5773578388 1466.01250338104  C 3727.59571307884 1465.82399073386  3726.61430537872 1465.63424572854  3725.63313705934 1465.4432688138  L 3725.44208021386 1466.42484778759  C 3726.42407009992 1466.61598461401  3727.40629956667 1466.80588849939  3728.38876629226 1466.99455899483  L 3728.5773578388 1466.01250338104  Z M 3732.50519128396 1466.75997949735  C 3731.52292089777 1466.57475438637  3730.54088344485 1466.38829613062  3729.55908124637 1466.20060517081  L 3729.37131173114 1467.1828182888  C 3730.35393602687 1467.3706664088  3731.33679577415 1467.55728079258  3732.31988864962 1467.74266099901  L 3732.50519128396 1466.75997949735  Z M 3736.4355052153 1467.49430130585  C 3735.45262021304 1467.31236580725  3734.46996401425 1467.12919639094  3733.48753894159 1466.94479348986  L 3733.30305886127 1467.92762974274  C 3734.28630655254 1468.11218705076  3735.26978556418 1468.29550984132  3736.25349357016 1468.47759768082  L 3736.4355052153 1467.49430130585  Z M 3740.3682555792 1468.21546057577  C 3739.38476697791 1468.03681672884  3738.40150304714 1467.85693820499  3737.41846611217 1467.6758254296  L 3737.23727753454 1468.65927380106  C 3738.22113760064 1468.8405382285  3739.20522485274 1469.02056737094  3740.18953696337 1469.1993608026  L 3740.3682555792 1468.21546057577  Z M 3744.30339829472 1468.92344922387  C 3743.31931711761 1468.7480990309  3742.33545647675 1468.57151341585  3741.35181869762 1468.3936927961  L 3741.17392365355 1469.37774226299  C 3742.15838506692 1469.55571177815  3743.14306952876 1469.73244525452  3744.12797471139 1469.90794227433  L 3744.30339829472 1468.92344922387  Z M 3748.24088925411 1469.61825931452  C 3747.25622653183 1469.44620474103  3746.27178020785 1469.27291401393  3745.28755261025 1469.09838754303  L 3745.11295309372 1470.08302707546  C 3746.09800481964 1470.2576996835  3747.0832754546 1470.43113551292  3748.06876266955 1470.60333415376  L 3748.24088925411 1469.61825931452  Z M 3752.1806843233 1470.29988305984  C 3751.19545109241 1470.13112603428  3750.21043012005 1469.96113213756  3749.22562373567 1469.7899017717  L 3749.05432170371 1470.77512033316  C 3750.03995270085 1470.94649407618  3751.02579846577 1471.11663031475  3752.01185666682 1471.28552864645  L 3752.1806843233 1470.29988305984  Z M 3756.12273934238 1470.9683128197  C 3755.13694664585 1470.8028552336  3754.15136206631 1470.63616007274  3753.16598793332 1470.46822773113  L 3752.99798530599 1471.45401427862  C 3753.98418452714 1471.62208723584  3754.97059437117 1471.78892197639  3755.95721250633 1471.95451810591  L 3756.12273934238 1470.9683128197  Z M 3760.06701012613 1471.62354110191  C 3759.0806690136 1471.46138480985  3758.09453187357 1471.29799025321  3757.10860103691 1471.1333578182  L 3756.94389969731 1472.11970130235  C 3757.93065608827 1472.28447158985  3758.91761895546 1472.44800296247  3759.90478596583 1472.61029503365  L 3760.06701012613 1471.62354110191  Z M 3764.01345246448 1472.26556056221  C 3763.02657399173 1472.10670738179  3762.0398953441 1471.94661526074  3761.05341885497 1471.78528457767  L 3760.89202064917 1472.77217394288  C 3761.87932314971 1472.9336397138  3762.86682797751 1473.09386588551  3763.85453279826 1473.25285207928  L 3764.01345246448 1472.26556056221  Z M 3767.96202212303 1472.89436400441  C 3766.97461735146 1472.73881571613  3765.987408256 1472.58202782516  3765.00039717129 1472.4240007023  L 3764.84230390836 1473.41142488684  C 3765.83014145191 1473.56958433133  3766.81817717211 1473.72650350629  3767.80640873217 1473.88218204058  L 3767.96202212303 1472.89436400441  Z M 3771.91267484353 1473.50994438046  C 3770.92475484043 1473.35770272778  3769.93702636287 1473.20422082434  3768.94949174545 1473.04949903293  L 3768.79470519741 1474.03744696908  C 3769.78306671203 1474.19229831445  3770.77162224924 1474.34590873366  3771.76036947224 1474.49827786359  L 3771.91267484353 1473.50994438046  Z M 3775.86536634437 1474.11229479052  C 3774.87694218324 1473.9633614799  3773.88870539428 1473.81318728426  3772.90065831334 1473.66177255856  L 3772.74918021513 1474.65023317273  C 3773.73805462218 1474.80177468323  3774.72711889682 1474.95207462505  3775.7163706998 1475.1011326427  L 3775.86536634437 1474.11229479052  Z M 3779.82005232111 1474.70140848304  C 3778.83113508108 1474.55578518385  3777.84240105715 1474.40892037919  3776.85385258758 1474.2608144164  L 3776.70568463708 1475.24977662925  C 3777.695060853 1475.39800660637  3778.68462277814 1475.544994386  3779.67436807331 1475.6907396207  L 3779.82005232111 1474.70140848304  Z M 3783.77668844695 1475.27727885482  C 3782.78728921226 1475.13496719927  3781.79806903618 1474.99141343183  3780.80903025809 1474.84661789198  L 3780.66417411607 1475.83607061855  C 3781.65404105085 1475.98098740076  3782.64408953562 1476.1246613708  3783.63431722883 1476.26709218886  L 3783.77668844695 1475.27727885482  Z M 3787.73523037321 1475.83989945112  C 3786.74536023372 1475.70090103435  3785.75566499334 1475.56065991317  3784.76614699257 1475.41917641922  L 3784.62460428266 1476.40910856906  C 3785.6149508414 1476.55071053207  3786.60547478827 1476.69106908205  3787.59617378057 1476.83018388705  L 3787.73523037321 1475.83989945112  Z M 3791.69563372987 1476.38926396571  C 3790.70530378052 1476.25358034568  3789.71514456942 1476.11665344272  3788.72515843694 1475.9784835805  L 3788.58693074567 1476.96888405777  C 3789.57774582788 1477.10716961441  3790.56873413438 1477.24421117111  3791.55989332136 1477.38000840375  L 3791.69563372987 1476.38926396571  Z M 3795.65785412604 1476.92536624094  C 3794.66707546732 1476.7929989385  3793.67646338347 1476.65938778849  3792.68602021593 1476.52453310673  L 3792.55110909263 1477.51539081034  C 3793.54238159281 1477.65035841064  3794.53382315085 1477.78408143794  3795.52543142313 1477.91655957614  L 3795.65785412604 1476.92536624094  Z M 3799.62184715047 1477.44820026781  C 3798.6306308877 1477.31915076663  3797.63957703455 1477.18885686717  3796.6486879335 1477.0573188774  L 3796.51709489036 1478.04862270116  C 3797.50881369723 1478.18027083225  3798.50069739489 1478.31067383141  3799.49274363743 1478.43983139021  L 3799.62184715047 1477.44820026781  Z M 3803.58756837202 1477.95776018603  C 3802.59592561543 1477.83202993259  3801.60444110139 1477.7050547441  3800.6131171734 1477.5768349207  L 3800.48484368539 1478.56857375339  C 3801.4769976833 1478.6969009397  3802.46931240247 1478.82398244901  3803.46178549594 1478.94981798076  L 3803.58756837202 1477.95776018603  Z M 3807.55497334021 1478.45404028413  C 3806.56291520501 1478.33163068771  3805.57101114289 1478.20797563337  3804.57926349959 1478.08307541353  L 3804.45431100449 1479.07523813908  C 3805.44688907271 1479.20024294223  3806.43962369084 1479.32400153728  3807.43251251095 1479.44651363153  L 3807.55497334021 1478.45404028413  Z M 3811.52401758565 1478.93703499944  C 3810.5315551913 1478.81794743208  3809.53924269945 1478.69761389794  3808.54708245682 1478.57603468161  L 3808.42545235519 1479.56861017918  C 3809.41844336843 1479.69029119806  3810.41158675787 1479.81072549163  3811.40488017584 1479.92991277519  L 3811.52401758565 1478.93703499944  Z M 3815.49465662062 1479.40673891825  C 3814.5018010913 1479.29097471475  3813.50909129224 1479.1739640496  3812.51652957108 1479.05570719952  L 3812.39822322623 1480.04868434365  C 3813.39161605417 1480.16704021434  3814.3851570835 1480.28414885657  3815.37884396562 1480.4000099935  L 3815.49465662062 1479.40673891825  Z M 3819.46684593949 1479.86314677578  C 3818.47360840381 1479.75070723371  3817.4805124245 1479.63702074909  3816.48756035011 1479.52208759075  L 3816.3725790881 1480.51545525148  C 3817.36636259591 1480.63048464736  3818.36029012927 1480.74426632566  3819.35435933741 1480.85680001728  L 3819.46684593949 1479.86314677578  Z M 3823.44054101926 1480.30625345631  C 3822.4469326101 1480.19713983597  3821.45346158183 1480.08677880615  3820.4601302839 1479.97517062781  L 3820.34847539351 1480.9689176708  C 3821.34263844241 1481.08061930256  3822.33694133876 1481.19107274154  3823.33138173093 1481.30027772652  L 3823.44054101926 1480.30625345631  Z M 3827.41569732007 1480.7360539932  C 3826.42172917445 1480.63026751762  3825.42789423273 1480.52323317958  3824.4341948452 1480.41495123223  L 3824.32586757793 1481.40906651889  C 3825.32039902486 1481.51743913452  3826.31506613897 1481.62456309611  3827.30986656902 1481.73043815042  L 3827.41569732007 1480.7360539932  Z M 3831.39227028566 1481.15254356896  C 3830.39795354446 1481.05008542382  3829.40376582927 1480.94637897735  3828.40970948997 1480.84142447465  L 3828.30471106005 1481.83589686226  C 3829.29959975741 1481.94093924702  3830.2946199408 1482.04473253054  3831.28976925811 1482.14727646745  L 3831.39227028566 1481.15254356896  Z M 3835.37021534389 1481.55571751528  C 3834.3755611525 1481.45658884906  3833.38103180655 1481.35621145647  3832.38662965797 1481.25458557487  L 3832.28496124227 1482.24940391671  C 3833.28019603848 1482.3511148932  3834.27555813869 1482.4515763353  3835.27104518875 1482.55078800541  L 3835.37021534389 1481.55571751528  Z M 3839.34948790727 1481.94557131311  C 3838.35450741404 1481.84977323688  3837.35964758551 1481.75272602334  3836.36491077316 1481.6544299019  L 3836.26657351126 1482.64958304736  C 3837.26214325125 1482.74796147556  3838.25783611117 1482.84508995016  3839.2536497361 1482.94096824145  L 3839.34948790727 1481.94557131311  Z M 3843.3300433734 1482.32210059272  C 3842.33474773095 1482.22963418025  3841.33956857049 1482.13591823351  3840.34450824427 1482.04095297401  L 3840.2495032384 1483.03642976875  C 3841.24539676315 1483.13147454595  3842.24140922238 1483.22526896438  3843.23753826042 1483.31781280218  L 3843.3300433734 1482.32210059272  Z M 3847.31183712552 1482.6853011337  C 3846.31623748979 1482.59616742143  3845.32075015205 1482.50578379191  3844.32537746527 1482.41415045879  L 3844.2337057803 1483.40993974482  C 3845.22991192738 1483.50164980573  3846.22623282153 1483.59210911663  3847.22266610758 1483.68131746367  L 3847.31183712552 1482.6853011337  Z M 3851.29482453297 1483.03516886506  C 3850.29893206332 1482.94936885205  3849.3031477064 1482.86231855284  3848.30747381587 1482.77401817318  L 3848.21913647933 1483.77010878903  C 3849.21564408236 1483.85848310568  3850.2122622444 1483.94560629515  3851.20898860957 1484.03147815151  L 3851.29482453297 1483.03516886506  Z M 3855.27896095172 1483.37169986524  C 3854.2827868108 1483.28923451321  3853.28671659613 1483.20551852002  3852.29075266204 1483.12055208356  L 3852.20575066407 1484.11693286435  C 3853.20254855331 1484.20197044616  3854.19945281288 1484.28575653772  3855.19646108497 1484.36829094085  L 3855.27896095172 1483.37169986524  Z M 3859.06587497439 1483.67912419358  C 3858.13555202736 1483.6050893284  3857.20531618247 1483.52996398084  3856.27516935647 1483.45374830572  L 3856.19350364983 1484.45040808335  C 3857.19058065292 1484.5321079772  3858.18775983521 1484.61255603163  3859.18503883949 1484.69175205649  L 3859.06587497439 1483.67912419358  Z M 3117.3826176549 1118.88927551021  C 3116.71123849388 1118.14872606861  3116.0407893404 1117.40733401801  3115.37127177918 1116.6651011108  L 3114.62872822082 1117.3348988892  C 3115.29880639233 1118.07775329377  3115.96981693664 1118.8197661382  3116.64175826673 1119.56093566755  L 3117.3826176549 1118.88927551021  Z M 3858.48211948675 1491.67745673759  L 3870 1485  L 3859.5765126943 1476.71743322467  L 3858.48211948675 1491.67745673759  Z " fill-rule="nonzero" fill="#1f8aee" stroke="none" />
  </g>
</svg>