<?xml version="1.0" encoding="utf-8"?>
<svg version="1.1" xmlns:xlink="http://www.w3.org/1999/xlink" width="60px" height="60px" xmlns="http://www.w3.org/2000/svg">
  <g transform="matrix(1 0 0 1 -705 -255 )">
    <path d="M 735 255  C 751.8 255  765 268.2  765 285  C 765 301.8  751.8 315  735 315  C 718.2 315  705 301.8  705 285  C 705 268.2  718.2 255  735 255  Z " fill-rule="nonzero" fill="#1f8aee" stroke="none" />
    <path d="M 735 255.5  C 751.52 255.5  764.5 268.48  764.5 285  C 764.5 301.52  751.52 314.5  735 314.5  C 718.48 314.5  705.5 301.52  705.5 285  C 705.5 268.48  718.48 255.5  735 255.5  Z " stroke-width="1" stroke="#1f8aee" fill="none" />
  </g>
</svg>