<?xml version="1.0" encoding="utf-8"?>
<svg version="1.1" xmlns:xlink="http://www.w3.org/1999/xlink" width="174px" height="16px" viewBox="276 368  174 16" xmlns="http://www.w3.org/2000/svg">
  <g transform="matrix(0.90630778703665 -0.4226182617407 0.422618261740699 0.906307787036651 -124.894193108807 188.638701086093 )">
    <path d="M 180.174953107561 220.636140334343  C 179.632755301273 219.797170196149  179.093269046639 218.956450777354  178.556502787821 218.113995237091  L 177.713139871862 218.651339625715  C 178.251063324823 219.495611384118  178.791712637561 220.338143278255  179.33507934766 221.178922120542  L 180.174953107561 220.636140334343  Z M 182.358169575209 223.982635370337  C 181.808764948559 223.148366882295  181.262056704556 222.312325821092  180.718053400403 221.474525272635  L 179.879350489958 222.01911450133  C 180.424526590327 222.858721232406  180.972413462049 223.696564683056  181.523002529423 224.532631739081  L 182.358169575209 223.982635370337  Z M 184.570131941728 227.310199894076  C 184.013561262384 226.48069496171  183.459671596601 225.649394295155  182.908471613985 224.816310906118  L 182.074490943627 225.368104564535  C 182.626879237506 226.202983966645  183.181963013166 227.036076803009  183.739733582256 227.867370033788  L 184.570131941728 227.310199894076  Z M 186.81067607208 230.618586989095  C 186.246980639457 229.793907164458  185.685950652366 228.967408577851  185.127594892177 228.139104165821  L 184.298398346074 228.698061309017  C 184.857957844396 229.528151431304  185.420197334914 230.356431835095  185.98510801727 231.182889555878  L 186.81067607208 230.618586989095  Z M 189.079635710365 233.907551161959  C 188.508857352556 233.087757639064  187.940728674467 232.266122461377  187.375258568579 231.442658489323  L 186.550907675899 232.008737640799  C 187.117596857471 232.833976887789  187.686950342786 233.65738339782  188.25895922014 234.478944282667  L 189.079635710365 233.907551161959  Z M 191.376842492155 237.176848360478  C 190.799023562832 236.362001970757  190.223838350802 235.545291170081  189.651295858996 234.726728741795  L 188.831851789344 235.299887896579  C 189.405628603924 236.120215032746  189.982053836097 236.938686549488  190.561118463467 237.755289635822  L 191.376842492155 237.176848360478  Z M 193.702125956991 240.426235991818  C 193.117309332259 239.616397199611  192.535110266963 238.804671378631  191.955537873815 237.991071234195  L 191.141061432694 238.571267861951  C 191.721883304116 239.386622016266  192.305337510457 240.200097806383  192.891414919303 241.011682499512  L 193.702125956991 240.426235991818  Z M 196.055313561029 243.655472940502  C 195.463542636247 242.850701838568  194.874372918811 242.044021230065  194.287813630539 241.235443741344  L 193.478365254837 241.822634789533  C 194.066189084166 242.63295545998  194.656628970414 243.441375160835  195.249675671824 244.247881238449  L 196.055313561029 243.655472940502  Z M 198.436230689844 246.864319586301  C 197.837549376403 246.064675891359  197.241452725198 245.263100353745  196.647950066472 244.459605519903  L 195.843589819978 245.053747416977  C 196.438371988727 245.858974475062  197.035753742228 246.662278099157  197.635725730159 247.463645715816  L 198.436230689844 246.864319586301  Z M 200.844700671389 250.052537822016  C 200.239153393452 249.258080870314  199.636174040853 248.461669883186  199.035772051564 247.663317326239  L 198.236559620508 248.264365984874  C 198.838255993828 249.064439680022  199.442535286879 249.862567619571  200.049388041381 250.658737311086  L 200.844700671389 250.052537822016  Z M 203.280544789099 253.219891071144  C 202.668176480324 252.430679814076  202.058359169393 251.639492473764  201.451102401401 250.846341434175  L 200.657097090032 251.454252254541  C 201.265663020014 252.249113218576  201.876795013094 253.042006249846  202.490483503637 253.832918937731  L 203.280544789099 253.219891071144  Z M 205.74358229516 256.366144305434  C 205.124438395317 255.582237305107  204.507828376578 254.79633232041  203.893761890359 254.008441652629  L 203.105022616538 254.623169525701  C 203.720412945577 255.412758777312  204.338352290577 256.200358064895  204.958830979444 256.985955060812  L 205.74358229516 256.366144305434  Z M 208.233630423915 259.491064062328  C 207.607756875545 258.712519487255  206.984399903564 257.931955175003  206.363569264899 257.149383343144  L 205.580154555729 257.77088265405  C 206.202323619764 258.555141603019  206.827024463571 259.337388704483  207.454247309129 260.117611714457  L 208.233630423915 259.491064062328  Z M 210.750504405428 262.594418462284  C 210.117947650467 261.821294083107  209.487889980395 261.046128363753  208.860341257017 260.268933437296  L 208.082309244501 260.897158068698  C 208.71121087653 261.676028520419  209.34262686418 262.452865390321  209.976547324418 263.227656519223  L 210.750504405428 262.594418462284  Z M 213.294017479196 265.675977225981  C 212.65482445548 264.908330411125  212.018112839711 264.13862080457  211.383892597844 263.366860453988  L 210.611301014571 264.001763789509  C 211.246888547949 264.775187949137  211.884972826318 265.546556943653  212.525543862177 266.315858699338  L 213.294017479196 265.675977225981  Z M 215.863980908005 268.735511691406  C 215.218199045804 267.973399402845  214.574880730478 267.209203024127  213.934036031395 266.44293451663  L 213.166942206255 267.08446944431  C 213.809168478284 267.852389921215  214.453873699311 268.618233802094  215.101047778301 269.381989099828  L 215.863980908005 268.735511691406  Z M 218.460203991936 271.772794830827  C 217.807881210432 271.016273619851  217.158003931931 270.257647174909  216.51058232846 269.496927370195  L 215.749043182393 270.145046285987  C 216.397860537692 270.90740609785  217.04913886215 271.667668036983  217.702867961747 272.425820203518  L 218.460203991936 271.772794830827  Z M 221.082494082515 274.787601267631  C 220.423678786268 274.036727270675  219.767290767633 273.2837270521  219.11334030065 272.528612398153  L 218.357412342418 273.183267209456  C 219.012772636577 273.940009786639  219.670575737394 274.694633369996  220.330811348719 275.447126147914  L 221.082494082515 274.787601267631  Z M 223.73065659701 277.779707293053  C 223.065397672292 277.034536227453  222.402547619789 276.287218110467  221.74211681458 275.537764639292  L 220.991856136576 276.198906768521  C 221.653710739661 276.949975958182  222.317989805636 277.698905190159  222.98468293699 278.445682741968  L 223.73065659701 277.779707293053  Z M 226.404495032865 280.748890882777  C 225.732841844142 280.009478042746  225.063578943436 279.267897480827  224.396716806203 278.524160804409  L 223.65217908029 279.191741192596  C 224.320478880482 279.937081262897  224.991184619843 280.680260570391  225.664285800374 281.421267482708  L 226.404495032865 280.748890882777  Z M 229.104596968946 283.693403713656  C 228.724997958714 283.283646093466  228.346229243489 282.873120069856  227.968293153756 282.461828168706  C 227.670714440559 282.137501619706  227.373597520049 281.812751665413  227.076943295282 281.487579292875  L 226.33818376866 282.161548403314  C 226.635561139778 282.487513440156  226.933402464843 282.813054909819  227.231706838258 283.13817182248  C 227.610640093206 283.550549639329  227.990408356907 283.962159387713  228.371009291624 284.372998533885  L 229.104596968946 283.693403713656  Z M 231.833804633781 286.61105589274  C 231.147985068502 285.884942435315  230.464797457069 285.156347582822  229.784255240603 284.425285669726  L 229.052310519634 285.106649688035  C 229.734497829248 285.83947881691  230.419336928581 286.569834921457  231.106814344086 287.297703632625  L 231.833804633781 286.61105589274  Z M 234.591062206454 289.502214725084  C 233.898262193958 288.782758422095  233.208070048586 288.060795421756  232.520499349157 287.336339927946  L 231.795169025201 288.024740916579  C 232.484401807902 288.750947656274  233.17626237346 289.474655877347  233.870737110188 290.195851341541  L 234.591062206454 289.502214725084  Z M 237.376112519759 292.36661055462  C 236.676396676967 291.653878509199  235.979264371288 290.938614697888  235.284729318083 290.220833192767  L 234.566081042119 290.916206945114  C 235.262295013717 291.635723562907  235.961112516219 292.352716400821  236.662519801067 293.067171352717  L 237.376112519759 292.36661055462  Z M 240.188695814283 295.203976221443  C 239.482129403131 294.498034909537  238.778121958117 293.789536999337  238.076687329865 293.07849642981  L 237.364788129642 293.780778088919  C 238.067918354817 294.493537476071  238.773627616114 295.203748057478  239.481902029387 295.911395860436  L 240.188695814283 295.203976221443  Z M 243.028549762636 298.014047086729  C 242.315198684006 297.314962350919  241.604381761869 296.613296422862  240.896112980815 295.909063107114  L 240.191029254601 296.618187171738  C 240.901010152961 297.324122849751  241.613545352116 298.02748493388  242.328620833626 298.728259586154  L 243.028549762636 298.014047086729  Z M 245.895409493913 300.796561057419  C 245.175340281509 300.104398100796  244.457780179536 299.409629598666  243.742743305361 298.712269219993  L 243.044540815751 299.428169550697  C 243.761306167944 300.127215677517  244.48060084737 300.823663662348  245.2024107026 301.517499803249  L 245.895409493913 300.796561057419  Z M 248.789007618403 303.551258610663  C 248.062287432486 302.866081990694  247.338051076969 302.178275715028  246.616312800572 301.487853315656  L 245.925056668352 302.210463140989  C 246.64853962225 302.902554517144  247.374526693906 303.592023445531  248.103003600229 304.278856361518  L 248.789007618403 303.551258610663  Z M 251.709074252527 306.277882818026  C 250.975770873686 305.599756440568  250.244925813609 304.918976542543  249.516553450922 304.235556517598  L 248.832308148999 304.964808440321  C 249.562441225924 305.649880515002  250.295052977579 306.332306080731  251.030128990537 307.012071711446  L 251.709074252527 306.277882818026  Z M 254.655337044008 308.976179369453  C 253.915518866881 308.305166482827  253.17813326754 307.631476458203  252.443194753288 306.955122549741  L 251.766024100673 307.690948553112  C 252.502739201718 308.368937430212  253.241907303222 309.044255983962  253.983513862883 309.716890928228  L 254.655337044008 308.976179369453  Z M 257.627521197274 311.645896596984  C 256.881257224111 310.982059786025  256.13739986087 310.315522469332  255.395963742179 309.64629776034  L 254.725930898037 310.388629214456  C 255.469159310336 311.059471658461  256.214814820149 311.727620213881  256.962882757424 312.39306173554  L 257.627521197274 311.645896596984  Z M 260.62534949909 314.286785498231  C 259.872709333334 313.630186678468  259.122449585173 312.970864237106  258.374585015198 312.308831145638  L 257.711752472954 313.057598813839  C 258.461424876209 313.721232255828  259.213498247599 314.382148495203  259.967957790811 315.040334529075  L 260.62534949909 314.286785498231  Z M 263.648542344411 316.898599759602  C 262.889596184207 316.24930017148  262.133004027253 315.597254099926  261.378780758722 314.942474373278  L 260.723210340238 315.697608418603  C 261.479256813102 316.353970962017  262.23767790079 317.007593242218  262.9984586821 317.658462399819  L 263.648542344411 316.898599759602  Z M 266.696817762461 319.481095779272  C 265.93163639411 318.839155982444  265.168782395107 318.194447096514  264.408270773821 317.546981805465  L 263.760023623625 318.308411797167  C 264.52237365023 318.957442223581  265.287071716926 319.603709581814  266.054102778902 320.247201157082  L 266.696817762461 319.481095779272  Z M 269.769891443034 322.034032689906  C 268.998546234409 321.399512557599  268.229501544099 320.76220098874  267.462772502386 320.122110521878  L 266.821909081971 320.88976544199  C 267.59049155858 321.531403216889  268.36139528143 322.170255376249  269.134605083737 322.806309351273  L 269.769891443034 322.034032689906  Z M 272.867476763007 324.557172381122  C 272.090039656818 323.930131094487  271.314876003463 323.300276284305  270.542001053489 322.667620342321  L 269.908581135672 323.441428592285  C 270.683324377213 324.075613870627  271.460361854643 324.706991245886  272.239678280624 325.335548296421  L 272.867476763007 324.557172381122  Z M 275.989284813079 327.050279521702  C 275.205828320282 326.430775564395  274.424618002735 325.80843625891  273.645669229947 325.183273849135  L 273.019751893297 325.963163256474  C 273.800583640048 326.589836888273  274.583682398476 327.213680591433  275.36903276187 327.834682092434  L 275.989284813079 327.050279521702  Z M 279.135024424713 329.513121581539  C 278.345621617668 328.901212734197  277.55843749879 328.2864469785  276.773487555116 327.668836409329  L 276.155131178441 328.454734234383  C 276.941978602871 329.073837770309  277.731065603262 329.690089615935  278.52237665509 330.303477647105  L 279.135024424713 329.513121581539  Z M 282.304402197294 331.945468853326  C 281.509126702969 331.341212188199  280.716042202792 330.734077320997  279.925164299885 330.124076196475  L 279.314426556789 330.915909139184  C 280.107216270269 331.527384835944  280.90221791511 332.135987346721  281.699415850425 332.741704697849  L 282.304402197294 331.945468853326  Z M 285.497122525495 334.347094473982  C 284.696048518599 333.750546349604  283.897137607479 333.151098997882  283.100405509888 332.548764212324  L 282.497343363392 333.346458419062  C 283.296001423059 333.950249244809  284.096843563184 334.551145656867  284.899854027972 335.149135833182  L 285.497122525495 334.347094473982  Z M 288.712887626849 336.717774445808  C 287.906089822933 336.128990501761  287.10142701461 335.537286575461  286.29891503292 334.942674308167  L 285.703584730147 335.746155378635  C 286.508036645805 336.342205018281  287.314644587308 336.935339286493  288.123392685426 337.525546513929  L 288.712887626849 336.717774445808  Z M 291.953040936914 339.054158961716  C 291.140018356276 338.474000782771  290.329099552486 337.890900049577  289.520300479537 337.30486823404  L 288.933560990026 338.114643987844  C 289.744315194877 338.702092433959  290.557194254677 339.286602712365  291.372182176818 339.868163323387  L 291.953040936914 339.054158961716  Z M 295.216282964605 341.359049454693  C 294.397695429823 340.786770084916  293.581183156042 340.211527980875  292.766762207428 339.633334459957  L 292.187870477804 340.448738878251  C 293.004260148254 341.02833008204  293.82274619925 341.604962734385  294.643312527869 342.178625490596  L 295.216282964605 341.359049454693  Z M 298.501632258614 343.632317747759  C 297.677556118649 343.067970563159  296.855526530408 342.500640740703  296.035559666477 341.93033944202  L 295.464569689508 342.751296472687  C 296.286518681545 343.322976376143  297.110535384197 343.891677620361  297.936603585732 344.457389016694  L 298.501632258614 343.632317747759  Z M 301.808782397041 345.873751815003  C 300.979294512837 345.317389451805  300.151824280135 344.758024825301  299.32638797856 344.195668940414  L 298.763353010024 345.022102013449  C 299.590784661125 345.585817296445  300.420255160055 346.146534090227  301.251748187785 346.704241363233  L 301.808782397041 345.873751815003  Z M 305.137424924643 348.083142599663  C 304.302602661892 347.534816949353  303.469768962172 346.983469690263  302.638940210757 346.42911166967  L 302.083912764475 347.260943704322  C 302.916749900752 347.816641789586  303.751596831912 348.369321835324  304.588437133148 348.918972968093  L 305.137424924643 348.083142599663  Z M 308.487249381596 350.260284033631  C 307.647170603459 349.720046238074  306.809051114539 349.176767770174  305.972907403975 348.630459318374  L 305.425939246911 349.467612730336  C 306.264104190312 350.015241788351  307.104249688196 350.559833538021  307.946359211514 351.101377265032  L 308.487249381596 350.260284033631  Z M 311.857943332457 352.404973056668  C 311.01268639243 351.872873503426  310.169359285 351.337714497833  309.327978601762 350.799506568593  L 308.789120749199 351.641903277236  C 309.63253532475 352.181412231079  310.477901029661 352.717864891045  311.325201232179 353.251250702947  L 311.857943332457 352.404973056668  Z M 315.249192395299 354.517009635347  C 314.39883612982 353.993097952918  313.550380060325 353.466108323486  312.703840879315 352.936051115027  L 312.173143590094 353.783612550685  C 313.021729133192 354.314951080788  313.872236198547 354.843214616539  314.724648053256 355.368392764866  L 315.249192395299 354.517009635347  Z M 318.660680271038 356.596196781707  C 317.805303992155 356.080521834915  316.951798095413 355.561750733543  316.100179372662 355.039893683878  L 315.577692144494 355.892540795174  C 316.431369508225 356.415659344004  317.286938607955 356.935684484851  318.14438261106 357.452605986644  L 318.660680271038 356.596196781707  Z M 322.092088772932 358.642340571627  C 321.231772260906 358.134950457062  320.373296142728 357.624446269116  319.516677308033 357.110838051434  L 319.002448872883 357.968491312655  C 319.861138435485 358.483341089391  320.721689771259 358.995079332951  321.584085949689 359.503695975382  L 322.092088772932 358.642340571627  Z M 325.543097856258 360.655250162917  C 324.67792135212 360.156192204447  323.814555081886 359.654002544244  322.953016031401 359.148691062371  L 322.447094350943 360.011270480884  C 323.310716023107 360.517803465887  324.176169332034 361.021207082771  325.043437250766 361.521471427559  L 325.543097856258 360.655250162917  Z M 329.013385648162 362.634737813109  C 328.143429846233 362.144058557471  327.275253949424 361.650230263838  326.408875038204 361.153262647772  L 325.911307299349 362.020687771486  C 326.779780531774 362.518856720829  327.650055093716 363.013878758985  328.522113863365 363.505744146876  L 329.013385648162 362.634737813109  Z M 332.502628477681 364.580618896976  C 331.627974518064 364.098364109444  330.755069968705 363.612943241325  329.883932003241 363.124365842851  L 329.394764613733 363.996555767719  C 330.268008404615 364.486314217583  331.143023049762 364.972908506702  332.019791334106 365.456329061805  L 332.502628477681 364.580618896976  Z M 336.010500905931 366.492711923748  C 335.131230366854 366.018926583814  334.253678580145 365.541958416075  333.377862810732 365.06181680439  L 332.897141394821 365.938690181956  C 333.775074297412 366.419992452963  334.654747413848 366.898113608785  335.53614343741 367.373044242852  L 336.010500905931 366.492711923748  Z M 339.536675756459 368.370838554038  C 338.652870646805 367.905566851295  337.770753471252 367.437095870351  336.890341584548 366.96543482789  L 336.418110978737 367.846909872877  C 337.300651108937 368.319711074349  338.184900650254 368.789314502897  339.070842205935 369.255710919527  L 339.536675756459 368.370838554038  Z M 343.080824145761 370.214823616481  C 342.192566897324 369.758108946448  341.30596660729 369.29817884621  340.421040718607 368.835042364422  L 339.957344967465 369.721036862358  C 340.844410011464 370.185292896506  341.733153504416 370.646334798244  342.623557961155 371.104153497019  L 343.080824145761 370.214823616481  Z M 346.642615513954 372.024495124067  C 345.749988973777 371.576380084154  344.858988261761 371.125033761936  343.969630907428 370.670465037189  L 343.514513259487 371.560896352077  C 344.406020481437 372.016563918113  345.299175033632 372.469001292032  346.193959344118 372.918199572566  L 346.642615513954 372.024495124067  Z M 350.22171765561 373.799684290182  C 349.324805078256 373.360210675721  348.429487047181 372.917490228233  347.535781176846 372.471531657788  L 347.089284080564 373.366316739812  C 347.985150330302 373.813353337986  348.882632637928 374.257143985615  349.781713346345 374.697679951546  L 350.22171765561 373.799684290182  Z M 353.817796750739 375.540225544355  C 352.916681790525 375.109434344698  352.017129945986 374.675381064121  351.11915891488 374.238074242177  L 350.681324014684 375.137129635449  C 351.581465735482 375.575493571017  352.483192091084 376.010596100356  353.386485340895 376.442428663247  L 353.817796750739 375.540225544355  Z M 357.430517395923 377.245956547697  C 356.52528409912 376.823887942394  355.621582341598 376.398542312531  354.71942990276 375.969928026345  L 354.29029803516 376.873169876688  C 355.194631271521 377.302820263795  356.100517571803 377.729194093182  357.00793911357 378.152282976355  L 357.430517395923 377.245956547697  Z M 361.059690105083 378.915932415158  C 360.642260410711 378.726383592442  360.225111957837 378.536216020827  359.808246121971 378.345430327377  C 359.317140930411 378.120225493571  358.826477396888 377.894058777665  358.336258346092 377.666931481675  L 357.915869535875 378.574275544445  C 358.407386170233 378.802004034219  358.899348565726 379.028769180593  359.391753889071 379.254569677595  C 359.809631068159 379.44581863395  360.227791626801 379.63644780149  360.64623418566 379.826456551408  L 361.059690105083 378.915932415158  Z M 364.704935393837 380.552285052997  C 363.791866936709 380.147124163385  362.880109658495 379.739014832685  361.969677830369 379.327963448782  L 361.558183719192 380.239375867211  C 362.470578312998 380.651313421308  363.384301214354 381.060302579527  364.299338121371 381.466336940238  L 364.704935393837 380.552285052997  Z M 368.364141073192 382.157176627752  C 367.44761641331 381.759895994253  366.532377485726 381.35965573452  365.618438615967 380.956462113204  L 365.214810730675 381.871385350538  C 366.130719926812 382.275448201793  367.047931983495 382.676551324413  367.966432544364 383.074688440263  L 368.364141073192 382.157176627752  Z M 372.037035617796 383.730488051077  C 371.117122764416 383.34111715327  370.198470101169 382.948775663633  369.281092007159 382.553469723246  L 368.885360298297 383.471835889108  C 369.804716133203 383.86799405469  370.725349285044 384.261181378532  371.647245343913 384.6513917064  L 372.037035617796 383.730488051077  Z M 375.723346486535 385.27210257798  C 374.800113700233 384.890670308473  373.878115468532 384.506256702029  372.957366222761 384.11886777558  L 372.569560054949 385.040608724115  C 373.49229430931 385.428832807748  374.416280242285 385.814075157012  375.341503391347 386.19632974197  L 375.723346486535 385.27210257798  Z M 379.422800142761 386.781905815485  C 378.496315930559 386.408440477853  377.571040545675 386.031983279344  376.646988470875 385.652540112411  L 376.267136620636 386.577587447346  C 377.193180824493 386.957848641508  378.120450975694 387.335117429897  379.048932560307 387.709387907382  L 379.422800142761 386.781905815485  Z M 383.135122074586 388.259785731119  C 382.2054551847 387.894315037735  381.276971305222 387.525842181569  380.349684969139 387.154372930101  L 379.977815622755 388.082658009815  C 380.907101060517 388.454928097848  381.837586623385 388.824195330753  382.769257747097 389.190453928637  L 383.135122074586 388.259785731119  Z M 386.860036815253 389.70563266123  C 385.927256232089 389.348183731246  384.99563275464 388.987722559347  384.065180965034 388.62425478761  L 383.701321716459 389.555708730232  C 384.633779432027 389.919960088446  385.567411361407 390.281198364995  386.50220289109 390.639417905661  L 386.860036815253 389.70563266123  Z M 390.597267963575 391.119339319117  C 389.661442902562 390.769938676436  388.726748956781 390.417515936252  387.793200756276 390.062076614766  L 387.43737860509 390.996630303286  C 388.372939406968 391.352835903006  389.309648424235 391.706018418107  390.247490995218 392.056172320461  L 390.597267963575 391.119339319117  Z M 394.346538204448 392.500800802998  C 393.407738106998 392.159474374341  392.470043050219 391.815116216786  391.533467711276 391.467731720361  L 391.185709060677 392.405315807755  C 392.12430352711 392.753449217329  393.064020125309 393.098549763652  394.004844146523 393.440612045099  L 394.346538204448 392.500800802998  Z M 398.107569329426 393.849914603791  C 397.165863857635 393.516687716715  396.225237270029 393.18041969434  395.28570428966 392.841115800064  L 394.946034944508 393.781660714443  C 395.887593428636 394.121696101202  396.830247877637 394.458689071128  397.77398353678 394.792634349497  L 398.107569329426 393.849914603791  Z M 401.880082257366 395.16658061272  C 400.935541288943 394.841477993779  399.992052968163 394.513325058801  399.049632062871 394.182126944162  L 398.718077227772 395.125562893934  C 399.662529862792 395.457475026112  400.60805221447 395.78633541363  401.554629483185 396.11213890906  L 401.880082257366 395.16658061272  Z M 405.663797055137 396.450701128744  C 404.716490678194 396.133746901645  403.770210634243 395.813733404114  402.824971734824 395.490665645124  L 402.501556012262 396.436922624174  C 403.448832716615 396.760686872774  404.397152810036 397.08139027534  405.34650144911 397.399027812117  L 405.663797055137 396.450701128744  Z M 409.458432958391 397.702180865808  C 408.508431466244 397.393398549619  407.559429916279 397.081548235611  406.611443162636 396.766634804984  L 406.296190551142 397.715642597864  C 407.246221033715 398.031234938492  408.197268500342 398.343757558835  409.149318064917 398.653205567187  L 409.458432958391 397.702180865808  Z M 413.263708392397 398.920926959912  C 412.311082278347 398.620339467318  411.359429641473 398.316675477173  410.408765377405 398.009939742544  L 410.101699269784 398.961627929688  C 411.054413035124 399.269024944333  412.00811730404 399.573343592225  412.962797148841 399.87457911007  L 413.263708392397 398.920926959912  Z M 417.079340992937 400.106848976  C 416.124160945042 399.814478611603  415.169927837079 399.519023478211  414.21665660507 399.2204882004  L 413.917799786657 400.174786163348  C 414.873126140203 400.473965042118  415.829416443347 400.770057136094  416.786655727923 401.063057810745  L 417.079340992937 400.106848976  Z M 420.905047627254 401.259858914677  C 419.947384523058 400.975727373333  418.990641751357 400.68850302047  418.03483428731 400.398190351791  L 417.744208934284 401.35502727843  C 418.702076987612 401.645965821247  419.660882365032 401.933809390278  420.620610059012 402.2185534801  L 420.905047627254 401.259858914677  Z M 424.740544415065 402.379871218731  C 423.780469316412 402.103999583962  422.821287874452 401.825027324626  421.863015102515 401.542958807262  L 421.580642780255 402.502263697076  C 422.540981456336 402.784940315324  423.502230761453 403.06451400045  424.464375649819 403.340980376477  L 424.740544415065 402.379871218731  Z M 428.585546749626 403.466802779488  C 427.623130897312 403.199211521896  426.661581959578 402.928512056765  425.700914986809 402.654708621147  L 425.42681664829 403.616410290492  C 426.38955468677 403.890804008615  427.353176591656 404.162087064531  428.317667280025 404.430255212027  L 428.585546749626 403.466802779488  Z M 178.020644540779 217.270963107267  C 177.485693787766 216.427353573345  176.953469554166 215.582018181119  176.423980170556 214.734970162103  L 175.576019829444 215.265029837897  C 176.106650719269 216.113903975826  176.640022355029 216.961061794753  177.176126388217 217.806490034689  L 178.020644540779 217.270963107267  Z M 427.49422500597 411.566792287667  L 440 407  L 431.180425058795 397.026780968189  L 427.49422500597 411.566792287667  Z " fill-rule="nonzero" fill="#1f8aee" stroke="none" />
  </g>
</svg>