<?xml version="1.0" encoding="utf-8"?>
<svg version="1.1" xmlns:xlink="http://www.w3.org/1999/xlink" width="152px" height="14px" viewBox="722 168  152 14" xmlns="http://www.w3.org/2000/svg">
  <g transform="matrix(0.156434465040231 -0.98768834059514 0.987688340595137 0.156434465040231 500.319837293747 935.799264412881 )">
    <path d="M 790.376833043775 109.003326272581  C 790.385813825979 108.004594315406  790.39847629621 107.005898858027  790.414820196355 106.007260257903  L 789.414954095398 105.990896268257  C 789.398569979188 106.991992134662  789.385876351478 107.99314499826  789.376873471016 108.994334451431  L 790.376833043775 109.003326272581  Z M 790.360546163824 112.99836180233  C 790.359708765239 111.999589818621  790.362553235591 111.000818141092  790.369079516898 110.002067128912  L 789.369100865685 109.995532825668  C 789.362558525705 110.996741380784  789.359707056203 111.997970651976  789.360546515304 112.999200230224  L 790.360546163824 112.99836180233  Z M 790.383532116972 116.99336440463  C 790.372876618521 115.994648911066  790.365902814118 114.995897530194  790.362610845917 113.997130620612  L 789.362616277788 114.000426635215  C 789.365916346259 115.001651126799  789.372907310518 116.002860051495  789.383589028061 117.004033000545  L 790.383532116972 116.99336440463  Z M 790.445788681963 120.987948020795  C 790.425316113344 119.989385528677  790.408524708103 118.990750959151  790.395414808515 117.992064668436  L 789.395500958347 118.005190682374  C 789.408643116365 119.006334356719  789.425475838811 120.007426182641  789.445998782563 121.008445753768  L 790.445788681963 120.987948020795  Z M 790.54730984261 124.981726632631  C 790.517022182198 123.983413638447  790.490414798762 122.984992383721  790.467488234667 121.986483220323  L 789.467751729538 122.009437965159  C 789.490734707106 123.010404076344  789.517407561101 124.011282062581  789.547769747819 125.012051521855  L 790.54730984261 124.981726632631  Z M 790.688085788373 128.974314299736  C 790.647985963029 127.976347275888  790.611565172612 126.978235818751  790.57882415953 125.980000274031  L 789.579361609378 126.012781531524  C 789.612183185527 127.013473350786  789.648693593529 128.014040777089  789.688892089152 129.014463414752  L 790.688085788373 128.974314299736  Z M 790.868102915313 132.965325196793  C 790.818194800098 131.967800582176  790.771964122241 130.970095375631  790.729411824111 129.972229914432  L 789.730319812401 130.014834516751  C 789.772976815406 131.015155341859  789.819321249215 132.015315517943  789.869352169146 133.015294657776  L 790.868102915313 132.965325196793  Z M 791.087343827402 136.954373650859  C 791.027632245209 135.957387841691  790.97159614743 134.960185299332  790.91923667631 133.962786350809  L 789.920611750702 134.015210180842  C 789.973100058384 135.015063345339  790.029274039492 136.014719620425  790.08913254897 137.014158628991  L 791.087343827402 136.954373650859  Z M 791.345787338207 140.941074178632  C 791.276278059287 139.944723519037  791.210441956658 138.948120005932  791.148280372326 137.951283954134  L 790.150219035342 138.013521945883  C 790.212533575473 139.012810828583  790.278531675482 140.011866600434  790.348211990057 141.010668896566  L 791.345787338207 140.941074178632  Z M 791.643408472934 144.925041523701  C 791.564108214345 143.929422296427  791.488478468964 142.933514119759  791.416520778431 141.937337294339  L 790.419119478129 142.00938343341  C 790.491254228918 143.008011467629  790.567070070075 144.006370192087  790.646565456163 145.004439256125  L 791.643408472934 144.925041523701  Z M 791.980178470846 148.905890693781  C 791.891094895802 147.911099110918  791.805678816175 146.915982510621  791.723931973104 145.920561177553  L 790.72728709376 146.002408501739  C 790.809235084436 147.000279184655  790.894861340248 147.997844384924  790.984164115779 148.995083768062  L 791.980178470846 148.905890693781  Z M 792.356064788039 152.88323699791  C 792.257206505163 151.889369191491  792.162012345516 150.895140331162  792.070484249541 149.900570683335  L 791.074692102333 149.992211283287  C 791.166445413821 150.989228185265  791.261873809759 151.985903461231  791.360975344924 152.98221679484  L 792.356064788039 152.88323699791  Z M 792.771031100586 156.856696083628  C 792.662407663094 155.863848096519  792.557444622543 154.870603053761  792.456144118523 153.876981201865  L 791.461300932227 153.978406221857  C 791.562850697905 154.974472995742  791.668072012213 155.970162033339  791.776962730292 156.965453038254  L 792.771031100586 156.856696083628  Z M 793.225037308052 160.825883974117  C 793.10665921281 159.834151750557  792.991937434506 158.841986508056  792.880874311654 157.849408471113  L 791.887076223341 157.960608109897  C 791.998412629911 158.955628500427  792.113416694475 159.950235080742  792.232086072775 160.944407576667  L 793.225037308052 160.825883974117  Z M 793.718039537364 164.790417105308  C 793.589918223886 163.799896481741  793.465448794015 162.808906917783  793.34463378496 161.817468613971  L 792.351976830708 161.938432125725  C 792.473089119133 162.932309978704  792.597864820487 163.925737987531  792.726301391347 164.918695902206  L 793.718039537364 164.790417105308  Z M 794.249990147053 168.749912362947  C 794.112137996391 167.760699058706  793.977932943112 166.770980938019  793.847377722859 165.780778175351  L 792.855957828472 165.911493870717  C 792.986834295011 166.904133142308  793.121369575418 167.896286579433  793.25956092731 168.887933957921  L 794.249990147053 168.749912362947  Z M 794.820837731858 172.703987119618  C 794.673268065417 171.716176727779  794.529340357676 170.727825692069  794.389057542487 169.738954159239  L 793.398970514226 169.879409406454  C 793.539598511582 170.870714172587  793.683880370164 171.861497160812  793.831813148916 172.851738174894  L 794.820837731858 172.703987119618  Z M 795.430642710505 176.651829144148  C 795.418329806198 176.575012439781  795.406041635292 176.498191773213  795.393778199616 176.421367155884  C 795.249300259732 175.511932621485  795.107913676056 174.602009669341  794.969620898397 173.691614065707  L 793.98096241372 173.84179529182  C 794.119614108523 174.754553683987  794.261368055653 175.666838133958  794.406221798267 176.578632830254  C 794.418538549906 176.655791954528  794.430880184087 176.732947105164  794.44324669877 176.810098269408  L 795.430642710505 176.651829144148  Z M 796.084568565818 180.592408437595  C 795.915659793782 179.608173063324  795.750819532049 178.62324380157  795.590052004127 177.637645888016  L 794.603095817408 177.798634973042  C 794.76430691785 178.786952242649  794.929601989123 179.774599015403  795.098976796127 180.761549986354  L 796.084568565818 180.592408437595  Z M 796.781883608017 184.525541530196  C 796.602137891855 183.543227464935  796.426452791625 182.560174715586  796.254832808672 181.576408469601  L 795.269710813808 181.74826496565  C 795.441804312202 182.734745513896  795.617974143903 183.720510596875  795.798215795157 184.705534957696  L 796.781883608017 184.525541530196  Z M 797.522503137812 188.450750684404  C 797.331942310321 187.47047724484  797.145433711156 186.489420414232  796.962982118977 185.507605328893  L 795.979813973693 185.690308361435  C 796.162768966732 186.674832365628  796.349792160396 187.65859602289  796.540878762878 188.641574127764  L 797.522503137812 188.450750684404  Z M 798.306337195939 192.367559125151  C 798.104984403568 191.389445380082  797.907674959712 190.410503632168  797.714413919768 189.430758963528  L 796.733319044469 189.624286340561  C 796.927113309536 190.606734215557  797.124967148431 191.588376954468  797.32687549182 192.569189406024  L 798.306337195939 192.367559125151  Z M 799.133290574087 196.275491097762  C 798.921170274129 195.299655853659  798.713083951751 194.322948095482  798.509036938471 193.345392848112  L 797.53013450173 193.549721062856  C 797.734744499638 194.529973475792  797.943404951451 195.50937606113  798.156110510984 196.487903725151  L 799.133290574087 196.275491097762  Z M 800.003262826461 200.174071925741  C 799.780400784083 199.200633712317  799.561562858364 198.226278579569  799.346754656295 197.251031492102  L 798.37016356038 197.466135725856  C 798.585564438189 198.444073610436  798.805006158024 199.421117079283  799.028483097435 200.39724109897  L 800.003262826461 200.174071925741  Z M 800.916148281984 204.062828068428  C 800.682571567098 203.091905124239  800.45300861916 202.120020966853  800.227465319956 201.147200497562  L 799.253304186389 201.373054622714  C 799.479469780462 202.348559193854  799.709666113846 203.32312486969  799.94388728854 204.29672668028  L 800.916148281984 204.062828068428  Z M 801.871836057132 207.941287178515  C 801.627573041106 206.972997436604  801.387312954786 206.003702304374  801.151061954036 205.033426616781  L 800.179449109185 205.270003199987  C 800.416351948345 206.24295596814  800.657274934508 207.21492547546  800.902211894836 208.185886818523  L 801.871836057132 207.941287178515  Z M 802.870210069403 211.808978159425  C 802.615290421615 210.843439232991  802.364362380076 209.876850861235  802.117432373979 208.909237809764  L 801.148485834684 209.156508115276  C 801.396097143556 210.126790900848  801.647717518814 211.09604617949  801.90334051354 212.064249117322  L 802.870210069403 211.808978159425  Z M 803.911149051413 215.665431222529  C 803.645603735649 214.702760390643  803.384038217835 213.738996185904  803.126459199717 212.774163301559  L 802.160296658955 213.03209729472  C 802.41858636146 213.999592242427  802.680873562775 214.966015561913  802.94715154268 215.931342491858  L 803.911149051413 215.665431222529  Z M 804.994526565634 219.510177944209  C 804.718387836323 218.55049213757  804.44621661326 217.589669163355  804.178019869925 216.627733639448  L 803.214758682515 216.896299990336  C 803.483695405524 217.860889583517  803.756617574213 218.824363557354  804.033518195874 219.786697226089  L 804.994526565634 219.510177944209  Z M 806.120211019742 223.342751322759  C 805.833512418043 222.386167109491  805.550768548976 221.428402072048  805.27198665691 220.469480749965  L 804.311743825258 220.748646837198  C 804.591294902405 221.710213912094  804.874818888008 222.670621512028  805.162308517724 223.629845029808  L 806.120211019742 223.342751322759  Z M 807.288065682607 227.162685835104  C 806.990842032332 226.209319406596  806.697559860713 225.254728640742  806.408226682125 224.298937995749  L 805.451118842014 224.588669910453  C 805.741250317661 225.547097670431  806.035341681969 226.504322240665  806.333385399846 227.46031909552  L 807.288065682607 227.162685835104  Z M 808.497948700903 230.969517493351  C 808.190236104287 230.019484650144  807.886451253598 229.068184105134  807.58660193231 228.115640232227  L 806.632745338731 228.415902782149  C 806.93342197209 229.371074811895  807.238044993333 230.325000083261  807.546606597525 231.277654155144  L 808.497948700903 230.969517493351  Z M 809.749713116329 234.76278390114  C 809.431548949639 233.816200038836  809.117298319088 232.868305264328  808.806969276254 231.919123864113  L 807.856479789285 232.229880577897  C 808.167665058706 233.181680857553  808.482782735883 234.13219096163  808.801824746992 235.081386536528  L 809.749713116329 234.76278390114  Z M 811.043206883469 238.542024309815  C 810.714629792494 237.59900440516  810.389951552465 236.654630536983  810.069180482181 235.708926901716  L 809.122173552916 236.030140033334  C 809.443829660317 236.978452952591  809.769403717695 237.925432435781  810.098887383321 238.871054219764  L 811.043206883469 238.542024309815  Z M 812.378272888255 242.306779674384  C 812.039322783564 241.367438271156  811.704256371078 240.426700017619  811.373082235756 239.484589017056  L 810.42967289228 239.816219550393  C 810.761760767739 240.760929922535  811.097751659506 241.704263760087  811.437636958954 242.646196893317  L 812.378272888255 242.306779674384  Z M 813.754804864171 246.056042072415  C 813.725994199848 245.979106076942  813.697209694749 245.902160287587  813.668451354142 245.825204718434  C 813.348546654245 244.966557568682  813.031899312235 244.106700346296  812.718516158706 243.245651599779  L 811.778818992124 243.587659253373  C 812.093123452964 244.45123937561  812.410702288629 245.313624254851  812.731548645908 246.174795281215  C 812.760444214896 246.2521183876  812.78936612619 246.329431647733  812.818314374493 246.406735047454  L 813.754804864171 246.056042072415  Z M 815.176229671225 249.789048328783  C 814.81573379286 248.857763105573  814.459088402971 247.924991950189  814.106302639407 246.990758761785  L 813.170781964668 247.344030706803  C 813.524541096864 248.280841531195  813.882170504414 249.216186288583  814.243661024332 250.150041014073  L 815.176229671225 249.789048328783  Z M 816.638709402384 253.506162428207  C 816.267971776069 252.578906768897  815.901068028006 251.650122831643  815.538007558881 250.719834413437  L 814.606437090711 251.083395223803  C 814.970499277324 252.016250393986  815.338415346827 252.947596932189  815.710175872617 253.877410975814  L 816.638709402384 253.506162428207  Z M 818.14206641772 257.206932871862  C 817.761132075057 256.283819405451  817.384014534741 255.359135500957  817.010723459152 254.432904850323  L 816.083216350648 254.806710366167  C 816.457537370917 255.735496573021  816.835695413472 256.662731766094  817.217680789296 257.588392188125  L 818.14206641772 257.206932871862  Z M 819.68611811215 260.890910146102  C 819.295033323275 259.972050998435  818.907747797264 259.051579443371  818.524271456957 258.129519064781  L 817.60094036766 258.513523881859  C 817.985474754726 259.438128310478  818.373828837412 260.361139531906  818.76599266546 261.28253389711  L 819.68611811215 260.890910146102  Z M 821.270676937619 264.557646777061  C 820.869489205608 263.64315355728  820.472082735473 262.727006156566  820.078467709366 261.809228048  L 819.159424791579 262.203385523213  C 819.554125838018 263.123695866629  819.952628789452 264.042371002964  820.354923435591 264.959387394281  L 821.270676937619 264.557646777061  Z M 822.895550425874 268.206697385007  C 822.484308480949 267.296681171924  822.076829337619 266.384969205296  821.673123436115 265.471584844563  L 820.758480321278 265.87584710162  C 821.163300084774 266.791751574445  821.571903500841 267.705979038919  821.9842801004 268.618506071064  L 822.895550425874 268.206697385007  Z M 824.560541211849 271.837618738439  C 824.139295005475 270.932190067088  823.721792683335 270.025024275487  823.308044942535 269.116144606734  L 822.397912727665 269.530462541966  C 822.812802036833 270.441849893972  823.231456286568 271.351518640055  823.653864750272 272.259445473038  L 824.560541211849 271.837618738439  Z M 826.265447057635 275.449969807922  C 825.83424775641 274.549238656044  825.406772967375 273.646729228348  824.983033643077 272.742464648491  L 824.077522877276 273.16678793682  C 824.502431337636 274.073547466449  824.931085569249 274.978547001333  825.363474589303 275.881763353928  L 826.265447057635 275.449969807922  Z M 828.010060877044 279.043311819659  C 827.568960856553 278.14738759448  827.131565523773 277.249644153844  826.697886085437 276.350104499296  L 825.797106756463 276.784381600344  C 826.231982756558 277.686403168157  826.670584903615 278.586623566182  827.112901959938 279.485019729321  L 828.010060877044 279.043311819659  Z M 829.794170760763 282.617208308787  C 829.343223599167 281.726199833637  828.895960850818 280.833331424363  828.452393975263 279.938625957603  L 827.556455496173 280.382804121952  C 828.001246213853 281.279978164029  828.44974300157 282.175310079982  828.901934368185 283.068776930105  L 829.794170760763 282.617208308787  Z M 831.617560002098 286.17122517239  C 831.156820473652 285.285240673532  830.699744636426 284.397355747729  830.246344201464 283.507593144073  L 829.355355397318 283.961618419676  C 829.810006806107 284.853835960831  830.268343757924 285.74417064342  830.730354509436 286.632599655635  L 831.617560002098 286.17122517239  Z M 833.480007123288 289.704930722229  C 833.009531191654 288.824077815642  832.542697784236 287.941284220195  832.079518862085 287.05657255453  L 831.193587956734 287.52038979326  C 831.658044832464 288.407542460417  832.126166276512 289.292771765199  832.597940294852 290.176055026604  L 833.480007123288 289.704930722229  Z M 835.381285902413 293.217895737175  C 834.901130713881 292.342281415532  834.424596440162 291.464686378905  833.951695290783 290.585133112607  L 833.070929893719 291.058685976957  C 833.545135821192 291.940666012224  834.022984897155 292.820682414924  834.504464878347 293.698712637621  L 835.381285902413 293.217895737175  Z M 837.321165400871 296.709693515348  C 836.831389277447 295.839424135061  836.345212019581 294.967134254187  835.862646083869 294.092846222112  L 834.987153177158 294.57607719204  C 835.471050557017 295.452777465837  835.958569222989 296.327474075323  836.449696684136 297.200144609498  L 837.321165400871 296.709693515348  Z M 839.299409991426 300.179899925941  C 838.80007242371 299.315081194179  838.304311235161 298.448202421645  837.81213912793 297.579285819086  L 836.942025053213 298.072136198999  C 837.43555510891 298.943450223008  837.932684148518 299.812720794404  838.433399434869 300.679925641211  L 839.299409991426 300.179899925941  Z M 841.315779386834 303.628093460743  C 840.806941026817 302.768830422632  840.301656125133 301.907468053723  839.799937628022 301.044028423554  L 838.935308073605 301.546438349439  C 839.438410858555 302.412260289583  839.945089888105 303.275999237086  840.455332180324 304.137633061568  L 841.315779386834 303.628093460743  Z M 843.370028669023 307.053855285333  C 842.851751322684 306.200252311135  842.337004082261 305.344510971172  841.825800136437 304.486653190964  L 840.966760124445 304.998561637659  C 841.479374529341 305.858786327  841.995542005099 306.716888736617  842.515249326678 307.572846880544  L 843.370028669023 307.053855285333  Z M 845.461887957772 310.456389747064  C 845.416100173868 310.382926543476  845.370335862716 310.309448712388  845.324595031433 310.235956265227  C 844.84329492597 309.461359744222  844.364920035686 308.68494944706  843.889480582022 307.906741963306  L 843.03613445565 308.428086751911  C 843.512950379316 309.208547265465  843.992710637325 309.987205144301  844.475404975924 310.764043746432  C 844.521323844758 310.837822399312  844.567266318533 310.911586358147  844.613232390211 310.985335611636  L 845.461887957772 310.456389747064  Z M 847.591702074455 313.836399506635  C 847.055098882027 312.994020025311  846.521602854478 312.149665275556  845.991224866701 311.30335246887  L 845.143871794101 311.834382383615  C 845.675554838541 312.682777641295  846.210363595029 313.52921002398  846.74828716196 314.373662277893  L 847.591702074455 313.836399506635  Z M 849.754639495874 317.195309427643  C 849.209781461989 316.358245571273  848.668011025586 315.519175997887  848.129339230143 314.678117811122  L 847.287247236329 315.217451728054  C 847.827244496313 316.06057943621  848.370348021798 316.901713637735  848.916546742182 317.740837186982  L 849.754639495874 317.195309427643  Z M 851.950491205699 320.532794920477  C 851.397430982946 319.701127579084  850.847438491867 318.86742426585  850.300524943537 318.031701975024  L 849.463775404408 318.579287775394  C 850.012034697055 319.417066457997  850.563380508566 320.252821195107  851.117801600242 321.086534950603  L 851.950491205699 320.532794920477  Z M 854.179045006918 323.848533465884  C 853.617836040494 323.022343007977  853.059674643484 322.194086520148  852.504572193478 321.363780885621  L 851.673245968662 321.919565653254  C 852.229714312743 322.751914351268  852.789249130699 323.582208860383  853.351839016991 324.410432255906  L 854.179045006918 323.848533465884  Z M 856.440085542336 327.142204646134  C 855.870782064897 326.32157091096  855.304505700107 325.498841287437  854.741267990973 324.674032546128  L 853.915445416014 325.23796257254  C 854.480069036959 326.06480085157  855.047738790544 326.88955489693  855.618443105323 327.712207896737  L 856.440085542336 327.142204646134  Z M 858.733394315394 330.413490175989  C 858.156051341808 329.598492465819  857.581714731583 328.78136921141  857.010396192024 327.962137069043  L 856.190157070619 328.534157858628  C 856.762881405812 329.355405816846  857.338631238003 330.17453969797  857.917394831041 330.991542804679  L 858.733394315394 330.413490175989  Z M 861.058749711273 333.662073933455  C 860.473423033313 332.852791005921  859.891081678902 332.041353083659  859.311737518514 331.227776707063  L 858.497161114802 331.807832982362  C 859.077930818794 332.623411258142  859.661705091775 333.436845817697  860.24847203402 334.248120079884  L 861.058749711273 333.662073933455  Z M 863.415927018321 336.887641990334  C 862.822673199265 336.084152050817  862.232383375459 335.278477874333  861.645069579399 334.470635883788  L 860.836234610297 335.05867159083  C 861.424993560176 335.868501370435  862.016735860684 336.676158001847  862.611449449676 337.481625021697  L 863.415927018321 336.887641990334  Z M 865.804698449761 340.089882642559  C 865.203574818929 339.292263336632  864.605393568622 338.492430762575  864.010166892196 337.690401224216  L 863.207151519796 338.286359537934  C 863.803842820604 339.090362563139  864.403495965384 339.892163218183  865.006098730737 340.691745159066  L 865.804698449761 340.089882642559  Z M 868.224833165702 343.268486440316  C 867.61589781292 342.476814846242  867.009882941599 341.682901166754  866.406800904775 340.886761585028  L 865.609682728791 341.49058491475  C 866.214248719023 342.2886834904  866.821754760353 343.084550686746  867.432188469306 343.878170280741  L 868.224833165702 343.268486440316  Z M 870.676097295454 346.423146217948  C 870.059409065434 345.63749883923  869.445619135589 344.849580774479  868.834740017442 344.059408084655  L 868.043596067711 344.671038079671  C 868.65597832489 345.463155081188  869.271278556178 346.253011909891  869.889484219225 347.040592465248  L 870.676097295454 346.423146217948  Z M 873.158253960121 349.553557123639  C 872.533872446779 348.774009881628  871.912366772247 347.992163572392  871.293749605327 347.208034133126  L 870.508656334361 347.827411688326  C 871.128795680681 348.613470569164  871.751830642143 349.397240702092  872.377748518729 350.178706110647  L 873.158253960121 349.553557123639  Z M 875.671063295496 352.659416648871  C 875.03904883619 351.886044875428  874.409887476421 351.110345875741  873.783592041047 350.332335461697  L 873.004625316652 350.95940072328  C 873.632461824697 351.739325522324  874.263171309098 352.516933219534  874.896740913399 353.292207964063  L 875.671063295496 352.659416648871  Z M 878.214282475237 355.740424657659  C 877.574696144938 354.973303087877  876.937939899195 354.203826357723  876.304026717678 353.43201015225  L 875.531261815615 354.066702523514  C 876.166734814153 354.840417872417  876.805057872628 355.611787989476  877.446217979389 356.380797150993  L 878.214282475237 355.740424657659  Z M 880.787665734335 358.796283415556  C 880.140569339727 358.035486180535  879.496279741204 357.272306078608  878.854810072 356.506758666476  L 878.088321668717 357.149016813668  C 878.731369748558 357.916447944136  879.377244696502 358.681505939382  880.025933346959 359.444175204377  L 880.787665734335 358.796283415556  Z M 883.0589366193 361.443534002856  C 882.515930910462 360.816109223046  881.974848035805 360.187022896744  881.435695608037 359.556283874815  L 880.67555777345 360.206045733059  C 881.326118793384 360.967118484076  881.979483216412 361.725790425824  882.635637724275 362.482046093445  L 883.0589366193 361.443534002856  Z M 790.432391182938 105.008643877247  C 790.451189278069 104.010048459497  790.473668524535 103.011525731554  790.499828464119 102.013096047354  L 789.500171535881 101.986903952646  C 789.473947226728 102.98779038904  789.451412667462 103.988770098232  789.432568317435 104.989822675982  L 790.432391182938 105.008643877247  Z M 877.051589401286 366.903443369304  L 890 370  L 888.152452794348 356.815290320872  L 877.051589401286 366.903443369304  Z " fill-rule="nonzero" fill="#1f8aee" stroke="none" />
  </g>
</svg>