<?xml version="1.0" encoding="utf-8"?>
<svg version="1.1" xmlns:xlink="http://www.w3.org/1999/xlink" width="60px" height="60px" xmlns="http://www.w3.org/2000/svg">
  <g transform="matrix(1 0 0 1 -1515 -145 )">
    <path d="M 1545 145  C 1561.8 145  1575 158.2  1575 175  C 1575 191.8  1561.8 205  1545 205  C 1528.2 205  1515 191.8  1515 175  C 1515 158.2  1528.2 145  1545 145  Z " fill-rule="nonzero" fill="#ffffff" stroke="none" />
    <path d="M 1545 145.5  C 1561.52 145.5  1574.5 158.48  1574.5 175  C 1574.5 191.52  1561.52 204.5  1545 204.5  C 1528.48 204.5  1515.5 191.52  1515.5 175  C 1515.5 158.48  1528.48 145.5  1545 145.5  Z " stroke-width="1" stroke="#ffc220" fill="none" />
  </g>
</svg>