<?xml version="1.0" encoding="utf-8"?>
<svg version="1.1" xmlns:xlink="http://www.w3.org/1999/xlink" width="60px" height="60px" xmlns="http://www.w3.org/2000/svg">
  <g transform="matrix(1 0 0 1 -1405 -145 )">
    <path d="M 1435 145  C 1451.8 145  1465 158.2  1465 175  C 1465 191.8  1451.8 205  1435 205  C 1418.2 205  1405 191.8  1405 175  C 1405 158.2  1418.2 145  1435 145  Z " fill-rule="nonzero" fill="#ffffff" stroke="none" />
    <path d="M 1435 145.5  C 1451.52 145.5  1464.5 158.48  1464.5 175  C 1464.5 191.52  1451.52 204.5  1435 204.5  C 1418.48 204.5  1405.5 191.52  1405.5 175  C 1405.5 158.48  1418.48 145.5  1435 145.5  Z " stroke-width="1" stroke="#1f8aee" fill="none" />
  </g>
</svg>