<?xml version="1.0" encoding="utf-8"?>
<svg version="1.1" xmlns:xlink="http://www.w3.org/1999/xlink" width="518px" height="30px" viewBox="1040 854  518 30" xmlns="http://www.w3.org/2000/svg">
  <g transform="matrix(0.984807753012208 0.17364817766693 -0.173648177666935 0.984807753012206 170.634995229709 -212.366920156949 )">
    <path d="M 551.632336273155 792.290163768367  C 550.712124788939 791.899637935391  549.792324024037 791.50814501518  548.87293550246 791.115685656395  L 548.480338632543 792.035396316184  C 549.400371599938 792.428130769543  550.320817099631 792.819898106906  551.241673606521 793.210697679149  L 551.632336273155 792.290163768367  Z M 555.315366196988 793.847106541464  C 554.394063755247 793.459161425827  553.47316932064 793.070248075583  552.552684418989 792.680367135118  L 552.162666870826 793.601174559135  C 553.083796986613 793.991328786748  554.005336923001 794.380514746155  554.927285151934 794.768731792023  L 555.315366196988 793.847106541464  Z M 559.002745478247 795.39372034416  C 558.080359316542 795.008358993478  557.158378446584 794.622028268424  556.236804395997 794.234728809105  L 555.849369233487 795.156625763678  C 556.771589262031 795.544196700816  557.694216394544 795.930798224419  558.617249103456 796.316429694401  L 559.002745478247 795.39372034416  Z M 562.694445149646 796.929993026579  C 561.77098251405 796.547218468172  560.847922451632 796.163473403242  559.925266491803 795.778758467611  L 559.540416758556 796.701737710508  C 560.463719454516 797.086722312255  561.38742653633 797.470736363475  562.311536473497 797.853779227889  L 562.694445149646 796.929993026579  Z M 566.390436209956 798.455912520083  C 565.465904355001 798.075727760948  564.541772351493 797.694571370762  563.618041730616 797.312443981061  L 563.23578044993 798.23649826155  C 564.160158560222 798.618893503625  565.084938334506 799.000317065566  566.010118240501 799.380768315388  L 566.390436209956 798.455912520083  Z M 570.090689624241 799.971466837363  C 569.165095812857 799.593874864152  568.239899128046 799.215310142998  567.315101102757 798.83577330114  L 566.935431277599 799.76089536004  C 567.860877540309 800.140698238348  568.786722742567 800.519528314784  569.712965349178 800.897384961189  L 570.090689624241 799.971466837363  Z M 573.795176324076 801.47664407254  C 572.868527827536 801.101647851537  571.942273729576 800.725677773339  571.016415564897 800.348734460887  L 570.639340177873 801.274917030633  C 571.56584732327 801.652124561678  572.492750679489 802.028358176284  573.42004871073 802.403617251065  L 573.795176324076 801.47664407254  Z M 577.503867207783 802.971432401253  C 576.576171305646 802.599034878352  575.648867070997 802.225662396653  574.721956040276 801.851315574796  L 574.347478053614 802.778551379489  C 575.275038803059 803.153160599928  576.20299303206 803.526794797248  577.131339203078 803.899453352369  L 577.503867207783 802.971432401253  Z M 581.216733140656 804.455820080756  C 580.287997120708 804.086024181433  579.359650034079 803.715252229371  578.431693418939 803.343504838899  L 578.059815774458 804.271786594367  C 578.988422841418 804.643794561425  579.917420653002 805.014826406113  580.846807671095 805.384881514123  L 581.216733140656 804.455820080756  Z M 584.933744955191 805.929795450007  C 584.003976113389 805.562604079303  583.074593467683 805.194435569585  582.145598557957 804.825290530868  L 581.776324177052 805.754610944723  C 582.705970266199 806.124014735829  583.63600436312 806.492441313442  584.566424926831 806.859890067111  L 584.933744955191 805.929795450007  Z M 588.654873451314 807.393346929761  C 587.72407909173 807.028762972255  586.793668187983 806.663200797136  585.863642281663 806.296661010102  L 585.496974065277 807.227012781795  C 586.427651873887 807.593809495142  587.358714949222 807.959627911093  588.290161749745 808.324467423972  L 588.654873451314 807.393346929761  Z M 592.380089396612 808.846463022663  C 591.448276831372 808.48448934245  590.516844978701 808.121536373711  589.585795381877 807.757604717819  L 589.221736210478 808.6889805387  C 590.153438426956 809.053167292657  591.085523167236 809.416374673455  592.017988886934 809.77860207929  L 592.380089396612 808.846463022663  Z M 596.109363526561 810.289132313332  C 595.176540075792 809.929771754003  594.244094591331 809.569430842927  593.312028618136 809.20811017715  L 592.950581351699 810.140502730523  C 593.883300656978 810.502076664191  594.816399739553 810.862670156403  595.74987705336 811.222282609686  L 596.109363526561 810.289132313332  Z M 599.842666544758 811.721343468459  C 598.908839536528 811.364598853076  597.975387745375 811.006872830426  597.042312717925 810.648165993224  L 596.683480195904 811.581567954407  C 597.617209262735 811.940526227336  598.551315357373 812.298502998214  599.485796932086 812.655497673905  L 599.842666544758 811.721343468459  Z M 603.57996912315 813.14308523689  C 602.645145893409 812.788959367964  601.710695128567 812.433851043963  600.776618376907 812.077760853261  L 600.420403418216 813.012164889642  C 601.355134911416 813.368504681931  602.290240679974 813.723861919284  603.225719174499 814.078236012905  L 603.57996912315 813.14308523689  Z M 607.321241902261 814.554346449717  C 606.385429794787 814.202842109188  605.449987397109 813.850354273492  604.514916259151 813.496883526662  L 604.161321662141 814.432282297757  C 605.097048238654 814.786000810073  606.033146335134 815.138735722288  606.969614400546 815.490486449951  L 607.321241902261 814.554346449717  Z M 611.06645549143 815.955116020364  C 610.129661857769 815.606235969577  609.193235175895 815.256371391257  608.257176997365 814.905522865092  L 607.906205539801 815.841909022602  C 608.842919848753 816.193003476207  609.780002919363 816.543113292272  610.717453198964 816.892237890696  L 611.06645549143 815.955116020364  Z M 614.815580469036 817.345382944677  C 613.877812668444 816.999129924361  612.940409058749 816.651891351881  612.003371193125 816.303667802574  L 611.655025632166 817.241033990443  C 612.592720314924 817.589501627212  613.530780998134 817.936983596737  614.469206127509 818.283479323271  L 614.815580469036 817.345382944677  Z M 618.568587382732 818.725136301007  C 617.629852782118 818.381513031254  616.691479608649 818.036903192448  615.753469417106 817.691307355571  L 615.407752489283 818.629646210045  C 616.346420179513 818.975484292488  617.285451106113 819.320335685727  618.224843713188 819.664199818373  L 618.568587382732 818.725136301007  Z M 622.325446749673 820.094365250297  C 621.385752723542 819.75337443054  620.446417357964 819.411396032592  619.507442209316 819.068430623074  L 619.164356630509 820.007734772759  C 620.103989954232 820.350940584043  621.043983747389 820.693158691914  621.984336452491 821.034388529347  L 622.325446749673 820.094365250297  Z M 626.086129056753 821.45305903617  C 625.14548298734 821.114703345233  624.205192808488 820.775359074513  623.265260079323 820.435026786689  L 622.924808544742 821.375288852606  C 623.865400120392 821.715859696578  624.80634939571 822.055441830688  625.747654811625 822.394034692277  L 626.086129056753 821.45305903617  Z M 629.850604760831 822.801206985009  C 628.909014037267 822.465489080803  627.967776432645 822.128781603411  627.02689350649 821.79108511072  L 626.68907869065 822.732297706365  C 627.630621129331 823.070230907641  628.572518494519 823.407174400163  629.51476922674 823.743127626062  L 629.850604760831 822.801206985009  Z M 633.618844288967 824.138798506043  C 632.676316308389 823.805721025969  631.734138671773 823.471652986868  630.792312940204 823.136594942255  L 630.45713749691 824.078750673656  C 631.39962340167 824.414043577364  632.342461458157 824.748345781619  633.285650104168 825.08165673251  L 633.618844288967 824.138798506043  Z M 637.390818038653 825.465823091432  C 636.447360205365 825.135388652076  635.504249938308 824.803962675636  634.561488800112 824.471545711247  L 634.228955362432 825.414637177025  C 635.172377329493 825.747287149243  636.116148670148 826.078945438882  637.06026782065 826.409611496414  L 637.390818038653 825.465823091432  Z M 641.166496378048 826.782270316344  C 640.222116103658 826.454481513532  639.278080615038 826.125700203366  638.334391476352 825.795926930599  L 638.004502656599 826.739946722024  C 638.948853274633 827.069951149522  639.893550485385 827.398962919107  640.838592723574 827.726981485635  L 641.166496378048 826.782270316344  Z M 644.945849646204 828.088129839045  C 644.000554349568 827.762989247817  643.055601055533 827.436855186763  642.110991329782 827.109728196249  L 641.783749719495 828.054668897297  C 642.729021569879 828.382025187629  643.674637229383 828.708387852512  644.620595131203 829.03375635119  L 644.945849646204 828.088129839045  Z M 648.728848153307 829.383391400972  C 647.782645260469 829.060901575566  646.836781584375 828.737417325664  645.891258692217 828.412939187246  L 645.566666862138 829.358793374658  C 646.512852519013 829.683498956181  647.459379198709 830.007209952524  648.406245332911 830.329925827326  L 648.728848153307 829.383391400972  Z M 652.515462180905 830.66804482682  C 651.568359125039 830.348208300648  650.621592497395 830.027376403125  649.675163866663 829.705549665834  L 649.353224366717 830.652309909177  C 650.300316397045 830.974362231072  651.247746661215 831.295419015869  652.195513589416 831.615479731604  L 652.515462180905 830.66804482682  Z M 656.305661982146 831.942080024617  C 655.357666203496 831.624899310249  654.410004061904 831.306722285494  653.462677127544 830.987549477534  L 653.143392486822 831.935208339256  C 654.09138345064 832.254604871612  655.039709856076 832.573004922575  655.988370133012 832.89040796498  L 656.305661982146 831.942080024617  Z M 660.099417782005 833.205486985809  C 659.150536727829 832.890964574951  658.201986516927 832.575444922495  657.253768720942 832.258928551222  L 656.937141447678 833.207478586711  C 657.886023897375 833.524216820283  658.835238995006 833.839957636392  659.784785167805 834.154700511883  L 660.099417782005 833.205486985809  Z M 663.896699777524 834.458255785331  C 662.946940902035 834.146394148805  661.997510073437 833.833534347306  661.04840886483 833.519676899208  L 660.734441446382 834.469110656851  C 661.684207927929 834.783188103476  662.634304260526 835.096267204204  663.584728869947 835.408347440291  L 663.896699777524 834.458255785331  Z M 667.697478138044 835.700376581692  C 666.746848902351 835.391178169419  665.796544914587 835.080980676639  664.846567749301 834.769784617313  L 664.535262652131 835.720094638557  C 665.48590570436 836.031508830907  666.436875808165 836.34192375677  667.388171387869 836.651338901816  L 667.697478138044 835.700376581692  Z M 671.501723005439 836.931839617049  C 670.550230877488 836.625306858028  669.599061195949 836.317774110812  668.648215536806 836.009241884952  L 668.339575206464 836.960420704357  C 669.29108736132 837.269169196028  670.242923765708 837.576917508471  671.195082842515 837.883665131774  L 671.501723005439 836.931839617049  Z M 675.30940449435 838.152635217283  C 674.357056948866 837.848770519571  673.405029045744 837.543904933835  672.453322362391 837.238038965204  L 672.14734922349 838.190079110509  C 673.099723006092 838.496159476035  674.052418233633 838.801238757451  675.005433327579 839.105316449266  L 675.30940449435 838.152635217283  Z M 679.120492692422 839.362753792079  C 678.167297210849 839.061559542774  677.214418565079 838.759363513478  676.261858333926 838.456166204896  L 675.958554790127 839.409060197069  C 676.911782718824 839.712470031947  677.865329285343 840.014877885696  678.819192909738 840.316283257253  L 679.120492692422 839.362753792079  Z M 682.934957660537 840.562185834994  C 681.980921730981 840.263664400216  681.027199828179 839.96414030135  680.073793532341 839.663614034673  L 679.773161966335 840.617354387977  C 680.727236552766 840.918091308682  681.681626967398 841.217825359111  682.636331628889 841.51655604263  L 682.934957660537 840.562185834994  Z M 686.75276943305 841.750921923541  C 685.797900550022 841.455075648351  684.843342882823 841.158225833036  683.889098011866 840.860372969074  L 683.591140785351 841.814952191123  C 684.546054534504 842.113013835129  685.501281299757 842.410071727589  686.456819498382 842.706125376304  L 686.75276943305 841.750921923541  Z M 690.573898018023 842.928952719256  C 689.61820368317 842.635783927883  688.662817749592 842.341610727863  687.707741800259 842.04643360661  L 687.412461253927 843.001844198428  C 688.368206664197 843.297228224224  689.324262276008 843.59160762509  690.280626505256 843.884981913266  L 690.573898018023 842.928952719256  Z M 694.398313397463 844.096268967772  C 693.441801118324 843.805779963228  692.485594424076 843.514285689591  691.529694899049 843.221786629834  L 691.237093352561 844.178021085914  C 692.193662915811 844.470725173024  693.150539863605 844.762423769713  694.107722610478 845.053116392662  L 694.398313397463 844.096268967772  Z M 698.225985527557 845.252861498895  C 697.268662818293 844.965054563202  696.311642875136 844.676241505866  695.354927283763 844.386422805418  L 695.065007035737 845.343473613779  C 696.022393237356 845.633495462782  696.980084004105 845.92251096377  697.938077749174 846.210519637871  L 698.225985527557 845.252861498895  Z M 702.056884338907 846.398721226675  C 701.098758720047 846.113598620784  700.140933046132 845.827469048605  699.183408904172 845.540332984222  L 698.896172232161 846.498192626472  C 699.85436755112 846.785529959015  700.812864613405 847.071860093857  701.77166183087 847.357182556573  L 702.056884338907 846.398721226675  Z M 705.890979736767 847.533839149475  C 704.932058735147 847.251403113251  703.973434854952 846.967959274002  703.015109684517 846.683508101365  L 702.730558844992 847.642169052758  C 703.689555753908 847.926819611579  704.648851581976 848.210462130924  705.608444739725 848.493096140822  L 705.890979736767 847.533839149475  Z M 709.728241601278 848.658206350045  C 708.768532749983 848.378459102246  707.80911819426 848.097703222604  706.849999523752 847.815939176302  L 706.568136752086 848.775393905796  C 707.527927717477 849.057355454798  708.488014774901 849.338308130293  709.448396334767 849.618251467116  L 709.728241601278 848.658206350045  Z M 713.568639787709 849.771813995589  C 712.608150626012 849.494757733851  711.647952931721 849.216692019376  710.688048295778 848.937617312889  L 710.408875806226 849.897858283207  C 711.369453287777 850.177128607242  712.330324033107 850.455389232014  713.291486450135 850.732639696469  L 713.568639787709 849.771813995589  Z M 717.412144126686 850.874653337837  C 716.450882199991 850.600290238656  715.489908910247 850.324916873775  714.529225849681 850.048533699456  L 714.252745835365 851.009553367144  C 715.214102287176 851.28613027238  716.175749171613 851.561696660355  717.137684895309 851.836252074479  L 717.412144126686 850.874653337837  Z M 721.258724424439 851.96671571311  C 720.29669728422 851.695047931828  719.334955948229 851.422369079816  718.373502009966 851.148679608874  L 718.099716642855 852.110470424361  C 719.06184451271 852.384351738067  720.024259981756 852.657221724452  720.986961455354 852.929079931394  L 721.258724424439 851.96671571311  Z M 725.108350463031 853.047992542395  C 724.145565666773 852.779022213175  723.183063839776 852.509040016142  722.220846576799 852.238046398625  L 721.949758007694 853.200600806282  C 722.912649737316 853.471784376903  723.875826230435 853.741955818089  724.83928589115 854.011114682188  L 725.108350463031 853.047992542395  Z M 728.960992000597 854.118475331404  C 727.997457111739 853.852204567223  727.03420235495 853.584921146092  726.071229326239 853.316625510869  L 725.802839684755 854.279935949068  C 726.766487709866 854.548419646243  727.730417660543 854.815890419819  728.694627939637 855.082347826618  L 728.960992000597 854.118475331404  Z M 732.816618771587 855.178155670648  C 731.852341359657 854.914586563328  730.888341239807 854.650004017712  729.924620010477 854.384408472513  L 729.658931405029 855.348467373688  C 730.623328155409 855.614249088265  731.588003991211 855.879017093034  732.552957314047 856.142770949299  L 732.816618771587 855.178155670648  Z M 736.675200486995 856.227025235497  C 735.710188126758 855.966159855472  734.74545021763 855.704280264096  733.780988358076 855.441386895275  L 733.518002875857 856.406186685979  C 734.483140775408 856.669264330031  735.44855491804 856.931327486033  736.414243704147 857.192375719769  L 736.675200486995 856.227025235497  Z M 740.536706834605 857.265075786249  C 739.570967106998 857.006916182825  738.605498987373 856.74774160296  737.640304074206 856.487552475753  L 737.380023781177 857.453085576718  C 738.345895248173 857.713457083617  739.312040113144 857.97281333203  740.27845677647 858.231153892549  L 740.536706834605 857.265075786249  Z M 744.401107479225 858.292299168195  C 743.434647971297 858.036847369528  742.468457224894 857.780379836979  741.502536840886 857.522896995486  L 741.244963781753 858.489155821686  C 742.21156122831 858.746819145951  743.178429226186 859.003466449435  744.145566174562 859.259097307214  L 744.401107479225 858.292299168195  Z M 748.268372062924 859.308687311681  C 747.301200366581 859.055945324441  746.334294584393 858.802186854177  745.367656317214 858.547412321023  L 745.112792515418 859.514389281728  C 746.080108347947 859.769342399158  747.047691883613 860.02327874165  748.015541519212 860.276197888453  L 748.268372062924 859.308687311681  Z M 752.138470205274 860.314232232173  C 751.170593918818 860.064202041953  750.202980695855 859.813154627238  749.235632139614 859.561090403984  L 748.983479597313 860.528777902824  C 749.951506216981 860.781018810614  750.919797688902 861.032242197136  751.888352408698 861.282447646136  L 752.138470205274 860.314232232173  Z M 756.011371503588 861.308926030318  C 755.042798230052 861.0616096012  754.074485168485 860.813275214418  753.106433922071 860.563923281125  L 752.856994620123 861.532313716148  C 753.825724422314 861.781840432744  754.794716223792 862.030348889738  755.763968419021 862.277838675373  L 756.011371503588 861.308926030318  Z M 759.887045533156 862.292760892009  C 758.917782881853 862.048160166962  757.948777587746 861.80254075877  756.98003125637 861.555903074398  L 756.733307154318 862.524988838129  C 757.702732528892 862.771799403303  758.672417047729 863.017590978537  759.642359104146 863.262363156578  L 759.887045533156 862.292760892009  Z M 763.765461847488 863.265729088442  C 762.795517432543 863.023845988948  761.825827518601 862.780943488985  760.856393712334 862.537021991016  L 760.612386748391 863.506795470519  C 761.582500079944 863.750887945428  762.552869698098 863.993960707915  763.52349399624 864.236013355532  L 763.765461847488 863.265729088442  Z M 767.646589978551 864.227822976182  C 766.675971419846 863.988659402473  765.705604503351 863.748475718831  764.735490838063 863.507272323513  L 764.494202929098 864.477725900448  C 765.464996596218 864.719098367451  766.436043691471 864.959450407863  767.407342605914 865.198781623441  L 767.646589978551 864.227822976182  Z M 771.530399437006 865.179034997219  C 770.559114359118 864.942592828016  769.588078063874 864.705129847726  768.617292160176 864.466646449802  L 768.378725201696 865.437772500488  C 769.350191578232 865.676423063463  770.321908521837 865.914052493543  771.293874422459 866.150660396997  L 771.530399437006 865.179034997219  Z M 775.416859712452 866.119357679029  C 774.444915745796 865.885638771821  773.473217699663 865.650898360245  772.501767184047 865.415136833241  L 772.265923050184 866.386927728713  C 773.238054504497 866.622854512871  774.210433662847 866.857759465852  775.183058914086 867.091642198438  L 775.416859712452 866.119357679029  Z M 779.305940273665 867.048783634631  C 778.333345053631 866.817789825466  777.360992890064 866.585773826675  776.388885394045 866.352736022685  L 776.155765937543 867.325184128755  C 777.128554832771 867.558385280705  778.101588567058 867.790563911222  779.07486552817 868.021719635607  L 779.305940273665 867.048783634631  Z M 783.197610568834 867.967305562648  C 782.224371735929 867.739038666166  781.251373093526 867.50974890283  780.278616253778 867.27943665255  L 780.048223305974 868.252534329868  C 781.021662000088 868.483008017629  781.995342666361 868.712458501735  782.969263691486 868.940885402007  L 783.197610568834 867.967305562648  Z M 787.091840025805 868.874916247363  C 786.11796522559 868.64937805678  785.144327748027 868.422816330152  784.170929206326 868.195231442867  L 783.94326457714 869.16897104698  C 784.917345423008 869.396715459999  785.891665372233 869.623435995179  786.866222810449 869.849132276863  L 787.091840025805 868.874916247363  Z M 790.98859805232 869.771608558774  C 790.014094935354 869.548800845872  789.039826271324 869.324968935774  788.065793674488 869.100113199344  L 787.840859152405 870.074487080755  C 788.815574497851 870.299500429919  789.790526075972 870.523489235103  790.765712271358 870.746453125177  L 790.98859805232 869.771608558774  Z M 794.887591254557 870.65670220357  C 794.636763312014 870.600306102635  794.385952465667 870.54383398484  794.135158752867 870.487285858597  C 793.411037298238 870.323447354488  792.687043847046 870.159043622673  791.963179061015 869.994074813417  L 791.740976413075 870.969075317647  C 792.465469445761 871.134187304337  793.190091276957 871.298733628837  793.914841243718 871.462714140605  C 794.165952958976 871.519334046036  794.417081836733 871.575877809736  794.668227841675 871.632345423753  L 794.887591254557 870.65670220357  Z M 798.790002900264 871.527680567599  C 797.814058565222 871.311468967565  796.83836934759 871.094107412499  795.862937279778 870.875596355175  L 795.644340384578 871.851411602754  C 796.62053903788 872.070094386446  797.596995042535 872.28762676437  798.573706365653 872.504008283643  L 798.790002900264 871.527680567599  Z M 802.695132182706 872.386391957166  C 801.718513257333 872.173248166046  800.742145834569 871.958953623906  799.766031948238 871.743508777134  L 799.550502468092 872.720006111072  C 800.52738347575 872.935620274498  801.504518218532 873.150083229151  802.481904662138 873.363394528541  L 802.695132182706 872.386391957166  Z M 806.602940541554 873.232827893118  C 805.625656669256 873.022754015552  804.648620682284 872.811528602343  803.671834615852 872.599152093485  L 803.459374678958 873.576321871576  C 804.436928394775 873.788865285658  805.414732227591 874.000256699462  806.392784140497 874.210495672629  L 806.602940541554 873.232827893118  Z M 810.513389390027 874.066980017511  C 809.535450220775 873.859978127827  808.557755317118 873.651823929247  807.580306715642 873.442517855368  L 807.370918419889 874.420350428767  C 808.349135191634 874.62982099488  809.327598458568 874.838138780322  810.306306183623 875.045303351397  L 810.513389390027 874.066980017511  Z M 814.426440115271 874.888840093698  C 813.447855305508 874.684912235889  812.469511139195 874.47983130731  811.491409654273 874.273597735155  L 811.285095067218 875.252083448474  C 812.263965235303 875.45847909816  813.243078275548 875.663721198426  814.222432148317 875.867809321722  L 814.426440115271 874.888840093698  Z M 818.342054078737 875.698400006403  C 817.36283329128 875.49754819411  816.383849522754 875.295542560558  815.405104812431 875.092383526535  L 815.201865971281 876.071512717933  C 816.181379870476 876.274831413272  817.161133015188 876.476995801574  818.141123365664 876.678005461953  L 818.342054078737 875.698400006403  Z M 822.260192616571 876.495651761807  C 821.280345520517 876.297877978296  820.300731816534 876.098949634431  819.321353545206 875.898867144589  L 819.121192456798 876.878630145875  C 820.10134041491 877.078869879197  821.081723990141 877.277954559393  822.062341141425 877.475883771988  L 822.260192616571 876.495651761807  Z M 826.180817039987 877.280587487628  C 825.200353310618 877.085893685772  824.220119344155 876.890044595867  823.240117182475 876.693040625876  L 823.043035823255 877.673427762597  C 824.02380816203 877.87058655668  825.004812487201 878.066589562953  825.986046756408 878.261436373356  L 826.180817039987 877.280587487628  Z M 830.103888635654 878.053199433191  C 829.12281795434 877.861587535451  828.141973404499 877.668819633374  827.161357029279 877.474896128505  L 826.967357345283 878.455897720048  C 827.948744380101 878.649973628052  828.930359768909 878.842893025094  829.912201466858 879.034655509293  L 830.103888635654 878.053199433191  Z M 834.029368666077 878.813479969512  C 833.047700720181 878.624951867917  832.066255272092 878.435267057112  831.08503436621 878.24442593222  L 830.894118273045 879.226032291903  C 831.876110313622 879.41702339751  832.858327072919 879.606857280299  833.840766504835 879.79553354482  L 834.029368666077 878.813479969512  Z M 837.957218369978 879.561421589371  C 836.974962852762 879.375979145499  835.99292619749 879.189379298966  835.011110449793 879.001622438469  L 834.823279832616 879.98382387364  C 835.805867182491 880.17172829095  836.788675613597 880.358474785015  837.771703078601 880.544062966815  L 837.957218369978 879.561421589371  Z M 841.887398962682 880.297016907385  C 840.90456557321 880.114661952347  839.921947407656 879.931148912625  838.939546512864 879.746478170485  L 838.754803226368 880.729264982614  C 839.737976183403 880.914080856245  840.721366581389 881.097738117524  841.704972373 881.280236384092  L 841.887398962682 880.297016907385  Z M 845.819871636499 881.020258660082  C 844.836470079538 880.840992994501  843.853280106346 880.660568573648  842.870303764958 880.478985773357  L 842.688649633349 881.462348258136  C 843.672398489016 881.644073763088  844.656361144426 881.824639978248  845.640535549841 882.004046527471  L 845.819871636499 881.020258660082  Z M 849.754597561102 881.731139705973  C 848.770637547236 881.554965100004  847.786885474289 881.377631079508  846.803343392689 881.199138014101  L 846.62478020967 882.183066461535  C 847.609095250365 882.36169980344  848.593620446872 882.539173189446  849.578353748284 882.71548624985  L 849.754597561102 881.731139705973  Z M 853.69153788392 882.429653025622  C 852.707029128635 882.256571218789  851.722724670588 882.082329349842  850.738626560136 881.906927781735  L 850.563156088889 882.891412476243  C 851.548027595212 883.066951891224  852.533105611342 883.241330695654  853.518388085221 883.414548526277  L 853.69153788392 882.429653025622  Z M 857.630653730513 883.115791721714  C 856.645605955324 882.945804423112  855.660758831066 882.774656426152  854.676114409222 882.602348087345  L 854.503738382392 883.587379307853  C 855.489156629651 883.759823062622  856.474777738065 883.931105563541  857.460599655662 884.101226454016  L 857.630653730513 883.115791721714  Z M 861.57190620496 883.789549019127  C 860.586329136504 883.622657907256  859.600949070685 883.454605472247  858.615768060102 883.285392064161  L 858.446488179776 884.270960084197  C 859.432443437273 884.440306475925  860.418597906489 884.608490982183  861.404949533119 884.77551325262  L 861.57190620496 883.789549019127  Z M 865.515256390244 884.450918264994  C 864.529159760379 884.287124987783  863.543256482917 884.122169774121  862.557548611544 883.956052967616  L 862.391366549241 884.942148055409  C 863.377849081583 885.108395411958  864.364527173631 885.273480262785  865.351398769988 885.437402263994  L 865.515256390244 884.450918264994  Z M 869.460665348632 885.099892928771  C 868.474058894351 884.939199103562  867.487642140327 884.77734274006  866.501417141317 884.61432417542  L 866.338334537963 885.600936593993  C 867.32533460435 885.764083273791  868.312526576496 885.926066839093  869.299908397938 886.086886952463  L 869.460665348632 885.099892928771  Z M 873.408094122064 885.736466602304  C 872.420987585596 885.578873815864  871.434067094754 885.420117900671  870.44733470657 885.260199187618  L 870.287353172487 886.247319194888  C 871.274861027007 886.40736358698  872.262557131446 886.566244267286  873.25043942829 886.723960904835  L 873.408094122064 885.736466602304  Z M 877.357503732535 886.360632999888  C 876.369906860435 886.206142808266  875.382492378719 886.050488909114  874.395262344221 885.893671626664  L 874.238383459112 886.881289475535  C 875.226389350838 887.038229999597  876.214579834784 887.194006226075  877.202952852407 887.348617830466  L 877.357503732535 886.360632999888  Z M 881.308855182482 886.972385958331  C 880.320777726758 886.820999887039  879.332879003763 886.668449540831  878.345161071338 886.514735237475  L 878.191386384268 887.502841175933  C 879.179880557356 887.656676282292  880.168555663144 887.809346516766  881.157409642077 887.960851561319  L 881.308855182482 886.972385958331  Z M 885.262109455164 887.571719437014  C 884.273561172369 887.423438980881  883.285187962879 887.273993693941  882.296991885528 887.123383887496  L 882.146322914912 888.111968158711  C 883.135295608697 888.262696328356  884.124445573874 888.412259063317  885.1137707499 888.560656052031  L 885.262109455164 887.571719437014  Z M 889.217227515056 888.158627517953  C 888.228218166387 888.01345414114  887.239380229875 887.867115389133  886.250715765319 887.719611566763  L 886.103153998903 888.70866440918  C 887.0925954482 888.85628415381  888.082210505217 889.002737912372  889.071997109669 889.148025379964  L 889.217227515056 888.158627517953  Z M 893.174170308227 888.733104405856  C 892.184709659437 888.591039541845  891.195416759961 888.44780876976  890.206293670547 888.303412387958  L 890.061840565397 889.292924035395  C 891.051740999778 889.437433897311  892.041811377719 889.580777233471  893.032049636761 889.722953745272  L 893.174170308227 888.733104405856  Z M 897.132898762726 889.295144428177  C 896.142996584024 889.156189479757  895.153258490137 889.016068101895  894.16368654274 888.87478058647  L 894.022343525226 889.864741268215  C 895.012693170344 890.006139820516  896.003209092572 890.146371318803  896.993889228521 890.285435470952  L 897.132898762726 889.295144428177  Z M 901.093373788974 889.844742035179  C 900.103039854927 889.708898374429  899.112866339578 889.571887774387  898.122855305505 889.433710520452  L 897.984623771288 890.424110461358  C 898.975412848156 890.562396307838  899.966364534042 890.699514583565  900.957476764649 890.835465002905  L 901.093373788974 889.844742035179  Z M 905.055556280143 890.381891799983  C 904.064800369584 890.24916076826  903.074201210018 890.115262298918  902.083760864914 889.980196670873  L 901.948642178929 890.971026091459  C 902.939860904222 891.106197866643  903.931238568834 891.240201565868  904.922773107582 891.373036909987  L 905.055556280143 890.381891799983  Z M 909.019407112546 890.906588418622  C 908.028239008472 890.77697132655  907.037223986141 890.646186310059  906.046364109887 890.51423364158  L 905.914359606334 891.50548275812  C 906.905998192483 891.637539127285  907.897792046685 891.768426926819  908.889739102888 891.898145884063  L 909.019407112546 890.906588418622  Z M 912.984887146023 891.418826710097  C 911.993316635503 891.292324837552  911.001895535963 891.164654565319  910.010625912583 891.035816159343  L 909.881736894912 892.027475183969  C 910.873785550409 892.156414843181  911.865985800542 892.284185450547  912.858335579644 892.410786740062  L 912.984887146023 891.418826710097  Z M 916.951957224325 891.918601616426  C 915.959994098401 891.795216212522  914.968176711219 891.670661945199  913.976507128785 891.544939073911  L 913.85073486968 892.536998214708  C 914.843183798556 892.662819890754  915.835780647771 892.787472044364  916.828523350832 892.910954416027  L 916.951957224325 891.918601616426  Z M 920.920578175504 892.405908202693  C 919.928232229299 892.285640485795  918.936028347544 892.164203453215  917.943968598281 892.041597358064  L 917.821314339653 893.034046819166  C 918.814153741988 893.156749269621  919.807137389519 893.278281738677  920.800263213716 893.398643973163  L 920.920578175504 892.405908202693  Z M 924.890710812297 892.880741657097  C 923.8979918441 892.763592814713  922.905411265889 892.64527421608  921.912971145259 892.525786107661  L 921.79343609823 893.518616089346  C 922.786656170863 893.638198102664  923.780016810894 893.756609687018  924.773515950239 893.873850595888  L 924.890710812297 892.880741657097  Z M 928.862315932516 893.343097291002  C 927.869233744914 893.229068479917  926.876286270852 893.11386948349  925.883475578689 892.997500541688  L 925.767060923581 893.990701240478  C 926.760651858772 894.107161635823  927.754379683405 894.222451166346  928.748242327401 894.336569591882  L 928.862315932516 893.343097291002  Z M 932.835354319432 893.792970538979  C 931.841918718394 893.682062885145  930.848614153118 893.569984628433  929.85544269271 893.456736002306  L 929.742149579034 894.450297611062  C 930.736101566201 894.563635238521  931.730186762272 894.675801576716  932.724403097655 894.786796392127  L 932.835354319432 893.792970538979  Z M 936.809786742164 894.230356958856  C 935.816007537147 894.122571557406  934.822355688824 894.013615147099  933.828833267019 893.903487954896  L 933.718662813463 894.897400662916  C 934.712966037638 895.007614403314  935.707398790096 895.116656441713  936.701958999288 895.224526550961  L 936.809786742164 894.230356958856  Z M 940.785573956065 894.655252231759  C 939.791460960127 894.550590147017  938.797471639936 894.444756658937  937.803608067258 894.337751988107  L 937.696561361675 895.332005981221  C 938.691206005038 895.439094746301  939.685976494167 895.545011408146  940.680870756811 895.649755746115  L 940.785573956065 894.655252231759  Z M 944.762676703112 895.067652162153  C 943.768239731988 894.966114427539  942.773922755679 894.863404906803  941.7797278454 894.759523813895  L 941.675805944798 895.754109274565  C 942.670782186158 895.858072006924  943.665880588908 895.960862246321  944.661099081348 896.062479778757  L 944.762676703112 895.067652162153  Z M 948.74105571229 895.467552677888  C 947.746304585532 895.369140296035  946.751669770855 895.269555756782  945.757153340136 895.168799267568  L 945.656357270669 896.163706374981  C 946.651655284944 896.264542048019  947.647071776261 896.364204850075  948.642604671022 896.462694573536  L 948.74105571229 895.467552677888  Z M 952.720671699984 895.854949830235  C 951.725616240039 895.759663772894  950.730673408295 895.663205198448  949.735845277266 895.565574307827  L 949.638176034223 896.560793237994  C 950.633785993771 896.658500856054  951.629510744224 896.755035236628  952.625348211344 896.85039617862  L 952.720671699984 895.854949830235  Z M 956.701485370363 896.229839793927  C 955.706135402685 896.137681001979  954.710894378213 896.0443493448  953.715764370083 895.949845016805  L 953.621222917877 896.94536594266  C 954.617134991769 897.03994454095  955.613158169298 897.133349546834  956.609290375602 897.225580765737  L 956.701485370363 896.229839793927  Z M 960.683457415771 896.592218867197  C 959.687822768928 896.503188250662  958.692293378601 896.412984432295  957.696871319766 896.321607600108  L 957.605458591925 897.317420691601  C 958.601662946249 897.408869336224  959.597974715845 897.499144045113  960.594391825248 897.58824463021  L 960.683457415771 896.592218867197  Z M 964.666548517114 896.942083471814  C 963.670639021864 896.856181909768  962.674831096641 896.769106820985  961.679126815761 896.680858386847  L 961.59084371492 897.676953811044  C 962.587330512879 897.765271599013  963.583921036682 897.852415119508  964.580613210287 897.938384190995  L 964.666548517114 896.942083471814  Z M 968.650719344245 897.279430153118  C 967.654544834682 897.196658493794  966.658468207033 897.112712994362  965.662491536175 897.027593829683  L 965.577338934065 898.023961750861  C 966.574098336278 898.109147810118  967.570957773267 898.193159281705  968.567915169664 898.275995990718  L 968.650719344245 897.279430153118  Z M 972.635930556361 897.604255580054  C 971.639500868988 897.524614640764  970.643165374448 897.443799559582  969.646926148161 897.361810504852  L 969.564904885604 898.3584410846  C 970.56192704938 898.440494573959  971.559045557112 898.521373167155  972.556258331656 898.601076695706  L 972.635930556361 897.604255580054  Z M 976.622142802381 897.916556545206  C 975.625467776013 897.84004711233  974.62888325309 897.762363247423  973.632391308309 897.683505112207  L 973.553502195205 898.680388509517  C 974.550777275878 898.759308618778  975.548145008117 898.837053534931  976.545603314259 898.913623096023  L 976.622142802381 897.916556545206  Z M 980.609316721342 898.216329964827  C 979.612406197838 898.142952793873  978.615582486257 898.068400912247  977.618847663032 897.992674475246  L 977.543091478354 898.989800846616  C 978.54060962876 899.065586796514  979.538216736808 899.140197267919  980.535910725574 899.213632105497  L 980.609316721342 898.216329964827  Z M 984.597412942785 898.503572878873  C 983.600276765709 898.43332869437  982.603223708796 898.361909532204  981.606255848957 898.289315541145  L 981.533633340741 899.286675040673  C 982.531384710903 899.359326082861  983.529221344524 899.430801372825  984.527141164202 899.501100761759  L 984.597412942785 898.503572878873  Z M 988.586392087143 898.778282451026  C 987.589040102493 898.711171946586  986.591767545426 898.642886209092  985.59457649331 898.573425380788  L 985.525088378652 899.571008160271  C 986.523063116497 899.640523577373  987.521119422775 899.708862980128  988.519255219629 899.776026226261  L 988.586392087143 898.778282451026  Z M 992.576214766131 899.040455968729  C 991.578656822038 898.976479807019  990.581174612162 898.91132816847  989.583770214309 898.845001188796  L 989.517417179354 899.842797397825  C 990.515605430603 899.909176503426  991.513871554454 899.974379344171  992.512213472614 900.038405784315  L 992.576214766131 899.040455968729  Z M 996.566841583136 899.290090843208  C 995.569087529763 899.229249655947  994.571405516494 899.167232759667  993.573797621551 899.104040283555  L 993.510580321487 900.102040069614  C 994.508972229753 900.165282208267  995.507438314021 900.227347843172  996.505976495582 900.288236845112  L 996.566841583136 899.290090843208  Z M 1000.5582331336 899.527184609499  C 999.560292822843 899.469478997436  998.562420857983 899.410597455823  997.5646193164 899.35054010724  L 997.504538375452 900.348733615802  C 998.50312408213 900.408838163026  999.501780268098 900.467765979261  1000.50050485301 900.525516941751  L 1000.5582331336 899.527184609499  Z M 1004.55035000543 899.751734926471  C 1003.55223329163 899.697165459433  1002.55418122762 899.641419853851  1001.55619589238 899.584498225844  L 1001.4992519038 900.58287560047  C 1002.49802154879 900.639841962789  1003.49685797503 900.695631378458  1004.49575910182 900.750243731261  L 1004.55035000543 899.751734926471  Z M 1008.54315277934 899.963739576854  C 1007.54486951799 899.912306793663  1006.54664721027 899.859697674582  1005.54848793555 899.8059123292  L 1005.49468146163 900.804463711636  C 1006.49362518279 900.858291326547  1007.49263198653 900.910941790772  1008.49169979177 900.96241499463  L 1008.54315277934 899.963739576854  Z M 1012.5366020293 900.163196467255  C 1011.53816207792 900.114900875781  1010.53977938282 900.06542876266  1009.54145602492 900.014780231004  L 1009.49078759695 901.013495761276  C 1010.48989553066 901.064184097282  1011.489062847 901.113695090155  1012.48828746582 901.162028636819  L 1012.5366020293 900.163196467255  Z M 1016.53065832289 900.35010362818  C 1015.53207153994 900.304945705289  1014.53353831658 900.258611086668  1013.53506073282 900.211099868835  L 1013.48753085112 901.20996968535  C 1014.48679313169 901.257518241929  1015.486111095 901.303889274588  1016.48548266058 901.349082686787  L 1016.53065832289 900.35010362818  Z M 1020.52528222169 900.524459214058  C 1019.52655846769 900.482439405661  1018.52788457547 900.439242739041  1017.52926262529 900.39486930418  L 1017.48487175918 901.393883543821  C 1018.48427851941 901.438291851456  1019.48373726256 901.481522466038  1020.48324590661 901.523575297511  L 1020.52528222169 900.524459214058  Z M 1024.52043428167 900.686261503252  C 1023.52158341831 900.647380224264  1022.52277871839 900.607321936182  1021.52402226247 900.566086722449  L 1021.48277085028 901.565235520672  C 1022.48231222196 901.606503140873  1023.4819018756 901.646592910488  1024.48153772891 901.685504746004  L 1024.52043428167 900.686261503252  Z M 1028.5160750536 900.835508898082  C 1027.5171069438 900.799766532428  1026.51818129866 900.762847018429  1025.519300199 900.724750432992  L 1025.48118864805 901.724023923926  C 1026.48085476164 901.762150449213  1027.48056545514 901.799098977988  1028.48031864724 901.834869433327  L 1028.5160750536 900.835508898082  Z M 1032.51216508341 900.972199924839  C 1031.51308959126 900.939596825448  1030.51405286458 900.905816450086  1029.5150569844 900.870858869121  L 1029.48008567102 901.870247185663  C 1030.47986665533 901.905232239556  1031.47968851767 901.939039162667  1032.47954917651 901.971667884614  L 1032.51216508341 900.972199924839  Z M 1036.5086649126 901.096333233796  C 1035.50949190326 901.0668697226  1034.51035395979 901.036228819433  1033.51125316345 901.004410588121  L 1033.47942243296 902.003903862033  C 1034.47930841568 902.035747099073  1035.47923157476 902.066412082714  1036.47918982723 902.095898749078  L 1036.5086649126 901.096333233796  Z M 1040.50553507864 901.207907599227  C 1039.50627441821 901.181583967158  1038.50704512372 901.154082838742  1037.50784927662 901.125404271264  L 1037.47915944332 902.124992633274  C 1038.47914055149 902.153693739039  1039.47915513339 902.181216480402  1040.47920110583 902.20756080003  L 1040.50553507864 901.207907599227  Z M 1044.50224656785 901.306621685431  C 1044.40531832788 901.304469317159  1044.30839033657 901.302305870921  1044.21146259112 901.300131346652  C 1043.30922042686 901.278993674223  1042.40700100594 901.256896120773  1041.50480586041 901.233838723826  L 1041.47925720759 902.233512303721  C 1042.38232681601 902.256592049311  1043.28542072764 902.278710845025  1044.18853740862 902.299868653294  C 1044.28570677347 902.302048636071  1044.38287638785 902.304217494321  1044.4800462493 902.306375227988  L 1044.50224656785 901.306621685431  Z M 1048.49982284477 901.389107280118  C 1047.50039708259 901.370056112947  1046.5009941167 901.349827252353  1045.50161602892 901.328420740473  L 1045.4802011079 902.328191414757  C 1046.48036460019 902.349614749871  1047.48055298956 902.369859508178  1048.48076419372 902.388925647533  L 1048.49982284477 901.389107280118  Z M 1052.49763858226 901.459030754344  C 1051.49815788928 901.443120209126  1050.49869629178 901.426031904665  1049.49925587169 901.407765876558  L 1049.48098266813 902.407598907634  C 1050.4812085415 902.425879290886  1051.48145560897 902.442981024927  1052.48172178689 902.458904074132  L 1052.49763858226 901.459030754344  Z M 1056.49565430477 901.516391417664  C 1055.49612855015 901.503621651504  1054.49661818999 901.489674071911  1053.49712530635 901.474548707941  L 1053.48199400067 902.474434223181  C 1054.48227237862 902.489571474067  1055.48256824749 902.503530014972  1056.48287952225 902.5163098168  L 1056.49565430477 901.516391417664  Z M 1060.4938305348 901.561188703683  C 1059.49426958812 901.551559842673  1058.49472033476 901.540753125672  1057.49518485683 901.52876857519  L 1057.48319559844 902.528696701448  C 1058.48351660436 902.540690670505  1059.48385139659 902.551505880431  1060.48419789127 902.561142308696  L 1060.4938305348 901.561188703683  Z M 1064.49212779323 901.593422170061  C 1063.49254152444 901.586934309279  1062.4929632477 901.579268561577  1061.49339504517 901.570424942922  L 1061.48454795247 902.570385806631  C 1062.4849017087 902.579236375425  1063.48526554712 902.586908147586  1064.48563738382 902.593401107132  L 1064.49212779323 901.593422170061  Z M 1068.49050659978 901.613091498516  C 1067.49090487907 901.609744702025  1066.49130744906 901.605219999315  1065.49171639195 901.599517399812  L 1065.48601155229 902.599501127082  C 1066.48638818086 902.605208208217  1067.48677118801 902.609736466861  1068.48715848856 902.613085893576  L 1068.49050659978 901.613091498516  Z M 1072.48892747335 901.620196494826  C 1071.48932017106 901.619990795674  1070.48971345808 901.618607182635  1069.49010941663 901.616045658592  L 1069.48754688634 902.616042375306  C 1070.48793650967 902.618605912433  1071.48832880667 902.619990612843  1072.48872169339 902.620196473653  L 1072.48892747335 901.620196494826  Z M 1076.48735093242 901.614737088836  C 1075.48774791896 901.617672489053  1074.4881417934 901.619429979348  1073.48853463797 901.620009556059  L 1073.48911444236 902.620009387972  C 1074.48950718211 902.619429355776  1075.48989889123 902.617670484282  1076.49028748575 902.614732777154  L 1076.48735093242 901.614737088836  Z M 1080.48573749545 901.596713334453  C 1079.48614864117 901.602789805054  1078.48655297343 901.607688381328  1077.48695257442 901.61140905307  L 1077.49067470776 902.611402125908  C 1078.49106068598 902.607678530115  1079.49144192865 902.602776104086  1080.49181635308 902.596694858027  L 1080.48573749545 901.596713334453  Z M 1084.48404768127 901.566125409648  C 1083.48448285639 901.575342890633  1082.48490751674 901.583382504517  1081.48532374449 901.590244234551  L 1081.49218817002 902.590220674104  C 1082.49255750822 902.583353551484  1083.49291840723 902.575307619324  1084.49326878316 902.566082894384  L 1084.48404768127 901.566125409648  Z M 1088.48224200945 901.522973616456  C 1087.48271108395 901.535332016809  1086.48316594248 901.546512588916  1085.48360866715 901.556515309487  L 1085.4936153171 902.556465241712  C 1086.49395813755 902.546454660072  1087.49428881465 902.535265301231  1088.49460526456 902.522897188497  L 1088.48224200945 901.522973616456  Z M 1092.48028100071 901.467258380968  C 1091.48079384424 901.482757578659  1090.48128877074 901.49707899859  1089.48176786223 901.510222610929  L 1089.49491663778 902.510136162043  C 1090.49522306283 902.49698222023  1091.49551364048 902.482649545194  1092.49578628697 902.467138166792  L 1092.48028100071 901.467258380968  Z M 1096.47812517732 901.398980253334  C 1095.47869165908 901.417620095319  1094.47923652294 901.43508222166  1093.4797618508 901.451366595983  L 1093.49605262213 902.451233892562  C 1094.49631277447 902.434936720462  1095.49655337551 902.417460870757  1096.49677234161 902.39880637985  L 1096.47812517732 901.398980253334  Z M 1100.47573506345 901.318139907749  C 1099.47636505193 901.339920209977  1098.47696972245 901.360522870294  1097.47755115556 901.379947845809  L 1097.4969837618 902.379759014888  C 1098.49718776459 902.360318773424  1099.49736851238 902.339699921609  1100.49752392165 902.317902502397  L 1100.47573506345 901.318139907749  Z M 1104.4730711856 901.224738142454  C 1103.47377454925 901.249658689852  1102.47444889392 901.273401680725  1101.47509630124 901.295967065616  L 1101.49767055051 902.295712234782  C 1102.49780852745 902.273129115912  1103.49791954592 902.249367465585  1104.49800152255 902.224427333302  L 1104.4730711856 901.224738142454  Z M 1108.47009407295 901.118775879723  C 1107.47088067891 901.146836426223  1106.47163456576 901.1737195132  1105.47235781496 901.199425084654  L 1105.49807348435 902.199094382146  C 1106.49813555981 902.173368608861  1107.4981669736 902.146464394652  1108.4981656425 902.118381795563  L 1108.47009407295 901.118775879723  Z M 1112.4667642578 901.000254165858  C 1111.46764397238 901.031454434389  1110.46848726865 901.061477352005  1109.46929622666 901.090322856204  L 1109.49815306225 902.089906411011  C 1110.49812936154 902.06103823733  1111.49807129564 902.03099172491  1112.49797678276 901.999766936304  L 1112.4667642578 901.000254165858  Z M 1116.46304227593 900.869174171174  C 1115.46402496512 900.903513853643  1114.46496753593 900.936676305469  1113.46587206946 900.968661457573  L 1113.49786978631 901.968149399529  C 1114.49775043498 901.936139110516  1115.49759301651 901.902950596548  1116.49739544808 901.868583926761  L 1116.46304227593 900.869174171174  Z M 1120.45888866697 900.725537189992  C 1119.45998419514 900.763015947326  1118.46103590588 900.799317605894  1117.46204588006 900.834442090079  L 1117.49718416222 901.833824549964  C 1118.49695928737 901.798672461691  1119.4966926432 901.7623422739  1120.49638214711 901.724834062271  L 1120.45888866697 900.725537189992  Z M 1124.45426397483 900.569344640623  C 1123.45548220544 900.609962102746  1122.45665292001 900.649402609603  1121.45777819914 900.68766607904  L 1121.49605669964 901.686933188675  C 1122.49571642922 901.648639648244  1123.4953306877 901.609168145364  1124.49489739275 901.568518762259  L 1124.45426397483 900.569344640623  Z M 1128.44912874807 900.400598065355  C 1127.45047954338 900.444353831199  1126.45177912448 900.4869327969  1125.45302957173 900.528334873764  L 1125.4944479126 901.52747676611  C 1126.49398237569 901.486042151641  1127.49346766636 901.443429723424  1128.49290170253 901.399639570228  L 1128.44912874807 900.400598065355  Z M 1132.44344354029 900.21929913044  C 1131.44493676122 900.266192767948  1130.44637507031 900.311909772056  1129.44776054761 900.356450047532  L 1129.49231831988 901.355456856783  C 1130.4917176468 901.310881577414  1131.49106410045 901.265128644629  1132.49035559907 901.218198153736  L 1132.44344354029 900.21929913044  Z M 1136.43716891052 900.025449626072  C 1135.43881441661 900.075480672205  1134.44040131376 900.124335263297  1133.4419316817 900.172013297581  L 1133.48962844539 901.170875159269  C 1134.48888276779 901.123159655148  1135.48808051662 901.07426666957  1136.48721961039 901.024196304386  L 1136.43716891052 900.025449626072  Z M 1140.43026542361 899.819051466376  C 1139.43207307289 899.872219427112  1138.4338184167 899.924211122784  1137.43550353445 899.975026445092  L 1137.48633881859 900.973733496177  C 1138.48543826956 900.922878238461  1139.4844774472 900.870845682873  1140.48345427036 900.817635937806  L 1140.43026542361 899.819051466376  Z M 1144.42269365062 899.600106689384  C 1143.42467329951 899.656411039728  1142.42658694703 899.711539326601  1141.42843667223 899.765491435167  L 1141.48240997485 900.76403381414  C 1142.48134468901 900.710039304986  1143.48021543067 900.654867693173  1144.47902011904 900.598519093631  L 1144.42269365062 899.600106689384  Z M 1148.4144141692 899.368617457018  C 1147.41657567223 899.428057641017  1146.41866747925 899.486321974714  1145.42069166771 899.543410336812  L 1145.47780245586 900.541778183788  C 1146.47656256945 900.484644956355  1147.47525501201 900.426334833096  1148.47387770312 900.366847935481  L 1148.4144141692 899.368617457018  Z M 1152.405387564 899.124586055065  C 1151.40774077452 899.187161485767  1150.41002059383 899.248561291018  1149.41222910025 899.308785342918  L 1149.47247681002 900.306968799738  C 1150.471052461 900.246697418173  1151.46955674309 900.185249359239  1152.46798757626 900.122624750941  L 1152.405387564 899.124586055065  Z M 1156.39557442704 898.868014893161  C 1155.39812919588 898.933724952691  1154.40060687968 898.998259623192  1153.40300955632 899.061618770237  L 1153.46639359279 900.05960798056  C 1154.46477492096 899.996199040002  1155.46308118307 899.931613652147  1156.46131029951 899.865851951538  L 1156.39557442704 898.868014893161  Z M 1160.38493535813 898.598906504759  C 1159.38770153434 898.667750544277  1158.39038693242 898.735419442797  1157.39299362983 898.801913059361  L 1157.45951336714 899.799698168765  C 1158.45769051419 899.73315229533  1159.45578889878 899.665430216289  1160.4538064417 899.596532072719  L 1160.38493535813 898.598906504759  Z M 1164.37343096519 898.317263547111  C 1163.37641839573 898.389240886832  1162.37932135586 898.460043345188  1161.38214192259 898.529670774695  L 1161.45179670389 899.527241930774  C 1162.44975981356 899.457559781554  1163.44764046512 899.386701680034  1164.44543657983 899.314667773821  L 1164.37343096519 898.317263547111  Z M 1168.36102186472 898.023088801236  C 1167.36424039438 898.098198730436  1166.36737076217 898.172134049506  1165.37041504463 898.244894604436  L 1165.44320418215 899.242241956896  C 1166.44094340047 899.169424219937  1167.43859646523 899.09543079564  1168.43616129942 899.020261838053  L 1168.36102186472 898.023088801236  Z M 1172.34766868215 897.716385171898  C 1171.35112815341 897.794626948921  1170.35449577223 897.871694398647  1169.35777361465 897.947587360541  L 1169.43369638963 898.944701061298  C 1170.43120186424 898.868748455652  1171.42861749194 898.791620439149  1172.42594119495 898.713317172458  L 1172.34766868215 897.716385171898  Z M 1176.33333205222 897.397155687574  C 1175.33704230521 897.478528539838  1174.34065701608 897.558727359234  1173.34417826035 897.637751978704  L 1173.42323392313 898.634622181982  C 1174.42049580459 898.555535457613  1175.41766414604 898.475273610517  1176.41473687025 898.393836807894  L 1176.33333205222 897.397155687574  Z M 1180.31797261938 897.065403500423  C 1179.32194349173 897.149906624431  1178.32581513324 897.233236021592  1177.32958961889 897.315391518328  L 1177.41177738883 898.312008380753  C 1178.4087858299 898.229788318584  1179.4056970388 898.146393433424  1180.40250893882 898.061823898998  L 1180.31797261938 897.065403500423  Z M 1184.30155103819 896.721131886259  C 1183.30579236498 896.808764447603  1182.30993077317 896.895223599712  1181.3139683372 896.980509162487  L 1181.39928740277 897.97686284319  C 1182.3960325587 897.891510255083  1183.39267679127 897.804983155323  1184.38921802431 897.717281724158  L 1184.30155103819 896.721131886259  Z M 1188.2840279737 896.364344244515  C 1187.28854958732 896.455105377887  1186.2929645956 896.544693431222  1185.29727507242 896.633108217903  L 1185.38572459115 897.62918887861  C 1186.38219661982 897.540704607363  1187.37856403491 897.451046147395  1188.37482476084 897.360213685478  L 1188.2840279737 896.364344244515  Z M 1192.26536410182 895.995044098211  C 1191.2701758319 896.08893290741  1190.27487727097 896.181648977354  1189.27947049228 896.273192114908  L 1189.3710495908 897.268989920045  C 1190.36723865276 897.177374839374  1191.36331941197 897.084585904511  1192.35928979344 896.990623308748  L 1192.26536410182 895.995044098211  Z M 1196.24552010975 895.613235093918  C 1195.25063178305 895.710250651861  1194.25562948074 895.806093822909  1193.26051527548 895.900764407416  L 1193.35522304951 896.896269524197  C 1194.35111930832 896.801524538717  1195.34690357566 896.705606045221  1196.34257377839 896.608514243405  L 1196.24552010975 895.613235093918  Z M 1200.22445669631 895.218921001725  C 1199.22987813663 895.319062350454  1198.23518191789 895.418031676224  1197.24037011208 895.515828772878  L 1197.33820562645 896.511031371412  C 1198.33379924794 896.413157416699  1199.32927719158 896.314110311618  1200.32463738364 896.213890262499  L 1200.22445669631 895.218921001725  Z M 1204.20213457238 894.812105715199  C 1203.20787560047 894.915371865889  1202.2134952872 895.017466369131  1201.21899570389 895.118389012257  L 1201.31995799254 896.113279265637  C 1202.31523914616 896.012277308106  1203.31040093607 895.910102569498  1204.30544128919 895.806755262658  L 1204.20213457238 894.812105715199  Z M 1208.17851446127 894.392793251345  C 1207.18458489473 894.499183184318  1206.1905303057 894.604401856923  1205.19635276487 894.708449049983  L 1205.30044083087 895.703017134388  C 1206.29539968893 895.598888171361  1207.2902354986 895.493586808127  1208.28494618749 895.387113264044  L 1208.17851446127 894.392793251345  Z M 1212.15355709912 893.960987750571  C 1211.15996675227 894.070500415304  1210.16624770306 894.178842218313  1209.17240202148 894.286012933917  L 1209.27961483704 895.280249028705  C 1210.27424157505 895.17299408838  1211.26874158119 895.064567140295  1212.2631127838 894.95496841032  L 1212.15355709912 893.960987750571  Z M 1216.12722323523 893.516693476645  C 1215.13398191906 893.629327791779  1214.14060822194 893.740791655395  1213.14710421311 893.85108483531  L 1213.25744071959 894.844979123118  C 1214.25172551631 894.73459926456  1215.24587989897 894.623047802262  1216.23990179659 894.510324968603  L 1216.12722323523 893.516693476645  Z M 1220.09947363254 893.059914816651  C 1219.10659115459 893.175669670003  1218.1135726184 893.290254493602  1217.12042009247 893.403669048761  L 1217.23387920036 894.397211715604  C 1218.22781223817 894.28370802871  1219.22161118037 894.169033153736  1220.21527395797 894.053187329425  L 1220.09947363254 893.059914816651  Z M 1224.07026906794 892.590656280948  C 1223.07775523222 892.709530529524  1222.08510166229 892.827235181662  1221.09231042591 892.943769992179  L 1221.20889101489 893.93695122754  C 1222.20246247901 893.820324833125  1223.19589616853 893.702527677712  1224.18919001399 893.58356000669  L 1224.07026906794 892.590656280948  Z M 1228.03957033271 892.108922503125  C 1227.04743493955 892.230914973126  1226.05515613763 892.351738291557  1225.0627359939 892.471392206735  L 1225.18243691283 893.464202203667  C 1226.17563699286 893.344454253284  1227.16869561943 893.223535980691  1228.16161072511 893.101447637629  L 1228.03957033271 892.108922503125  Z M 1232.00733823285 891.614718239955  C 1231.01559107889 891.739827726795  1230.02369684301 891.863768518473  1229.03165759136 891.986540356817  L 1229.15447765827 892.97896931204  C 1230.14729654667 892.856100988162  1231.13997030539 892.73206279227  1232.13249686655 892.606854982753  L 1232.00733823285 891.614718239955  Z M 1235.97353358954 891.108048371347  C 1234.98218446756 891.236273639659  1233.99068459195 891.363330680761  1232.99903602806 891.489219229986  L 1233.12497403019 892.481257343982  C 1234.11740192379 892.35526985982  1235.10968101232 892.228112965466  1236.10180922869 892.099786925806  L 1235.97353358954 891.108048371347  Z M 1239.93811723946 890.588917900299  C 1238.94717593831 890.720257683953  1237.95608021332 890.850429719881  1236.964832129 890.97943373693  L 1237.0938868228 891.97107121404  C 1238.08591392211 891.84196581363  1239.07778854239 891.711691476396  1240.06950861742 891.580248473719  L 1239.93811723946 890.588917900299  Z M 1243.90105003521 890.057331952851  C 1242.91052633972 890.19178495496  1241.91984455171 890.32507070036  1240.92900673481 890.457188911411  L 1241.06117684597 891.448415959931  C 1242.05279335563 891.316193918068  1243.04425371322 891.182803424375  1244.0355558546 891.048244756558  L 1243.90105003521 890.057331952851  Z M 1247.86229284569 889.513295778028  C 1246.87219653658 889.650860670966  1245.88193846781 889.787258809738  1244.89152070214 889.92248991022  L 1245.02680492557 890.9132967425  C 1246.01800105368 890.777959364836  1247.00903735943 890.641454031707  1247.99991177836 890.503781027475  L 1247.86229284569 889.513295778028  Z M 1251.82180655651 888.956814747795  C 1250.83214741025 889.097490173209  1249.84232283881 889.236999358519  1248.85233490403 889.375342013122  L 1248.99073190389 890.365718845661  C 1249.98149786331 890.227267468527  1250.97210033106 890.08764864391  1251.96253724357 889.946862662656  L 1251.82180655651 888.956814747795  Z M 1255.77955207032 888.387894356999  C 1254.79033985909 888.531678925821  1253.80095855877 888.674297780117  1252.81141023029 888.815750622807  L 1252.95291864002 889.80568767635  C 1253.94324464785 889.664123666824  1254.9334034957 889.521392729413  1255.92339312215 889.377495161268  L 1255.77955207032 888.387894356999  Z M 1259.73549030725 887.806540223319  C 1258.74673479879 887.953432515778  1257.75780653902 888.099159630803  1256.76870758793 888.243721264836  L 1256.91332601023 889.233208764471  C 1257.90320228752 889.088533520424  1258.89290773878 888.942691879524  1259.88244030353 888.795684145402  L 1259.73549030725 887.806540223319  Z M 1263.68958220527 887.212758087204  C 1262.70129316284 887.362756652848  1261.71282770857 887.511590589651  1260.72418790149 887.659259587585  L 1260.87191490836 888.648287762837  C 1261.86133168059 888.500502712863  1262.85057396304 888.351551808496  1263.83963969497 888.201435360021  L 1263.68958220527 887.212758087204  Z M 1267.64178872058 886.606553811826  C 1266.65397590281 886.759657169525  1265.66598301443 886.911596458479  1264.67781211347 887.06237136219  L 1264.82864624621 888.050930447122  C 1265.81759374382 887.900037050461  1266.806363089 887.747978353468  1267.794952222 887.594754672903  L 1267.64178872058 886.606553811826  Z M 1271.592070828 885.987933383012  C 1270.60474398884 886.144140020983  1269.61723342205 886.299183161797  1268.62954118468 886.453062482491  L 1268.78348095392 887.441142715796  C 1269.77194941175 887.287142462412  1270.76023605628 887.131977474264  1271.74833882875 886.975648074581  L 1271.592070828 885.987933383012  Z M 1275.54038952136 885.356902909192  C 1274.55355840993 885.516211285007  1273.56653991569 885.674356746742  1272.57933609467 885.831338964973  L 1272.73637998035 886.818930590074  C 1273.7243596378 886.66182500064  1274.71215382347 886.503555253412  1275.69976047841 886.344121678285  L 1275.54038952136 885.356902909192  Z M 1279.48670581384 884.713468621336  C 1278.5003801744 884.875877161939  1277.51386349881 885.037123383024  1276.52715784205 885.197206948705  L 1276.68730429349 886.184300213849  C 1277.67478539537 886.024090839605  1278.66207736761 885.862717896228  1279.64917815353 885.70018171988  L 1279.48670581384 884.713468621336  Z M 1283.43098073845 884.057636872892  C 1282.44517031024 884.223143974617  1281.45916519444 884.387489362861  1280.47296744494 884.550672695284  L 1280.63621488081 885.537257853637  C 1281.62318767626 885.373946276567  1282.60996768669 885.209471730416  1283.59655285647 885.04383455781  L 1283.43098073845 884.057636872892  Z M 1287.37317534832 883.389414139725  C 1286.38788986551 883.558018168308  1285.40240604558 883.725461100919  1284.41672594134 883.891742588766  L 1284.58307274968 884.877809898515  C 1285.56952749306 884.711397731202  1286.55578579793 884.543823206345  1287.54184560976 884.375086673027  L 1287.37317534832 883.389414139725  Z M 1291.31325071711 882.70880702005  C 1290.32849990869 882.880506310649  1289.34354711557 883.05104513425  1288.35839438947 883.220423135611  L 1288.52783892772 884.205962860054  C 1289.51376587851 884.036451745698  1290.49949273923 883.865778896812  1291.48501745648 883.693944668932  L 1291.31325071711 882.70880702005  Z M 1295.25116793945 882.015822234371  C 1294.26696152911 882.19061509158  1293.2825494885 882.364248122223  1292.2979338682 882.536720964612  L 1292.47047446324 883.521723372256  C 1293.45586388611 883.349114984658  1294.44104956935 883.175345497014  1295.42602946068 883.000415271312  L 1295.25116793945 882.015822234371  Z M 1299.18628992108 881.308322120342  C 1298.20267069009 881.486627505369  1297.21886432165 881.663899000823  1296.23487244581 881.840136312983  L 1296.41117150855 882.824472962955  C 1297.39585311396 882.648112117167  1298.38034908195 882.470716363173  1299.3646577813 882.292285994902  L 1299.18628992108 881.308322120342  Z M 1303.1197618164 880.589587769361  C 1302.13664620634 880.770649357622  1301.15334056115 880.950677584994  1300.16984651128 881.129672152967  L 1300.34890379596 882.113510802747  C 1301.33308722665 881.934390768411  1302.31708212 881.75423635024  1303.30088684562 881.573047846736  L 1303.1197618164 880.589587769361  Z M 1307.05120378137 879.859831443861  C 1306.06859951498 880.043647813048  1305.0858023185 880.226431357925  1304.10281382032 880.408181775639  L 1304.28462792031 881.391514696396  C 1305.26830544475 881.20963688064  1306.2517915334 881.026725213549  1307.23508455671 880.842779998192  L 1307.05120378137 879.859831443861  Z M 1310.9805849314 879.119058876654  C 1309.99849972823 879.305628582668  1309.0162187003 879.491166009292  1308.03374347636 879.675670848879  L 1308.21831296336 880.658490315753  C 1309.20147685378 880.473856147411  1310.18444641207 880.288188668239  1311.16722000833 880.101488186102  L 1310.9805849314 879.119058876654  Z M 1314.90787439809 878.367275887098  C 1313.92631597279 878.556597464363  1312.94455883081 878.744887315036  1311.96260459883 878.932145127141  L 1312.14992802291 879.914443419307  C 1313.13257055617 879.72705434875  1314.11501586129 879.538632516215  1315.09726231044 879.3491782339  L 1314.90787439809 878.367275887098  Z M 1318.83304132947 877.604488381043  C 1317.85201739315 877.796560342249  1316.87079184921 877.987601137883  1315.88936632341 878.177610451409  L 1316.07944221299 879.159379852134  C 1317.06155566947 878.969237351489  1318.04346900394 878.778062645718  1319.02518058945 878.58585605158  L 1318.83304132947 877.604488381043  Z M 1322.75605489023 876.830702350789  C 1321.77557314983 877.025523187019  1320.79488691181 877.219313426916  1319.81399780229 877.41207274915  L 1320.00682466417 878.393305545858  C 1320.98840132838 878.200411108886  1321.96977497889 878.006485031627  1322.95094398843 877.811527635639  L 1322.75605489023 876.830702350789  Z M 1326.676884262 876.045923875039  C 1325.69695241957 876.243492055901  1324.71681319236 876.440030217526  1323.73646820436 876.635538034269  L 1323.93204452374 877.616226518599  C 1324.91307668502 877.420581660559  1325.8939029413 877.223905735415  1326.87452166742 877.026199069043  L 1326.676884262 876.045923875039  Z M 1330.59549864356 875.25015911885  C 1329.61612439744 875.45047309225  1328.6365398804 875.649757631718  1327.65674671552 875.848012407063  L 1327.85507095599 876.82814887493  C 1328.83555090736 876.629755132807  1329.81582206463 876.430330904743  1330.79588280359 876.229876521169  L 1330.59549864356 875.25015911885  Z M 1334.51186725108 874.443414333584  C 1333.53305829504 874.646472525896  1332.55403618359 874.848501877672  1331.57480253886 875.04950205417  L 1331.77587314243 876.029078805824  C 1332.75579318123 875.827937738199  1333.73550153911 875.625766773768  1334.71499659156 875.422566247762  L 1334.51186725108 874.443414333584  Z M 1338.42595931839 873.625695856862  C 1337.44772334174 873.831496672903  1336.46927132687 874.036269249885  1335.49060489497 874.24001324852  L 1335.69442028206 875.21902258861  C 1336.67377271046 875.015135775565  1337.65291057214 874.810219663062  1338.63183224357 874.604274590884  L 1338.42595931839 873.625695856862  Z M 1342.33774409719 872.797010112509  C 1341.36008878495 873.005551935508  1340.38221455278 873.21306612913  1339.4041230221 873.419552349289  L 1339.61068159159 874.397986586922  C 1340.58945871598 874.19135563015  1341.56801838958 873.983695979353  1342.54635898977 873.775007978864  L 1342.33774409719 872.797010112509  Z M 1346.24719085732 871.957363610509  C 1345.27012388934 872.168644802292  1344.29283512264 872.378898982194  1343.31532617647 872.58812580185  L 1343.52462630567 873.565977250648  C 1344.502820437 873.356603773398  1345.48079423514 873.146202215639  1346.45854607846 872.934772926249  L 1346.24719085732 871.957363610509  Z M 1350.15426888696 871.106762946952  C 1349.17779793909 871.320781847692  1348.20110231484 871.533774362248  1347.22418363248 871.745740137715  L 1347.43622367718 872.723001115881  C 1348.41382713094 872.510886762948  1349.39120737087 872.297744951097  1350.36836277631 872.083576033751  L 1350.15426888696 871.106762946952  Z M 1354.05894749292 870.245214803978  C 1353.08308023611 870.461969732389  1352.10698542703 870.677698908373  1351.13066468296 870.892401974492  L 1351.34544297741 871.869064804866  C 1352.32244807376 871.654211242576  1353.29922707738 871.438330851032  1354.2757783686 871.221423988197  L 1354.05894749292 870.245214803978  Z M 1357.96119600087 869.372725949732  C 1356.98594010133 869.592215203031  1356.01045377541 869.81067934572  1355.0347386394 870.028118015829  L 1355.25225349635 871.00417502595  C 1356.22865256034 870.786583942104  1357.20482265387 870.567966666868  1358.1807621595 870.348323562473  L 1357.96119600087 869.372725949732  Z M 1361.86098375554 868.489303238304  C 1360.88634687488 868.711525092184  1359.91147669494 868.932722485461  1358.93637483221 869.15289505136  L 1359.1566245429 870.128338573528  C 1360.13240990375 869.908011677565  1361.10796341941 869.686659235868  1362.08328347225 869.464281615475  L 1361.86098375554 868.489303238304  Z M 1365.75828012101 867.594953609682  C 1364.78426991537 867.819906318505  1363.8100235406 868.043835224505  1362.83554261093 868.266739956656  L 1363.05852544514 869.241562327988  C 1364.03368943768 869.01850135066  1365.00861871091 868.794415481585  1365.98331164947 868.569305092054  L 1365.75828012101 867.594953609682  Z M 1369.65305448094 866.689684089688  C 1368.67967860214 866.917365886228  1367.70606368561 867.144024545904  1366.73221134453 867.369659693168  L 1366.95792555054 868.343853255662  C 1367.93246051368 868.118059949382  1368.90675788646 867.891242413115  1369.88081605334 867.66340102296  L 1369.65305448094 866.689684089688  Z M 1373.54527623877 865.773501789934  C 1372.57254233346 866.003910885568  1371.59956652369 866.233297518337  1370.62635042158 866.461661308171  L 1370.85479422623 867.435218408765  C 1371.82869250462 867.206694547225  1372.80235032226 866.977147125785  1373.77576606587 866.746576524786  L 1373.54527623877 865.773501789934  Z M 1377.43491481803 864.846413907757  C 1376.462830528 865.079548492392  1375.49050146808 865.311661296335  1374.51792925053 865.542751934713  L 1374.74910085921 866.515664925344  C 1375.72235480192 866.284412303826  1376.69536541596 866.052136800397  1377.66813108914 865.818838799916  L 1377.43491481803 864.846413907757  Z M 1381.32193966253 863.908427726166  C 1380.35051262386 864.144285968442  1379.37883795301 864.379123119938  1378.40691725994 864.612938791555  L 1378.64081485662 865.58520002922  C 1379.61341681776 865.351220464447  1380.58577258484 865.116218703638  1381.55788054555 864.880195136465  L 1381.32193966253 863.908427726166  Z M 1385.20632023659 862.959550613788  C 1384.23555808082 863.198130660802  1383.26454543192 863.435690315115  1382.29328389874 863.672229183116  L 1382.52990564597 864.643831029933  C 1383.50184798537 864.407126359901  1384.47354126606 864.169400188034  1385.44498387802 863.930652908223  L 1385.20632023659 862.959550613788  Z M 1389.08802602533 861.999790024803  C 1388.11793637877 862.241090002271  1387.14759337948 862.48137029328  1386.17699863643 862.720630499415  L 1386.41634267535 863.691565322683  C 1387.38761775725 863.452137406993  1388.35864091893 863.211688691397  1389.32941055029 862.970219574596  L 1389.08802602533 861.999790024803  Z M 1392.96702653489 861.029153498891  C 1391.99761701816 861.273171511259  1391.0279512917 861.516170551276  1390.05803096335 861.758150216015  L 1390.30009541373 862.72841038827  C 1391.27069560839 862.486261107719  1392.24104102211 862.243091737509  1393.2111300471 861.99890268055  L 1392.96702653489 861.029153498891  Z M 1396.84329129263 860.047648661173  C 1395.874569521 860.294382791537  1394.90558868527 860.540098671508  1393.93635039092 860.784795893961  L 1394.18113335115 861.75437379304  C 1395.15105103334 861.509505050004  1396.12071107706 861.263616935266  1397.09011187446 861.016709856548  L 1396.84329129263 860.047648661173  Z M 1400.71678984742 859.055283222145  C 1399.74876343138 859.304731532111  1398.78047509768 859.553162321948  1397.81192645187 859.800575179722  L 1398.05942599899 860.769463188823  C 1399.02865354963 860.521876906837  1399.9976206051 860.273271979422  1400.96632555991 860.023648818493  L 1400.71678984742 859.055283222145  Z M 1404.58749176986 858.052064977625  C 1403.62016831363 858.304225507683  1402.65258008944 858.555369255558  1401.68472870048 858.805495805132  L 1401.93494289017 859.773686312871  C 1402.90347269482 859.523384437026  1403.87173915084 859.272064649715  1404.83974065271 859.019727367667  L 1404.58749176986 858.052064977625  Z M 1408.45536665253 857.038001808688  C 1407.48875375538 857.292872577865  1406.52187324147 857.546727310948  1405.55472671281 857.799565587328  L 1405.80765357945 858.767050987802  C 1406.77547802973 858.514035484365  1407.74303627941 858.260002811578  1408.71032672412 858.004953390669  L 1408.45536665253 857.038001808688  Z M 1412.32038411019 856.013101681603  C 1411.35448936585 856.270680687633  1410.38832415743 856.527244411801  1409.42189008697 856.78279242869  L 1409.67752764362 857.749565121534  C 1410.6446391367 857.493837978089  1411.61148157869 857.23709441556  1412.57805336761 856.979334859351  L 1412.32038411019 856.013101681603  Z M 1416.18251378008 854.977372647772  C 1415.21734477621 855.237657867222  1414.25190246368 855.496928566857  1413.28618844332 855.755184316775  L 1413.54453468174 856.721236707224  C 1414.51092562 856.462799932763  1415.47704465939 856.203347497312  1416.44289019913 855.942879830761  L 1416.18251378008 854.977372647772  Z M 1420.0417253221 853.930822843669  C 1419.07728964067 854.193812231845  1418.11257780874 854.455787870064  1417.14759142473 854.71674932426  L 1417.40864431541 855.682073823207  C 1418.37430710689 855.42092944801  1419.33969515445 855.158770177732  1420.30480685732 854.895596447075  L 1420.0417253221 853.930822843669  Z M 1423.8979884191 852.873460490771  C 1422.93429363671 853.13915198163  1421.97031986356 853.403830500513  1421.00606869683 853.667495608876  L 1421.26982618899 854.632084632931  C 1422.23475324783 854.36823470844  1423.19940271927 854.103370662912  1424.16377300377 853.837492935532  L 1423.8979884191 852.873460490771  Z M 1427.75127277705 851.805293895498  C 1426.7883264643 852.073685401823  1425.8250983227 852.34106472211  1424.86158994822 852.607431413341  L 1425.12804996984 853.571277384893  C 1426.09223371598 853.304723983804  1427.05613703281 853.037157243853  1428.01975832323 852.768577608375  L 1427.75127277705 851.805293895498  Z M 1431.60154812538 850.726331449144  C 1430.63935784697 850.997420862507  1429.67688290384 851.267498883722  1428.71412489072 851.5365650653  L 1428.98328534854 852.499660412575  C 1429.94671820735 852.230405628931  1430.90986779775 851.960138296396  1431.87273252389 851.688858862781  L 1431.60154812538 850.726331449144  Z M 1435.4487842171 849.636581627816  C 1434.4873575318 849.910366818594  1433.52564334815 850.18314141906  1432.56364325961 850.454904977256  L 1432.83550203917 851.417242134378  C 1433.79817644212 851.145288083387  1434.76056473979 850.872322281433  1435.72266533759 850.598345180796  L 1435.4487842171 849.636581627816  Z M 1439.29295082914 848.53605299236  C 1438.33229528971 848.812531809754  1437.37134942057 849.08800084661  1436.41011481389 849.362459646507  L 1436.68466977952 850.324031053554  C 1437.64657816384 850.049379871689  1438.60819760886 849.773717744564  1439.56952652004 849.49704512927  L 1439.29295082914 848.53605299236  Z M 1443.13401776251 847.424754188302  C 1442.17414091567 847.703924460352  1441.21397091002 847.982085769571  1440.25350933647 848.259237655077  L 1440.53075833132 849.220035758143  C 1441.49189314066 848.94268960295  1442.45273617833 848.664333316312  1443.41328585111 848.384967359786  L 1443.13401776251 847.424754188302  Z M 1446.9719548426 846.302693945775  C 1446.01286422913 846.584553479319  1445.05347762948 846.865404875839  1444.09379663444 847.145247669648  L 1444.37373748049 848.105264920904  C 1445.33409116458 847.825225971099  1446.29415024633 847.544177711772  1447.25391313502 847.262120608597  L 1446.9719548426 846.302693945775  Z M 1450.80673191936 845.169881079451  C 1449.84843507328 845.454427660375  1448.88983941717 845.737966937654  1447.93094653929 846.020498441495  L 1448.2135770374 846.979727299244  C 1449.17314205149 846.69699775487  1450.1324096361 846.41325973048  1451.0913782006 846.128513696555  L 1450.80673191936 845.169881079451  Z M 1454.63831886758 844.026324488473  C 1453.68082331728 844.31355588138  1452.72302613483 844.599780812108  1451.76492890718 844.884998806415  L 1452.05024683705 845.843431735154  C 1453.00901564341 845.558013817159  1453.96748419426 845.271588256927  1454.92565090151 844.98415552904  L 1454.63831886758 844.026324488473  Z M 1458.46668558711 842.872033156383  C 1457.50999885448 843.161947104843  1456.55300766994 843.450855440497  1455.59571361913 843.738757684656  L 1455.88371673938 844.696387155135  C 1456.8416818057 844.408283105822  1457.79934379407 844.119172259611  1458.75670111652 843.829055095892  L 1458.46668558711 842.872033156383  Z M 1462.29180200309 841.707016151056  C 1461.33593160366 841.999610377565  1460.37975393497 842.291199848541  1459.4232705813 842.581784080852  L 1459.71395662942 843.538602570132  C 1460.67111043054 843.247814652667  1461.62795833243 842.95602079191  1462.58449874968 842.66322147134  L 1462.29180200309 841.707016151056  Z M 1466.11363806621 840.531282624623  C 1465.15859150909 840.826554830622  1464.20323486778 841.120823146253  1463.24756972519 841.414087083946  L 1463.54093641762 842.370087075461  C 1464.49727143414 842.076617574272  1465.45329773315 841.782142991122  1466.40901373061 841.486663813932  L 1466.11363806621 840.531282624623  Z M 1469.93216375292 839.344841813403  C 1468.97794854076 839.642789679294  1468.02342043191 839.939734527869  1467.06858100791 840.235675867125  L 1467.36462604001 841.190849850735  C 1468.32013475896 840.89470107132  1469.27533194515 840.597548078987  1470.23021601471 840.29939136646  L 1469.93216375292 839.344841813403  Z M 1473.74734906566 838.147703037829  C 1472.79397269458 838.448324222995  1471.84028061676 838.747943271778  1470.88627441237 839.046559687741  L 1471.18499545848 840.0009001598  C 1472.13967037397 839.702074428519  1473.09403094272 839.402245361619  1474.04807558341 839.101413455891  L 1473.74734906566 838.147703037829  Z M 1477.55916403314 836.939875702373  C 1476.60663399266 837.243167845198  1475.65378543789 837.545458740443  1474.70061994757 837.846747887246  L 1475.00201466101 838.800247350651  C 1475.95584827292 838.498747015141  1476.90936472775 838.196244228822  1477.86256244441 837.892739493289  L 1477.55916403314 836.939875702373  Z M 1481.36757871052 835.721369295478  C 1480.41590248353 836.027330013361  1479.46390493718 836.332290380334  1478.51158764881 836.636249891111  L 1478.81565366187 837.58890085537  C 1479.76863847749 837.28472828403  1480.72130332698 836.97955415494  1481.67364663187 836.673378973748  L 1481.36757871052 835.721369295478  Z M 1485.1725631797 834.492193389477  C 1484.22174824236 834.800820278854  1483.27060918312 835.108447721849  1482.31914757792 835.415075208758  L 1482.62588250192 836.366870190041  C 1483.57801103439 836.060027772514  1484.5298167954 835.752184697787  1485.48129820672 835.44334147631  L 1485.1725631797 834.492193389477  Z M 1488.97408754949 833.25235764052  C 1488.02414137141 833.563648276818  1487.07386827085 833.873940379306  1486.12326982349 834.183233433481  L 1486.43267124879 835.134164954686  C 1487.38393601878 834.824655101335  1488.33487521334 834.514145499575  1489.28548725684 834.202636663895  L 1488.97408754949 833.25235764052  Z M 1492.77212195592 832.0018717885  C 1491.82305199929 832.315823726413  1490.87365232334 832.628778050548  1489.92392450113 832.940734242374  L 1490.23598999713 833.890794833179  C 1491.18638353132 833.578619975578  1492.13644868982 833.265446285828  1493.08618389729 832.951274283221  L 1492.77212195592 832.0018717885  Z M 1496.56663656242 830.740745656975  C 1495.61845028313 831.057356430097  1494.66993148968 831.372970517502  1493.72108175368 831.687587396253  L 1494.03580886887 832.636769593179  C 1494.98532370135 832.321932183644  1495.93450735989 832.006096866261  1496.88335827061 831.689264164734  L 1496.56663656242 830.740745656975  Z M 1500.35760156007 829.468989153089  C 1499.41030640706 829.788256274125  1498.46267594709 830.106527645534  1497.51471175147 830.423802739578  L 1497.83209801341 831.372099086048  C 1498.78072668499 831.054601597877  1499.72902138698 830.736107133996  1500.67698054698 830.41661622252  L 1500.35760156007 829.468989153089  Z M 1504.14498716783 828.186612267497  C 1503.19859058266 828.508533228418  1502.25185590095 828.829459383426  1501.30478469252 829.149390200382  L 1501.62482760789 830.096793246776  C 1502.57256266634 829.776638174162  1503.51996096218 829.455487065811  1504.46702092448 829.13334045424  L 1504.14498716783 828.186612267497  Z M 1507.92876363278 826.893625074287  C 1506.98327304996 827.218197346215  1506.03744158426 827.541775763558  1505.09127080281 827.864359790183  L 1505.41396785743 828.810862093899  C 1506.36080185773 828.488051951848  1507.30729630446 828.164246722057  1508.25344962935 827.839446941042  L 1507.92876363278 826.893625074287  Z M 1511.70890123037 825.590037730898  C 1510.76432407786 825.917258763925  1509.81940325763 826.243486901908  1508.87414033648 826.568721603914  L 1509.19948899531 827.514315729426  C 1510.14541449914 827.188853053934  1511.09099766169 826.862396246316  1512.03623691619 826.534945847483  L 1511.70890123037 825.590037730898  Z M 1515.48537026462 824.27586047804  C 1514.54171396244 824.605727701723  1513.59771121156 824.934602997293  1512.65336357611 825.26248581984  L 1512.98136128326 826.207164338757  C 1513.92637085964 825.879051686591  1514.87103530969 825.549945865723  1515.8153530682 825.219847421454  L 1515.48537026462 824.27586047804  Z M 1519.25814106836 822.951103639619  C 1518.31541302987 823.28361446252  1517.37233576386 823.615134332237  1516.4289108329 823.945662699477  L 1516.7595550117 824.889418190601  C 1517.70364123681 824.558658139346  1518.64737955329 824.226905890616  1519.59076839744 823.894161994096  L 1519.25814106836 822.951103639619  Z M 1523.02718400351 821.615777622648  C 1522.08539163478 821.950929432563  1521.14324726185 822.285091272214  1520.20075244693 822.618262587516  L 1520.5340404999 823.561087636899  C 1521.47719595701 823.227682785007  1522.42000072649 822.893286714453  1523.36245324503 822.557899979718  L 1523.02718400351 821.615777622648  Z M 1526.79246946123 820.269892917172  C 1525.85162016058 820.607683081286  1524.91041608243 820.944484265628  1523.96885878739 821.280295911736  L 1524.3047880963 822.222183112741  C 1525.24700537656 821.886136079232  1526.18886919178 821.549098814076  1527.13037798138 821.211071875717  L 1526.79246946123 820.269892917172  Z M 1530.55396786222 818.913460096182  C 1529.61406902059 819.253885960957  1528.67381263149 819.593323844008  1527.73320025283 819.931773182925  L 1528.07176817868 820.872715136281  C 1529.01303988004 820.53402856114  1529.9539553423 820.19435274894  1530.89451300647 819.853688262495  L 1530.55396786222 818.913460096182  Z M 1534.31164965694 817.546489815532  C 1533.37270865817 817.889548706582  1532.4334073442 818.23162062193  1531.49374727136 818.572704994799  L 1531.83495115444 819.512694308661  C 1532.77526988245 819.17137085254  1533.71522960013 818.829059161718  1534.65482875003 818.485759803376  L 1534.31164965694 817.546489815532  Z M 1537.51551505631 816.371555026255  C 1536.7607346714 816.649375786304  1536.00571948329 816.92655821785  1535.25047030091 817.203102023914  L 1535.59430746078 818.142131313922  C 1536.5336658283 817.798173658258  1537.47266241765 817.453228777801  1538.41129567181 817.107297244523  L 1537.51551505631 816.371555026255  Z M 547.953684639866 790.72290425589  C 547.034571342165 790.329800773465  546.115871472733 789.935731358774  545.197586553757 789.540696664747  L 544.802413446243 790.459303335253  C 545.721342037468 790.854614929036  546.640685870017 791.248960566874  547.560443420618 791.64233959537  L 547.953684639866 790.72290425589  Z M 1540.3208412345 823.875684836103  L 1548 813  L 1535.07072762751 809.824481787476  L 1540.3208412345 823.875684836103  Z " fill-rule="nonzero" fill="#1f8aee" stroke="none" />
  </g>
</svg>