<?xml version="1.0" encoding="utf-8"?>
<svg version="1.1" xmlns:xlink="http://www.w3.org/1999/xlink" width="204px" height="18px" viewBox="1560 636  204 18" xmlns="http://www.w3.org/2000/svg">
  <g transform="matrix(0.309016994374954 0.951056516295155 -0.951056516295151 0.309016994374948 1761.8452083592 -1134.97189145439 )">
    <path d="M 1635.49326480225 732.99636237037  C 1635.34566400779 733.986336977476  1635.20078634055 734.976715676849  1635.05863344449 735.967487230428  L 1636.04849685998 736.109509829593  C 1636.1903893413 735.120553304214  1636.33500160222 734.131988913265  1636.48233200175 733.143827874405  L 1635.49326480225 732.99636237037  Z M 1636.09818408754 729.038667072924  C 1635.94332640457 730.0275324911  1635.7911888118 731.016821963148  1635.64177303558 732.006524263365  L 1636.63056817778 732.155803085556  C 1636.77971023416 731.167913854686  1636.93156912088 730.180436695772  1637.08614311479 729.193382813831  L 1636.09818408754 729.038667072924  Z M 1636.73211437782 725.085514938715  C 1636.57000813674 726.073217973005  1636.41061880255 727.061364999806  1636.25394818383 728.049944806687  L 1637.24162186152 728.206471821603  C 1637.39800546999 727.219703027786  1637.55710281344 726.233366221132  1637.71891208657 725.247472593717  L 1636.73211437782 725.085514938715  Z M 1637.39502157146 721.13711862353  C 1637.22567549263 722.123606141354  1637.05904299117 723.110557566752  1636.8951259579 724.097961700552  L 1637.88162504018 724.261728487981  C 1638.04524178825 723.276133213439  1638.21156902995 722.290989818028  1638.38060487793 721.306309480281  L 1637.39502157146 721.13711862353  Z M 1638.08687000804 717.193690527325  C 1637.91029320125 718.178909461644  1637.73642649636 719.16461219349  1637.56527186629 720.150787537861  L 1638.55054328544 720.321785288136  C 1638.72138437151 719.337416552013  1638.89493256407 718.353519562527  1639.07118589379 717.370105484375  L 1638.08687000804 717.193690527325  Z M 1638.80762247029 713.255442782792  C 1638.6238244343 714.239340134759  1638.44273287897 715.22374114818  1638.26434985918 716.208634652825  L 1639.24834061354 716.386854167297  C 1639.42639684739 715.403764922654  1639.60715665494 714.42116726693  1639.79061798504 713.439072350079  L 1638.80762247029 713.255442782792  Z M 1639.55724018604 709.322587243955  C 1639.36623080809 710.305110085813  1639.17792414395 711.288156425961  1638.99232233038 712.271715109537  L 1639.97497948716 712.457146801069  C 1640.16024129045 711.475389932139  1640.34820298919 710.494144468119  1640.53886245056 709.513421543313  L 1639.55724018604 709.322587243955  Z M 1640.3356828304 705.395335474767  C 1640.13747238563 706.376430952703  1639.94196074245 707.3580697376  1639.74915011936 708.340240690573  L 1640.73042081752 708.532874584055  C 1640.92287822426 707.552502903549  1641.11803170302 706.572662416129  1641.31587903931 705.593364240459  L 1640.3356828304 705.395335474767  Z M 1641.14290852782 701.473898737732  C 1640.93750767876 702.453514074765  1640.7348015739 703.433692498055  1640.53479251333 704.414422885588  L 1641.51462396643 704.614248618477  C 1641.71426662358 703.635314864389  1641.91660138423 702.656932063291  1642.12162595247 701.679111317004  L 1641.14290852782 701.473898737732  Z M 1641.97887385442 697.558487982542  C 1641.76629365042 698.536570481214  1641.55640398823 699.515235815297  1641.34920724947 700.49447287995  L 1642.32754674846 700.701479702824  C 1642.53436391644 699.724036535998  1642.74386907463 698.747164052125  1642.9560598457 697.770873336191  L 1641.97887385442 697.558487982542  Z M 1642.84353384031 693.649313834727  C 1642.6237857169 694.625810880036  1642.40672378816 695.60291047871  1642.19235051716 696.580601543372  L 1643.16914543327 696.79477832051  C 1643.38312598658 695.818878321404  1643.59979027216 694.843568704818  1643.8191358315 693.8688605377  L 1642.84353384031 693.649313834727  Z M 1643.73684197198 689.746586584323  C 1643.50993775026 690.721445646707  1643.28571523165 691.696926947695  1643.06417696037 692.673019418572  L 1644.03937474791 692.894354628553  C 1644.26050717567 691.920050294763  1644.48431893343 690.946356011149  1644.71080748156 689.97328282633  L 1643.73684197198 689.746586584323  Z M 1644.65875019482 685.850516174565  C 1644.42470208091 686.823684812374  1644.19333103419 687.797495340854  1643.9646396801 688.771936709947  L 1644.9381878793 689.000418446269  C 1645.1664602859 688.027762189554  1645.39740747613 687.055735617702  1645.63102682932 686.084349760711  L 1644.65875019482 685.850516174565  Z M 1645.60920891573 681.961312190587  C 1645.36802949999 682.932738053257  1645.12952237157 683.904825423984  1644.89369023685 684.877563272264  L 1645.86553647668 685.113179243984  C 1646.10093658248 684.142223387294  1646.33900678156 683.171916816584  1646.57974437251 682.202270542034  L 1645.60920891573 681.961312190587  Z M 1646.58816700575 678.079183848154  C 1646.33986926218 679.04881467882  1646.09423888229 680.019126599345  1645.85127865331 680.99010859937  L 1646.82137065429 681.232846131769  C 1647.06388579616 680.263642906735  1647.30906619737 679.29510853372  1647.55690907585 678.327254002792  L 1646.58816700575 678.079183848154  Z M 1647.59557180282 674.204339982399  C 1647.34016908835 675.17212362076  1647.08742867044 676.140607894143  1646.83735341699 677.109781812928  L 1647.80563899401 677.359627848186  C 1648.05525612609 676.392229392108  1648.30753354021 675.425519318105  1648.56246837375 674.459508595548  L 1647.59557180282 674.204339982399  Z M 1648.63136911464 670.3369890366  C 1648.36887516838 671.302873421772  1648.10903830838 672.269477949288  1647.85186148299 673.236791651159  L 1648.81828854812 673.493732749064  C 1649.07499424249 672.528191102205  1649.33435509854 671.563357330299  1649.59636817318 670.599242381724  L 1648.63136911464 670.3369890366  Z M 1649.69550322154 666.477339050957  C 1649.42593216412 667.441272224024  1649.15901283961 668.405945008468  1648.89474827689 669.371346457621  L 1649.85926484217 669.635368796289  C 1650.12304528965 668.671735898877  1650.38947563551 667.708830331516  1650.65855285654 666.746663020405  L 1649.69550322154 666.477339050957  Z M 1650.78791687951 662.625597651405  C 1650.5112832122 663.587527758715  1650.23729578192 664.550216906199  1649.96595769766 665.513654169997  L 1650.9285118779 665.784743546615  C 1651.19935288867 664.82307123635  1651.47283839204 663.862145671957  1651.74896528471 662.901977757169  L 1650.78791687951 662.625597651405  Z M 1651.90855132328 658.781972038447  C 1651.62486992731 659.7418473339  1651.3438291301 660.702501057643  1651.06543212069 661.66392230891  L 1652.02597213626 661.942064140502  C 1652.30385914071 660.982404149565  1652.5843850897 660.023510280151  1652.86754680005 659.065393412939  L 1651.90855132328 658.781972038447  Z M 1653.05734626945 654.946668976002  C 1652.76663240518 655.904437824086  1652.47855335934 656.8630044467  1652.19311240085 657.822357966761  L 1653.15158658049 658.10753729097  C 1653.43650462996 657.149941243341  1653.72405593399 656.193130651527  1654.01423722962 655.237116372861  L 1653.05734626945 654.946668976002  Z M 1654.23423991977 651.11989478029  C 1653.93650922584 652.075505658855  1653.64140742833 653.031933615127  1653.34893787575 653.989167796587  L 1654.30529465932 654.281369272482  C 1654.59722842695 653.325888680966  1654.89178961744 652.371212837598  1655.18897488836 651.417352575193  L 1654.23423991977 651.11989478029  Z M 1655.43916896445 647.301855308726  C 1655.13443745701 648.255256811561  1654.83232878246 649.209494651621  1654.53284636892 650.164558000944  L 1655.48703431019 650.463765909845  C 1655.78596809169 649.510452173596  1656.08752332305 648.557962434388  1656.39169658247 647.606307500234  L 1655.43916896445 647.301855308726  Z M 1656.67206858557 643.492755948851  C 1656.36035265731 644.443896788743  1656.05125335739 645.395893180241  1655.74477419323 646.348734320818  L 1656.69674196262 646.65493256714  C 1657.00265967716 645.703836968697  1657.31119272753 644.753584571866  1657.62233761276 643.804186159269  L 1656.67206858557 643.492755948851  Z M 1657.93587863747 639.693086709713  C 1657.63814220292 640.575560895668  1657.34293815098 641.458887455233  1657.0502701263 642.343055482629  C 1657.02838608992 642.409333467438  1657.00651476525 642.475615650059  1656.98465615425 642.541902024552  L 1657.93435254162 642.855074136674  C 1657.9561323399 642.789026762254  1657.97792478349 642.722983557199  1657.99972987047 642.656944527353  C 1658.29175864409 641.774709976418  1658.58631756236 640.893314943208  1658.88340298949 640.012770306933  L 1657.93587863747 639.693086709713  Z M 1659.23151170839 635.904399186759  C 1658.90371075182 636.850234745757  1658.57882714677 637.797078861315  1658.25686552702 638.744918028689  L 1659.20373069507 639.066548800745  C 1659.52503112913 638.120656131516  1659.84924754785 637.175756470638  1660.17637532698 636.231863295141  L 1659.23151170839 635.904399186759  Z M 1660.55825465943 632.126493504647  C 1660.22268735275 633.069601639771  1659.89002900581 634.01374228613  1659.56028436324 634.958901977688  L 1660.50447280888 635.288307774728  C 1660.83354028241 634.345089078724  1661.1655154767 633.402887335107  1661.50039365681 632.461715982426  L 1660.55825465943 632.126493504647  Z M 1661.91601778172 628.359625109706  C 1661.5727068146 629.299942051891  1661.23229621876 630.241315390174  1660.89479084933 631.183731698133  L 1661.83623873045 631.520890247102  C 1662.17305099327 630.580409300863  1662.51276251634 629.640969182285  1662.85536845437 628.702583290528  L 1661.91601778172 628.359625109706  Z M 1663.30470926895 624.604048701969  C 1662.95367785467 625.541510870855  1662.60553802706 626.480053249346  1662.2602947515 627.419662451396  L 1663.19893841128 627.76455095503  C 1663.54347268957 626.826871349932  1663.89089757149 625.890256377538  1664.24120810186 624.954719396421  L 1663.30470926895 624.604048701969  Z M 1664.72423522355 620.86001821795  C 1664.36550709741 621.794562226206  1664.00966157779 622.730210184606  1663.65670374002 623.666948748243  L 1664.59247971128 624.01954388661  C 1664.94471270901 623.08472902476  1665.29982745843 622.151002528379  1665.65781889456 621.218377715134  L 1664.72423522355 620.86001821795  Z M 1666.17449966306 617.127786813477  C 1665.80809908078 618.05934947111  1665.44457192994 618.992039744781  1665.0839233955 619.925844331624  L 1666.01676840495 620.286122263702  C 1666.37667630562 619.354235353335  1666.73945691109 618.423460467828  1667.10510504711 617.493810882608  L 1666.17449966306 617.127786813477  Z M 1667.65540452662 613.407606846573  C 1667.28135626264 614.336125165247  1666.91017206084 615.265794689393  1666.54185721528 616.196602159518  L 1667.4717081878 616.564538524806  C 1667.83926665591 615.635642576277  1668.20968858773 614.707882236738  1668.58296870002 613.78127073862  L 1667.65540452662 613.407606846573  Z M 1669.16684968156 609.699729860391  C 1668.78517902752 610.625141057449  1668.40636287262 611.551726971863  1668.03040661989 612.479474387828  L 1668.95720068281 612.855044307995  C 1669.33238486559 611.929202129399  1669.71042307737 611.004519067137  1670.09130992627 610.08100830975  L 1669.16684968156 609.699729860391  Z M 1670.70873293023 606.004406566209  C 1670.3194656931 606.92664806923  1669.93304319912 607.850087721913  1669.54947095981 608.774712353332  L 1670.47314544716 609.157890433895  C 1670.8559299762 608.235164626867  1671.24155890657 607.313621365073  1671.63002673808 606.393273792412  L 1670.70873293023 606.004406566209  Z M 1672.28095001688 602.321886826477  C 1671.88411251728 603.240896277335  1671.49010981253 604.161127229078  1671.09894752219 605.082566556687  L 1672.01943997893 605.473326888732  C 1672.40979897194 604.553779844122  1672.80299254624 603.635438693826  1673.1990150938 602.718316535933  L 1672.28095001688 602.321886826477  Z M 1673.88339463469 598.652419637921  C 1673.47901370515 599.568134896981  1673.07745743044 600.485094925627  1672.67873153786 601.403286645494  L 1673.59597972409 601.801602807427  C 1673.99388678659 600.885296701241  1674.39461841874 599.970219756774  1674.79816890492 599.056385025695  L 1673.88339463469 598.652419637921  Z M 1675.51595843301 594.996253114707  C 1675.10406141606 595.908612265143  1674.69497872301 596.822239369562  1674.28871618835 597.737121397414  L 1675.20265808356 598.142966456746  C 1675.60808631075 597.22996324576  1676.01632890489 596.318212380926  1676.42738004331 595.407726866334  L 1675.51595843301 594.996253114707  Z M 1677.17853102463 591.353634471665  C 1676.75914577111 592.262575823416  1676.34256432007 593.172808228162  1675.92879261318 594.084318703351  L 1676.83936642041 594.49766521852  C 1677.2522883989 593.588026636252  1677.66801435138 592.67966349982  1678.08653834845 591.772588764995  L 1677.17853102463 591.353634471665  Z M 1678.87099999329 587.724810007574  C 1678.44415486023 588.630272101886  1678.02010281882 589.537048260628  1677.59884991719 590.445125550685  L 1678.50599406719 590.865945572914  C 1678.92638187692 589.959733125356  1679.34956307807 589.054819137076  1679.77553163493 588.151216514653  L 1678.87099999329 587.724810007574  Z M 1680.59325090124 584.110025088508  C 1680.15897475018 585.011946701739  1679.72748079098 585.915205302125  1679.298775178 586.81978800658  L 1680.20242833346 587.248053081762  C 1680.63025354954 586.345328043243  1681.06086138561 585.443924389651  1681.49424570002 584.543854977496  L 1680.59325090124 584.110025088508  Z M 1682.34516729703 580.509524131246  C 1681.90348949188 581.40784427924  1681.46458279078 582.307524246572  1681.02845345373 583.208551201338  L 1681.92855451337 583.644232371963  C 1682.36378820803 582.745055780988  1682.80179356307 581.847223411309  1683.24256433141 580.950748068362  L 1682.34516729703 580.509524131246  Z M 1684.1266307233 576.923550586742  C 1683.67758112853 577.818208528766  1683.23129136253 578.714249030507  1682.78776779069 579.611659311828  L 1683.68425589339 580.054727118941  C 1684.12686863792 579.15915977415  1684.57224189589 578.264959395997  1685.02036931502 577.372138738253  L 1684.1266307233 576.923550586742  Z M 1685.93752072491 573.352346923668  C 1685.48112970335 574.243282166707  1685.02748704876 575.135622616217  1684.57659923133 576.029355544974  L 1685.4694137603 576.479780030166  C 1685.91937562707 575.58788248609  1686.37208667363 574.697374561633  1686.82754044306 573.808268957902  L 1685.93752072491 573.352346923668  Z M 1687.77771485696 569.79615461202  C 1687.31401326788 570.683306914723  1686.85304839814 571.571886975639  1686.3948268223 572.461882121316  L 1687.28390740911 572.919632828749  C 1687.74118797356 572.031465391804  1688.20120619827 571.144710133499  1688.6639555221 570.259379701417  L 1687.77771485696 569.79615461202  Z M 1689.64708869315 566.255214106785  C 1689.17610789016 567.138523483544  1688.70785197376 568.023283073856  1688.24232762256 568.909480258622  L 1689.12761415127 569.37452623709  C 1689.592182494 568.490148961455  1690.05947679231 567.607206328064  1690.52949038136 566.725710929985  L 1689.64708869315 566.255214106785  Z M 1691.54551583417 562.729764831688  C 1691.06728766305 563.609171556783  1690.59177236151 564.490050852714  1690.11897671178 565.372390155587  L 1691.00040932298 565.844699960609  C 1691.47223403176 564.964172644279  1691.94677280724 564.085102336587  1692.42401888111 563.207501575645  L 1691.54551583417 562.729764831688  Z M 1693.47286791625 559.220045163  C 1692.98742471277 560.095489774639  1692.50468217851 560.972429214688  1692.02464719872 561.850850975588  L 1692.90216629358 562.330392671531  C 1693.38121546565 561.453774852  1693.86296663183 560.578636309327  1694.34741292117 559.704989525135  L 1693.47286791625 559.220045163  Z M 1695.42901461982 555.726292413424  C 1694.93638920765 556.597715717645  1694.44645208171 557.470656006849  1693.95921022983 558.345100830511  L 1694.83275647416 558.831841992753  C 1695.31899771813 557.959192943401  1695.80792870112 557.088045338761  1696.29954244961 556.218411603808  L 1695.42901461982 555.726292413424  Z M 1697.41605778326 552.249452421494  C 1697.03102850817 552.916128466986  1696.64758082061 553.583716685945  1696.26571795553 554.252211446268  C 1696.15118038587 554.453185013423  1696.03678603767 554.65424017055  1695.92253499798 554.855376764656  L 1696.7920493262 555.349284481776  C 1696.90598411834 555.14870463494  1697.0200617199 554.948205941731  1697.13428204443 554.74778855406  C 1697.51527942321 554.080810506698  1697.89785768872 553.414736751344  1698.2820136148 552.749572904792  L 1697.41605778326 552.249452421494  Z M 1699.43282928223 548.790341130715  C 1698.92508335133 549.653041798099  1698.41999884553 550.517306096734  1697.91758296871 551.383121699837  L 1698.78250885987 551.885021294189  C 1699.28389296715 551.020983744286  1699.78794022309 550.158494313059  1700.29464343857 549.297565301992  L 1699.43282928223 548.790341130715  Z M 1701.47797623619 545.347930327552  C 1700.96315364173 546.206426727127  1700.45097952494 547.0665085895  1699.94146119083 547.928163647543  L 1700.8022308123 548.437158400715  C 1701.31070279116 547.577272851709  1701.82182509874 546.718957267622  1702.33559044503 545.862223890411  L 1701.47797623619 545.347930327552  Z M 1703.55136036079 541.922452773558  C 1703.02949591294 542.776686857355  1702.51026681625 543.632528128295  1701.99368047635 544.489964379732  L 1702.85023562646 545.006019875608  C 1703.36576109613 544.150344469397  1703.88392389539 543.296260768195  1704.40471663381 542.443780953599  L 1703.55136036079 541.922452773558  Z M 1705.65284146238 538.514140085332  C 1705.12397044745 539.364054093582  1704.59772147898 540.215596904649  1704.07410206273 541.068756373194  L 1704.92638482477 541.591837718239  C 1705.44892892755 540.740430312048  1705.97409718247 539.890636243331  1706.50188209916 539.042467632504  L 1705.65284146238 538.514140085332  Z M 1707.78227744751 535.123222718855  C 1707.24643562559 535.968759183873  1706.71320236809 536.815945957313  1706.18258528046 537.664770955837  L 1707.0305380266 538.194842781457  C 1707.56006543025 537.347760943905  1708.09220363109 536.502313967272  1708.62694503944 535.658513909839  L 1707.78227744751 535.123222718855  Z M 1709.93952433255 531.749929953909  C 1709.39674793501 532.591031704066  1708.85656644355 533.433805156534  1708.31898756266 534.27823829105  L 1709.16255295785 534.815264755986  C 1709.69902785789 533.97256576328  1710.23810002373 533.131523044264  1710.77976176671 532.292148594532  L 1709.93952433255 531.749929953909  Z M 1712.1244362534 528.394489878573  C 1711.57476198054 529.231100042032  1711.02766877994 530.069403188722  1710.48316445465 530.909387362139  L 1711.32228546049 531.453332154887  C 1711.86567158275 530.615072986777  1712.41164126368 529.77849139333  1712.96018671642 528.943599306257  L 1712.1244362534 528.394489878573  Z M 1714.33686547538 525.0571293738  C 1713.7803304939 525.889191382449  1713.22636257632 526.722967540776  1712.67496962376 527.558445956845  L 1713.50958950237 528.109272298111  C 1714.05985010527 527.275509634295  1714.6126803852 526.443445732427  1715.16807245726 525.613092460041  L 1714.33686547538 525.0571293738  Z M 1716.57666240317 521.73807409808  C 1716.01330434366 522.565531691333  1715.45249916613 523.394724484808  1714.89425486921 524.225640651941  L 1715.72431718705 524.78331129713  C 1716.28141506429 523.95410151312  1716.84106856304 523.126611563673  1717.40326970116 522.300853250959  L 1716.57666240317 521.73807409808  Z M 1718.84367559101 518.437548472178  C 1718.2735325454 519.260345700781  1717.70592802724 520.084899062823  1717.14087013212 520.911196797911  L 1717.96631876381 521.475674039646  C 1718.53021624674 520.651073203192  1719.09665512288 519.828213157565  1719.66562731334 519.007105638899  L 1718.84367559101 518.437548472178  Z M 1721.13775175284 515.15577566396  C 1720.56086227184 515.973856893795  1719.98649679214 516.793715071481  1719.41466350568 517.615338503716  L 1720.23544263781 518.186584174384  C 1720.80610159797 517.366648041621  1721.37928755132 516.548473538116  1721.95499232254 515.732072333427  L 1721.13775175284 515.15577566396  Z M 1723.45873577275 511.892977573304  C 1722.87513886326 512.706287489066  1722.29405125817 513.521395047067  1721.7154812454 514.338288621636  L 1722.53153538029 514.916264095972  C 1723.10891723215 514.101048107498  1723.68881150613 513.287614467854  1724.2712099314 512.475974778726  L 1723.45873577275 511.892977573304  Z M 1725.80647071541 508.649374817098  C 1725.21620583781 509.457858426162  1724.62843539811 510.26816025024  1724.04316777952 511.080268732205  L 1724.85444173896 511.664934929902  C 1725.43850744232 510.854494207309  1726.02507082696 510.045856432411  1726.61412352687 509.239033138619  L 1725.80647071541 508.649374817098  Z M 1728.18079783672 505.425186714321  C 1727.58390490228 506.228789350375  1726.98949137056 507.034230651279  1726.39756571952 507.841499129228  L 1727.20400464854 508.432816517582  C 1727.7947147113 507.627205859491  1728.38790754559 506.823418626117  1728.98357469085 506.021466281688  L 1728.18079783672 505.425186714321  Z M 1730.5815565945 502.220631271211  C 1729.97807596268 503.019298597955  1729.37705953069 503.819824915122  1728.77851587077 504.622198804886  L 1729.5800652413 505.220127401464  C 1730.1773797221 504.419401279931  1730.77716189681 503.620518936842  1731.37940321087 502.823491766472  L 1730.5815565945 502.220631271211  Z M 1733.00858465941 499.03592516653  C 1732.39855713502 499.829603181429  1731.79097844107 500.625160386504  1731.18585724329 501.422585434927  L 1731.98246285789 502.027084810275  C 1732.58634136881 501.231297367061  1733.19267232911 500.437373931413  1733.80144709093 499.645325826755  L 1733.00858465941 499.03592516653  Z M 1735.46171792586 495.871283736908  C 1734.84518475646 496.659918774722  1734.23108488246 497.450453075465  1733.61942706263 498.242875363949  L 1734.41103505812 498.853904644324  C 1735.02143676736 498.06310968732  1735.63427551574 497.274198840844  1736.24954256246 496.487183356949  L 1735.46171792586 495.871283736908  Z M 1737.94079052315 492.726920962285  C 1737.31779339614 493.510459698781  1736.69721386499 494.295917642539  1736.07906078087 495.083283590771  L 1736.865617632 495.700801460905  C 1737.48250126676 494.915052460368  1738.10180636556 494.131207545988  1738.72352409539 493.349277897562  L 1737.94079052315 492.726920962285  Z M 1740.44563482666 489.603049451443  C 1739.81621586652 490.381438906999  1739.18919863927 491.161767384319  1738.56459208778 491.944023753898  L 1739.34604461084 492.567988459791  C 1739.96936845998 491.787338544833  1740.59509803439 491.008612562853  1741.22322440934 490.23182162076  L 1740.44563482666 489.603049451443  Z M 1742.97608146919 486.499880427629  C 1742.34028323466 487.273067970736  1741.70687070754 488.04821421912  1741.07585292204 488.82530811707  L 1741.85214827845 489.455677468815  C 1742.48187019542 488.680179423709  1743.11398193613 487.906625028434  1743.74847448492 487.135025316017  L 1742.97608146919 486.499880427629  Z M 1745.53195935243 483.417623714275  C 1744.88982483351 484.185557065234  1744.25005983533 484.955468672426  1743.61267348258 485.727347554918  L 1744.38375918246 486.36407892955  C 1745.01983658806 485.59378519028  1745.65828775434 484.825454686213  1746.2991035752 484.059098375868  L 1745.53195935243 483.417623714275  Z M 1748.11309565851 480.356487720808  C 1747.46466827373 481.119114955088  1746.81859406263 481.883739862974  1746.17488224012 482.650351538697  L 1746.94070614585 483.29340188308  C 1747.58309603118 482.528364533697  1748.22784345356 481.765309872201  1748.87493921721 481.004248781747  L 1748.11309565851 480.356487720808  Z M 1750.71931586168 477.316679428559  C 1750.06463945496 478.073948980526  1749.41229971592 478.833235488219  1748.76230594872 479.594528122127  L 1749.52281627846 480.243853955861  C 1750.17147520776 479.484124725041  1750.82247529113 478.726397500672  1751.4758072436 477.970683089926  L 1750.71931586168 477.316679428559  Z M 1753.35129745066 474.29892702418  C 1752.94954857321 474.755670318176  1752.54856343214 475.213084824623  1752.14834370799 475.671168626498  C 1751.89012726409 475.967161616726  1751.63226905838 476.263466934035  1751.3747696575 476.560083927327  L 1752.1299149887 477.21564134569  C 1752.38680443882 476.919726962812  1752.64405173052 476.624123419781  1752.90165629952 476.328831365008  C 1753.30106170901 475.871680240925  1753.70123082127 475.415196914269  1754.10216195995 474.959383297295  L 1753.35129745066 474.29892702418  Z M 1756.00654529052 471.302439360583  C 1755.3399886859 472.049124039663  1754.67548703983 472.797640618782  1754.01304789277 473.547980604113  L 1754.76270011888 474.209812561563  C 1755.42392572113 473.460847149564  1756.0872100439 472.713701803579  1756.75254556081 471.968385001552  L 1756.00654529052 471.302439360583  Z M 1758.68369911733 468.325506913125  C 1758.01168396536 469.067282723511  1757.34171028102 469.810905456297  1756.67378566644 470.556366673652  L 1757.41856359635 471.223679070598  C 1758.08526461705 470.479583489071  1758.75401095381 469.737323024061  1759.4247950183 468.996906098082  L 1758.68369911733 468.325506913125  Z M 1761.38261491634 465.368289822852  C 1760.7051773675 466.105116861355  1760.02976768523 466.843805745612  1759.35639353355 467.584348093549  L 1760.0962571027 468.257105032602  C 1760.76839767734 467.517919309411  1761.44257005358 466.780583654521  1762.1187665815 466.045106434562  L 1761.38261491634 465.368289822852  Z M 1764.10314750212 462.430947170243  C 1763.42032399844 463.162785800041  1762.73951465128 463.896501098678  1762.06072718594 464.632084740514  L 1762.79563659412 465.3102500314  C 1763.47318056559 464.576013930287  1764.15274271488 463.843642749736  1764.83431533093 463.113144800046  L 1764.10314750212 462.430947170243  Z M 1766.8451505264 459.51363696665  C 1766.15697779967 460.240447819231  1765.47080541107 460.969150062781  1764.78664114675 461.699735428544  L 1765.51655686026 462.383272590052  C 1766.19946778077 461.6540256085  1766.88438314677 460.92665829945  1767.57129518644 460.20117891642  L 1766.8451505264 459.51363696665  Z M 1769.60847648592 456.616516145801  C 1768.91499155569 457.338260123116  1768.22349303759 458.061910111785  1767.53398877821 458.78745790038  L 1768.25887153199 459.476330162327  C 1768.94711266503 458.752111529433  1769.63734440341 458.029787219866  1770.32955891497 457.309365429921  L 1769.60847648592 456.616516145801  Z M 1772.39297673037 453.739740555357  C 1771.69421690196 454.456378831925  1770.99742945282 455.1749376377  1770.30262228956 455.895408819024  L 1771.02243308927 456.589579124227  C 1771.71596741163 455.870427798595  1772.41147839207 455.15318534521  1773.10895813855 454.437859902705  L 1772.39297673037 453.739740555357  Z M 1775.19850147041 450.883464948528  C 1774.49450433286 451.594958973561  1773.79246543572 452.308387942228  1773.09239274498 453.023743759306  L 1773.80709286913 453.723174765582  C 1774.50588307279 453.009129433261  1775.20663588107 452.297007419312  1775.90934334222 451.586816804487  L 1775.19850147041 450.883464948528  Z M 1778.02489978569 448.047842975749  C 1777.31570320983 448.754154475113  1776.60845063009 449.462415228564  1775.90315007161 450.17261719952  L 1776.61270107364 450.877271281692  C 1777.31670956797 450.168370353948  1778.02266650766 449.46140708746  1778.73056388212 448.756389504221  L 1778.02489978569 448.047842975749  Z M 1780.872019633 445.233027176411  C 1780.15766176938 445.934118154763  1779.4452335529 446.637172592905  1778.73474306764 447.342182513114  L 1779.43910677797 448.052021765032  C 1780.14829569152 447.348303376505  1780.85941878645 446.646536887773  1781.57246799357 445.946730261859  L 1780.872019633 445.233027176411  Z M 1783.73970785443 442.439168970661  C 1783.02022713117 443.135001713563  1782.30266160236 443.832812016227  1781.58701941039 444.532591960434  L 1782.2861579385 445.247578197021  C 1783.00048912117 444.549080203525  1783.71674011721 443.85254824336  1784.43490279923 443.157990220155  L 1783.73970785443 442.439168970661  Z M 1786.62781018561 439.666418651253  C 1785.90324530644 440.356955727093  1785.18058106601 441.049484356284  1784.45982566458 441.743996680541  L 1785.15370140103 442.464091439841  C 1785.87313642609 441.770851416362  1786.59447679324 441.079591453992  1787.31771431734 440.390319396537  L 1786.62781018561 439.666418651253  Z M 1789.53617126402 436.914925375463  C 1788.80656120613 437.600129637538  1788.07883712915 438.287339339314  1787.35300729052 438.976546683074  L 1788.04158290896 439.701711228324  C 1788.76608307516 439.013766467002  1789.49247400965 438.327815688052  1790.22074746999 437.643866675034  L 1789.53617126402 436.914925375463  Z M 1792.46463463735 434.184837157066  C 1791.73001864944 434.86467174544  1790.99727388293 435.546525552198  1790.26640865245 436.230390840184  L 1790.94964711166 436.960586161896  C 1791.67917344524 436.277973670019  1792.41057587161 435.597368974511  1793.14384609148 434.918779798271  L 1792.46463463735 434.184837157066  Z M 1795.41304277189 431.476300858375  C 1794.6734603718 432.15072920211  1793.93573433317 432.827190434079  1793.19987302692 433.505676878525  L 1793.87773757279 434.240863696586  C 1794.61225082962 433.563620194598  1795.34862540283 432.888398194967  1796.08685293669 432.215205359517  L 1795.41304277189 431.476300858375  Z M 1798.38123706103 428.789462182338  C 1797.63672803393 429.45844800118  1796.89406040825 430.129480268956  1796.1532426112 430.802551371307  L 1796.8256967787 431.542690137092  C 1797.56515744635 430.870852056649  1798.30646455396 430.201049075707  1799.04960968957 429.533288794803  L 1798.38123706103 428.789462182338  Z M 1801.36905783379 426.124465664702  C 1800.61966222974 426.787972971276  1799.87209296813 427.453540177294  1799.12635853179 428.121159730409  L 1799.79336614692 428.866210628908  C 1800.53773444695 428.199814110787  1801.28393421093 427.535466180039  1802.03195697165 426.873174375096  L 1801.36905783379 426.124465664702  Z M 1804.37634436339 423.481454666239  C 1803.62210249537 424.139447767844  1802.86967181255 424.799514108595  1802.11906085295 425.461646198562  L 1802.78058603473 426.211569150521  C 1803.52982192455 425.550650042877  1804.28087420393 424.891792900175  1805.03373435059 424.23500519854  L 1804.37634436339 423.481454666239  Z M 1807.40293487593 420.860571365029  C 1806.6438873176 421.513014865599  1805.88663568982 422.167544833486  1805.1311885853 422.824153841584  L 1805.78719574765 423.578908505663  C 1806.54125892289 422.923502361966  1807.29712331558 422.270171449857  1808.05478034884 421.618923182755  L 1807.40293487593 420.860571365029  Z M 1810.44866655905 418.261956748819  C 1809.68485414261 418.908815550819  1808.92282230544 419.55777393607  1808.16257969452 420.208824540688  L 1808.8130335482 420.968370315628  C 1809.5718834448 420.318512392784  1810.33251928984 419.670742856538  1811.09493245231 419.025069057205  L 1810.44866655905 418.261956748819  Z M 1813.51337557072 415.685750607431  C 1812.74483938467 416.326989913752  1811.97806833085 416.970341806313  1811.21307110999 417.615798984846  L 1811.85793666451 418.380095011658  C 1812.62153246091 417.735820268111  1813.38689884067 417.09364695383  1814.15402711911 416.45358235563  L 1813.51337557072 415.685750607431  Z M 1816.13014655168 413.516193445677  C 1815.51314506557 414.024514301543  1814.89726097355 414.534189937144  1814.28249873366 415.045216663226  L 1814.92174129912 415.814221827384  C 1815.69004191846 415.175564921236  1816.46009766085 414.539022373979  1817.23189978837 413.904601408535  L 1816.13014655168 413.516193445677  Z M 1634.91738906297 736.958387930869  C 1634.77705309706 737.949418472231  1634.63944314889 738.940833122517  1634.50456077996 739.932620631912  L 1635.49543922004 740.067379368088  C 1635.63007449336 739.077408748058  1635.76743234919 738.087810303989  1635.90751122886 737.098595265276  L 1634.91738906297 736.958387930869  Z M 1821.05812406622 419.716588147874  L 1825 407  L 1811.72229330826 407.975963630469  L 1821.05812406622 419.716588147874  Z " fill-rule="nonzero" fill="#1f8aee" stroke="none" />
  </g>
</svg>