<?xml version="1.0" encoding="utf-8"?>
<svg version="1.1" xmlns:xlink="http://www.w3.org/1999/xlink" width="190px" height="18px" viewBox="2074 642  190 18" xmlns="http://www.w3.org/2000/svg">
  <g transform="matrix(0.156434465040235 0.98768834059516 -0.987688340595137 0.156434465040235 2472.67875505516 -1593.13484749209 )">
    <path d="M 2159.28665033848 733.015087624858  C 2159.31022364053 734.015803785452  2159.33677812562 735.016447498431  2159.36631344026 736.017005442697  L 2160.36587804368 735.987499450336  C 2160.33640132995 734.988926709209  2160.30989953151 733.990268369614  2160.28637300115 732.991537726074  L 2159.28665033848 733.015087624858  Z M 2159.20825800656 729.01189350424  C 2159.22388069332 730.012765357379  2159.24248504458 731.013588448094  2159.26407081268 732.014349453211  L 2160.2638382753 731.992785115178  C 2160.24229533544 730.994009716143  2160.223727897 729.99517235461  2160.20813620716 728.996286327486  L 2159.20825800656 729.01189350424  Z M 2159.16167025151 725.008202943502  C 2159.169341337 726.009167323033  2159.17999438029 727.010106628721  2159.19362923956 728.011007535533  L 2160.19353646504 727.997386212774  C 2160.17992865865 726.998471189623  2160.16929675202 725.9995178437  2160.1616408867 725.000539473765  L 2159.16167025151 725.008202943502  Z M 2159.14689001353 721.004268619661  C 2159.14660901363 722.005262353723  2159.14931007662 723.006254704026  2159.15499316655 724.007232344676  L 2160.15497704971 724.001554896847  C 2160.14930523558 723.00256329208  2160.14660953176 722.003557006838  2160.14688997413 721.00454934059  L 2159.14689001353 721.004268619661  Z M 2159.16391822542 717.000343225119  C 2159.15568515786 718.001303140022  2159.15043407009 719.002285361182  2159.148165032 720.003276562997  L 2160.14816246284 720.005543348408  C 2160.15042699893 719.006538209382  2160.15566766804 718.007542033186  2160.16388440041 717.008568118996  L 2159.16391822542 717.000343225119  Z M 2159.2127538125 712.996679451711  C 2159.19656919688 713.997542375874  2159.18336628974 714.998451294827  2159.17314526685 715.999392884251  L 2160.1730931345 716.009603759843  C 2160.1832938779 715.010648134823  2160.1964705892 714.011725115294  2160.21262309299 713.012847999456  L 2159.2127538125 712.996679451711  Z M 2159.29339369271 708.993529974764  C 2159.26925855046 709.994232742625  2159.24810465721 710.995005191136  2159.22993229457 711.995833997642  L 2160.2297674913 712.013988318996  C 2160.24790379822 711.015145253071  2160.26901572011 710.016358433315  2160.29310297592 709.017641155963  L 2159.29339369271 708.993529974764  Z M 2159.40583277679 704.991147437146  C 2159.3737486311 705.991626893352  2159.34464508678 706.992199711595  2159.31852253127 707.992852571876  L 2160.31818195645 708.018949193255  C 2160.34425268229 707.02028172446  2160.37329848238 706.021694138887  2160.40531897005 705.023199730117  L 2159.40583277679 704.991147437146  Z M 2159.55006396859 700.989784433321  C 2159.51003284432 701.989977436537  2159.47298148568 702.990287477439  2159.43891038592 703.990701239216  L 2160.43833095002 704.024738513634  C 2160.47233444945 703.026309668923  2160.50931229463 702.027984339368  2160.54926399329 701.029775815212  L 2159.55006396859 700.989784433321  Z M 2159.72607816553 696.989693493413  C 2159.67810258909 697.989536920484  2159.63310575448 698.989521053349  2159.59108826074 699.989632579536  L 2160.5902068893 700.031608358866  C 2160.63214101631 699.033481150055  2160.67704857286 698.035481081955  2160.72492896114 697.037621440325  L 2159.72607816553 696.989693493413  Z M 2159.93386425917 692.991127067261  C 2159.87794725835 693.990557817121  2159.82500778758 694.99015293177  2159.77504655161 695.98989910438  L 2160.77380018924 696.039810739488  C 2160.82366229731 695.042048159512  2160.87649673109 694.044436337469  2160.9323027872 693.046988554414  L 2159.93386425917 692.991127067261  Z M 2160.17340913593 688.994337508493  C 2160.10955423971 689.993292505888  2160.04867547383 690.992435517158  2159.99077364874 691.99175324103  L 2160.98909926307 692.049597581941  C 2161.04688620537 691.052262600517  2161.10764418193 690.055101985042  2161.17137238389 689.05812901041  L 2160.17340913593 688.994337508493  Z M 2160.44469767788 684.999577058595  C 2160.3729089162 685.997993258528  2160.30409469734 686.996621109325  2160.23825593738 687.99544731657  L 2161.23609052305 688.061220712669  C 2161.30179865258 687.064376272655  2161.37047633742 686.067729795526  2161.44212266329 685.07129454933  L 2160.44469767788 684.999577058595  Z M 2160.74771276372 681.007097830995  C 2160.66799466725 682.004912222422  2160.59124933834 683.002961888267  2160.51747779866 684.001233541965  L 2161.51475838131 684.074931842224  C 2161.58838355116 683.078640855444  2161.66497660996 682.082571416144  2161.74453653807 681.086736784383  L 2160.74771276372 681.007097830995  Z M 2161.08243526986 677.017151795151  C 2160.99479286969 678.014301404931  2160.9101212742 679.011709897989  2160.8284216106 680.009363996141  L 2161.82508525083 680.090982549386  C 2161.90662281445 679.095307892889  2161.99112641335 678.099878354176  2162.07859492257 677.104707185097  L 2161.08243526986 677.017151795151  Z M 2161.44884407162 673.029990760649  C 2161.35328289894 674.026412657725  2161.2606903806 675.023117030368  2161.17106774922 676.020090610078  L 2162.16705154657 676.109624265279  C 2162.25649635803 675.114628777034  2162.34890516392 674.119901961642  2162.44427673404 673.125457061441  L 2161.44884407162 673.029990760649  Z M 2161.84691604456 669.045866361308  C 2161.74344213035 670.041497660395  2161.64293453275 671.037435009743  2161.54539458977 672.03366515091  L 2162.54063568668 672.131108257506  C 2162.63798210103 671.136854732726  2162.73829028189 670.142893418831  2162.84155889391 669.14923754797  L 2161.84691604456 669.045866361308  Z M 2162.27662606595 665.065030039305  C 2162.16524594054 666.059807905143  2162.05682960683 667.054915376466  2161.9513785081 668.050339206035  L 2162.94581409389 668.15568561429  C 2163.0510559675 667.162236801309  2163.15925719278 666.169103718882  2163.2704163293 665.176299587977  L 2162.27662606595 665.065030039305  Z M 2162.73794701635 661.087733029302  C 2162.61866770908 662.081594680336  2162.5023494815 663.075809471588  2162.38899388216 664.070364167237  L 2163.38256119696 664.183607228633  C 2163.4956918879 663.1910258251  2163.61177932892 662.198783651633  2163.73082197459 661.206893917648  L 2162.73794701635 661.087733029302  Z M 2163.23084978133 657.114226342591  C 2163.10367882001 658.107109055348  2162.97946603957 659.100368420305  2162.85821309358 660.093991214822  L 2163.85084943235 660.215123782472  C 2163.97186180083 659.223472431167  2164.09582813119 658.232183788183  2164.22274677309 657.241271050244  L 2163.23084978133 657.114226342591  Z M 2163.75530325329 653.144760751253  C 2163.62024866382 654.13660186381  2163.48814916968 655.128843117009  2163.35900652945 656.121471301763  L 2164.3506492459 656.250485730868  C 2164.47953565471 655.259827015949  2164.61137305076 654.269554464641  2164.74615967893 653.279681260293  L 2163.75530325329 653.144760751253  Z M 2164.31127433342 649.179586772332  C 2164.16834463924 650.170323688553  2164.02836676834 651.161484208682  2163.8913425842 652.153055137867  L 2164.88192909473 652.289943286193  C 2165.01868140972 651.300339729045  2165.15838155106 650.311145766732  2165.30102765899 649.322374567785  L 2164.31127433342 649.179586772332  Z M 2164.90138831145 645.218677453048  C 2164.77544953739 646.037752044408  2164.6517755455 646.857173260601  2164.53036775383 647.676931706208  C 2164.50522008788 647.847605984144  2164.48016005381 648.018293162591  2164.45518766155 648.188993173945  L 2165.44465544923 648.33374640234  C 2165.46956037549 648.163507558193  2165.49455264393 647.993281503145  2165.51963224468 647.823068304377  C 2165.64075254861 647.005255677691  2165.76413333518 646.187779431385  2165.88977319018 645.370648935548  L 2164.90138831145 645.218677453048  Z M 2165.52756873148 641.263498788683  C 2165.36662111752 642.251590695256  2165.20897415393 643.240217407089  2165.05463047864 644.229362381383  L 2166.04267452056 644.383534269976  C 2166.19667490908 643.396589323512  2166.35397123885 642.410161486614  2166.51456087776 641.42426726567  L 2165.52756873148 641.263498788683  Z M 2166.18895100289 637.314054058527  C 2166.01920935981 638.300673298598  2165.85276347296 639.287856719868  2165.68961612751 640.275587803688  L 2166.67624785263 640.438553563839  C 2166.83903233047 639.453019363013  2167.00510801315 638.468031606757  2167.17447212176 637.483606776749  L 2166.18895100289 637.314054058527  Z M 2166.88548266031 633.370656559453  C 2166.70696045318 634.355724867661  2166.5317288467 635.341386688251  2166.35979077303 636.327625528034  L 2167.34493191501 636.499372232188  C 2167.51648756897 635.515326956367  2167.69132943034 634.531857416542  2167.86945457353 633.548980068834  L 2166.88548266031 633.370656559453  Z M 2167.61710845011 629.433619108628  C 2167.42981984053 630.417058342615  2167.24581641497 631.401120373162  2167.0651012524 632.385788733698  L 2168.04867366312 632.566302757735  C 2168.22898688424 631.583824468148  2168.41258105466 630.601951160159  2168.59945310231 629.620699263332  L 2167.61710845011 629.433619108628  Z M 2168.38377033474 625.503254018697  C 2168.1877301797 626.484986165462  2167.9949695315 627.467370343256  2167.80549161557 628.450390114039  L 2168.78741727136 628.639657138358  C 2168.97647375598 627.658823771827  2169.16880567149 626.678624584659  2169.36440979966 625.69907597825  L 2168.38377033474 625.503254018697  Z M 2169.18540749735 621.579873073008  C 2168.98063134813 622.559820254713  2168.77912876833 623.540448650649  2168.58090312974 624.521741851699  L 2169.56110413757 624.719746862349  C 2169.75888888841 623.740636225339  2169.95994329197 622.76218891492  2170.16426398398 621.784421303478  L 2169.18540749735 621.579873073008  Z M 2170.02195634664 617.663787500876  C 2169.80846044744 618.641871981585  2169.59823192065 619.62066680523  2169.39127428398 620.600155593835  L 2170.36967288763 620.806882883709  C 2170.57617021507 619.829572645899  2170.78593115764 618.852954829438  2170.9989522054 617.877045776104  L 2170.02195634664 617.663787500876  Z M 2170.89335052182 613.755307952901  C 2170.67115180862 614.731452144159  2170.45221401155 615.708335751091  2170.23654079412 616.685942427397  L 2171.21305938034 616.901375597477  C 2171.42825290362 615.92594328575  2171.64670374553 614.951232435282  2171.86840825076 613.977259355786  L 2170.89335052182 613.755307952901  Z M 2171.799520898 609.85474447632  C 2171.56863699709 610.828870943792  2171.34100729741 611.803765840793  2171.11663560788 612.779412854452  L 2172.09119671255 613.003534815111  C 2172.31506936103 612.030057807482  2172.5421927733 611.057331243561  2172.77256314888 610.085371400164  L 2171.799520898 609.85474447632  Z M 2172.74039559154 605.962406490412  C 2172.50084481823 606.934437959697  2172.26454127306 607.907266811561  2172.03148891012 608.88087676755  L 2173.00401522442 609.113669739907  C 2173.23654923901 608.142225259157  2173.47232720464 607.171560145186  2173.71134517602 606.201690640316  L 2172.74039559154 605.962406490412  Z M 2173.71589996586 602.078602761956  C 2173.46770132295 603.048462124868  2173.22274267748 604.019147760229  2172.98102812844 604.990643425147  L 2173.95144250497 605.232088942476  C 2174.19261943947 604.262754050202  2174.43703325496 603.294227385954  2174.6846798616 602.326525156269  L 2173.71589996586 602.078602761956  Z M 2174.7259566373 598.203641380734  C 2174.46912981358 599.171251701518  2174.21553549965 600.139717118775  2173.96517793894 601.109021427064  L 2174.93340339779 601.359100336262  C 2175.18320412042 600.391951926739  2175.43623439719 599.4256405423  2175.69248999408 598.460182352563  L 2174.7259566373 598.203641380734  Z M 2175.77048548129 594.337829735093  C 2175.50505085001 595.303114256255  2175.24284098443 596.269282630229  2174.98386027212 597.236318690016  L 2175.94982000707 597.495011153118  C 2176.20822470192 596.530125947125  2176.46985136789 595.566106496951  2176.7346956271 594.60296893386  L 2175.77048548129 594.337829735093  Z M 2176.84940363867 590.481474487562  C 2176.57538225594 591.444356636128  2176.30457763896 592.408151323811  2176.03699431918 593.372842423178  L 2177.00061170371 593.640127918936  C 2177.26759987238 592.677582457693  2177.53780217351 591.715931414476  2177.81121408578 590.755190880618  L 2176.84940363867 590.481474487562  Z M 2177.96262552231 586.634881550522  C 2177.68003912535 587.595284944143  2177.40066123906 588.55662949072  2177.12449653834 589.51889910382  L 2178.08569513174 589.794756429326  C 2178.36124559491 588.834627068526  2178.64000209692 587.87542071693  2178.92195997336 586.917153424818  L 2177.96262552231 586.634881550522  Z M 2179.11006282385 582.798356061943  C 2178.81893382934 583.756204514925  2178.53100483592 584.715022659896  2178.2462806615 585.674794452994  L 2179.20498421497 585.959201725365  C 2179.48907511406 585.001564629112  2179.77636370414 584.044879059725  2180.0668451779 583.08916102575  L 2179.11006282385 582.798356061943  Z M 2180.29162452076 578.972202361175  C 2179.99197602303 579.927419890426  2179.69551876296 580.88363557385  2179.40225770112 581.840833411281  L 2180.35839016374 582.133768069393  C 2180.65099896276 581.178699203864  2180.94679685115 580.224610307754  2181.24577887931 579.27151734586  L 2180.29162452076 578.972202361175  Z M 2181.50721688349 575.156723964807  C 2181.19907265273 576.109234795913  2180.89411064299 577.062772164343  2180.5923359572 578.017320114601  L 2181.54582148204 578.318758920881  C 2181.84692496926 577.366334048673  2182.15120869127 576.414917510624  2182.45866755652 575.464525226667  L 2181.50721688349 575.156723964807  Z M 2182.75674348299 571.352223542592  C 2182.44012796327 572.30195211595  2182.12668539556 573.252735528205  2181.81642102464 574.20455787009  L 2182.76718397472 574.514476912358  C 2183.07675826454 573.564771586377  2183.38950368236 572.616102879085  2183.70541499493 571.668486664731  L 2182.75674348299 571.352223542592  Z M 2184.04010519828 567.559002893432  C 2183.71504350575 568.505873870001  2183.3931452444 569.453827903657  2183.07441580066 570.402849132035  L 2184.02238075498 570.721223825399  C 2184.34040128989 569.774313382671  2184.66158359436 568.828467761152  2184.98592229406 567.883702787705  L 2184.04010519828 567.559002893432  Z M 2185.35720022437 563.777362921444  C 2185.02371814508 564.721301189086  2184.69338972535 565.666350645723  2184.36622049254 566.612495477885  L 2185.31131225206 566.939300566695  C 2185.63775380448 565.995260122659  2185.96734751728 565.052312617736  2186.30008787532 564.110473830442  L 2185.35720022437 563.777362921444  Z M 2186.70940533534 560.007612212131  C 2186.5487836798 560.448320987445  2186.38885179961 560.889280854081  2186.22961028226 561.330490192176  C 2186.0494281153 561.831273910022  2185.87013528047 562.332377163863  2185.69173262552 562.833797584326  L 2186.63387621914 563.169007144175  C 2186.8118266863 562.668857647558  2186.99066480086 562.169024414944  2187.17038971763 561.669509808528  C 2187.32922144451 561.229437396813  2187.4887415123 560.78961372639  2187.64894933524 560.350040412272  L 2186.70940533534 560.007612212131  Z M 2188.09737972823 556.251408374454  C 2187.74620622659 557.188908732891  2187.39816493139 558.127579387172  2187.05326166638 559.067404630564  L 2187.99204087093 559.411924013334  C 2188.33617701203 558.474189102171  2188.6834442038 557.537606212153  2189.03383663546 556.602191015003  L 2188.09737972823 556.251408374454  Z M 2189.51875359343 552.507715475613  C 2189.15924419989 553.442050932626  2188.80285646532 554.377584536048  2188.44959635321 555.31430063149  L 2189.38526987036 555.667167560095  C 2189.73774427151 554.732534881605  2190.09333933873 553.799082065109  2190.45204912183 552.8668247301  L 2189.51875359343 552.507715475613  Z M 2190.97341417787 548.776830490846  C 2190.60559741114 549.707926928651  2190.24089150838 550.640249268165  2189.87930257211 551.573781909025  L 2190.81179617786 551.934968391657  C 2191.1725808784 551.003512087273  2191.53647561285 550.073263392139  2191.90347429209 549.144237872277  L 2190.97341417787 548.776830490846  Z M 2192.46124608796 545.059049379377  C 2192.08515112581 545.986832936987  2191.71215598574 546.915870054576  2191.34226690907 547.84614518661  L 2192.27150663167 548.215622571493  C 2192.64057301171 547.287416530631  2193.01273854674 546.360445750621  2193.3879970093 545.434725742495  L 2192.46124608796 545.059049379377  Z M 2193.98213129875 541.354667060945  C 2193.59778797559 542.279064140243  2193.21653318673 543.204742338352  2192.83837331176 544.131686165795  L 2193.76428543758 544.509425143467  C 2194.14160422023 543.584542997827  2194.5220110332 542.660923666438  2194.90549951099 541.738582604539  L 2193.98213129875 541.354667060945  Z M 2195.53594916323 537.663977392402  C 2195.14338796781 538.584914663889  2194.75390377387 539.50716051146  2194.36750309883 540.430699502786  L 2195.29001417822 540.816670108416  C 2195.67555543204 539.895185225834  2196.06417334637 538.974990611087  2196.45586141853 538.056101661675  L 2195.53594916323 537.663977392402  Z M 2197.122576422 533.987273144407  C 2196.72182849489 534.90467755318  2196.32414579251 535.823417891149  2195.9295349693 536.743478785071  L 2196.84857182238 537.137650400839  C 2197.24230496357 536.21963587985  2197.63910315152 535.302938977708  2198.03895974664 534.38757503339  L 2197.122576422 533.987273144407  Z M 2198.74188721296 530.324845978201  C 2198.33298434425 531.238644749419  2197.92713468028 532.153806697183  2197.52434501213 533.070316508128  L 2198.43983473464 533.472657865656  C 2198.84172852959 532.558186529498  2199.24667551447 531.645060058467  2199.65466891317 530.733293732219  L 2198.74188721296 530.324845978201  Z M 2200.39375308135 526.676986422468  C 2199.97672770801 527.587107067361  2199.56274327719 528.498618028084  2199.15180671614 529.411504052224  L 2200.0636766852 529.821983235052  C 2200.47369925298 528.911127625707  2200.88676291154 528.001644021438  2201.30286074907 527.093547640663  L 2200.39375308135 526.676986422468  Z M 2202.07804298991 523.043983850292  C 2201.6529281932 523.950354171934  2201.23084183564 524.85814183826  2200.81179097996 525.7673316593  L 2201.71996885982 526.185916105423  C 2202.13808767465 525.278748478212  2202.5592352399 524.372979887049  2202.98340450851 523.468625488187  L 2202.07804298991 523.043983850292  Z M 2203.79462332927 519.426126456198  C 2203.36145283222 520.328674555117  2202.93129803067 521.232666915141  2202.50416612234 522.138088409948  L 2203.40857987014 522.564744914394  C 2203.83476176396 521.66133723206  2204.26395982763 520.759355505695  2204.69616687931 519.858814828325  L 2203.79462332927 519.426126456198  Z M 2205.54335792859 515.823701233293  C 2205.10216609326 516.722355513152  2204.66397697048 517.622480856179  2204.22879789253 518.524062200479  L 2205.12937576401 518.958756917946  C 2205.56358692921 518.059180844874  2206.00080144432 517.161057534784  2206.4410119935 516.26440201586  L 2205.54335792859 515.823701233293  Z M 2207.32410806632 512.236993950498  C 2206.87492989102 513.131683123984  2206.42874120722 514.027870045798  2205.985549481 514.925539720083  L 2206.88222003619 515.368238167624  C 2207.32442602812 514.472565064412  2207.76962231193 513.578371415674  2208.21780143805 512.685672184116  L 2207.32410806632 512.236993950498  Z M 2209.13673248123 508.66628912988  C 2208.67960359783 509.556942224128  2208.22545074773 510.44911963312  2207.77428153023 511.34280642809  L 2208.6669736391 511.793473487846  C 2209.11713937902 510.901774405321  2209.57028211545 510.011581351608  2210.02639426593 509.122909222335  L 2209.13673248123 508.66628912988  Z M 2210.98108738358 505.111870024084  C 2210.51604405471 505.998416386374  2210.05396306474 506.886513509042  2209.5948521458 507.776146531324  L 2210.48349499394 508.234746453313  C 2210.94158477161 507.347092127145  2211.40263801431 506.460970284592  2211.86664700723 505.576395753157  L 2210.98108738358 505.111870024084  Z M 2212.85702646659 501.574018593859  C 2212.38410558261 502.456387897337  2211.91413310824 503.340334283673  2211.44711690765 504.225842961558  L 2212.33164000185 504.692339366507  C 2212.79761747847 503.808800211489  2213.26654465356 502.926819873319  2213.73841368055 502.046413110202  L 2212.85702646659 501.574018593859  Z M 2214.76440091797 498.053015485693  C 2214.28363999418 498.931137734834  2213.80581331686 499.81086326414  2213.33092888151 500.692177353067  L 2214.21126205536 501.166533235303  C 2214.68509026643 500.287179339782  2215.16185417541 499.409410470688  2215.6415458046 498.533241315754  L 2214.76440091797 498.053015485693  Z M 2216.70305943178 494.54914000955  C 2216.21449660543 495.42294554569  2215.7288536296 496.298380432187  2215.24613863058 497.175430020293  L 2216.12221205006 497.657607750675  C 2216.60385340827 496.782508871016  2217.088416231 495.909021101562  2217.57589240997 495.037159058543  L 2216.70305943178 494.54914000955  Z M 2218.67284822042 491.062670116715  C 2218.17652224766 491.93208962362  2217.68310149779 492.803164421892  2217.19259422736 493.675879935603  L 2218.06433839635 494.165841264506  C 2218.55375469469 493.295066819429  2219.04607799224 492.425929440797  2219.54130005111 491.558443671644  L 2218.67284822042 491.062670116715  Z M 2220.67361102681 487.593882377743  C 2220.16956127958 488.458846887155  2219.66840189721 489.325492497565  2219.17014126573 490.193804707162  L 2220.03748703155 490.691510767514  C 2220.53463944611 489.825129832894  2221.03468416417 488.960411790762  2221.53761281849 488.097371110469  L 2220.67361102681 487.593882377743  Z M 2222.70518913682 484.143051960518  C 2222.19345559976 485.003492857602  2221.68459734031 485.865640531825  2221.17862287318 486.72948055691  L 2222.04150143205 487.234891867273  C 2222.54635052533 486.372973170307  2223.05407699691 485.512743060092  2223.56467235096 484.654215930884  L 2222.70518913682 484.143051960518  Z M 2224.76779108562 480.710288233716  C 2224.71098328008 480.803758203491  2224.65420590375 480.897246662236  2224.59745896436 480.990753597219  C 2224.1353265841 481.753526527502  2223.67546480142 482.517672810589  2223.21787972326 483.283182298649  L 2224.07622262577 483.796258766355  C 2224.53272645236 483.032558140444  2224.99150128788 482.270217309062  2225.45254104167 481.509246392969  C 2225.50911123711 481.416030849733  2225.56571174046 481.322833703937  2225.62234254358 481.229654968969  L 2224.76779108562 480.710288233716  Z M 2226.86089012585 477.296984125837  C 2226.33422820398 478.14822777765  2225.81010339222 479.00103852019  2225.2885226679 479.855405000522  L 2226.14204094434 480.376467906305  C 2226.66258680234 479.523796571238  2227.18567170011 478.67267788716  2227.71128867407 477.82312318462  L 2226.86089012585 477.296984125837  Z M 2228.98103902672 473.900415686491  C 2228.44763128939 474.747448578585  2227.91674813272 475.596068667418  2227.38839662427 476.446264655448  L 2228.23774854888 476.974091623454  C 2228.76505175715 476.125582505989  2229.29488159057 475.278646161045  2229.82723099568 474.433293863628  L 2228.98103902672 473.900415686491  Z M 2231.12810398348 470.520797276593  C 2230.58798409452 471.363565951965  2230.05037609765 472.207941829587  2229.51528714981 473.053913668683  L 2230.36041911913 473.588471387213  C 2230.89444639906 472.744178037563  2231.43098772995 471.901477482906  2231.97003596913 471.060380941596  L 2231.12810398348 470.520797276593  Z M 2233.30194949265 467.158342187327  C 2232.7551515396 467.996793457937  2232.21085263149 468.836871835009  2231.66906001429 469.678566134978  L 2232.50991869117 470.219820867544  C 2233.05063633972 469.379796569994  2233.59385530647 468.54138498919  2234.1395683598 467.704597286518  L 2233.30194949265 467.158342187327  Z M 2235.50243836061 463.813262626682  C 2234.94899685247 464.647343576988  2234.39804138434 465.483071435346  2233.84957929089 466.320435075976  L 2234.68611160787 466.868352663438  C 2235.23348549979 466.032650432783  2235.78334781931 465.198580738845  2236.33569124628 464.366154685341  L 2235.50243836061 463.813262626682  Z M 2237.72943171225 460.485769706058  C 2237.16938157726 461.315427696399  2236.61180432052 462.146752292314  2236.05670736481 462.97973242677  L 2236.88886052748 463.534278289488  C 2237.44285611748 462.702950867687  2237.9993270873 461.87327569974  2238.55826602899 461.0452638306  L 2237.72943171225 460.485769706058  Z M 2239.98278899974 457.176073426944  C 2239.41616558323 458.001256096755  2238.85200172717 458.82812496448  2238.29030494192 459.656669022531  L 2239.11802643224 460.217808162546  C 2239.67860875707 459.390908015569  2240.2416532578 458.565679735176  2240.80715243897 457.742134307122  L 2239.98278899974 457.176073426944  Z M 2242.26236801139 453.884382667667  C 2241.68920707359 454.705037938759  2241.11849222308 455.527398893879  2240.55023105759 456.351454585198  L 2241.37346863722 456.919151588443  C 2241.94060231792 456.096730902827  2242.51018481528 455.276001590948  2243.08220854668 454.456974578798  L 2242.26236801139 453.884382667667  Z M 2244.56802488063 450.610905170205  C 2243.98836259427 451.426981250246  2243.41113276779 452.244782392592  2242.83634308557 453.064297710241  L 2243.65504479913 453.638516748777  C 2244.22869404335 452.820627428313  2244.80477859036 452.00444888206  2245.38329077101 451.189991975426  L 2244.56802488063 450.610905170205  Z M 2246.89961409509 447.355847527079  C 2246.31348704328 448.167292912629  2245.72977867034 448.980482630016  2245.14849674699 449.795405853502  L 2245.96261092538 450.376110687776  C 2246.54273952953 449.562804350278  2247.12528976888 448.751228079557  2247.7102538883 447.94139267963  L 2246.89961409509 447.355847527079  Z M 2249.25698850579 444.119415168315  C 2248.6644336796 444.926178648245  2248.07428359866 445.734705619394  2247.48654611946 446.544985318097  L 2248.29602138309 447.132139299233  C 2248.88259273464 446.323467273338  2249.47157190105 445.516544497477  2250.06295104151 444.71138171384  L 2249.25698850579 444.119415168315  Z M 2251.63999933641 440.901812348478  C 2251.04105413256 441.703843007138  2250.44449958863 442.507656205041  2249.85034364627 443.3132412414  L 2250.65512890834 443.906807313507  C 2251.24810598821 443.102820635274  2251.84347691051 442.300602280121  2252.44123374952 441.50016292736  L 2251.63999933641 440.901812348478  Z M 2254.04849619269 437.70324213378  C 2253.44319841126 438.500489354152  2252.84027705345 439.299538049416  2252.23974014576 440.100377582092  L 2253.03978461544 440.700318284607  C 2253.63913000016 439.901067694563  2254.24085510403 439.103604388733  2254.84495191646 438.307938983501  L 2254.04849619269 437.70324213378  Z M 2256.48232707192 434.523906389267  C 2255.87071491386 435.316319856281  2255.26146479319 436.110553620084  2254.65458482065 436.906597107294  L 2255.44983800632 437.512874577343  C 2256.05551387067 436.71841051691  2256.66355518046 435.925752589337  2257.27395384123 435.13491134679  L 2256.48232707192 434.523906389267  Z M 2258.94133837255 431.364005766078  C 2258.32345043732 432.151535469729  2257.70791000421 432.940904177122  2257.09472526763 433.732101379765  L 2257.88513698003 434.344677354556  C 2258.49710509914 433.555049963236  2259.11142424085 432.767247439251  2259.72808622701 431.981280270253  L 2258.94133837255 431.364005766078  Z M 2261.42537490385 428.22373968878  C 2260.801250187 429.00633592724  2260.17945828881 429.790789760396  2259.56000748692 430.577090745185  L 2260.34552784237 431.195926564421  C 2260.96374959433 430.411185676368  2261.58430779758 429.628288275077  2262.207194191 428.84724478278  L 2261.42537490385 428.22373968878  Z M 2263.93427989573 425.103306342787  C 2263.30395778641 425.880919725605  2262.67595366507 426.660409176838  2262.05027589204 427.441764319511  L 2262.83085531554 428.066820927828  C 2263.45529168371 427.287016068885  2264.08204978449 426.509073199666  2264.71112127415 425.733002676566  L 2263.93427989573 425.103306342787  Z M 2266.46789500862 422.002902661845  C 2265.83141528712 422.775484113023  2265.19723857658 423.549959987995  2264.56537331959 424.326319976409  L 2265.34096254798 424.957557925844  C 2265.97157412357 424.182738310253  2266.60449256648 423.409799069958  2267.23970945106 422.638750494622  L 2266.46789500862 422.002902661845  Z M 2269.02606034348 418.92272431561  C 2268.38346317863 419.690225076801  2267.74315390253 420.459638497425  2267.10514103921 421.230954334764  L 2267.87569112425 421.868333787242  C 2268.51243810869 421.098548314706  2269.15147694966 420.330661484243  2269.79279913993 419.564683518376  L 2269.02606034348 418.92272431561  Z M 2271.60861445186 415.862965697295  C 2270.95994039867 416.625337330699  2270.31353896752 417.389639738585  2269.66941876353 418.155862746276  L 2270.43488107502 418.799343476128  C 2271.07772328257 418.034640728575  2271.72284219117 417.271854770109  2272.37022921265 416.510995755348  L 2271.60861445186 415.862965697295  Z M 2272.38820236155 414.948943370632  C 2272.3448063713 414.999700051952  2272.30142046999 415.050465356406  2272.25804465837 415.101239283129  L 2273.0183708872 415.750780679625  C 2273.66726774746 414.991208918192  2274.31842600951 414.233571972005  2274.97183700497 413.477879926902  L 2272.38820236155 414.948943370632  Z M 2159.39684229984 737.017532659673  C 2159.42836472945 738.018029971525  2159.4628676725 739.018431155065  2159.50035066966 740.018722892267  L 2160.49964933034 739.981277107733  C 2160.46224070304 738.982970045488  2160.42780621715 737.984553754131  2160.39634633107 736.986041525116  L 2159.39684229984 737.017532659673  Z M 2278.30101935647 420.204675867771  L 2280 407  L 2267.08727495147 410.242149259548  L 2278.30101935647 420.204675867771  Z " fill-rule="nonzero" fill="#1f8aee" stroke="none" />
  </g>
</svg>