<?xml version="1.0" encoding="utf-8"?>
<svg version="1.1" xmlns:xlink="http://www.w3.org/1999/xlink" width="106px" height="106px" xmlns="http://www.w3.org/2000/svg">
  <g transform="matrix(1 0 0 1 -248 -1180 )">
    <path d="M 301 1180  C 330.68 1180  354 1203.32  354 1233  C 354 1262.68  330.68 1286  301 1286  C 271.32 1286  248 1262.68  248 1233  C 248 1203.32  271.32 1180  301 1180  Z " fill-rule="nonzero" fill="#ffffff" stroke="none" />
    <path d="M 301 1180.5  C 330.4 1180.5  353.5 1203.6  353.5 1233  C 353.5 1262.4  330.4 1285.5  301 1285.5  C 271.6 1285.5  248.5 1262.4  248.5 1233  C 248.5 1203.6  271.6 1180.5  301 1180.5  Z " stroke-width="1" stroke="#bbbbbb" fill="none" />
  </g>
</svg>