<?xml version="1.0" encoding="utf-8"?>
<svg version="1.1" xmlns:xlink="http://www.w3.org/1999/xlink" width="100px" height="100px" xmlns="http://www.w3.org/2000/svg">
  <g transform="matrix(1 0 0 1 -90 -3310 )">
    <path d="M 140 3310  C 168 3310  190 3332  190 3360  C 190 3388  168 3410  140 3410  C 112 3410  90 3388  90 3360  C 90 3332  112 3310  140 3310  Z " fill-rule="nonzero" fill="#ffffff" stroke="none" />
    <path d="M 140 3310.5  C 167.72 3310.5  189.5 3332.28  189.5 3360  C 189.5 3387.72  167.72 3409.5  140 3409.5  C 112.28 3409.5  90.5 3387.72  90.5 3360  C 90.5 3332.28  112.28 3310.5  140 3310.5  Z " stroke-width="1" stroke="#bbbbbb" fill="none" />
  </g>
</svg>