<?xml version="1.0" encoding="utf-8"?>
<svg version="1.1" xmlns:xlink="http://www.w3.org/1999/xlink" width="50px" height="50px" xmlns="http://www.w3.org/2000/svg">
  <g transform="matrix(1 0 0 1 -362 -4094 )">
    <path d="M 387 4094  C 401 4094  412 4105  412 4119  C 412 4133  401 4144  387 4144  C 373 4144  362 4133  362 4119  C 362 4105  373 4094  387 4094  Z " fill-rule="nonzero" fill="#ffffff" stroke="none" />
    <path d="M 387 4094.5  C 400.72 4094.5  411.5 4105.28  411.5 4119  C 411.5 4132.72  400.72 4143.5  387 4143.5  C 373.28 4143.5  362.5 4132.72  362.5 4119  C 362.5 4105.28  373.28 4094.5  387 4094.5  Z " stroke-width="1" stroke="#797979" fill="none" />
  </g>
</svg>