<?xml version="1.0" encoding="utf-8"?>
<svg version="1.1" xmlns:xlink="http://www.w3.org/1999/xlink" width="50px" height="50px" xmlns="http://www.w3.org/2000/svg">
  <g transform="matrix(1 0 0 1 -2067 -1371 )">
    <path d="M 2067 1371  L 2117 1371  L 2117 1421  L 2067 1421  L 2067 1371  " fill-rule="nonzero" fill="#cccccc" stroke="none" />
    <path d="M 2071 1375  L 2113 1375  L 2113 1417  L 2071 1417  L 2071 1375  " fill-rule="nonzero" fill="#ffffff" stroke="none" />
    <path d="M 2096.75 1386  C 2094.65 1386  2093 1384.35  2093 1382.25  C 2093 1380.15  2094.65 1378.5  2096.75 1378.5  C 2098.85 1378.5  2100.5 1380.15  2100.5 1382.25  C 2100.5 1384.35  2098.85 1386  2096.75 1386  " fill-rule="nonzero" fill="#cccccc" stroke="none" />
    <path d="M 2073 1416  L 2073 1394.55  L 2082.75 1384.8  L 2096.4 1392.6  L 2104.2 1390.65  L 2112 1392.6  L 2112 1416  L 2073 1416  " fill-rule="nonzero" fill="#169bd5" stroke="none" />
  </g>
</svg>