<?xml version="1.0" encoding="utf-8"?>
<svg version="1.1" xmlns:xlink="http://www.w3.org/1999/xlink" width="170px" height="170px" xmlns="http://www.w3.org/2000/svg">
  <g transform="matrix(1 0 0 1 -3840 -1529 )">
    <path d="M 3883.18375215269 1540.57213414657  C 3895.92318324511 1533.31716190528  3910.33385230435 1529.5  3925 1529.5  C 3971.6680613607 1529.5  4009.5 1567.3319386393  4009.5 1614  C 4009.5 1660.6680613607  3971.6680613607 1698.5  3925 1698.5  C 3878.3319386393 1698.5  3840.5 1660.6680613607  3840.5 1614  C 3840.5 1599.33385230435  3844.31716190528 1584.92318324511  3851.57213414656 1572.18375215269  L 3924.75 1614.43301270189  A 0.5 0.5 0 0 0 3925.43301270189 1613.75 L 3883.18375215269 1540.57213414657  Z " fill-rule="nonzero" fill="#ffffff" stroke="none" />
    <path d="M 3883.18375215269 1540.57213414657  C 3895.92318324511 1533.31716190528  3910.33385230435 1529.5  3925 1529.5  C 3971.6680613607 1529.5  4009.5 1567.3319386393  4009.5 1614  C 4009.5 1660.6680613607  3971.6680613607 1698.5  3925 1698.5  C 3878.3319386393 1698.5  3840.5 1660.6680613607  3840.5 1614  C 3840.5 1599.33385230435  3844.31716190528 1584.92318324511  3851.57213414656 1572.18375215269  L 3924.75 1614.43301270189  A 0.5 0.5 0 0 0 3925.43301270189 1613.75 L 3883.18375215269 1540.57213414657  Z " stroke-width="1" stroke="#797979" fill="none" />
  </g>
</svg>