<?xml version="1.0" encoding="utf-8"?>
<svg version="1.1" xmlns:xlink="http://www.w3.org/1999/xlink" width="112px" height="112px" xmlns="http://www.w3.org/2000/svg">
  <g transform="matrix(1 0 0 1 -3869 -1558 )">
    <path d="M 3925 1558  C 3956.36 1558  3981 1582.64  3981 1614  C 3981 1645.36  3956.36 1670  3925 1670  C 3893.64 1670  3869 1645.36  3869 1614  C 3869 1582.64  3893.64 1558  3925 1558  Z " fill-rule="nonzero" fill="#ffffff" stroke="none" />
    <path d="M 3925 1558.5  C 3956.08 1558.5  3980.5 1582.92  3980.5 1614  C 3980.5 1645.08  3956.08 1669.5  3925 1669.5  C 3893.92 1669.5  3869.5 1645.08  3869.5 1614  C 3869.5 1582.92  3893.92 1558.5  3925 1558.5  Z " stroke-width="1" stroke="#797979" fill="none" />
  </g>
</svg>